<svg xmlns="http://www.w3.org/2000/svg" viewBox="0 0 191.21 32.44"><defs><style>.a{fill:#4f5150;fill-rule:evenodd;}</style></defs><title>atv-fit-toyota</title><path class="a" d="M30.86,12c-.69-5.39-3.16-9.69-5.64-9.69-2.72,0-5,3.81-5.88,9.69H18.9c-5.39-1.14-8.31-2.72-8.31-4.75C10.58,4.3,16.87,2,24.78,2,32.89,2,39.62,4.3,39.62,7.22c0,2-3.37,4.06-8.76,4.75Zm19.34,4.26C50.21,7,39.17,0,25,0,11,0,0,7,0,16c0,9.25,11,16.42,25.22,16.42,13.71,0,25-7.18,25-16.22ZM27,30.42c2.92-2.68,4.3-7.42,4.3-14.4h0l.2-.24c7.22-.89,12.17-4.06,12.17-7.42V8.11a10.81,10.81,0,0,1,2.92,7.46C46.6,23.24,38,29.77,27,30.42ZM6.53,7.91c-.24.2-.24.2-.24.45,0,3.37,4.95,6.33,12.41,7.42l.2.24v.45c0,6.77,1.58,11.48,4.3,14C11.68,29.52,3.57,23.24,3.57,15.33a11.13,11.13,0,0,1,3-7.42Zm22.06,4.5H21.82l-.45-.24c.69-3.81,2-6.08,3.61-6.08,1.83,0,2.92,2,3.61,6.08v.24ZM29,16.22c-.2,5.43-1.78,9.25-3.81,9.25-2.27,0-3.85-3.81-4.06-9.25h.2c1.14,0,2.47.24,4.06.24A15.74,15.74,0,0,0,29,16.22Z"/><polygon class="a" points="74.33 9.25 67.12 9.25 67.12 27.74 61.93 27.74 61.93 9.25 54.95 9.25 54.95 4.99 74.33 4.99 74.33 9.25 74.33 9.25"/><path class="a" d="M94.13,16.46c0,4.5-2.68,7.66-6.53,7.66-4.06,0-6.73-2.92-6.73-7.66.2-4.5,2.68-7.66,6.73-7.66,3.85,0,6.53,3.16,6.53,7.66Zm5.43,0a12.07,12.07,0,1,0-24.13.2,12.07,12.07,0,1,0,24.13-.2Z"/><polygon class="a" points="114.2 19.39 114.2 27.74 109.01 27.74 109.01 19.39 100 4.99 105.85 4.99 111.48 14.44 117.32 4.99 123.41 4.99 114.2 19.39 114.2 19.39"/><path class="a" d="M141.9,16.46c0,4.5-2.47,7.66-6.53,7.66s-6.53-2.92-6.53-7.66c0-4.5,2.68-7.66,6.73-7.66,3.85,0,6.33,3.16,6.33,7.66Zm5.64,0a12.07,12.07,0,1,0-24.13.2,11.88,11.88,0,0,0,12,12,12.1,12.1,0,0,0,12.17-12.17Z"/><polygon class="a" points="168.01 9.25 160.84 9.25 160.84 27.74 155.65 27.74 155.65 9.25 148.67 9.25 148.67 4.99 168.01 4.99 168.01 9.25 168.01 9.25"/><path class="a" d="M178.84,9.94,182,18.7h-6.53l3.37-8.76ZM182,5h-6.33l-9.25,22.75h5.64l1.82-5h9.69l2,5h5.6L182,5Z"/></svg>