<svg xmlns="http://www.w3.org/2000/svg" viewBox="0 0 110.52 48.7"><defs><style>.a{fill:#4f5150;fill-rule:evenodd;}</style></defs><title>atv-fit-gmc</title><path class="a" d="M0,0V48.7H110.52V0ZM109,47.15H1.56V1.56H109V47.15ZM3.11,3.11V45.59H107.41V3.11ZM37.86,19H16.1a1.49,1.49,0,0,0-1.24,1.32h0v7.12h0c0,1.49.41,1.66,1.49,1.66H31.07c2.4,0,2.23-1.41,2.23-2.81h-8V21.85H37.86v7.28h0c0,3.39-3.48,4.47-4.8,4.47H14.94a4.68,4.68,0,0,1-4.63-4.22h0V19h0c0-1.9,2.32-4.39,4.63-4.39H37.86V19ZM71.34,33.6H66.87v-14l-8.21,14H54.61L46.46,19.2V33.6H42v-19h7.2l7.4,13.49,7.8-13.49h7v19ZM99.85,19h-19a1.49,1.49,0,0,0-1.24,1.32h0v7.12h0c0,1.49.41,1.66,1.49,1.66H99.85V33.6H79.68a4.68,4.68,0,0,1-4.63-4.22h0V19h0c0-1.9,2.32-4.39,4.63-4.39H99.85V19Z"/></svg>