<svg xmlns="http://www.w3.org/2000/svg" viewBox="0 0 163.9 62"><defs><style>.a{fill:#2d2d2d;fill-rule:evenodd;}</style></defs><title>atv-fit-ford-lg</title><path class="a" d="M82,62h0C36.68,62,0,48.15,0,31S36.68,0,82,0,163.9,13.9,163.9,31,127.22,62,82,62Zm0-3.17h0c43.55,0,78.81-12.37,78.81-27.8S125.53,3.12,82,3.12,3.22,15.65,3.22,31,38.53,58.83,82,58.83Zm0-2.17c42.13,0,76.32-11.47,76.32-25.64S124.1,5.44,82,5.44,5.71,16.91,5.71,31,39.8,56.66,82,56.66Zm20-20.51h0a6.85,6.85,0,0,1-5.23,2.22A2.63,2.63,0,0,1,94,35.26a2.6,2.6,0,0,1,1.69-2.43,2.81,2.81,0,0,0,2.91,2.11,3,3,0,0,0,2.8-3,2.73,2.73,0,0,0-2.85-2.75c-2-.11-3.44.79-5.55,3.22,0,0,.53-3.59-3.44-3.49a2.69,2.69,0,0,0-1.27.21c-2.17.69-5,4.18-7.19,6.87a8,8,0,0,0,.11-1.59,7.09,7.09,0,0,0-1.64-4.6A.78.78,0,0,0,79,29.6a1.35,1.35,0,0,0-1.27,1.48,5,5,0,0,1,1.22,3.12,11.93,11.93,0,0,1-.9,4.49c-2,3.44-4.55,5.66-7.61,5.18-1.64-.37-2.75-2-2.43-4.33a11.6,11.6,0,0,1,1.8-4.44A10.08,10.08,0,0,1,76.43,31a1,1,0,0,0-.26-1,1.09,1.09,0,0,0-1.11-.58c-4.49.16-7.24,3.38-8.83,6.55-.58,1.11-1.43,2.7-1.9,3.7a6.89,6.89,0,0,1-2.38,2.64c-1,.79-1.32,1.06-1.48,1a2.39,2.39,0,0,0,.79,1.32c.16.11.69-.21.9-.32,2.48-1.43,2.75-2.11,2.75-2.11.53,3,3.07,4.49,5.87,4.49,3.86,0,7.4-3.49,9.46-6.55a60.07,60.07,0,0,1,5.13-6.4,5.86,5.86,0,0,1,3.12-1.85,1,1,0,0,1,1,1.27,12.85,12.85,0,0,1-1.37,3.49h0l-5.76,9.78h4.49c2.59-4.86,2.7-5,5.23-9.67.69,2.59,2.06,3.59,4.28,3.65a8.75,8.75,0,0,0,4.65-.79,6.12,6.12,0,0,0,.32,4,4.3,4.3,0,0,0,4.18,2.8,12.79,12.79,0,0,0,7.08-2.17c.26,1.53,1,2.33,3,2.33,4-.11,7.45-4.18,9.57-6.82a5,5,0,0,0,.85-1.48c0-.32-.42-.53-.63-.53s-.58.48-.79.74c-1,1.06-5.18,5.39-7.45,5.5.48,0-.79.26-.9-.74a4.09,4.09,0,0,1,.69-1.85h0l11.31-20H124l-6.82,11.52h0c-.53-1.06-1.32-3.54-4.44-3.59-5.18-.05-7.19,3.49-10.78,6.87Zm3.17-22.78h0c0-.42,0-.85-1.06-.85s-.53.11-3.44.58a61.33,61.33,0,0,1-8.77.32,135.45,135.45,0,0,1-19.56-2.22A49.24,49.24,0,0,0,64,10.47c-13.16,0-18.5,5.29-18.55,10.52-.05,2.8,2,5.66,5.07,5.66,5.5,0,8.67-5.71,8.93-7.77a.63.63,0,0,0-.21-.63.57.57,0,0,0-.74.32c-.74,1.74-3.7,3.75-5.81,4.12-2,.37-3.28-.69-3.38-2.33-.21-4,4.33-8.4,14.53-8.4a51.64,51.64,0,0,1,10.68,1.74c3.75.85,11.89,4.6,19.71,4.6,5,0,10.94-3.22,10.94-4.92ZM113,31.77c-1.85-.21-4.18,1.37-6.08,3.7a11.39,11.39,0,0,0-2.11,4.7,3.68,3.68,0,0,0,.63,3c.48.37,2.59,1.48,5.87-1.85a30,30,0,0,0,3.65-4.86h0l-.58-.16h0c1.11-2.06.9-4.28-1.37-4.55ZM74.31,25.53h0A9.74,9.74,0,0,0,76,24.47a4.69,4.69,0,0,0,1.37-2.85,1.86,1.86,0,0,0-1.59-1.8c-1.69-.26-3,1.11-3.17,3.38a5.16,5.16,0,0,0,.21,1.27,68.33,68.33,0,0,1-6.87.79,32.66,32.66,0,0,1,8.56-9.88,5.68,5.68,0,0,0,.79-.85.61.61,0,0,0-.48-.85c-1.27-.05-7.4,4.49-12.16,11.79-1.22.16-6.29.58-8,2.48a1.88,1.88,0,0,0-.32.69c.11.42.42.63.9.26,1.06-1.22,5.34-1.69,6.34-1.74-6.24,8.77-12,14.54-17.12,14.54a5.81,5.81,0,0,1-1.64-.11A4.66,4.66,0,0,1,39.54,37a7.59,7.59,0,0,1,3.91-5.92c.48-.21.69-.48.69-.69s-.21-.53-.79-.53c-4.92,1.22-7.56,5.23-7.51,8.51.11,5.39,4.18,8.4,8.77,8.4,6.45,0,9.73-2.8,20.24-19.82,4.18-.42,6.24-.69,8.35-1.06a2.55,2.55,0,0,0,2.22,1.53c.26.05.21-.21.37-.79-.69-.05-1.48-.53-1.48-1.11ZM74,24.37s.53.05,1.32-.85a2.82,2.82,0,0,0,.74-1.9c-.05-.32-.21-.69-.58-.63A1.69,1.69,0,0,0,74,22.31a3.42,3.42,0,0,0,0,2.06Z"/></svg>