<svg xmlns="http://www.w3.org/2000/svg" viewBox="0 0 89.89 61.87"><defs><style>.a{fill:#4f5150;fill-rule:evenodd;}</style></defs><title>atv-fit-nissan</title><path class="a" d="M2.79,19A2.51,2.51,0,0,0,1,19.68a2.81,2.81,0,0,0-1,2V40.31a2.6,2.6,0,0,0,.77,1.84,2.7,2.7,0,0,0,2,.92H87.29a2.5,2.5,0,0,0,1.84-.92,2,2,0,0,0,.77-1.84V21.71a2.87,2.87,0,0,0-.77-2A2.58,2.58,0,0,0,87.29,19Zm19.14,5.17H25.8V37.9H21.94V24.12Zm-17,0h6.28l4.21,10.49V24.12h3.87V37.9H13.25L8.84,27.07V37.9H5V24.12Zm26.72,0h7.93v3.1H31.89v2.22h4c3.33,0,5,1.38,5,4.25a4.61,4.61,0,0,1-1.11,3.1A4.26,4.26,0,0,1,37,37.9H28.18V34.8h8.65V32.58H32.62a5,5,0,0,1-3.52-1.11A4.81,4.81,0,0,1,28,28c0-1.49.27-2.49.88-2.95a3.74,3.74,0,0,1,2.79-.92Zm21.9,0v3.1H45.86v2.22h4c3.33,0,5,1.38,5,4.25a4.21,4.21,0,0,1-1.26,3.1,3.61,3.61,0,0,1-2.76,1.11H42.38V34.8h8.46V32.58H46.59a4.68,4.68,0,0,1-3.87-1.49,4.75,4.75,0,0,1-.92-3.1A3.52,3.52,0,0,1,42.92,25a3.7,3.7,0,0,1,2.76-.92Zm5.7,0H65L70,37.9H65.93l-.73-2.56H59.3l-.73,2.56H54.52L59.3,24.12Zm11.41,0h6.47l4,10.49V24.12h4.06V37.9h-6L74.58,27.07V37.9H70.71V24.12Zm-10.3,8.27,1.84-5.17,1.84,5.17ZM28.71,4.79A29.94,29.94,0,0,1,45.14,0,30.23,30.23,0,0,1,72.55,17.11H17.5A30.86,30.86,0,0,1,28.71,4.79ZM17.5,44.91H72.55a29.73,29.73,0,0,1-11,12.33,30.16,30.16,0,0,1-16.39,4.63,30.29,30.29,0,0,1-16.42-4.63A30.61,30.61,0,0,1,17.5,44.91Z"/></svg>