<svg xmlns="http://www.w3.org/2000/svg" viewBox="0 0 225.2 35.66"><defs><style>.a{fill:#4f5150;fill-rule:evenodd;}</style></defs><title>atv-fit-dodge</title><path class="a" d="M221.58,20.94l-1.15,4.11H193.2c-2.14,0-2.47-2.14-2.06-3.95l2-7.24h30.27L222.24,18H198l-.74,3ZM193.86,10.82h30.27l1.07-4.11H198.47c-3.54,0-4.11,2.22-4.61,4.11ZM120.64,6.71l-1.07,4.11h23c3.7.08,3.33,3,3.13,4-.33,1.73-2.55,5.43-5.68,6.09h-17l1.64-6.5h-6l-2.71,10.61H142.2c6.17,0,9.87-7.65,10-10.53s.08-7.81-8.64-7.81ZM109,6.71H93.5l3,3.62h8.88c3.37,0,5.92.66,5.43,5s-4.69,6.09-8.23,6.09H91.94c-3.37,0-5.92-.66-5.43-5s6.42-6.09,10-6.09l-3-3.62c-2.63,0-11.43,2-12.83,10.12-.58,4,1.48,8.23,7.65,8.23h17.19a11.82,11.82,0,0,0,11.11-10.12c.58-4-1.48-8.23-7.65-8.23Zm81.85,4.11h0c.08-3-1.73-4.11-4.19-4.11H166.46c-2.63,0-11.43,2-12.83,10.12-.58,4,1.48,8.23,7.65,8.23h17.19a11.89,11.89,0,0,0,11.19-10.12,9.78,9.78,0,0,0,.25-1.07H169.35L168.28,18h13c-.84,2.27-2.43,3-5.08,3H164.9c-3.37,0-5.76-.15-5.43-4.52.25-3.29,4.52-5.59,8.06-5.59ZM47.27,6.71,46.2,10.82h23c3.7.08,3.33,3,3.13,4-.33,1.73-2.55,5.43-5.68,6.09h-17l1.65-6.5h-6L42.49,25.05H68.82c6.17,0,9.87-7.65,10-10.53s.08-7.81-8.64-7.81ZM17.16,0h0C10.82,0,6,.41,3.38.66A3.47,3.47,0,0,0,0,4.28C0,6.09.13,17.77.46,21.39c.08,2.55.41,4.81,2.92,6.54a68.77,68.77,0,0,0,13.78,7.73,68.83,68.83,0,0,0,13.78-7.73c2.51-1.73,2.84-4,2.92-6.54.33-3.62.49-15.3.45-17.11A3.47,3.47,0,0,0,30.94.66C28.31.41,23.49,0,17.16,0Zm0,1.32h0C11.44,1.4,6.22,1.65,4,2c-1.07.08-2.47.25-2.55,2.39-.16,3.45.25,14.81.45,17.81.25,2.59.67,3.31,2,4.44a70.41,70.41,0,0,0,13.24,7.57A70.4,70.4,0,0,0,30.4,26.61c1.35-1.13,1.77-1.85,2-4.44.21-3,.62-14.35.45-17.81-.08-2.14-1.48-2.3-2.55-2.39-2.22-.33-7.45-.58-13.16-.66ZM4.08,14.73c-.41-.12-.82-.08-1,.74a2.87,2.87,0,0,0,.08,1.81,2.56,2.56,0,0,0,.29,2,2.32,2.32,0,0,0,.62,1.85,2.43,2.43,0,0,0,1.11,1.73c-.33.16.8.89,1.32,1.07a6.3,6.3,0,0,0,2.43.16c.41,0,.53-.66.16-.95s-4.28-3.46-4.4-7.49a.85.85,0,0,0-.62-.91ZM16.46,8.6a1.59,1.59,0,0,0-1.19-.66,2.38,2.38,0,0,0-1.44-1A2.43,2.43,0,0,0,12.14,6c-.21-.37-2.14-.45-2.55-.2-.37-.21-1.93.12-2.1.62A4.08,4.08,0,0,0,5.35,8.64c-.21.37.21.49.41.25a3.57,3.57,0,0,1,2.59-.66c.86.29,3.08,1.36,5.72,5,.45.66,2,1.11,2.26-.29.36-1.73.7-3.7.12-4.36Zm13.78,6.13h0a.85.85,0,0,0-.62.91c-.12,4-4,7.2-4.4,7.49s-.25.95.16.95a6.3,6.3,0,0,0,2.43-.16c.52-.18,1.65-.91,1.32-1.07a2.43,2.43,0,0,0,1.11-1.73,2.32,2.32,0,0,0,.62-1.85,2.56,2.56,0,0,0,.29-2,2.87,2.87,0,0,0,.08-1.81c-.16-.82-.58-.86-1-.74ZM17.16,27.31h0a1.08,1.08,0,0,1-1.07-.16.79.79,0,0,0,.82-.86c0-.54-.16-.87-.7-.78s-.86-.08-.7-.95a4.56,4.56,0,0,0,.16-1.69l-.78-2.59c-.62-.08-1.32-.29-1.23-1.11a1.18,1.18,0,0,1,1.11.58c.12.2.49,0,.37-.25l-.21-.58c-.08-.25-.37-.37-.53-.45a2.65,2.65,0,0,0-1.11-.33c-.21-.62-.49-2.1.08-2.55.21-.12,0-.25-.16-.25a.84.84,0,0,1-.7-.49c-.21-.37-1.89-4.07-3.29-5.31a3.3,3.3,0,0,0-4.48.62A7,7,0,0,0,3.91,14a.39.39,0,0,0,.37.45,1.54,1.54,0,0,1,.58.29.6.6,0,0,1,.21.53A9.33,9.33,0,0,0,8.15,21c.49.33,1,0,1-.37s0-1.19-.41-1.4a2,2,0,0,0-.16-1.73c.21-.29.08-1.69-.33-1.89.21-.12.34-.74.33-.91-.08-.9.86-1.44,1.23-.53-.29.12-.66.45-.45,2.06l2.22,1.36a6.83,6.83,0,0,0,.37,2.51A7.73,7.73,0,0,0,13,22.83a6.37,6.37,0,0,1,1.4,3.41c.08.7.66.82,1,.91-.58.21-.29.66.08.87a3.22,3.22,0,0,0,1.6.53,3.21,3.21,0,0,0,1.6-.53c.37-.21.66-.66.08-.87.37-.08.95-.2,1-.91a6.36,6.36,0,0,1,1.4-3.41,7.74,7.74,0,0,0,1.11-2.72,6.82,6.82,0,0,0,.37-2.51L25,16.25c.21-1.6-.16-1.93-.45-2.06.37-.91,1.32-.37,1.23.53,0,.16.12.78.33.91-.41.21-.53,1.6-.33,1.89a2,2,0,0,0-.16,1.73c-.41.21-.41,1-.41,1.4s.49.7,1,.37a9.33,9.33,0,0,0,3.09-5.76.6.6,0,0,1,.21-.53,1.54,1.54,0,0,1,.58-.29A.39.39,0,0,0,30.4,14a7,7,0,0,0-.82-3.83,3.29,3.29,0,0,0-4.48-.62c-1.4,1.23-3.09,4.94-3.29,5.31a.84.84,0,0,1-.7.49c-.21,0-.37.12-.16.25.58.45.29,1.93.08,2.55a2.66,2.66,0,0,0-1.11.33c-.16.08-.45.2-.53.45l-.21.58c-.12.25.25.45.37.25a1.18,1.18,0,0,1,1.11-.58c.08.82-.62,1-1.23,1.11l-.78,2.59a4.57,4.57,0,0,0,.16,1.69c.16.86-.16,1-.7.95s-.7.25-.7.78a.79.79,0,0,0,.82.86,1.08,1.08,0,0,1-1.07.16Zm.7-18.71h0c-.58.66-.23,2.63.12,4.36.29,1.4,1.81.95,2.26.29,2.63-3.66,4.85-4.73,5.72-5a3.57,3.57,0,0,1,2.59.66c.21.25.62.12.41-.25a4.08,4.08,0,0,0-2.14-2.26c-.16-.49-1.73-.82-2.1-.62-.41-.25-2.35-.16-2.55.2a2.43,2.43,0,0,0-1.69.95,2.38,2.38,0,0,0-1.44,1,1.59,1.59,0,0,0-1.19.66Z"/></svg>