<svg xmlns="http://www.w3.org/2000/svg" viewBox="0 0 161.91 49.37"><defs><style>.a{fill:#4f5150;}</style></defs><title>atv-fit-chevy</title><path class="a" d="M110,49.37H50.82v-8H0l1.52-2.86L17.7,9H50.88L50.79,0l59.5,0,0,9.33h51.65l-1.86,3L141.73,41.38H110ZM52.69,47.51h55.4v-8l32.61,0,17.86-28.29H108.4l0-9.33-55.74,0v.06l.08,8.88h-34l0,0L3.1,39.52H52.69Zm93-30.21H102.41V8.56H60.83V17.3H23.57l-.29.56L16.06,31.74l-.76,1.47H60.52v8.94h41.24V33h35.33l.29-.47,9.12-13.68,1-1.57ZM66.91,22.76H62.62l-.93,1.77h4.19l-.6,1.12H61.11l-1.38,2.58H64l-.6,1.16H54.14L55.38,27l2.83-5.35h9.27l-.27.49-.31.58ZM56.62,21.69h0L55.38,24l-2.83,5.37h-5l2-3.73H48l-2,3.73H41.07l1-1.88,3.08-5.82h4.95l-1.51,2.85h1.55l1.51-2.85h5Zm24.44,0h0l-1.53,1.57-6,6.13H67l.25-1.53,1-6.17h5.12l-1.59,4.83h0a3.55,3.55,0,0,1-.16.54c-.08.23-.17.49-.27.76h.14a9.93,9.93,0,0,1,.66-.85c.19-.27.43-.52.64-.78h0l3.84-4.5h4.42ZM36.35,26.46H41.3l-.6,1.11h0a3.21,3.21,0,0,1-2.13,1.53,18.11,18.11,0,0,1-4.71.45,13.38,13.38,0,0,1-4.21-.43,1,1,0,0,1-.52-1.55h0l2.15-4.07h0A3.37,3.37,0,0,1,33.42,22a18.81,18.81,0,0,1,4.68-.45,15.72,15.72,0,0,1,4,.35c.1,0,.19.06.27.1a1,1,0,0,1,.54,1.53h0l-.47.85H37.46L38.2,23h0c.06-.14.06-.23-.06-.29a1.42,1.42,0,0,0-.62-.08,2,2,0,0,0-.68.08.65.65,0,0,0-.35.29h0l-2.66,5h0c-.08.14-.06.23,0,.29a1.43,1.43,0,0,0,.6.08,2.37,2.37,0,0,0,.72-.08.65.65,0,0,0,.35-.29h0l.81-1.55Zm76.55-4.77h0l-3.45,6.54h4.29l-.62,1.16h-9.25l.89-1.73,3.18-6Zm14.32,1.07h-4.29l-1,1.77h4.19l-.58,1.12H121.4L120,28.23h4.29l-.62,1.16h-9.27l4.07-7.7h9.27l-.12.19-.45.87Zm1.24-1.07h11.29l-.58,1.09H136l-3.49,6.62h-4.93l.1-.21,3.39-6.4H127.9l.56-1.09Zm-23,1.8h0l-.72,1.36-1.44,2.72h0a3.27,3.27,0,0,1-2.15,1.53,12.29,12.29,0,0,1-2.54.39q-1,.06-2.15.06a12.66,12.66,0,0,1-4.21-.45h0a1,1,0,0,1-.54-1.53h0l.56-1,1.59-3h0A3.36,3.36,0,0,1,96,22a13,13,0,0,1,2.6-.39c.64,0,1.32-.06,2.09-.06a13.93,13.93,0,0,1,4,.39l.19.06a1,1,0,0,1,.52,1.53ZM100.8,23,98.62,27.1l-.49.91h0a.54.54,0,0,1-.35.29,2.21,2.21,0,0,1-.72.08,1.31,1.31,0,0,1-.58-.08c-.1-.06-.12-.15,0-.29h0l2.17-4.11.49-.91h0a.59.59,0,0,1,.35-.29,2.09,2.09,0,0,1,.68-.08,1.47,1.47,0,0,1,.62.08c.1.06.12.16,0,.29Zm-10,2.54h0a.62.62,0,0,1,.35,1h0l-1,2h0a1.43,1.43,0,0,0-.14.47,1,1,0,0,0,.12.47H85.12a.76.76,0,0,1-.14-.45,1.14,1.14,0,0,1,.15-.52h0l.14-.27.89-1.69h0A.32.32,0,0,0,86,26a2.5,2.5,0,0,0-1.11-.17h-.08L83,29.39H78l1.53-2.91,2.52-4.79h5.82A17.6,17.6,0,0,1,92.1,22a.45.45,0,0,1,.16,0c.66.23.89.56.64,1h0l-.43.81h0a1,1,0,0,1-.21.29,2.75,2.75,0,0,1-1.24.64,12.3,12.3,0,0,1-3,.35h0l0,0h0a10.26,10.26,0,0,1,2.81.33Zm-3.94-.87-.12,0a6.5,6.5,0,0,1-1,.06h-.27l1.11-2.09h.17a5.63,5.63,0,0,1,1.11.08c.19.06.23.17.16.35h0l-.66,1.24h0a.71.71,0,0,1-.48.33Z"/></svg>