<svg xmlns="http://www.w3.org/2000/svg" viewBox="0 0 108 60.46"><defs><style>.a{fill:#fff;}</style></defs><title>builtusa-01</title><path class="a" d="M58.5,38.5H0V12.66L12.66,0H108V5.5H58.57V11H108v5.5H58.57V22H108v5.5H58.57V33H108v5.5H58.5ZM97,55H0v5.5H91.5Zm11-11H0v5.5H102.47ZM8.73,13.94h2.95V5.72H8.73Zm3.54,0h3.51L17,12.77V10.89L15.9,9.83,17,8.77V6.89L15.78,5.72H12.27V7.48H14V8.95H12.27v1.76H14v1.47H12.27Zm6.07-8.23v7.05l1.18,1.17h2.66V12.18h-.89V5.72Zm4.42,8.23h2.63l1.17-1.17V5.72H23.63v6.46h-.87Zm5.19,0h4.11V12.18h-.59V7.48h.59V5.72H27.95V7.48h.59v4.7h-.59Zm5.54,0h2.94V5.72H33.48Zm3.53,0h4.7V10.71H38.77v1.47H37Zm4.38-6.46h8.23V5.72H41.39ZM44,13.94H47V8.07H44ZM9,18.23h4.93v-.82H9Zm8.28,1.51h1.92v-.82h-.27V16.72h.27V15.9H17.3v.82h.27v2.19H17.3Zm6.58,0v-.82l-3-3H20v.82l3,3Zm-2.47,0V18.5L20,17.13v2.61Zm2.47-3.84H22.5v1.24l1.37,1.37Zm3.35.82h3.84V15.9H27.22Zm1.23,3h1.37V17H28.45Zm3.43,0h1.37V15.9H31.89Zm1.64-1.51h.82v1.51h1.37V15.9H34.35v1.51h-.82Zm3,1.51h1.37V18.23h1.92v-.82H37.94V15.9H36.57Zm1.64-3h1.92V15.9H38.21Zm0,3h1.92v-.82H38.21Zm5.27-1.51h4.93v-.82H43.48ZM8.63,21.58v9.79L10.26,33H14V30.56H12.71v-9ZM14.77,33h3.66l1.63-1.63V21.58H16v9H14.77Zm14.68,0h3.69l1.63-1.63V27.7l-1.63-1.63H27.43V24h1.24V21.58H25l-1.63,1.63v3.67L25,28.52h5.71v2H29.45Zm-.82-2.45H27.43v-.82H23.35v1.63L25,33h3.66ZM29.48,24h1.21v.82h4.08V23.21l-1.63-1.63H29.48Zm13.87,0V21.58H40.93l-2.87,2.86V33h4.08V25.24Zm-.41,6.53H45.4V33h4.08V24.44l-2.84-2.86H44.16V24l1.24,1.21v2.87H42.94ZM7.71,0H0V7.71Z"/></svg>