<svg xmlns="http://www.w3.org/2000/svg" viewBox="0 0 303.8 322.44"><defs><style>.a{fill:none;stroke:#fff;stroke-miterlimit:10;stroke-width:1.86px;}.b{font-size:40.51px;font-family:Sentinel-BlackItalic, Sentinel;font-style:italic;}.b,.e,.f{fill:#fff;}.c{letter-spacing:0.01em;}.d{letter-spacing:-0.01em;}.e{font-size:120.14px;font-family:Vitesse-Black, Vitesse;letter-spacing:0.06em;}</style></defs><title>builtusa-00</title><line class="a" x1="9.35" y1="153.32" x2="69.62" y2="153.32"/><line class="a" x1="225.53" y1="153.32" x2="286.51" y2="153.32"/><text class="b" transform="translate(67.93 33.58)"><tspan class="c">P</tspan><tspan class="d" x="27.1" y="0">r</tspan><tspan x="48.53" y="0">oudly</tspan></text><text class="b" transform="translate(92.13 165.89)">in the</text><text class="e" transform="translate(5.27 279.07)">USA</text><path class="f" d="M18.29,116c-3.69,1.2-5.38,1.14-7.19.22-2.73-1.35-5.18-5-8.35-14.7S-.55,87.41.86,84.72c.92-1.81,2.25-2.85,5.94-4.05l12.06-3.92c3.43-1.12,5.43-1.32,7.24-.4,2.48,1.26,4.35,4.95,6.55,11.38L22.5,91C21,86.88,20.57,86,20.1,85.72s-1-.12-2.3.3l-4.34,1.41c-1.56.51-2,.76-2.19,1.16s-.13,1.66,2.38,9.38,3.13,8.75,3.59,9,.89.16,2.45-.35L24,105.2c1.51-.49,1.87-.78,2-1.11s.11-1.21-1.23-5.85L35,94.94c2,6.59,2.69,10.68,1.43,13.15-.92,1.81-2.49,2.82-6.07,4Z"/><path class="f" d="M79.17,91.63l3.48-.74L84.37,99,74.71,101c-2.18.46-3,.27-3.79-.22C70,100.21,69.28,99,67.78,93c-.68-2.68-1-3.32-1.61-3.73s-1.23-.44-3-.07l-3.74.8,1.19,5.61,3.95-.84,1.72,8.1-18.43,3.92-1.72-8.1L50,97.84,45.7,77.69l-3.84.82-1.72-8.1L64.9,65.14c3.12-.66,5.25-.57,7,.53,2,1.27,2.9,3.18,3.86,7.7,1.37,6.44,0,8.36-4,10.09l0,.1c3.81.06,5.78.89,6.95,6.12C78.77,90.3,79,91,79.17,91.63ZM62.62,81.47c1.51-.32,2.06-.55,2.3-.92.36-.62.29-1.42-.1-3.29s-.67-2.63-1.25-3c-.38-.25-1-.23-2.48.09l-4.78,1,1.52,7.17Z"/><path class="f" d="M90.27,98l-.83-8.24,3.12-.31L98.61,63.2c.64-2.68,1.55-3.68,4.09-3.93l7.5-.75c2.53-.25,3.63.54,4.79,3l11.16,24.54,3.12-.31.83,8.24L112,95.84l-.81-8.08,3.38-.34-1.22-3.08-9.4.95-.53,3.25,3.38-.34.81,8.08Zm14.89-20.65,5.39-.54-3.24-8.32-.58.06Z"/><path class="f" d="M137.58,64.79l.13-8.28,32.64.53-.22,13.37-9.29-.15.08-5.2-8.54-.14-.11,6.85,7.7.12-.12,7.64-7.7-.12-.1,6.21,4.19.07L156.12,94l-19-.31.13-8.28,3.93.06.33-20.59Z"/><path class="f" d="M205.81,88.92,205,97.15l-19.38-2,.85-8.24,4.28.44,2.15-20.7-4.38-.45L187.77,73l-8.39-.87,1.54-14.84,36.38,3.77-1.54,14.84L207.35,75l.71-6.81-4.38-.45-2.15,20.7Z"/><path class="f" d="M227,71l1.7-8.11,32.37,6.81L258.3,83l-9.09-1.91,1.1-5.25L241.53,74l-1.3,6.18,7.53,1.58-1.57,7.48-7.53-1.58-1.41,6.7,8.94,1.88,1.25-5.92,9.09,1.91-2.93,13.92L221.07,99.3l1.7-8.11,3.84.81,4.24-20.16Z"/><path class="f" d="M302.65,85.41c1.64,3.21,1.73,7.25-1.12,16.09s-5.28,12.07-8.49,13.72c-2.81,1.44-5.75,1.22-10.85-.43l-20.36-6.56,2.54-7.88,3.74,1.2,6.32-19.6-3.74-1.2,2.54-7.88,20.36,6.56C298.69,81.07,301.21,82.6,302.65,85.41Zm-24.18,19.48,4.6,1.48c2.27.73,3.18.86,3.85.52s1.41-1.78,3.7-8.9,2.57-8.65,2.19-9.39-1.15-1.1-3.43-1.83l-4.6-1.48Z"/></svg>