<svg xmlns="http://www.w3.org/2000/svg" viewBox="0 0 185.48 58.37"><defs><style>.a{fill:#fff;}.b{fill:#231f20;}.c{fill:#a7a9ac;}</style></defs><title>builtusa-02</title><path class="a" d="M26.45,58.37C14.75,51.41,0,41.3,0,23.45V4.6A71.56,71.56,0,0,1,26.45,0,72.86,72.86,0,0,1,52.9,4.6V23.45C52.9,41.45,37.58,51.83,26.45,58.37Z"/><path class="b" d="M34.41,34c0-.4.33-1,.33-1.58s-.81-.87-1.44-1c-1.32-.18-1.76-.12-1.76-.42s.18-.41.42-.76a2.55,2.55,0,0,1,1.65-.77,14.39,14.39,0,0,1,2-.16,11.34,11.34,0,0,1,2,.19c.81.14.94.48.94.86v.38c0,.38-.31.58-.88.7l-.43.09c-.41.09-.92.17-1.1.68-.39,1.11-1.06,2-1.56,2A.21.21,0,0,1,34.41,34ZM35.58,16s-.22-.09-.22-.26.14-.4.43-.78c.66-.89,1.57-2,1.91-2,.16,0,.26.11.47.49a2.24,2.24,0,0,1,.22,1,4.94,4.94,0,0,1-1,2.95A8.67,8.67,0,0,0,35.58,16Zm-19.43,2.2c.3,0,.52-.2,1-.69,1-1.11,2-1.26,2-1.73a1.3,1.3,0,0,0-.28-.64,42.47,42.47,0,0,1-2.17-3.79c-.23-.44-.53-.74-.76-.74s-.76.43-1,.8a3.49,3.49,0,0,0-.64,1.65,11.6,11.6,0,0,0,.54,3.23C15.16,17.35,15.69,18.25,16.14,18.25Zm12.08,3.87a2,2,0,0,0-2.13-1.7A2.62,2.62,0,0,0,23.72,22a2.47,2.47,0,0,0,1.72,1.5c.15,0,.31.05.31.18s-.2.28-.61.28a3,3,0,0,1-2.44-1,9.54,9.54,0,0,1-1.22.2.54.54,0,0,1-.58-.61,1.77,1.77,0,0,1,.21-.77l.22-.43a3.9,3.9,0,0,1,1.71-2l.69-.41a3.45,3.45,0,0,1,2-.49h.59a2.62,2.62,0,0,1,1.89.63c.86.73,1.34,1.12,1.34,1.66A2.39,2.39,0,0,1,29,22.51a2.14,2.14,0,0,1-1.4.9c-.11,0-.14-.06-.14-.12s.09-.12.19-.2A2.27,2.27,0,0,0,28.22,22.12ZM34,40.66a10.84,10.84,0,0,1-2.65.17c-3,0-3.51-.74-3.51-1.32,0-1,4.3-1.67,6-1.67s2.34.52,2.34.92A2.73,2.73,0,0,1,34,40.66ZM16.71,49.45A95,95,0,0,0,26.45,56h0c0-2.94-.07-4.68,1.93-6.76l2.39-2.48c.57-.59,1-1,1.29-1s.28.1.28.36A6,6,0,0,0,33,48.47a3,3,0,0,0,2.2,1.7C43.77,43.76,50.9,35.36,50.9,23.41V6A70.28,70.28,0,0,0,26.45,2,70.27,70.27,0,0,0,2,6V23.41A27.63,27.63,0,0,0,5.65,37.24c.23-2.42,1.86-3.57,1.86-5.94,0-1.66-.47-2.71-.47-4.09,0-2.51,3.39-7.68,5.15-9.78.05-.06.17-.21.31-.21a.37.37,0,0,1,.3.21c.18.27.26.42.45.42s.27-.11.27-.28a14.67,14.67,0,0,1-.51-4c0-2,.46-2.42,1.7-3.63A2.74,2.74,0,0,1,16.29,9a2.09,2.09,0,0,1,1.55.9c.77.78,1.84,2.16,2,2.38a.23.23,0,0,0,.2.12c.35,0,.65-.11,2.19-.11a36.57,36.57,0,0,1,9.18,1.15,16.31,16.31,0,0,0,1.64.62c.14,0,.16-.09.16-.17s-.29-.37-.29-.56a.34.34,0,0,1,.21-.28,9.8,9.8,0,0,1,4.26-1.52c.74,0,1.1.64,1.41,1.27a4.28,4.28,0,0,1,.5,1.83,5.62,5.62,0,0,1-1.18,3.49c.25.26.6.64.82.9a2.9,2.9,0,0,1,.84,1.68,6,6,0,0,1-.21,1c0,.15-.17.45-.43.45s-.3-.26-.31-.49c0,0,0-.15,0-.17a2.62,2.62,0,0,0-2.21-2.56h-.21a2.22,2.22,0,0,0-1.73.7,1.65,1.65,0,0,0-.53,1.21,3.34,3.34,0,0,0,.48,1.21c.16.32.58,1.09.8,1.49a.8.8,0,0,0,.73.47c.7,0,1.3-.1,1.3-.31,0-.06,0-.11-.13-.11h-.22c-.91,0-1.4-1.16-1.85-2.21a1.94,1.94,0,0,1,1.46-.69,1.4,1.4,0,0,1,1.5,1.4,2.11,2.11,0,0,1-.19.87.41.41,0,0,0-.06.16c0,.12.16.15.4.21l.36.09a1.06,1.06,0,0,1,.67.63c.08.21.26.7.3.82a5.7,5.7,0,0,1,.39,1.88,5.44,5.44,0,0,1-.27,1.85,10.7,10.7,0,0,0-.45,2,2.45,2.45,0,0,1,.15.33,3.89,3.89,0,0,1,.36,1.58v.54a4,4,0,0,1-.86,2.45c-.35.47-.85,1.13-1.13,1.5a1,1,0,0,1-.72.38,2,2,0,0,1-.45-.08l-.7-.18a1.44,1.44,0,0,1-1-1.09l-.15-.38c-.15-.37-.23-.61-.46-.61s-.34.11-.51.37a2.79,2.79,0,0,1-2,1.51l-1.56.35a14.5,14.5,0,0,1-2.43.44l-.43,0a3.32,3.32,0,0,1-2.6-1.49c-1.51-1.8-1.35-2.05-1.44-4.48,0-.27-.1-.61-.38-.61s-.36.52-.45,1.25-.31,1.75-.73,1.75a2.72,2.72,0,0,1-.95-.19l-2.63-.88c-1-.32-1.91-.58-2.29-1.44l-.67-1.56c-.12-.28-.2-.42-.38-.42s-.32.31-.35.55-.1.91-.14,1.31a5.46,5.46,0,0,1-1.2,3.35c-.33.43-.64.87-1,1.35a5.7,5.7,0,0,0-1.18,3.94c0,.13,0,.84,0,1.17C11.15,44.19,11.88,45.59,16.71,49.45Z"/><path class="c" d="M39.44,24.09h0c.08.21.26.7.3.82a5.7,5.7,0,0,1,.39,1.88,5.44,5.44,0,0,1-.27,1.85,10.71,10.71,0,0,0-.45,2c-.08-.16-1.55-2.7-1.66-2.9a1.33,1.33,0,0,1-.21-.65c0-.26.11-.42.42-.61s.43-.26.6-.34a1.44,1.44,0,0,0,.94-1.38A4.36,4.36,0,0,0,39.44,24.09ZM33,28.15a1.79,1.79,0,0,1,.15.6.85.85,0,0,1-.3.72l-.39.35a1.43,1.43,0,0,0-.52.43c-.24.35-.42.56-.42.76a.17.17,0,0,0,.07.15,1,1,0,0,1-.41-.85c0-.27.09-.41.09-.66a1.93,1.93,0,0,0-.1-.54c-.41-1.36-1.09-3-1.52-4.09s-.77-1.74-1.26-1.74c-.27,0-.51.13-.8.13a2.14,2.14,0,0,0,1.4-.9,2.39,2.39,0,0,0,.51-1.69,1.09,1.09,0,0,0-.31-.72,8.16,8.16,0,0,1,1.43,2.32C31.57,24.36,32.36,26.49,33,28.15ZM11.08,41.32c0-.33,0-1,0-1.17a5.7,5.7,0,0,1,1.18-3.94c.36-.48.67-.92,1-1.35a5.46,5.46,0,0,0,1.2-3.35c0-.4.1-1,.14-1.31s.09-.55.35-.55.27.14.38.42L16,31.62c.38.87,1.31,1.12,2.29,1.44l2.63.88a2.72,2.72,0,0,0,.95.19c.42,0,.62-.89.73-1.75s.2-1.25.45-1.25.37.34.38.61c.09,2.43-.06,2.68,1.44,4.48a3.32,3.32,0,0,0,2.6,1.49,1.21,1.21,0,0,1-.75-1.27v-.87A3.34,3.34,0,0,1,27,34.19c.1-.24.22-.66.33-.92a1.47,1.47,0,0,0,.1-.87,5.07,5.07,0,0,0-.37-1.45c-.13-.41-.32-1-.49-1.49C26,27.93,25.8,27.57,24,27.33l-3.68-.52c-2-.29-3.64-.39-4.48-1.76-1-1.64-.89-3.63-1.85-3.63-.45,0-.69.51-.69,1.25s.29,2,.29,4.23a4.71,4.71,0,0,1-1.28,3.82c-.29.36-.67.89-.92,1.2a3.68,3.68,0,0,0-1.14,2.81A40.91,40.91,0,0,0,11.08,41.32Zm20.84,7.31c.07-.76.4-2,.4-2.54h0c0-.26-.09-.36-.28-.36s-.72.44-1.29,1l-2.39,2.48c-2,2.08-1.9,3.82-1.93,6.76h0c2.21-1.33,4.24-2.62,5.74-3.64A11.72,11.72,0,0,1,31.93,48.63Z"/><path class="a" d="M176.47,24h9c0-4.63-2.27-7.29-6.13-7.29S173,19.31,173,23.38c0,1.54.5,6.57,7,6.57a11.83,11.83,0,0,0,4.65-.78v-2.4a9.73,9.73,0,0,1-3.88.76C178.2,27.53,176.57,26.08,176.47,24Zm-12.75-4.72h1.76v7.19c0,2.17,1.56,3.52,4.07,3.52a11.14,11.14,0,0,0,2.72-.38V27.36a8.07,8.07,0,0,1-1.41.17c-1.56,0-2.17-.67-2.17-2.4V19.24h3.46V17h-3.46V14.21h-3.21V17h-1.76Zm-9.68.11a7.35,7.35,0,0,1,2.11-.41c1.9,0,2.74.8,2.74,2.6v.75h-1.68c-4.26,0-6.5,1.39-6.5,4,0,2.21,1.65,3.63,4.2,3.63a4.78,4.78,0,0,0,4.19-2.06h.09l.1,1.76h3.94V27.39h-1.34V21.64c0-3.29-1.95-5-5.79-5A10.81,10.81,0,0,0,151.33,18V21H154Zm-13-.11h1.76v7.19c0,2.17,1.56,3.52,4.07,3.52a11.14,11.14,0,0,0,2.72-.38V27.36a8.43,8.43,0,0,1-1.41.17c-1.56,0-2.17-.67-2.17-2.4V19.24h3.46V17H146V14.21h-3.21V17H141Zm-10.77,7.62v-2.2h-3V29A17.1,17.1,0,0,0,133,30c4.3,0,6.66-1.91,6.66-5.37s-2.58-4.49-5-5.13L133,19c-1.4-.35-2.11-1.11-2.11-2.24s.91-2.18,2.95-2.18A6.52,6.52,0,0,1,136,15v2.08h3V13.18a15.34,15.34,0,0,0-5.28-.87c-4.1,0-6.36,1.7-6.36,4.8,0,2.76,1.29,4.24,4.44,5.09l1.48.41c2.07.56,2.91,1.3,2.91,2.58s-1,2.2-2.85,2.2A13.18,13.18,0,0,1,130.28,26.87ZM82.84,24h9c0-4.63-2.27-7.29-6.13-7.29s-6.38,2.63-6.38,6.7c0,1.54.5,6.57,7,6.57A11.84,11.84,0,0,0,91,29.18v-2.4a9.73,9.73,0,0,1-3.88.76C84.57,27.53,82.94,26.09,82.84,24Zm19.49,5.69h6.1V27.39h-1.48V21.71c0-3.06-1.91-5-4.88-5a4.64,4.64,0,0,0-4.06,2h-.08L97.83,17h-4.5v2.27H95v8.14H93.6v2.27h6.1V27.39H98.22V22.31a2.76,2.76,0,1,1,5.52,0v5.08h-1.41Zm-37.84,0h6.77V27.39H69.56V23h2.76c3.9,0,6.23-1.94,6.23-5.19s-2.33-5.19-6.23-5.19H64.49v2.27H66.2V27.39H64.49Zm91.46-2c-1.5,0-2-.91-2-1.68,0-1.28,1.15-1.83,3.84-1.83h1.09v.13C158.85,26.62,157.35,27.68,156,27.68Zm20.49-5.84c.12-1.84,1.18-3,2.79-3A2.61,2.61,0,0,1,182,21.72v.13Zm-93.63,0c.15-1.92,1.18-3,2.78-3a2.61,2.61,0,0,1,2.75,2.92v.13ZM71.94,20.71H69.56V14.87h2.34a2.83,2.83,0,0,1,3.16,2.92A2.8,2.8,0,0,1,71.94,20.71Zm46.94,8.94H125V27.39H123.5V21.71c0-3.06-1.91-5-4.88-5a4.64,4.64,0,0,0-4.06,2h-.08L114.38,17h-4.5v2.27h1.68v8.14h-1.41v2.27h6.1V27.39h-1.48V22.31a2.76,2.76,0,1,1,5.52,0v5.08h-1.41Z"/></svg>