<svg xmlns="http://www.w3.org/2000/svg" viewBox="0 0 29 32.78"><defs><style>.a,.b{fill:none;stroke:#cbcdce;stroke-miterlimit:10;}.a{stroke-width:2px;}.b{stroke-width:1.83px;}</style></defs><title>bullet-arrow</title><path class="a" d="M15.09,31.64a1.3,1.3,0,0,1-1.17,0L1.59,24.52a1.3,1.3,0,0,1-.59-1V9.27a1.3,1.3,0,0,1,.59-1L13.91,1.14a1.3,1.3,0,0,1,1.17,0L27.41,8.26a1.3,1.3,0,0,1,.59,1V23.51a1.3,1.3,0,0,1-.59,1Z"/><polyline class="b" points="21.07 16.99 14.5 23.56 7.93 16.99"/><line class="b" x1="14.5" y1="23.56" x2="14.5" y2="7.86"/></svg>