<svg xmlns="http://www.w3.org/2000/svg" viewBox="0 0 33.2 38.21"><defs><style>.a{fill:#4f5150;}</style></defs><title>compare-03</title><path class="a" d="M9.36,30.4,7.84,33a.16.16,0,0,1-.21.06L.08,28.71A.16.16,0,0,1,0,28.58V22.76a.16.16,0,0,1,.16-.16h3a.16.16,0,0,1,.16.16v3.89a.16.16,0,0,0,.08.14l5.89,3.4A.16.16,0,0,1,9.36,30.4Zm7.13,3.94L10.63,31a.16.16,0,0,0-.21.06L8.91,33.63a.16.16,0,0,0,.06.21l7.52,4.34a.16.16,0,0,0,.16,0l7.52-4.34a.16.16,0,0,0,.06-.21L22.71,31A.16.16,0,0,0,22.5,31l-5.86,3.38A.16.16,0,0,1,16.49,34.34ZM3.41,11.42,9.27,8a.16.16,0,0,0,.06-.21L7.81,5.21a.16.16,0,0,0-.21-.06L.08,9.49A.16.16,0,0,0,0,9.63v5.82a.16.16,0,0,0,.16.16h3a.16.16,0,0,0,.16-.16V11.55A.16.16,0,0,1,3.41,11.42ZM16.64,3.87l5.89,3.4a.16.16,0,0,0,.21-.06L24.25,4.6a.16.16,0,0,0-.06-.21L16.64,0a.16.16,0,0,0-.16,0L8.93,4.38a.16.16,0,0,0-.06.21l1.51,2.62a.16.16,0,0,0,.21.06l5.89-3.4A.16.16,0,0,1,16.64,3.87ZM29.8,11.55v3.89a.16.16,0,0,0,.16.16h3a.16.16,0,0,0,.16-.16V9.63a.16.16,0,0,0-.08-.14L25.53,5.15a.16.16,0,0,0-.21.06L23.81,7.83a.16.16,0,0,0,.06.21l5.86,3.38A.16.16,0,0,1,29.8,11.55Zm-.08,15.23-5.89,3.4a.16.16,0,0,0-.06.21L25.29,33a.16.16,0,0,0,.21.06l7.55-4.36a.16.16,0,0,0,.08-.14V22.76A.16.16,0,0,0,33,22.6H30a.16.16,0,0,0-.16.16v3.89A.16.16,0,0,1,29.72,26.79ZM6.58,13.9l-.28-.28H5.48V14h.41v1.1H5.48v.41H6.3l.28-.28Zm-1.93-.28v1.93h.69V13.63Zm3.06,1.52V14h.14v-.41h-1V14H7v1.1H6.88v.41h1v-.41ZM9.6,13.63H9.18V14l.21.2v.48H9v.41h.42v.41h.69V14.11ZM9,14v-.41H8.63l-.48.48v1.45h.69V14.24Zm3.41-.41-.28.28v1.65h.69V13.63Zm-2.07.6v1.33h.69v-.64Zm.41-.6h-.41V14l1.24,1.24.41-.41V14l-.41.41Zm3.06,1.52V14h.21v-.41h-.62l-.28.28v1.38l.28.28h.62v-.41Zm1.24-1.24-.28-.28H14.2V14h.2v1.1h-.2v.41h.62l.28-.28Zm.72-.28h-.41V14l1.52,1.52h.41v-.41Zm-.41.62v1.31h.69v-.62Zm1.24,0,.69.69V13.63h-.69Zm1-.62v1.93h.69V13.63Zm1.93.28-.28-.28h-.83V14h.41v1.1h-.41v.41h.83l.28-.28Zm2.23.94-.25-.25.25-.25V13.9l-.28-.28h-.82V14h.41v.34h-.41v.41h.41v.34h-.41v.41h.82l.28-.28Zm-1.93-1.21v1.93h.69V13.63Zm3.68,0h-.42V14l.21.2v.48h-.42v.41h.42v.41H24V14.11ZM23,14v-.41h-.41l-.48.48v1.45h.69V14.24Zm2.37-.41V14h.2v.41h.69V13.9L26,13.63Zm.89,1.1h-.69v.41h-.2v.41H26l.28-.28ZM25,15.14V14h.21v-.41H24.6l-.28.28v1.38l.28.28h.62v-.41Zm3-.45-.41.41.45.45h.41v-.41Zm0-1.06-.69.69v.83l1.1-1.1v-.41Zm-1.52-.14v2.07h.69V13.49Zm-23.85,6v.75h-.9v.9H4.2V19.47ZM0,21.12h1.5V16.93H0Zm4.7-3.29H5v2.39h-.3v.9H6.8v-.9H6.5V17.83h.3v-.9H4.71Zm4.4,0H11.2v-.9H9.11Zm-.3-.9H7.31v4.19h1.5V19.47H10.9v-.9H8.81Zm4.7.9H15.6v-.9H13.51Zm1.8.75H13.21V16.93h-1.5v4.19h1.5V19.47H15.3Zm-1.8,2.54H15.6v-.9H13.51Zm4,0H19v-3h-1.5Zm-1.35-3.29H20.3v-.9H16.11Zm4.7,0h.3v2.39h-.3v.9H22.9v-.9h-.3V17.83h.3v-.9H20.81Zm6.49-.29v3.58h1.5V16.93h-.9Zm-3-.61h-.9v.9l2.69,2.69.9-.9v-1.8l-.9.9Zm-.9,4.19h1.5V19.72l-1.5-1.48Zm9.49-2.54H30.8V16.93h-1.5v4.19h1.5V19.47H32.9Zm-1.8-1.65v.9H33.2v-.9Zm0,3.29v.9H33.2v-.9ZM6.39,25.06l.18.18H7v-.63l-.18-.18V22.73h-.9v1.71l-.18.18v.62h.45Zm1.89-.45V22.73h-.9v1.71l-.18.18v.62h.45Zm-3.14.63h.45v-.63l-.18-.18V22.73H4.5v1.88Zm4.44-1.71.27-.27v-.54H9.3l-.63.63v1.88h.9Zm.72.63H9.74v.54h.54v.54h.9V23.36l-.62-.63H10v.54l.27.27Zm2.91,1.08h.9v-.75l-.32-.32.32-.32v-.75l-.36-.36H12.65v.54h.54v.63h-.54v.54h.54Zm-.72-2.51h-.9v2.51h.9Zm2.91,0h-.9v2.51h.9Zm.72,2.51H17v-.75l-.32-.32.32-.32v-.75l-.36-.36H15.56v.54h.54v.63h-.54v.54h.54ZM19,24.17h-.54v.54H19v.54h.9V23.36l-.62-.63h-.55v.54l.27.27Zm-.72-.63.27-.27v-.54H18l-.63.63v1.88h.9Zm4.52,1.71V24.7l-2-2H20.3v.54l2,2Zm0-2.51h-.9v.81l.9.9Zm-1.62,1.7-.9-.9v1.71h.9Zm4.52-1.7H23.21v.54h2.51ZM24,25.24h.9V23.45H24Zm4.61-1.7v-.81h-.9v.72l-.23.23.49.49Zm-1.7,1.7h.9v-1L27,23.45v-.72h-.9v.81l.81.81Z"/></svg>