<svg xmlns="http://www.w3.org/2000/svg" viewBox="0 0 38 22.71"><defs><style>.a{fill:#4f5150;}</style></defs><title>compare-01</title><path class="a" d="M10.85,19.08a3.63,3.63,0,1,1-3.63-3.63A3.63,3.63,0,0,1,10.85,19.08Zm16,0a3.63,3.63,0,1,0,3.63-3.63A3.63,3.63,0,0,0,26.84,19.08ZM38,8.87V15.7a.7.7,0,0,1-.7.7H34.84a5.11,5.11,0,0,0-9,.5h-14a5.12,5.12,0,0,0-9.7,1.35H.78A.79.79,0,0,1,0,17.45V10.37A.83.83,0,0,1,.1,10L2.8,5a.78.78,0,0,1,.68-.41H10a.79.79,0,0,1,.78.81v8.42H12V.7a.7.7,0,0,1,.7-.7H37.3a.7.7,0,0,1,.7.7V7.36H20.1l2.2-2.2L21.23,4.1l-4,4,4,4,1.07-1.07-2.2-2.2ZM8.83,6.11a.45.45,0,0,0-.44-.45H3.94a.44.44,0,0,0-.38.23L1.73,9.28a.45.45,0,0,0,.38.67H8.39a.45.45,0,0,0,.44-.45Z"/></svg>