<svg xmlns="http://www.w3.org/2000/svg" viewBox="0 0 27.84 28.17"><defs><style>.a,.d{fill:#4f5150;stroke:#4f5150;}.a,.b,.c,.d{stroke-linejoin:round;}.a,.b,.d{stroke-width:1.34px;}.b{fill:#4d4c4d;}.b,.c{stroke:#fff;}.c{fill:#fff;stroke-width:0.67px;}.d{stroke-linecap:square;}</style></defs><title>comp-04</title><ellipse class="a" cx="13.92" cy="14.09" rx="13.25" ry="13.42"/><path class="b" d="M13.17,3.54a10.32,10.32,0,0,1,7.26,2.28"/><path class="b" d="M3.48,13.71A10.59,10.59,0,0,1,8.9,4.78"/><path class="b" d="M21.92,20.89a10.52,10.52,0,0,1-2,1.83A10.36,10.36,0,0,1,5.4,20.2"/><path class="b" d="M23,8.8a10.67,10.67,0,0,1,1,2.49,10.79,10.79,0,0,1,.29,1.48"/><path class="b" d="M19.68,10.5a6.91,6.91,0,0,1-.35,7.67"/><path class="b" d="M9.18,18.93a6.86,6.86,0,0,1-2-5A6.79,6.79,0,0,1,14,7.23"/><path class="b" d="M16.13,20.52a6.7,6.7,0,0,1-4.5,0"/><ellipse class="c" cx="13.92" cy="14.09" rx="2.95" ry="2.99"/><line class="d" x1="13.92" y1="27.5" x2="27.17" y2="27.5"/></svg>