<svg xmlns="http://www.w3.org/2000/svg" viewBox="0 0 27.5 27.5"><defs><style>.a{fill:#4f5150;}</style></defs><title>comp-05</title><path class="a" d="M13.75,27.5A13.75,13.75,0,1,1,27.5,13.75,13.75,13.75,0,0,1,13.75,27.5Zm5.48-9.13-4.67-4.75,3.82-8.17-1.22-.57-4,8.59a.67.67,0,0,0,.13.76l5,5.09Zm6.52-5.29h-2v1.34h2Zm-22,0h-2v1.34h2ZM14.42,1.76H13.08v2h1.34Zm0,22H13.08v2h1.34ZM7.17,6.22,5.75,4.8l-1,1L6.22,7.17ZM22.7,21.75l-1.42-1.42-1,1,1.42,1.42ZM7.17,21.28l-1-1L4.8,21.75l1,1ZM22.7,5.75l-1-1L20.33,6.22l1,1Z"/></svg>