<svg xmlns="http://www.w3.org/2000/svg" viewBox="0 0 27.28 28.22"><defs><style>.a,.b,.e,.f{fill:none;}.a,.b,.c,.d,.e,.f{stroke:#4d4c4d;stroke-width:1.31px;}.a,.b,.c{stroke-linejoin:round;}.b,.c,.e,.f{stroke-linecap:round;}.c{fill:#4d4c4d;}.d{fill:#fff;}.d,.e,.f{stroke-miterlimit:10;}.f{stroke-dasharray:0 5.18;}</style></defs><title>comp-07</title><polyline class="a" points="26.62 0.66 26.62 0.66 0.67 0.66 0.67 0.66"/><line class="b" x1="16.86" y1="6.02" x2="16.86" y2="0.98"/><line class="b" x1="10.34" y1="6.02" x2="10.34" y2="0.98"/><polyline class="c" points="21.24 9.46 25.46 9.46 26.6 27.57 0.66 27.57 1.8 9.46 5.92 9.46"/><circle class="d" cx="13.63" cy="15.33" r="9.61" transform="translate(-6.85 14.14) rotate(-45.03)"/><line class="e" x1="8.97" y1="20" x2="8.97" y2="20"/><path class="f" d="M7,15.33a6.6,6.6,0,1,1,12.7,2.52"/><line class="e" x1="18.3" y1="19.99" x2="18.3" y2="19.99"/><path class="c" d="M10.76,12.35l3.43,5.36a.6.6,0,0,0,.52.27h0a1.59,1.59,0,0,0,1.52-1.47h0A.6.6,0,0,0,16,16l-5.23-3.63"/></svg>