<svg xmlns="http://www.w3.org/2000/svg" viewBox="0 0 27.5 28.2"><defs><style>.a{fill:#4f5150;}</style></defs><title>comp-06</title><path class="a" d="M17.3,22.08h10a.17.17,0,0,0,.17-.17V19.58a.17.17,0,0,0-.17-.17h-1V10.76a.17.17,0,0,0-.17-.17H.12V22.08H3.91a6.72,6.72,0,0,1,13.39,0Z"/><path class="a" d="M24.78,9.3v-9A.32.32,0,0,0,24.45,0H16a.32.32,0,0,0-.32.32v9Z"/><rect class="a" y="8.3" width="13.12" height="0.93"/><path class="a" d="M10.6,17.19a5.5,5.5,0,1,0,5.5,5.5A5.51,5.51,0,0,0,10.6,17.19Zm0,8.19a2.68,2.68,0,1,1,2.68-2.68A2.69,2.69,0,0,1,10.6,25.38Z"/><path class="a" d="M10.6,21.24a1.45,1.45,0,1,0,1.45,1.45A1.45,1.45,0,0,0,10.6,21.24Z"/><line class="a" x1="26.97" y1="18.8" x2="26.97" y2="18.8"/><path class="a" d="M27,18.8"/></svg>