<svg xmlns="http://www.w3.org/2000/svg" viewBox="0 0 27.46 26.85"><defs><style>.a{fill:#4f5150;}</style></defs><title>comp-02</title><path class="a" d="M.13,26.85H11.44a.13.13,0,0,0,.13-.13V.13A.13.13,0,0,0,11.44,0H.13A.13.13,0,0,0,0,.13V26.71A.13.13,0,0,0,.13,26.85Zm15.89,0H27.33a.13.13,0,0,0,.13-.13V.13A.13.13,0,0,0,27.33,0H16a.13.13,0,0,0-.13.13V26.71A.13.13,0,0,0,16,26.85Zm-3.12,0h1.66a.13.13,0,0,0,.13-.13V.13A.13.13,0,0,0,14.56,0H12.9a.13.13,0,0,0-.13.13V26.71A.13.13,0,0,0,12.9,26.85ZM4.25,14.78H3.06V12.07h1.2ZM23.33,4.89H20.63V3.7h2.71Z"/></svg>