<svg xmlns="http://www.w3.org/2000/svg" viewBox="0 0 27.46 31.98"><defs><style>.a{fill:#4f5150;}</style></defs><title>comp-01</title><path class="a" d="M27.46,31.49A.43.43,0,0,1,27,32H.44A.44.44,0,0,1,0,31.49L2.38,8.43a.56.56,0,0,1,.54-.49H24.42a.56.56,0,0,1,.55.49Z"/><path class="a" d="M17.61,15.87H9.86A4.06,4.06,0,0,1,5.8,11.81V4.06A4.06,4.06,0,0,1,9.86,0h7.75a4.06,4.06,0,0,1,4.06,4.06v7.75A4.06,4.06,0,0,1,17.61,15.87ZM9.86,3A1.11,1.11,0,0,0,8.75,4.06v7.75a1.11,1.11,0,0,0,1.11,1.11h7.75a1.11,1.11,0,0,0,1.11-1.11V4.06A1.11,1.11,0,0,0,17.61,3Z"/></svg>