<svg xmlns="http://www.w3.org/2000/svg" viewBox="0 0 38 21.27"><defs><style>.a{fill:#4f5150;}</style></defs><title>compare-02</title><path class="a" d="M20.58,13.55H0V4.45L4.45,0H38V1.94H20.61V3.87H38V5.81H20.61V7.74H38V9.68H20.61v1.94H38v1.94H20.58Zm13.55,5.79H0v1.94H32.2ZM38,15.48H0v1.94H36.05ZM3.07,4.91h1V2h-1Zm1.24,0H5.55L6,4.49V3.83l-.37-.37L6,3.09V2.42L5.55,2H4.32v.62h.62v.52H4.32v.62h.62v.52H4.32ZM6.45,2V4.49l.41.41H7.8V4.29H7.49V2ZM8,4.91h.93l.41-.41V2h-1V4.29H8Zm1.83,0h1.45V4.29h-.21V2.63h.21V2H9.83v.62H10V4.29H9.83Zm1.95,0h1V2h-1Zm1.24,0h1.65V3.77h-1v.52H13Zm1.54-2.27h2.89V2H14.56Zm.93,2.27h1V2.84h-1ZM3.17,6.41H4.91V6.12H3.17Zm2.91.53h.67V6.66h-.1V5.88h.1V5.59H6.09v.29h.1v.77h-.1Zm2.31,0V6.66L7.34,5.59H7v.29L8.11,6.94Zm-.87,0V6.51L7,6v.92ZM8.4,5.59H7.92V6l.48.48Zm1.18.29h1.35V5.59H9.58ZM10,6.94h.48V6H10Zm1.21,0h.48V5.59h-.48Zm.58-.53h.29v.53h.48V5.59h-.48v.53H11.8Zm1.07.53h.48V6.41H14V6.12h-.67V5.59h-.48Zm.58-1.06h.67V5.59h-.67Zm0,1.06h.67V6.66h-.67Zm1.85-.53H17V6.12H15.3ZM3,7.59V11l.57.57h1.3v-.86H4.47V7.59Zm2.16,4H6.48L7.06,11V7.59H5.62v3.16H5.2Zm5.17,0h1.3l.57-.57V9.75l-.57-.57h-2V8.45h.44V7.59H8.79l-.57.57V9.46l.57.57h2v.72h-.44Zm-.29-.86H9.65v-.29H8.21V11l.57.57h1.29Zm.3-2.3h.42v.29h1.44V8.17l-.57-.57H10.37Zm4.88,0V7.59H14.4l-1,1v3h1.44V8.88Zm-.14,2.3H16v.86h1.44v-3l-1-1h-.87v.86l.44.42v1h-.87ZM2.71,0H0V2.71Z"/></svg>