<svg xmlns="http://www.w3.org/2000/svg" viewBox="0 0 39.29 36.64"><defs><style>.a{fill:#4f5150;}</style></defs><title>comp-03</title><path class="a" d="M38.54,21.15H31.85V0h-.08L29.36,2.41V21.15h-2c0-.38-.6-.69-1.35-.69a2.47,2.47,0,0,0-.38,0l4.12,7.39,9-1.94a.75.75,0,0,0,.59-.73V21.9A.75.75,0,0,0,38.54,21.15Z"/><path class="a" d="M.75,21.15A.75.75,0,0,0,0,21.9v3.32a.75.75,0,0,0,.59.73l7.32,1.59-3.57-6.4Z"/><path class="a" d="M13.32,20.46c-.75,0-1.35.31-1.35.69H7.2l3.91,7h.11a.7.7,0,0,0-.06.09v0a1.24,1.24,0,0,1-.14,1.4V36a.64.64,0,0,0,.64.64h3.86a.64.64,0,0,0,.64-.64V31A2.87,2.87,0,0,1,18,28.36l-4.38-7.87A2.42,2.42,0,0,0,13.32,20.46Z"/><path class="a" d="M27.73,29.48l-4.65-8.34H16.86l3.94,7.07A2.87,2.87,0,0,1,23.1,31v5a.64.64,0,0,0,.64.64h3.86a.64.64,0,0,0,.64-.64V30A1.23,1.23,0,0,1,27.73,29.48Z"/></svg>