<svg xmlns="http://www.w3.org/2000/svg" xmlns:xlink="http://www.w3.org/1999/xlink" viewBox="0 0 102 92.96"><defs><style>.a,.c{fill:none;}.b{clip-path:url(#a);}.c{stroke:#fff;stroke-linecap:round;stroke-miterlimit:10;stroke-width:2px;}</style><clipPath id="a" transform="translate(0 0)"><rect class="a" width="102" height="92.96"/></clipPath></defs><title>culture-03</title><g class="b"><line class="c" x1="11.2" y1="48.03" x2="1" y2="37.75"/><path class="c" d="M55.49,72.53l7.83,7.83a5.83,5.83,0,0,1,0,8.25l-1.65,1.65a5.83,5.83,0,0,1-8.25,0l-2.37-2.37" transform="translate(0 0)"/><path class="c" d="M65.39,62.63l7.83,7.83a5.83,5.83,0,0,1,0,8.25l-1.65,1.65a5.83,5.83,0,0,1-8.25,0l-7.83-7.83" transform="translate(0 0)"/><path class="c" d="M75.28,52.74l7.83,7.83a5.83,5.83,0,0,1,0,8.25l-1.65,1.65a5.83,5.83,0,0,1-8.25,0l-7.83-7.83" transform="translate(0 0)"/><polyline class="c" points="50.85 14.41 43.58 7.37 23.79 7.37 17.04 1"/><path class="c" d="M75.44,52.65l7.83,7.83a5.83,5.83,0,0,0,8.25,0l1.65-1.65a5.83,5.83,0,0,0,0-8.25L75.36,33" transform="translate(0 0)"/><path class="c" d="M8.9,50.67a5.83,5.83,0,0,0,0,8.25l1.65,1.65a5.83,5.83,0,0,0,8.25,0,5.83,5.83,0,0,0,0,8.25l1.65,1.65a5.83,5.83,0,0,0,8.25,0,5.83,5.83,0,0,0,0,8.25l1.65,1.65a5.83,5.83,0,0,0,8.25,0,5.83,5.83,0,0,0,0,8.25l1.65,1.65a5.83,5.83,0,0,0,8.25,0l3.09-3.09a5.83,5.83,0,0,0,0-8.25l-1.65-1.65a5.83,5.83,0,0,0-8.25,0,5.83,5.83,0,0,0,0-8.25L40,67.37a5.83,5.83,0,0,0-8.25,0,5.83,5.83,0,0,0,0-8.25l-1.65-1.65a5.83,5.83,0,0,0-8.25,0,5.83,5.83,0,0,0,0-8.25l-1.65-1.65a5.83,5.83,0,0,0-8.25,0Z" transform="translate(0 0)"/><line class="c" x1="18.8" y1="60.57" x2="21.89" y2="57.48"/><line class="c" x1="28.69" y1="70.47" x2="31.78" y2="67.37"/><line class="c" x1="38.59" y1="80.36" x2="41.68" y2="77.27"/><line class="c" x1="90.54" y1="48.2" x2="101" y2="37.75"/><path class="c" d="M84.38,1,78.23,7.37H58.43l-16.9,16.9L32,33.75l5.77,5.77a5.83,5.83,0,0,0,8.25,0L59.26,26.33A23.33,23.33,0,0,0,90.8,27.66" transform="translate(0 0)"/><path class="c" d="M87.56,24.29a18.69,18.69,0,0,1-23.58,0" transform="translate(0 0)"/><line class="c" x1="11.06" y1="54.08" x2="15.87" y2="58.89"/><line class="c" x1="21.12" y1="64.14" x2="25.93" y2="68.95"/><line class="c" x1="30.3" y1="73.76" x2="35.11" y2="78.57"/><line class="c" x1="40.36" y1="83.81" x2="45.17" y2="88.62"/></g></svg>