<svg xmlns="http://www.w3.org/2000/svg" xmlns:xlink="http://www.w3.org/1999/xlink" viewBox="0 0 114.47 103.32"><defs><style>.a,.b{fill:none;}.b{stroke:#fff;stroke-miterlimit:10;stroke-width:2px;}.c{clip-path:url(#a);}</style><clipPath id="a" transform="translate(0 0)"><rect class="a" width="114.47" height="103.32"/></clipPath></defs><title>culture-01</title><line class="b" x1="14.83" y1="47.13" x2="38.42" y2="47.13"/><line class="b" x1="14.83" y1="60.29" x2="45" y2="60.29"/><line class="b" x1="14.83" y1="73.45" x2="54.87" y2="73.45"/><g class="c"><polygon class="b" points="113.43 1.04 43.32 3.74 49.27 51.59 87.44 54.66 102.57 67.49 102.57 55.98 111.11 56.63 113.43 1.04"/><polyline class="b" points="68.36 54.33 65.87 84.78 26.44 87.92 12.14 101.04 12.14 87.92 4.04 87.92 1.06 33.79 46.65 35.91"/><path class="b" d="M80.74,41.83,92.15,26.71a7.11,7.11,0,0,0-11.42-8.47,7.11,7.11,0,0,0-11.42,8.47L80.74,41.83Z" transform="translate(0 0)"/></g></svg>