<svg xmlns="http://www.w3.org/2000/svg" xmlns:xlink="http://www.w3.org/1999/xlink" viewBox="0 0 102 101.36"><defs><style>.a,.b{fill:none;}.b{stroke:#fff;stroke-linejoin:round;stroke-width:2px;}.c{clip-path:url(#a);}</style><clipPath id="a"><rect class="a" width="102" height="101.36"/></clipPath></defs><title>culture-02</title><line class="b" x1="51" y1="96.83" x2="51" y2="22.15"/><g class="c"><polygon class="b" points="43.31 81.13 43.31 100.36 51 96.83 51 77.6 43.31 81.13"/></g><line class="b" x1="43.31" y1="87.54" x2="51" y2="84.01"/><line class="b" x1="43.31" y1="93.95" x2="51" y2="90.42"/><g class="c"><polygon class="b" points="58.69 81.13 58.69 100.36 51 96.83 51 77.6 58.69 81.13"/></g><line class="b" x1="58.69" y1="87.54" x2="51" y2="84.01"/><line class="b" x1="58.69" y1="93.95" x2="51" y2="90.42"/><g class="c"><polygon class="b" points="51 1 43.31 20.23 50.04 22.15 51.96 22.15 58.69 20.23 51 1"/></g><line class="b" x1="29.85" y1="4.53" x2="29.85" y2="79.2"/><g class="c"><polygon class="b" points="37.54 20.23 37.54 1 29.85 4.53 29.85 23.76 37.54 20.23"/></g><line class="b" x1="37.54" y1="13.82" x2="29.85" y2="17.35"/><line class="b" x1="37.54" y1="7.41" x2="29.85" y2="10.94"/><g class="c"><polygon class="b" points="22.15 20.23 22.15 1 29.85 4.53 29.85 23.76 22.15 20.23"/></g><line class="b" x1="22.15" y1="13.82" x2="29.85" y2="17.35"/><line class="b" x1="22.15" y1="7.41" x2="29.85" y2="10.94"/><g class="c"><polygon class="b" points="29.85 100.36 37.54 81.13 30.81 79.2 28.88 79.2 22.15 81.13 29.85 100.36"/></g><line class="b" x1="8.69" y1="4.53" x2="8.69" y2="79.2"/><g class="c"><polygon class="b" points="16.39 20.23 16.39 1 8.69 4.53 8.69 23.76 16.39 20.23"/></g><line class="b" x1="16.38" y1="13.82" x2="8.69" y2="17.35"/><line class="b" x1="16.38" y1="7.41" x2="8.69" y2="10.94"/><g class="c"><polygon class="b" points="1 20.23 1 1 8.69 4.53 8.69 23.76 1 20.23"/><line class="b" x1="1" y1="13.82" x2="8.69" y2="17.35"/><line class="b" x1="1" y1="7.41" x2="8.69" y2="10.94"/><polygon class="b" points="8.69 100.36 16.38 81.13 9.65 79.2 7.73 79.2 1 81.13 8.69 100.36"/></g><line class="b" x1="72.15" y1="4.53" x2="72.15" y2="79.2"/><g class="c"><polygon class="b" points="64.46 20.23 64.46 1 72.15 4.53 72.15 23.76 64.46 20.23"/></g><line class="b" x1="64.46" y1="13.82" x2="72.15" y2="17.35"/><line class="b" x1="64.46" y1="7.41" x2="72.15" y2="10.94"/><g class="c"><polygon class="b" points="79.85 20.23 79.85 1 72.15 4.53 72.15 23.76 79.85 20.23"/></g><line class="b" x1="79.85" y1="13.82" x2="72.15" y2="17.35"/><line class="b" x1="79.85" y1="7.41" x2="72.15" y2="10.94"/><g class="c"><polygon class="b" points="72.15 100.36 64.46 81.13 71.19 79.2 73.12 79.2 79.85 81.13 72.15 100.36"/></g><line class="b" x1="93.31" y1="4.53" x2="93.31" y2="79.2"/><g class="c"><polygon class="b" points="85.61 20.23 85.61 1 93.31 4.53 93.31 23.76 85.61 20.23"/></g><line class="b" x1="85.62" y1="13.82" x2="93.31" y2="17.35"/><line class="b" x1="85.62" y1="7.41" x2="93.31" y2="10.94"/><g class="c"><polygon class="b" points="101 20.23 101 1 93.31 4.53 93.31 23.76 101 20.23"/><line class="b" x1="101" y1="13.82" x2="93.31" y2="17.35"/><line class="b" x1="101" y1="7.41" x2="93.31" y2="10.94"/><polygon class="b" points="93.31 100.36 85.62 81.13 92.35 79.2 94.27 79.2 101 81.13 93.31 100.36"/></g></svg>