<svg xmlns="http://www.w3.org/2000/svg" xmlns:xlink="http://www.w3.org/1999/xlink" viewBox="0 0 102.64 102"><defs><style>.a,.b{fill:none;}.b{stroke:#fff;stroke-linecap:round;stroke-linejoin:round;stroke-width:2px;}.c{clip-path:url(#a);}.d{fill:#fff;}</style><clipPath id="a" transform="translate(0 0)"><rect class="a" width="102.64" height="102"/></clipPath></defs><title>culture-06</title><line class="b" x1="97.83" y1="36.24" x2="97.83" y2="43.86"/><g class="c"><line class="b" x1="94.02" y1="40.05" x2="101.64" y2="40.05"/></g><line class="b" x1="37.83" y1="10.84" x2="37.83" y2="18.46"/><line class="b" x1="34.02" y1="14.65" x2="41.64" y2="14.65"/><line class="b" x1="57.83" y1="34.33" x2="57.83" y2="41.95"/><line class="b" x1="54.02" y1="38.14" x2="61.64" y2="38.14"/><line class="b" x1="15.29" y1="23.22" x2="15.29" y2="30.84"/><line class="b" x1="11.48" y1="27.03" x2="19.1" y2="27.03"/><g class="c"><polygon class="b" points="100.68 58.78 1 52.11 1 47.98 100.68 54.65 100.68 58.78"/></g><rect class="b" x="9.25" y="64.49" width="7.62" height="12.7"/><rect class="d" x="24.49" y="64.49" width="7.62" height="12.7"/><rect class="b" x="24.49" y="64.49" width="7.62" height="12.7"/><rect class="b" x="54.33" y="64.49" width="7.62" height="12.7"/><rect class="b" x="69.57" y="64.49" width="7.62" height="12.7"/><rect class="b" x="84.81" y="64.49" width="7.62" height="12.7"/><rect class="b" x="39.1" y="64.49" width="7.62" height="12.7"/><rect class="b" x="9.25" y="82.9" width="7.62" height="12.7"/><rect class="b" x="24.49" y="82.9" width="7.62" height="12.7"/><rect class="b" x="54.33" y="82.9" width="7.62" height="12.7"/><rect class="b" x="39.1" y="82.9" width="7.62" height="12.7"/><g class="c"><path class="b" d="M72.43,13.7A12.69,12.69,0,0,0,61.56,7.13a12.7,12.7,0,1,1,10.6,19.27A12.69,12.69,0,0,0,72.43,13.7Z" transform="translate(0 0)"/><rect class="b" x="84.81" y="82.9" width="7.62" height="12.7"/><polyline class="b" points="77.19 101 77.19 82.91 69.57 82.91 69.57 101"/><polyline class="b" points="2.9 52.11 2.9 101 98.78 101 98.78 59.09"/></g></svg>