<svg xmlns="http://www.w3.org/2000/svg" xmlns:xlink="http://www.w3.org/1999/xlink" viewBox="0 0 102 102.77"><defs><style>.a,.c{fill:none;}.b{clip-path:url(#a);}.c{stroke:#fff;stroke-linecap:round;stroke-linejoin:round;stroke-width:2px;}</style><clipPath id="a"><rect class="a" width="102" height="102.76"/></clipPath></defs><title>culture-04</title><g class="b"><path class="c" d="M60.29,78.37l.45-5a18.27,18.27,0,0,1,3.9-11.28L68,57.87c.29-.37.61-.73.93-1.08A24.36,24.36,0,0,0,52.45,15.94q-.81,0-1.61,0A24.36,24.36,0,0,0,33.15,56.83c.42.45.8.92,1.18,1.4l3,3.86a18.27,18.27,0,0,1,3.9,11.28l.45,5Z"/><line class="c" x1="58.69" y1="81.58" x2="58.69" y2="78.95"/><line class="c" x1="43.31" y1="78.37" x2="43.31" y2="81.57"/><line class="c" x1="61.58" y1="82.21" x2="40.42" y2="82.21"/><line class="c" x1="58.69" y1="85.42" x2="58.69" y2="82.79"/><line class="c" x1="43.31" y1="82.21" x2="43.31" y2="85.42"/><line class="c" x1="61.58" y1="86.06" x2="40.42" y2="86.06"/><polyline class="c" points="56.13 86.06 56.13 89.91 45.87 89.91 45.87 86.06"/><circle class="c" cx="90.56" cy="51.6" r="3.73"/><path class="c" d="M101,54.33V48.86H98.56A8.44,8.44,0,0,0,96.92,46l1.22-2.12-4.74-2.73L92.19,43.3a8.49,8.49,0,0,0-3.26,0l-1.22-2.11L83,43.92,84.19,46a8.44,8.44,0,0,0-1.63,2.82H80.12v5.47h2.44a8.44,8.44,0,0,0,1.63,2.82L83,59.27,87.71,62l1.22-2.12a8.44,8.44,0,0,0,3.26,0L93.41,62l4.74-2.73-1.22-2.12a8.44,8.44,0,0,0,1.63-2.82Z"/><circle class="c" cx="11.44" cy="51.87" r="3.73"/><path class="c" d="M1,54.61V49.14H3.44a8.44,8.44,0,0,1,1.63-2.82L3.85,44.2l4.74-2.73,1.22,2.11a8.49,8.49,0,0,1,3.26,0l1.22-2.11L19,44.2l-1.22,2.12a8.44,8.44,0,0,1,1.63,2.82h2.44v5.47H19.44a8.44,8.44,0,0,1-1.63,2.82L19,59.55l-4.74,2.73-1.22-2.12a8.44,8.44,0,0,1-3.26,0L8.59,62.28,3.85,59.55l1.22-2.12a8.44,8.44,0,0,1-1.63-2.82Z"/><line class="c" x1="66.05" y1="13.61" x2="70.63" y2="5.66"/><line class="c" x1="56.23" y1="10.03" x2="57.82" y2="1"/><line class="c" x1="45.77" y1="10.03" x2="44.18" y2="1"/><line class="c" x1="35.95" y1="13.61" x2="31.37" y2="5.66"/><path class="c" d="M32.66,40.26A18.34,18.34,0,0,1,51,21.92"/><polyline class="c" points="54.85 51.77 54.85 78.37 47.15 78.37 47.15 51.77"/><path class="c" d="M54.85,51.77v-3.2a3.2,3.2,0,1,1,3.2,3.2H43.95a3.2,3.2,0,1,1,3.21-3.2v3.2"/><line class="c" x1="66.13" y1="60.1" x2="82.79" y2="76.75"/><line class="c" x1="26.03" y1="20" x2="31.45" y2="25.41"/><line class="c" x1="27.21" y1="34.78" x2="19.24" y2="26.8"/><line class="c" x1="75.99" y1="83.55" x2="61.26" y2="68.82"/><path class="c" d="M83.37,93.2l9.06-9.06,8.12,8.13a12.82,12.82,0,1,0-9.07,9.06Z"/><path class="c" d="M9.56,19.39l9.06-9.06L10.5,2.2a12.82,12.82,0,1,1-9.06,9.07Z"/><path class="c" d="M14.06,23.44a8.61,8.61,0,0,0,8.61-8.61"/><line class="c" x1="35.86" y1="60.1" x2="19.21" y2="76.75"/><line class="c" x1="75.96" y1="20" x2="70.55" y2="25.41"/><line class="c" x1="74.78" y1="34.78" x2="82.76" y2="26.8"/><line class="c" x1="26.01" y1="83.55" x2="40.74" y2="68.82"/><line class="c" x1="27.92" y1="73.88" x2="22.79" y2="79.01"/><line class="c" x1="73.12" y1="74.84" x2="78.25" y2="79.97"/><path class="c" d="M18.63,93.2,9.56,84.14,1.44,92.26a12.82,12.82,0,1,1,9.07,9.06Z"/><path class="c" d="M92.44,19.39l-9.07-9.06L91.5,2.2a12.82,12.82,0,1,0,9.07,9.07Z"/><path class="c" d="M87.93,23.44a8.61,8.61,0,0,1-8.61-8.61"/></g></svg>