<svg xmlns="http://www.w3.org/2000/svg" xmlns:xlink="http://www.w3.org/1999/xlink" viewBox="0 0 101.47 102"><defs><style>.a,.b{fill:none;}.b{stroke:#fff;stroke-linecap:round;stroke-linejoin:round;stroke-width:2px;}.c{clip-path:url(#a);}</style><clipPath id="a"><rect class="a" width="101.47" height="102"/></clipPath></defs><title>culture-05</title><rect class="b" x="40.56" y="8.6" width="20.25" height="20.25"/><g class="c"><path class="b" d="M40.56,22.72V16.53a54.22,54.22,0,0,0-16.79,6.19"/><path class="b" d="M74.36,20.92a54.24,54.24,0,0,0-13.55-4.43v6.22"/><path class="b" d="M77.78,22.72q-.76-.44-1.54-.85"/><path class="b" d="M60.81,24.68a86.88,86.88,0,0,1,39.66,14.93,58.29,58.29,0,0,0-39.66-27Z"/><path class="b" d="M40.56,12.66A58.3,58.3,0,0,0,1.08,39.61,86.88,86.88,0,0,1,40.56,24.7Z"/><rect class="b" x="46.89" y="1" width="7.6" height="7.6"/><line class="b" x1="54.48" y1="68.41" x2="54.48" y2="29.16"/><line class="b" x1="46.89" y1="29.16" x2="46.89" y2="58.59"/><line class="b" x1="44.35" y1="11.44" x2="44.35" y2="26"/><line class="b" x1="57.01" y1="11.44" x2="57.01" y2="26"/><polyline class="b" points="57.96 100.98 57.96 73.53 29.48 35.18 1 73.53 1 101"/><line class="b" x1="17.43" y1="58.07" x2="6.48" y2="72.82"/><line class="b" x1="19.99" y1="54.63" x2="18.72" y2="56.33"/><line class="b" x1="20.83" y1="46.57" x2="37.92" y2="46.57"/><polyline class="b" points="57.96 73.78 48.47 83.28 38.66 73.78 29.16 83.28 19.69 73.78 10.18 83.28 1 73.89"/><line class="b" x1="38.66" y1="73.78" x2="38.66" y2="97.82"/><line class="b" x1="19.67" y1="74.87" x2="19.67" y2="97.82"/><polyline class="b" points="91.82 101 91.82 77.76 66.54 43.72 54.79 59.54"/><line class="b" x1="60.28" y1="52.27" x2="72.62" y2="52.27"/><polyline class="b" points="91.82 77.99 83.39 86.42 74.42 77.99 66.26 86.42 57.96 77.99"/><line class="b" x1="74.42" y1="77.99" x2="74.42" y2="97.82"/></g></svg>