<?xml version="1.0" encoding="utf-8"?>
<!-- Generator: Adobe Illustrator 21.0.2, SVG Export Plug-In . SVG Version: 6.00 Build 0)  -->
<svg version="1.1" id="Layer_1" xmlns="http://www.w3.org/2000/svg" xmlns:xlink="http://www.w3.org/1999/xlink" x="0px" y="0px"
	 viewBox="0 0 321.9 111.3" style="enable-background:new 0 0 321.9 111.3;" xml:space="preserve">
<style type="text/css">
	.st0{fill:none;stroke:#6D6E71;stroke-width:5;}
	.st1{fill:#2D2D2D;}
	.st2{fill:#F1F2F2;}
	.st3{fill:#6D6E71;}
</style>
<title>dback-logo</title>
<path class="st0" d="M52.1,95.8L23.4,45.5c-1.7-2.6-4.4-4.2-7.5-4.3H4.6"/>
<path class="st0" d="M269.8,95.8l28.9-50.3c1.7-2.6,4.4-4.2,7.5-4.3h8.4"/>
<path class="st1" d="M0,0l62.3,107.8c1.3,2,3.6,3.3,6,3.5h185.3c2.4-0.2,4.7-1.4,6-3.5L321.9,0H0z"/>
<path class="st2" d="M144.6,51.7l16.4,9.5c0.1,0.1,0.2,0,0.2-0.1V21.2c0-0.1-0.1-0.2-0.2-0.1l-16.4,9.5l-0.1,0.1v20.9
	C144.5,51.7,144.5,51.7,144.6,51.7z M149,33.1l7.6-4.4c0.1-0.1,0.2,0,0.2,0.1v24.7c0,0.1-0.1,0.2-0.2,0.1l-7.6-4.4l-0.1-0.1V33.2
	C148.9,33.2,148.9,33.1,149,33.1z M179.4,30.7c0,0,0-0.1-0.1-0.1L163,21.1c-0.1-0.1-0.2,0-0.2,0.1v39.9c0,0.1,0.1,0.2,0.2,0.1
	l16.3-9.4l0.1-0.1v-7.4c0,0,0-0.1-0.1-0.1l-3.3-2.4c-0.1,0-0.1-0.1,0-0.2l3.4-4.6v-0.1V30.7z M175,49.2l-7.6,4.4
	c-0.1,0.1-0.2,0-0.2-0.1V28.8c0-0.1,0.1-0.2,0.2-0.1l7.6,4.4l0.1,0.1v2.2v0.1l-2.7,3.7c0,0.1,0,0.1,0,0.2l2.6,1.9l0.1,0.1v7.8
	C175,49.2,175,49.2,175,49.2z M82.8,72.7h7.1c1.5,0,2.5,0.3,3,0.8s0.7,1.3,0.7,2.4V88c0,1.1-0.2,1.9-0.7,2.4s-1.5,0.8-3,0.8h-7.1
	V72.7z M89.1,87.6c0.3,0,0.5-0.2,0.5-0.5V76.7c0-0.3-0.2-0.5-0.5-0.5h-2.2v11.3L89.1,87.6L89.1,87.6z M101.3,72.7v18.4h-4.1V72.7
	H101.3z M114,72.7l3.3,18.4h-4.1l-0.6-3.5l-4,1.4l-0.4,2h-4.1l3.3-18.4L114,72.7L114,72.7z M109.3,85.1l2.7-1l-1.3-8.3L109.3,85.1z
	 M124,78.4v12.7h-3.9V72.7h5.5l3.4,13.1l3.4-13.1h5.5v18.4h-3.8V78.4l-3.2,12.7h-3.6L124,78.4z M141.5,75.8c0-1.1,0.2-1.9,0.7-2.4
	s1.5-0.8,3-0.8h3.4c1.5,0,2.5,0.3,3,0.8s0.7,1.3,0.7,2.4V88c0,1.1-0.2,1.9-0.7,2.4s-1.5,0.8-3,0.8h-3.4c-1.5,0-2.5-0.3-3-0.8
	s-0.7-1.3-0.7-2.4V75.8z M145.6,87.1c0,0.3,0.2,0.5,0.4,0.5h1.7c0.3,0,0.5-0.2,0.5-0.5V76.7c0-0.3-0.2-0.5-0.5-0.5H146
	c-0.3,0-0.4,0.2-0.4,0.5V87.1z M159.8,91.1H156V72.7h4.1l3.7,10.6V72.7h3.8v18.4h-4.1l-3.6-10.2L159.8,91.1L159.8,91.1z M171.2,72.7
	h7.1c1.5,0,2.5,0.3,3,0.8s0.7,1.3,0.7,2.4V88c0,1.1-0.2,1.9-0.7,2.4s-1.5,0.8-3,0.8h-7.1V72.7z M177.4,87.6c0.3,0,0.5-0.2,0.5-0.5
	V76.7c0-0.3-0.2-0.5-0.5-0.5h-2.2v11.3L177.4,87.6L177.4,87.6z M185.6,72.9h7c1.5,0,2.5,0.3,3,0.8s0.7,1.3,0.7,2.4v3.4
	c0,1.1-0.4,1.9-1.4,2.4c-0.2,0.1-0.4,0.2-0.4,0.3s0.1,0.2,0.4,0.3c1,0.5,1.5,1.3,1.5,2.4v3.4c0,1.1-0.2,1.9-0.7,2.4s-1.5,0.8-3,0.8
	h-7.1V72.9z M191.9,80.3c0.4-0.2,0.5-0.5,0.5-0.8V77c0-0.3-0.2-0.5-0.5-0.5h-2.2V81L191.9,80.3z M191.9,87.7c0.3,0,0.5-0.2,0.5-0.5
	v-2.9c0-0.3-0.2-0.5-0.5-0.5l-2.2,0.7v3.2C189.7,87.7,191.9,87.7,191.9,87.7z M209.1,72.7l3.3,18.4h-4.1l-0.6-3.5l-4,1.4l-0.4,2
	h-4.1l3.3-18.4L209.1,72.7L209.1,72.7z M204.3,85.1l2.7-1l-1.3-8.3L204.3,85.1z M222,79.8v-3c0-0.3-0.2-0.5-0.5-0.5h-1.7
	c-0.3,0-0.5,0.2-0.5,0.5v10.3c0,0.3,0.2,0.5,0.5,0.5h1.7c0.3,0,0.5-0.2,0.5-0.5v-3h3.9V88c0,1.1-0.3,1.9-0.8,2.4s-1.5,0.8-3,0.8H219
	c-1.5,0-2.5-0.3-3-0.8s-0.8-1.3-0.8-2.4V76c0-1.1,0.2-1.9,0.8-2.4c0.5-0.5,1.5-0.8,3-0.8h3.1c1.5,0,2.5,0.3,3,0.8s0.8,1.3,0.8,2.4
	v3.9L222,79.8L222,79.8z M237.7,91.1l-2.1-6.9V84c0,0-0.1,0-0.1-0.1l-2,0.7v1v2V91h-4V72.8h4v3.9V80v1.2l1.7-0.6l0.5-1.4l1.6-4.9
	l0,0l0.5-1.6h4.1l-3.2,9l3.2,9.4H237.7z"/>
<polygon class="st3" points="55.7,97 49.9,97 49.9,92 52.8,92 "/>
<polygon class="st3" points="266.2,97 272,97 272,92 269.1,92 "/>
</svg>
