<svg id="Layer_1" xmlns="http://www.w3.org/2000/svg" viewBox="0 0 86.4 72.6"><style>.st0{fill:#A0A1A2;stroke:#2D2D2D;stroke-width:1.1;stroke-miterlimit:10;} .st1{fill:#2D2D2D;}</style><title>why-buy-02</title><path class="st0" d="M17.9 5c5.1-.6 4.8-3.1 8.7-3.4 5.4-.4 7.5.9 12 .9s3.8-2 9.5-2 5.4 2.3 8.9 2.6S64.2.7 68.3 1.5c6.8 1.3 11.9 11.2 13.1 18.2 1.1 6.4-.4 14-.8 16.9s-3.8 13.5-6.1 15.5c-1.9 1.7-10.4 1.1-11.9.2-1.9-1.3-3.3-3.2-4.2-5.3-.5-1.8-.4-25.2-.4-25.2-.7 1.3-1.2 2.7-1.5 4.1-.3 1.5.4 21.9-.1 23.5s-3.5 5.4-3.5 5.4c-.8.7-1.7 1.2-2.8 1.4-2.6.2-5.2.1-7.8-.4-1.2-.3-2.3-.9-3.1-1.8-1.1-1.2-2-2.6-2.6-4.2-.5-1.8-.1-25.8-.1-25.8-.6 1.1-1.1 2.3-1.4 3.6-.3 1.8-.7 19.5-.9 21-.3 2.4-3.4 5-5.4 5.2-1.3.2-6.8-.1-6.6-.2-1.5-.3-2.8-1.1-3.8-2.3-1.3-1.3-2.2-2.9-2.6-4.7-.3-1.8-.3-21.4-.3-21.4-.7 1.1-1.2 2.2-1.4 3.4-.3 1.7-.5 16.7-.4 17.9.2 1.1.6 2.2 1.2 3.1 0 0-4-.3-8-5.1-2.7-3.2-4-8.5-4.9-13.8S.1 25.3.7 21.3c.3-2.1 2.5-4.8 4.4-7.8 2-3.2 3.7-6 4.8-6.7 1.9-1.2 2.9-1.2 8-1.8z"/><path class="st0" d="M73.6 54.9c-2.3.2-4.7.3-7 .3-4.3-.1-6-2.4-6-2.4s-9 3.1-10.6 9.2 2.1 9.1 4.3 9.9c1.2.5 11.3-1.2 14-1.4H74c1.3.1 2.6.1 3.9-.1 1.1-.3 2.1-1 2.7-2 1.5-2.3 2.8-4.8 3.9-7.3 1.1-2.8 1.1-12.5 1.4-14.9-.9-2.4-1.9-4.8-3-7.2l-.6-.7s-3 10.2-3.9 11.9c-1.6 3.3-3.1 4.3-4.8 4.7z"/><path class="st1" d="M64.2 61.5s1.6-.2 2 3.2c.4 1.8-.3 3.6-1.7 4.8 0 0-7.9 1.1-8.5.6s.4-1.7.9-3.4c.3-1.7.4-3.4.3-5.1l7-.1z"/></svg>