<svg xmlns="http://www.w3.org/2000/svg" viewBox="0 0 30.12 20.88"><defs><style>.a{fill:#939598;}</style></defs><title>footer-04</title><path class="a" d="M29,7.69l-.87.14s-.11,0-.16,0h0a3.08,3.08,0,0,1-.7,0s0,0,0,0H27a.37.37,0,0,1-.19,0,1.25,1.25,0,0,0-.22,0,.32.32,0,0,1-.17-.06V7.63a.72.72,0,0,0,0-.22,2.45,2.45,0,0,1-.09-.36.69.69,0,0,0-.06-.23.5.5,0,0,1-.06-.19v0a.6.6,0,0,1-.08-.2v0A4.17,4.17,0,0,1,25.94,6V6c-.11-.19-.19-.39-.29-.58h0a7.13,7.13,0,0,0-3.32-3s0,0-.09,0-.3-.09-.44-.16a.27.27,0,0,0-.12,0,.94.94,0,0,1-.23-.06,1.06,1.06,0,0,0-.25,0,2,2,0,0,1-.33,0h0s-.13,0-.16,0H20s-.08,0-.11,0a1.43,1.43,0,0,1,.43-.19h0a4,4,0,0,1,.79-.24.46.46,0,0,0,.18,0c.27-.12,1.07-.3,1.14-.65s-.11-.36-.34-.39H22c-.05,0-.13,0-.16,0a.45.45,0,0,1-.17,0,.14.14,0,0,0-.1,0c-.14,0-.3.09-.45.12h0a.78.78,0,0,1-.23.08s0,0-.06,0a1.44,1.44,0,0,1-.3.11h0A3.75,3.75,0,0,1,20,1c.46-.26,1-.46,1.14-1-.1,0-.21,0-.33,0a.32.32,0,0,0-.14,0,5.16,5.16,0,0,0-1.82,1,2.11,2.11,0,0,0,.37-.72h0V.25a10.74,10.74,0,0,0-3.6,4.59h0a.83.83,0,0,1-.11.22v0c-.21.46-.4.94-.61,1.4a.69.69,0,0,0-.06.17.91.91,0,0,1-.11.26s0,0,0,.09a.49.49,0,0,1-.08.19.36.36,0,0,0,0,.14.5.5,0,0,1-.08.18A12,12,0,0,0,10.88,5h0c-.23-.1-.44-.21-.65-.33h0c-.31-.15-.63-.28-.92-.44h0c-.19-.08-.4-.17-.58-.26h0c-.3-.13-.61-.25-.89-.39h0a1.36,1.36,0,0,1-.28-.12h0a1,1,0,0,1-.25-.11h0a1.69,1.69,0,0,1-.33-.14h0c-.23-.09-.47-.17-.69-.28h0a1.84,1.84,0,0,1-.34-.14h0c-.27-.1-.54-.19-.79-.31-.06,0-.13,0-.19-.08a.92.92,0,0,1-.23-.09s0,0-.09,0-.08,0-.11,0v.45c0,.05,0,.13,0,.16a.38.38,0,0,1,0,.17v.08s0,.07,0,.08A4.39,4.39,0,0,0,6.15,5.57c.26.19.55.32.79.51H6.48a4.28,4.28,0,0,0-.81.11,1.37,1.37,0,0,1-.3.06.3.3,0,0,0-.16,0s-.07,0-.08,0v.06a1.05,1.05,0,0,0,.08.33A2,2,0,0,1,5.31,7a.65.65,0,0,0,.08.2A3.52,3.52,0,0,0,6.78,8.67a.29.29,0,0,0,.12.06,2.67,2.67,0,0,1,.3.16c.06,0,.08.06.15.06A.78.78,0,0,1,7.57,9s.07,0,.1,0,0,0,0,0a.28.28,0,0,1,.14,0s0,0,0,0a.29.29,0,0,1,.14,0c.09,0,.14.05.23,0s.18,0,.22.08H8.41s-.11,0-.16,0H8.19l-.4.06h0s0,0,0,0a1.6,1.6,0,0,1-.28.08A1.51,1.51,0,0,0,7,9.68a1.78,1.78,0,0,0-.58.5,3.54,3.54,0,0,0,1.37,1.4,4.74,4.74,0,0,0,.66.28h.06a.48.48,0,0,1,.17,0,1,1,0,0,0,.22,0s.12,0,.15,0h.14c.07,0,.18,0,.22,0h.34S10,12,10,12h0s.08,0,.08,0a.24.24,0,0,1-.14.08h0A2.1,2.1,0,0,0,9,13s0,0,0,0,0,.09,0,.17v.31c0,.06,0,.08,0,.13s0,0,0,0,.06.13.09.19h0a2.59,2.59,0,0,0,.36.39c.05,0,.09.08.16.09a2.19,2.19,0,0,1,.23.12,2.36,2.36,0,0,0,.37.12,1.27,1.27,0,0,0,.25,0c.07,0,.18,0,.22,0h.11s.15,0,.22,0h0s.06,0,.08,0a5.42,5.42,0,0,1-1.08,1,.66.66,0,0,0-.17.11.51.51,0,0,1-.17.12h0a1.7,1.7,0,0,1-.34.22c-.07,0-.1.06-.16.08a3,3,0,0,1-.48.25,2,2,0,0,0-.27.11.69.69,0,0,1-.22.09c-.27.08-.52.17-.79.25a.64.64,0,0,1-.23.06c-.31.06-.62.12-1,.16-.07,0-.09,0-.16,0H6s0,0,0,0-.15,0-.22,0H5.6a1.66,1.66,0,0,1-.51,0H5c-.07,0-.18,0-.22,0h0s-.13,0-.15,0-.14,0-.17,0a2.51,2.51,0,0,1-.31,0s-.1,0-.13,0c-.24,0-.44-.09-.67-.13a.33.33,0,0,1-.16,0,.27.27,0,0,0-.12,0,.54.54,0,0,1-.19-.06.53.53,0,0,0-.16,0c-.05,0-.12,0-.15-.06s-.33-.14-.52-.2a.37.37,0,0,1-.15-.08s-.06,0-.08,0a.27.27,0,0,1-.12-.06s0,0-.09,0-.12,0-.16-.09a.31.31,0,0,0-.13-.06A7.88,7.88,0,0,1,0,15a14.85,14.85,0,0,0,2.66,2.76h0c.06.05.14.09.19.16S2.94,18,3,18a.57.57,0,0,1,.16.12.63.63,0,0,0,.17.11c.15.11.31.19.45.31h0a1.34,1.34,0,0,1,.23.16,5.4,5.4,0,0,0,.64.36c.06,0,.14.05.19.11s0,0,.07,0,.21.09.3.15.06,0,.11,0a.65.65,0,0,1,.19.09c.38.19.8.33,1.2.5a.28.28,0,0,1,.14,0,.81.81,0,0,1,.23.08.28.28,0,0,1,.14,0c.17,0,.33.09.48.14a.32.32,0,0,1,.16,0h0a.44.44,0,0,1,.17,0,.22.22,0,0,1,.13,0,.21.21,0,0,1,.13,0h0a.43.43,0,0,1,.18,0h0a.48.48,0,0,1,.18,0,.34.34,0,0,1,.16,0,.33.33,0,0,1,.17,0s.08,0,.08,0,.09,0,.14,0a1.41,1.41,0,0,1,.23,0,3.39,3.39,0,0,1,.45.06c.08,0,.13,0,.2,0s.28,0,.39,0h.18c.05,0,.15,0,.17,0h0c.07,0,.18,0,.22,0h.08a1.75,1.75,0,0,1,.36,0h.78a1.71,1.71,0,0,1,.36,0h.08s.15,0,.22,0h0s.12,0,.17,0h0s.11,0,.16,0c.3,0,.55-.06.84-.08a2.81,2.81,0,0,1,.4-.06c.12,0,.27,0,.41-.08h0a1.9,1.9,0,0,1,.39-.08.5.5,0,0,1,.19,0s0,0,.09,0a.21.21,0,0,1,.13,0s0,0,0,0a2.52,2.52,0,0,1,.36-.09c.07,0,.1,0,.17,0s.41-.11.61-.19.39-.14.59-.2a6.79,6.79,0,0,0,.79-.3.49.49,0,0,1,.17-.08,2.92,2.92,0,0,0,.41-.17.68.68,0,0,1,.19-.09l0,0c.18-.11.38-.19.58-.29,0,0,0,0,.08,0s.11-.06.16-.09c.22-.09.39-.23.61-.33,0,0,0,0,0,0a1.44,1.44,0,0,1,.23-.15h0a.57.57,0,0,1,.16-.11,1.13,1.13,0,0,0,.25-.16c0-.06.13-.09.19-.14s.08-.05.12-.08a.66.66,0,0,1,.16-.13h0c0-.06.12-.09.17-.14h0a14.79,14.79,0,0,0,2.65-2.68h0a1,1,0,0,1,.16-.21v0c.09-.13.17-.28.28-.41a.81.81,0,0,1,.08-.11v0a1.29,1.29,0,0,1,.14-.22v0a.92.92,0,0,1,.12-.2.75.75,0,0,0,.09-.19c.09-.17.17-.35.27-.52a2.23,2.23,0,0,0,.14-.33.46.46,0,0,1,.08-.17,2.63,2.63,0,0,0,.17-.47,3.84,3.84,0,0,1,.14-.41s0-.09,0-.11.07-.21.08-.34a.6.6,0,0,1,0-.17h.31c.06,0,.18,0,.27,0h0s.11,0,.16,0,.12,0,.16,0a.55.55,0,0,1,.2,0c.15,0,.25-.05.39-.06a.47.47,0,0,1,.19,0s.08,0,.11,0a1.52,1.52,0,0,1,.27-.1,1.48,1.48,0,0,0,.34-.14,1,1,0,0,1,.17-.09h0a2,2,0,0,1,.25-.16h0c.18-.14.41-.3.58-.45s.13-.12.13-.17H30a1.25,1.25,0,0,1-.23,0s0,0,0,0-.17,0-.25,0h0a1.65,1.65,0,0,1-.5,0h0c-.08,0-.21,0-.26,0h0c-.05,0-.14,0-.17,0s-.14,0-.17,0c-.2,0-.35-.06-.54-.06a1,1,0,0,1-.3-.06h0a.59.59,0,0,1-.23-.06L27,9.36l-.16-.06h0c-.08,0,0-.06.11,0a1.63,1.63,0,0,0,.3,0h.06a1.44,1.44,0,0,1,.3-.06c.1,0,.15,0,.25,0s.05,0,.06,0A2.31,2.31,0,0,1,28.19,9h0l.23-.09a.29.29,0,0,1,.13-.06s.07-.05.11-.06A3.22,3.22,0,0,0,30,7.39v0a.08.08,0,0,1,0,0c-.09,0-.15.09-.25.11l-.58.19A.69.69,0,0,1,29,7.69Z"/></svg>