<svg xmlns="http://www.w3.org/2000/svg" viewBox="0 0 20.38 27.01"><defs><style>.a{fill:#939598;}</style></defs><title>footer-05</title><path class="a" d="M20.38,17A3.43,3.43,0,0,0,17,13.56H3.42A3.42,3.42,0,0,0,0,17v6.6A3.42,3.42,0,0,0,3.42,27H17a3.43,3.43,0,0,0,3.42-3.42Zm-17,7.3V17.15H2V15.73H6v1.41H4.62v7.14Zm6.47-6.42v6.42H8.74v-.64a1.12,1.12,0,0,1-1,.81c-.73,0-1.1-.52-1.1-1.55v-5h1.1v4.2a3.45,3.45,0,0,0,.06.74c.08.26.21.38.43.38s.38-.14.46-.42a3.49,3.49,0,0,0,.07-.8v-4.1Zm1,6.42V15.73H12v2.68a1,1,0,0,1,1-.72c.58,0,1,.41,1.14,1.24a11.76,11.76,0,0,1,.14,2.17,10.6,10.6,0,0,1-.15,2.14q-.28,1.21-1.15,1.21a1,1,0,0,1-1-.85v.67Zm1.71-5.35c-.31,0-.5.33-.57,1,0,.13,0,.6,0,1.42a9.54,9.54,0,0,0,0,1.17c.08.48.26.72.56.72s.45-.29.51-.88c0-.12,0-.54,0-1.26s0-1.17,0-1.27C13,19.23,12.84,18.94,12.56,18.94Zm4.72,3.15h1.08a1,1,0,0,0,0,.12c0,.05,0,.1,0,.13A2.53,2.53,0,0,1,18,24a1.53,1.53,0,0,1-1.27.51,1.41,1.41,0,0,1-1.29-.62,3.23,3.23,0,0,1-.4-1.43c0-.27,0-.79,0-1.55s0-1,0-1.31a2.78,2.78,0,0,1,.34-1.2,1.51,1.51,0,0,1,1.37-.67,1.43,1.43,0,0,1,1.34.73,5.42,5.42,0,0,1,.34,2.37v.49H16.15c0,.07,0,.21,0,.41a5.66,5.66,0,0,0,.06,1c.08.41.25.63.51.63S17.28,22.92,17.28,22.09Zm-1.15-1.82h1.11V20a2.71,2.71,0,0,0-.08-.79.47.47,0,0,0-.48-.37.45.45,0,0,0-.44.26,1.9,1.9,0,0,0-.13.9v.09C16.13,20.14,16.13,20.2,16.13,20.26ZM5.89,12.08V7L8.28,0H6.42L5,4.54,3.63,0H1.71L4.15,7v5.12Zm2.43-1.22a2,2,0,0,0,2.1,1.46,2.07,2.07,0,0,0,2.11-1.45,10.75,10.75,0,0,0,.35-3.32,10.76,10.76,0,0,0-.35-3.33,2.07,2.07,0,0,0-2.11-1.46,2,2,0,0,0-2.1,1.46A10.76,10.76,0,0,0,8,7.55,10.66,10.66,0,0,0,8.32,10.86Zm1.3-4a13.59,13.59,0,0,1,0-1.53c.1-.6.35-.91.75-.91s.67.35.77,1c0,.18,0,.74,0,1.65V8c0,1,0,1.55,0,1.7q-.14,1-.78,1c-.43,0-.68-.4-.77-1.22,0-.1,0-.71,0-1.83ZM17.05,3V8.8A5.18,5.18,0,0,1,17,9.94c-.11.39-.33.59-.65.59s-.5-.18-.61-.54a4.58,4.58,0,0,1-.08-1V3H14.07v7.13q0,2.19,1.56,2.19a1.6,1.6,0,0,0,1.47-1.14v.9h1.58V3Z"/></svg>