<svg xmlns="http://www.w3.org/2000/svg" viewBox="0 0 24.37 24.48"><defs><style>.a{fill:#939598;fill-rule:evenodd;}</style></defs><title>footer-07</title><path class="a" d="M4.69,0h.77V6h.89V0H20.1V.06h.36V.12h.3V.18H21V.24h.18V.3h.12V.36h.18V.41l.35.12V.59l.24.06V.71l.18.06.06.12h.12l.18.24a4.73,4.73,0,0,1,1.66,2.49l.06.71a5.87,5.87,0,0,1,.06,1.3V8H16.54l-.18-.24h-.12L16,7.47h-.12l-.12-.18h-.12l-.06-.12-.18-.06V7.05l-.36-.12L15,6.82l-1.48-.53h-.3a5.24,5.24,0,0,0-3,.24H10v.06H9.9v.06H9.73V6.7l-.36.12v.06l-.24.06-.06.12-.24.06-.06.12H8.66l-.06.12H8.48l-.18.24H8.19l-.06.12-.24.18L7.83,8H0V5.63a5.81,5.81,0,0,1,.06-1.3l.06-.71H.18V3.44H.24V3.26H.3V3.08H.36V2.9H.42l.12-.35H.6V2.43l.12-.06.06-.24L.9,2.08,1,1.9l.18-.12V1.66l.12-.06c.21-.22.51-.63.83-.71V6H3V.36h.06V.3c.29,0,.42-.14.71-.18V6h.89ZM18.14,5.81h-.06V5.63H18v-3l.3-.41.24-.06V2.08h3l.41.3.06.3h.06v3c-.07.2-.25.3-.36.47l-.3.06v.06H18.68c-.17-.05-.29-.19-.47-.24ZM11.62,7.53l1.48.06v.06h.24v.06h.24v.06h.18v.06h.18v.06l.24.06V8l.3.06.06.12.24.06.06.12h.12l.12.18h.12l.24.3h.12l.12.12v.12l.36.3v.12l.18.12.06.24.12.06.06.24h.06l.12.36h.06l.06.36h.06V11h.06v.24h.06v.3H17v.65H17v.3H17v.65l-.36,1.19h-.06v.12h-.06l-.12.36-.12.06V15l-.12.06v.12l-.18.12v.12l-.47.41-.24.3h-.12L15,16.3h-.12l-.06.12h-.12l-.06.12h-.12l-.12.12h-.12v.06h-.12v.06h-.12v.06h-.18v.06H13.7V17h-.18V17h-.24v.06l-.77.06v.06h-.65v-.06h-.53v-.06H11V17h-.24V17h-.18v-.06h-.18v-.06h-.12v-.06h-.18v-.06H10v-.06H9.9l-.06-.12-.24-.06v-.06l-.18-.06-.06-.12H9.25L9.07,16H9l-.36-.41-.12-.06v-.12l-.18-.12-.06-.18-.12-.06-.06-.24-.12-.06-.06-.24H7.83l-.06-.24H7.71v-.18H7.65V14H7.59l-.06-.41H7.47a6.16,6.16,0,0,1-.12-1.84h.06v-.36h.06v-.24h.06v-.24h.06v-.18h.06v-.18h.06l.06-.24h.06V10.2h.06v-.12L8,10V9.84l.12-.06V9.66l.12-.06V9.48l.18-.12V9.25l.24-.18.41-.47h.12l.12-.18h.12l.06-.12h.12l.06-.12.24-.06V8.06l.36-.12V7.88l1-.3h.35ZM0,8.71H7.12a1.18,1.18,0,0,1-.18.42l-.12.06-.06.24H6.7v.12H6.64v.12H6.59v.12H6.53l-.06.3H6.41v.12H6.35l-.3,1.07v.41a4.86,4.86,0,0,0,.3,2.67v.18h.06v.12h.06v.18h.06l.12.36H6.7l.06.24.12.06.06.24.12.06v.12l.18.12v.12l.24.18v.12l.3.24.36.41h.12l.18.24h.12l.06.12.18.06v.06H8.9l.06.12.36.12.06.12h.12V18h.18V18l.24.06v.06h.18v.06h.18v.06h.18v.06h.24v.06h.24v.06l.89.06v.06h.77v-.06h.53v-.06h.3v-.06h.3v-.06h.18v-.06h.24V18.2h.12v-.06l.36-.06V18l.36-.12v-.06h.12v-.06l.24-.06.06-.12h.12v-.06l.18-.06.06-.12h.12l.12-.18h.12l.35-.41.59-.53v-.12L17.2,16v-.12l.12-.06v-.12l.12-.06.06-.24.12-.06.06-.24h.06l.06-.24h.06V14.7h.06v-.12H18V14.4H18v-.18h.06V14h.06v-.24h.06v-.24h.06l.06-.95h.06l-.06-1.13h-.06v-.36H18.2v-.3h-.06v-.18h-.06v-.18H18v-.18H18v-.18h-.06V10h-.06l-.12-.36h-.06V9.48h-.06l-.06-.24-.12-.06V9.07L17.31,9V8.89h-.06l-.06-.18h7.17V20.15h-.06v.41h-.06v.3h-.06V21h-.06v.18h-.06v.18H24v.18H24l-.06.24h-.06l-.06.24-.12.06-.06.24-.12.06v.12l-.24.18a4.65,4.65,0,0,1-2.49,1.66h-.3a5.43,5.43,0,0,1-1.48.12H5.34a5.14,5.14,0,0,1-1.42-.12h-.3a6.88,6.88,0,0,1-2-1l-.36-.41-.18-.12V22.7L.9,22.52v-.12l-.12-.06-.06-.24L.6,22.05l-.06-.24H.48l-.06-.24H.36V21.4H.3v-.18H.24V21H.18v-.18H.12l-.06-.71H0V8.71ZM12.93,9h.24V9h.18v.06h.12v.06h.18v.06h.12v.06h.12l.06.12.24.06.12.18h.12l.3.36.24.18v.12l.18.12.06.24.12.06v.12h.06v.12h.06v.18h.06v.12h.06v.24h.06l.12,1.19h-.06V13H15.6v.24h-.06v.18h-.06v.18h-.06v.12h-.06v.12H15.3V14l-.12.12v.12l-.12.06v.12l-.18.12v.12l-.12.06-.3.35h-.12l-.12.18h-.12l-.06.12h-.12l-.12.12H13.7v.06h-.12v.06h-.12v.06h-.18v.06h-.18v.06h-.3v.06h-.47v.06H12v-.06h-.47v-.06h-.3v-.06l-.36-.06v-.06l-.24-.06v-.06l-.36-.12-.06-.12h-.12L10,15.06H9.9l-.06-.12-.36-.3v-.12l-.18-.12v-.12l-.12-.06L9.13,14H9.07L9,13.63H8.9v-.18a2.8,2.8,0,0,1-.06-2V11.2H8.9v-.12H9v-.18H9v-.12h.06v-.12l.12-.06.06-.24.18-.12v-.12L9.61,10,10,9.6h.12l.12-.18.24-.06.06-.12h.12V9.19h.12V9.13h.18V9.07H11V9L11.45,9V8.89h.41V8.83A3.5,3.5,0,0,1,12.93,9Z"/></svg>