<?xml version="1.0" standalone="no"?>
<!DOCTYPE svg PUBLIC "-//W3C//DTD SVG 1.1//EN" "http://www.w3.org/Graphics/SVG/1.1/DTD/svg11.dtd" >
<svg>
<metadata>
Created by FontForge 20090622 at Mon Apr 24 14:25:39 2017
 By deploy user
Copyright (C) 2006, 2010 Hoefler &#38; Co. http://www.typography.com
</metadata>
<defs>
<font id="Forza-BookItalic" horiz-adv-x="581" >
  <font-face 
    font-family="Forza Book"
    font-weight="325"
    font-style="italic"
    font-stretch="normal"
    units-per-em="1000"
    panose-1="0 0 0 0 0 0 0 0 0 0"
    ascent="800"
    descent="-200"
    x-height="535"
    cap-height="700"
    bbox="-144 -303 1072 1035"
    underline-thickness="50"
    underline-position="-50"
    slope="-14"
    unicode-range="U+0020-U+FB04"
  />
<missing-glyph horiz-adv-x="496" 
d="M-2 -200v1000h500v-1000h-500zM69 750l179 -390l179 390h-358zM48 -76l172 376l-172 376v-752zM448 676l-172 -376l172 -376v752zM248 240l-179 -390h358z" />
    <glyph glyph-name="f_f" unicode="ff" horiz-adv-x="674" 
d="M126 0h-74l117 472h-91l16 63h91l9 35q21 84 50 115q34 35 101 35h75l-16 -62h-57q-34 0 -49 -15q-16 -16 -31 -73l-8 -35h117l-16 -63h-116zM463 0h-74l117 472h-91l16 63h91l9 35q21 84 50 115q34 35 101 35h75l-16 -62h-57q-34 0 -49 -15q-16 -16 -31 -73l-8 -35h117
l-16 -63h-116z" />
    <glyph glyph-name="fi" unicode="fi" horiz-adv-x="576" 
d="M616 730l-24 -95h-88l24 95h88zM560 535l-134 -535h-74l134 535h74zM126 0h-74l117 472h-91l16 63h91l9 35q21 84 50 115q34 35 101 35h75l-16 -62h-57q-34 0 -49 -15q-16 -16 -31 -73l-8 -35h117l-16 -63h-116z" />
    <glyph glyph-name="fl" unicode="fl" horiz-adv-x="575" 
d="M426 0h-74l179 720h74zM126 0h-74l117 472h-91l16 63h91l9 35q21 84 50 115q34 35 101 35h75l-16 -62h-57q-34 0 -49 -15q-16 -16 -31 -73l-8 -35h117l-16 -63h-116z" />
    <glyph glyph-name="f_f_i" unicode="ffi" horiz-adv-x="914" 
d="M953 730l-24 -95h-88l24 95h88zM897 535l-134 -535h-74l134 535h74zM126 0h-74l117 472h-91l16 63h91l9 35q21 84 50 115q34 35 101 35h75l-16 -62h-57q-34 0 -49 -15q-16 -16 -31 -73l-8 -35h117l-16 -63h-116zM463 0h-74l117 472h-91l16 63h91l9 35q21 84 50 115
q34 35 101 35h75l-16 -62h-57q-34 0 -49 -15q-16 -16 -31 -73l-8 -35h117l-16 -63h-116z" />
    <glyph glyph-name="f_f_l" unicode="ffl" horiz-adv-x="912" 
d="M763 0h-74l179 720h74zM126 0h-74l117 472h-91l16 63h91l9 35q21 84 50 115q34 35 101 35h75l-16 -62h-57q-34 0 -49 -15q-16 -16 -31 -73l-8 -35h117l-16 -63h-116zM463 0h-74l117 472h-91l16 63h91l9 35q21 84 50 115q34 35 101 35h75l-16 -62h-57q-34 0 -49 -15
q-16 -16 -31 -73l-8 -35h117l-16 -63h-116z" />
    <glyph glyph-name=".notdef" horiz-adv-x="496" 
d="M-2 -200v1000h500v-1000h-500zM69 750l179 -390l179 390h-358zM48 -76l172 376l-172 376v-752zM448 676l-172 -376l172 -376v752zM248 240l-179 -390h358z" />
    <glyph glyph-name=".null" horiz-adv-x="0" 
 />
    <glyph glyph-name="nonmarkingreturn" horiz-adv-x="333" 
 />
    <glyph glyph-name="space" unicode=" " horiz-adv-x="208" 
 />
    <glyph glyph-name="exclam" unicode="!" horiz-adv-x="328" 
d="M167 200h-34l81 463l9 37h95l-9 -36zM76 102h91l-25 -102h-91z" />
    <glyph glyph-name="quotedbl" unicode="&#x22;" horiz-adv-x="389" 
d="M133 443l32 257h97v-19l-90 -238h-39zM306 443l33 257h97v-19l-90 -238h-40z" />
    <glyph glyph-name="numbersign" unicode="#" horiz-adv-x="743" 
d="M164 524h141l83 176h71l-84 -176h187l83 176h71l-83 -176h126l-14 -63h-141l-96 -205h125l-13 -63h-141l-90 -193h-71l90 193h-187l-90 -193h-71l90 193h-125l14 63h141l96 205h-125zM345 464l-99 -211h193l98 211h-192z" />
    <glyph glyph-name="dollar" unicode="$" horiz-adv-x="648" 
d="M59 211h73q-26 -113 -7 -132q14 -13 54 -13h64l65 260l-64 13q-67 14 -90 37q-37 37 -10 151q22 92 62 132q41 41 123 41h71l20 80h65l-21 -80h43q73 0 100 -27q24 -24 26 -62t-15 -117h-74q12 63 12.5 88.5t-10.5 37.5q-14 14 -56 14h-44l-63 -252l71 -15q64 -12 88 -36
q40 -40 11 -152q-15 -60 -28 -88t-36 -50q-40 -41 -123 -41h-76l-22 -90h-65l22 90h-65q-72 0 -99 27q-22 22 -22 64t20 120zM434 300l-68 14l-62 -248h66q47 0 67 20q21 21 40 99t0 97q-11 11 -43 18zM220 426q12 -12 44 -19l61 -13l60 240h-62q-46 0 -66 -20
q-19 -19 -38 -94q-19 -74 1 -94z" />
    <glyph glyph-name="percent" unicode="%" horiz-adv-x="828" 
d="M142 -3h-67l342 369l309 337h67l-341 -367zM189 523q-23 -95 -5 -113q11 -11 39 -11h27q32 0 47 14q20 22 41 110q23 95 5 113q-11 11 -39 11h-27q-32 0 -47 -14q-20 -22 -41 -110zM399 523q-25 -108 -60 -143q-34 -34 -94 -34h-36q-49 0 -71 22q-36 36 -10 155
q25 108 60 143q34 34 94 34h36q49 0 71 -22q36 -36 10 -155zM530 177q-23 -95 -5 -113q11 -11 39 -11h27q32 0 47 14q20 22 41 110q23 95 5 113q-11 11 -39 11h-27q-32 0 -47 -14q-20 -22 -41 -110zM740 177q-25 -108 -60 -143q-34 -34 -94 -34h-36q-49 0 -71 22
q-36 36 -10 155q25 108 60 143q34 34 94 34h36q49 0 71 -22q36 -36 10 -155z" />
    <glyph glyph-name="ampersand" unicode="&#x26;" horiz-adv-x="689" 
d="M576 506h-74q22 97 6 116q-11 14 -58 14h-28q-50 0 -67 -17q-19 -18 -43 -108q-9 -40 -9 -62q0 -39 35 -90l85 -121h9l157 162h87l-213 -218l125 -182h-84l-87 126h-10l-63 -66q-34 -35 -62 -48t-75 -13h-35q-84 0 -116 32q-25 25 -27 66.5t15 105.5q17 73 29 100.5
t32 47.5q37 37 120 46l10 2q-7 24 -7 47q0 34 10 75q15 64 28 94.5t34 49.5q38 35 130 35h43q75 0 99 -28q19 -22 20 -59t-16 -107zM208 63q27 0 45.5 8t41.5 31l80 81l-116 166l-35 -7q-40 -6 -61 -26q-21 -21 -44 -113q-13 -56 -13 -83t13 -41q16 -16 75 -16h14z" />
    <glyph glyph-name="quotesingle" unicode="'" horiz-adv-x="216" 
d="M133 443l32 257h97v-19l-90 -238h-39z" />
    <glyph glyph-name="parenleft" unicode="(" horiz-adv-x="383" 
d="M100 283q40 160 61 210q14 35 51.5 79.5t130.5 137.5h61q-142 -169 -160 -211q-22 -48 -66 -219q-44 -179 -44 -226q0 -56 51 -214h-51q-76 161 -76 227q0 51 42 216z" />
    <glyph glyph-name="parenright" unicode=")" horiz-adv-x="383" 
d="M285 267q-38 -155 -60 -210q-14 -36 -52 -80t-131 -137h-61q140 165 161 211q25 57 65 219q45 177 45 226q0 57 -52 214h51q76 -161 76 -227q0 -51 -42 -216z" />
    <glyph glyph-name="asterisk" unicode="*" horiz-adv-x="510" 
d="M177 426l102 82l22 -22l-79 -104zM159 602l122 -46l-7 -30l-129 16zM243 690l60 17l21 -129l-30 -8zM400 370l-60 -17l-21 129l30 8zM499 518l-15 -60l-122 46l7 30zM466 634l-102 -82l-22 22l79 104z" />
    <glyph glyph-name="plus" unicode="+" horiz-adv-x="511" 
d="M361 558l-41 -163h162l-16 -64h-162l-41 -163h-66l41 163h-162l16 64h162l41 163h66z" />
    <glyph glyph-name="comma" unicode="," horiz-adv-x="222" 
d="M19 104h99l-25 -100q-9 -36 -37 -62l-107 -98l-23 22l90 98q11 11 16 27l3 9h-41z" />
    <glyph glyph-name="hyphen" unicode="-" horiz-adv-x="398" 
d="M340 282h-277l18 74h277z" />
    <glyph glyph-name="period" unicode="." horiz-adv-x="224" 
d="M22 104h97l-25 -104h-97z" />
    <glyph glyph-name="slash" unicode="/" horiz-adv-x="472" 
d="M-66 -160h-78l625 870h77z" />
    <glyph glyph-name="zero" unicode="0" horiz-adv-x="671" 
d="M340 0h-117q-94 0 -128 34q-32 32 -34 99t34 225q35 139 62 200.5t56 90.5q30 30 64.5 40.5t92.5 10.5h118q94 0 128 -34q32 -32 33.5 -99t-34.5 -225q-34 -138 -61 -199.5t-56 -91.5q-31 -30 -65 -40.5t-93 -10.5zM482 633h-126q-59 0 -85 -26q-13 -13 -22.5 -30
t-29 -74t-43.5 -153t-32 -152.5t-4.5 -78.5t15.5 -34q18 -18 73 -18h126q60 0 85 26q13 13 23 29.5t29.5 74.5t43.5 153q23 95 31.5 152t5 79t-15.5 34q-18 18 -74 18z" />
    <glyph glyph-name="one" unicode="1" horiz-adv-x="379" 
d="M192 0h-79l154 619l-139 -50l-9 65l181 67h66z" />
    <glyph glyph-name="two" unicode="2" horiz-adv-x="630" 
d="M466 632h-119q-53 0 -75 -22q-22 -24 -45 -116h-80q19 74 34.5 108.5t35.5 54.5q43 43 135 43h137q87 0 117 -30q45 -45 19 -154q-21 -88 -61 -128q-32 -32 -124 -67l-209 -78q-54 -20 -75 -40q-29 -27 -43 -97l-9 -38h417l-17 -68h-494l20 87q26 117 74 161
q35 33 123 66l208 77q51 19 71 39q27 29 41 93q16 70 -5 92q-18 17 -76 17z" />
    <glyph glyph-name="three" unicode="3" horiz-adv-x="647" 
d="M546 189q-25 -101 -71 -147q-42 -42 -132 -42h-157q-88 0 -118 30q-47 47 -15 188h80q-24 -111 -2 -135q16 -16 71 -16h138q54 0 76 22q29 29 49 111q22 86 -5 112q-18 19 -72 19h-132l16 66h139q57 0 82 25q28 28 45 91q19 80 -6 105q-15 15 -68 15h-124q-61 0 -81 -21
q-25 -27 -49 -117h-81q31 117 76 163q43 42 135 42h145q85 0 114 -29q48 -48 21 -158q-16 -64 -51.5 -102.5t-79.5 -48.5v-1q45 -17 59.5 -54.5t-2.5 -117.5z" />
    <glyph glyph-name="four" unicode="4" horiz-adv-x="640" 
d="M411 0h-77l46 187h-356l7 27q8 32 34 60l346 383q22 25 38 34t38 9h98l-112 -450h120l-16 -63h-120zM492 635h-16l-347 -385h267z" />
    <glyph glyph-name="five" unicode="5" horiz-adv-x="646" 
d="M479 218q26 104 -1 129q-18 18 -64 18h-83q-43 0 -78 -11t-84 -39l-63 24l114 361h441l-18 -70h-368l-78 -242l4 -2q42 27 75.5 36.5t86.5 9.5h68q84 0 114 -32q49 -51 15 -190q-28 -113 -74 -161q-50 -49 -141 -49h-161q-82 0 -111 29q-47 47 -15 173h80q-23 -98 0 -119
q15 -16 66 -16h142q55 0 81 26q27 25 52 125z" />
    <glyph glyph-name="six" unicode="6" horiz-adv-x="654" 
d="M474 633h-111q-64 0 -91 -27q-43 -43 -95 -255q51 31 77 41t59 10h105q95 0 129 -38q46 -49 14 -178q-25 -95 -73 -140q-50 -46 -141 -46h-113q-102 0 -137 36q-32 31 -33.5 95t32.5 220q55 235 119 297q31 31 66 41.5t98 10.5h114q83 0 112 -34q41 -45 15 -159h-78
q17 85 -1 107q-16 19 -67 19zM277 335q-45 0 -111 -31q-41 -181 -5 -217q18 -20 76 -20h112q55 0 82 24q32 30 51 107q21 88 -2 115q-17 22 -77 22h-126z" />
    <glyph glyph-name="seven" unicode="7" horiz-adv-x="570" 
d="M134 631l17 69h477l-13 -52l-464 -648h-88l453 631h-382z" />
    <glyph glyph-name="eight" unicode="8" horiz-adv-x="658" 
d="M226 516q-19 -74 8 -101q20 -19 76 -19h114q60 0 87 27q28 26 43 92q18 74 -9 101q-16 17 -78 17h-118q-59 0 -83 -24q-22 -22 -40 -93zM482 196q22 90 -5 117q-20 20 -76 20h-125q-60 0 -89 -29q-30 -32 -49 -110q-19 -83 8 -108q19 -19 77 -19h125q60 0 84 22
q31 27 50 107zM350 0h-142q-92 0 -126 36q-49 49 -24 164q35 152 144 164v2q-42 15 -56.5 56.5t2.5 109.5q22 84 67 126q46 42 135 42h141q86 0 121 -35q50 -48 24 -155q-29 -129 -132 -146v-2q95 -33 57 -180q-26 -97 -71 -139q-47 -43 -140 -43z" />
    <glyph glyph-name="nine" unicode="9" horiz-adv-x="652" 
d="M422 94q42 44 90 241q-49 -31 -75.5 -40.5t-58.5 -9.5h-106q-95 0 -129 38q-45 48 -13 184q25 102 75 147q49 46 140 46h114q102 0 138 -36q31 -31 32.5 -95t-32.5 -220q-53 -232 -118 -297q-31 -31 -66 -41.5t-99 -10.5h-124q-81 0 -112 34q-20 24 -24 57t9 99h77
q-16 -81 2 -104q16 -19 67 -19h121q65 0 92 27zM209 495q-22 -93 1 -121q17 -22 76 -22h128q46 0 109 30q45 194 10 231q-20 20 -76 20h-114q-55 0 -82 -24q-31 -29 -52 -114z" />
    <glyph glyph-name="colon" unicode=":" horiz-adv-x="223" 
d="M22 104h97l-25 -104h-97zM129 535h97l-25 -104h-97z" />
    <glyph glyph-name="semicolon" unicode=";" horiz-adv-x="223" 
d="M19 104h99l-25 -100q-9 -36 -37 -62l-107 -98l-23 22l90 98q11 11 16 27l3 9h-41zM127 535h97l-25 -104h-97z" />
    <glyph glyph-name="less" unicode="&#x3c;" horiz-adv-x="504" 
d="M487 499l-325 -143l253 -142l-17 -70l-317 184l16 66l409 185z" />
    <glyph glyph-name="equal" unicode="=" horiz-adv-x="511" 
d="M104 420l18 70h378l-18 -70h-378zM58 237l18 69h378l-18 -69h-378z" />
    <glyph glyph-name="greater" unicode="&#x3e;" horiz-adv-x="504" 
d="M44 144l18 79l325 143l-253 143l17 70l317 -185l-16 -66z" />
    <glyph glyph-name="question" unicode="?" horiz-adv-x="531" 
d="M147 101h90l-25 -101h-90zM100 490q22 85 37.5 120.5t37.5 55.5q37 34 115 34h131q77 0 108 -29q38 -39 13 -142q-13 -57 -25.5 -82.5t-32.5 -46.5q-13 -13 -35 -25t-36 -18l-61 -25q-49 -19 -66 -38q-18 -18 -38 -89h-60l7 29q21 84 49 112q24 24 98 54q69 26 87 45
q19 17 34 81q18 72 -1 92q-14 14 -61 14h-117q-42 0 -59 -15q-20 -18 -48 -127h-77z" />
    <glyph glyph-name="at" unicode="@" horiz-adv-x="928" 
d="M125 275q-36 -171 -34.5 -248t34.5 -110q40 -40 152 -40h379l-6 -27h-379q-77 0 -111.5 12t-58.5 36q-37 37 -40.5 117.5t34.5 259.5q38 171 71.5 248t69.5 113q34 34 78.5 49t121.5 15h237q51 0 85.5 -7t48.5 -15.5t28 -22.5q70 -70 10 -333q-40 -175 -86 -221
q-40 -40 -98 -40h-20q-74 0 -103 66q-61 -43 -84 -54t-57 -11h-28q-55 0 -80 23q-21 22 -23 61t19 134q21 87 37 123.5t38 58.5q34 34 107 34h22q29 0 52 -12.5t71 -50.5l32 63h46l-33 -110l-53 -215q-12 -47 8 -67q13 -13 48 -13q51 0 79 28q37 37 75 203
q31 143 29.5 212.5t-33.5 102.5q-38 36 -142 36h-232q-71 0 -109.5 -12.5t-70.5 -43.5q-71 -73 -131 -342zM412 115q29 0 50.5 8.5t77.5 39.5l60 237q-60 43 -101 43h-31q-46 0 -65 -19q-28 -28 -57 -147q-19 -74 -19.5 -107t13.5 -42q13 -13 53 -13h19z" />
    <glyph glyph-name="A" unicode="A" horiz-adv-x="635" 
d="M396 703h49q24 0 32 -7t10 -28l57 -668h-77l-16 214h-290l-121 -214h-83l394 677q9 16 17.5 21t27.5 5zM400 634l-201 -354h248l-27 354h-20z" />
    <glyph glyph-name="B" unicode="B" horiz-adv-x="659" 
d="M493 633h-232l-59 -237h241q57 0 81 24t41 94q19 80 -3 104q-16 15 -69 15zM419 331h-233l-65 -264h254q52 0 69 16q29 27 50 113q22 90 -4 117q-19 18 -71 18zM371 0h-346l174 700h309q86 0 118 -32q44 -44 16 -158q-16 -69 -50.5 -102.5t-90.5 -44.5v-2
q106 -30 71 -169q-18 -70 -35 -101.5t-40 -51.5q-43 -39 -126 -39z" />
    <glyph glyph-name="C" unicode="C" horiz-adv-x="664" 
d="M647 482h-75q18 110 -6 134q-17 17 -70 17h-149q-59 0 -84 -25q-38 -38 -91 -258q-23 -97 -31 -155t-4 -79.5t15 -32.5q15 -16 68 -16h152q60 0 84 25q26 27 59 137h76q-42 -142 -83 -183q-29 -28 -59.5 -37t-84.5 -9h-158q-81 0 -113 32q-19 19 -27.5 50.5t-2.5 101.5
t32 176q25 104 49 170t37.5 86.5t30.5 37.5q28 29 58 37.5t85 8.5h155q82 0 115 -33q44 -41 22 -185z" />
    <glyph glyph-name="D" unicode="D" horiz-adv-x="684" 
d="M199 700h278q103 0 147 -44q70 -70 10 -316q-52 -209 -124 -281q-33 -33 -74.5 -46t-103.5 -13h-307zM464 634h-203l-141 -568h227q72 0 106 34q27 27 50.5 79t53.5 171q30 127 29.5 181t-24.5 77q-14 15 -34.5 20.5t-63.5 5.5z" />
    <glyph glyph-name="E" unicode="E" horiz-adv-x="595" 
d="M492 67l-16 -67h-451l174 700h453l-16 -67h-375l-59 -236h320l-17 -66h-320l-65 -264h372z" />
    <glyph glyph-name="F" unicode="F" horiz-adv-x="554" 
d="M612 633h-351l-63 -250h290l-17 -67h-290l-77 -316h-79l174 700h429z" />
    <glyph glyph-name="G" unicode="G" horiz-adv-x="681" 
d="M533 287h-186l18 67h263q-11 -44 -14 -54q-51 -202 -106 -254q-28 -28 -58.5 -37t-84.5 -9h-159q-81 0 -113 32q-19 19 -27.5 50.5t-2.5 101.5t32 176q25 104 49 170t37.5 86.5t30.5 37.5q28 29 58 37.5t85 8.5h162q78 0 112 -32q43 -43 20 -180h-73q9 68 7 92t-15 37
q-16 16 -67 16h-154q-59 0 -84 -25q-38 -38 -91 -258q-23 -97 -31 -155t-4 -79.5t15 -32.5q15 -16 68 -16h154q59 0 84 25q33 33 75 195z" />
    <glyph glyph-name="H" unicode="H" horiz-adv-x="720" 
d="M735 700l-174 -700h-79l82 330h-378l-82 -330h-79l174 700h79l-75 -303h378l75 303h79z" />
    <glyph glyph-name="I" unicode="I" horiz-adv-x="270" 
d="M108 0h-79l174 700h79z" />
    <glyph glyph-name="J" unicode="J" horiz-adv-x="563" 
d="M211 -1h-56q-87 0 -120 33q-23 23 -24.5 64t19.5 127h75q-15 -66 -16 -95t12 -44q17 -17 72 -17h40q51 0 74.5 5.5t40.5 22.5q34 36 78 212l98 393h79l-97 -391q-32 -130 -54.5 -182t-49.5 -79q-30 -30 -67.5 -39.5t-103.5 -9.5z" />
    <glyph glyph-name="K" unicode="K" horiz-adv-x="616" 
d="M599 700h93l-366 -341l210 -359h-86l-188 330h-76l-82 -330h-79l174 700h79l-76 -303h70z" />
    <glyph glyph-name="L" unicode="L" horiz-adv-x="550" 
d="M278 700l-157 -633h346l-16 -67h-426l174 700h79z" />
    <glyph glyph-name="M" unicode="M" horiz-adv-x="869" 
d="M316 35l-45 597h-12l-157 -632h-77l174 700h105q20 0 27 -7t9 -27l44 -568h12l325 574q9 16 17.5 22t25.5 6h121l-174 -700h-80l155 626h-12l-345 -599q-10 -18 -16.5 -22.5t-22.5 -4.5h-38q-22 0 -28.5 6.5t-7.5 28.5z" />
    <glyph glyph-name="N" unicode="N" horiz-adv-x="712" 
d="M727 700l-174 -700h-73q-18 0 -26 5.5t-13 21.5l-177 576h-13l-149 -603h-77l174 700h82q19 0 26 -5.5t12 -22.5l172 -561h13l146 589h77z" />
    <glyph glyph-name="O" unicode="O" horiz-adv-x="688" 
d="M373 0h-167q-81 0 -113 32q-19 19 -27.5 50.5t-2.5 101.5t32 176q25 104 49 170t37.5 86.5t30.5 37.5q28 29 58 37.5t85 8.5h167q80 0 112 -32q20 -19 28 -51t2 -101.5t-31 -175.5q-25 -104 -49 -170t-37.5 -86.5t-30.5 -37.5q-28 -29 -58 -37.5t-85 -8.5zM172 350
q-23 -97 -31 -155t-4 -79.5t15 -32.5q15 -16 68 -16h161q59 0 83 25q38 38 92 258q23 97 31 155t4 79.5t-15 32.5q-16 16 -68 16h-161q-59 0 -84 -25q-38 -38 -91 -258z" />
    <glyph glyph-name="P" unicode="P" horiz-adv-x="621" 
d="M626 472q-26 -104 -74 -152q-42 -42 -132 -42h-247l-69 -278h-79l174 700h294q87 0 117 -30q53 -53 16 -198zM473 633h-212l-71 -288h229q57 0 79 22q30 30 53 119q25 103 -4 131q-16 16 -74 16z" />
    <glyph glyph-name="Q" unicode="Q" horiz-adv-x="688" 
d="M402 -108h-73l-10 108h-113q-81 0 -113 32q-19 19 -27.5 50.5t-2.5 101.5t32 176q25 104 49 170t37.5 86.5t30.5 37.5q28 29 58 37.5t85 8.5h167q80 0 112 -32q20 -19 28 -51t2 -101.5t-31 -175.5q-25 -104 -49 -170t-37.5 -86.5t-30.5 -37.5q-26 -26 -53.5 -35.5
t-71.5 -10.5zM220 67h92l-15 144h73l14 -144q56 0 80 25q38 38 92 258q23 97 31 155t4 79.5t-15 32.5q-16 16 -68 16h-161q-59 0 -84 -25q-38 -38 -91 -258q-23 -97 -31 -155t-4 -79.5t15 -32.5q15 -16 68 -16z" />
    <glyph glyph-name="R" unicode="R" horiz-adv-x="666" 
d="M494 633h-233l-65 -264h240q53 0 75 22q33 28 53 111q21 89 -5 117q-15 14 -65 14zM558 187q-27 -129 -33 -187h-79q3 45 33 190q9 42 7 62t-15 33q-20 20 -84 20h-207l-76 -305h-79l174 700h311q82 0 112 -30q47 -49 20 -168q-20 -86 -56 -122.5t-96 -45.5v-2
q50 -14 66.5 -44.5t1.5 -100.5z" />
    <glyph glyph-name="S" unicode="S" horiz-adv-x="656" 
d="M59 211h74q-26 -112 -7 -132q13 -12 54 -12h200q48 0 67 20q21 19 40 98q19 77 -1 97q-10 11 -42 18l-200 39q-66 13 -90 37q-37 37 -10 151q22 92 62 132q41 41 123 41h189q73 0 100 -27q24 -24 26 -62t-15 -117h-76q13 63 13.5 88.5t-10.5 37.5q-14 13 -57 13h-175
q-47 0 -66 -20q-20 -20 -38 -93q-18 -74 1 -93q10 -12 43 -19l200 -40q65 -12 89 -36q40 -40 11 -153q-15 -59 -28 -87t-36 -51q-40 -41 -124 -41h-216q-72 0 -99 27q-22 22 -22 64t20 120z" />
    <glyph glyph-name="T" unicode="T" horiz-adv-x="568" 
d="M638 633h-224l-158 -633h-78l157 633h-224l17 67h526z" />
    <glyph glyph-name="U" unicode="U" horiz-adv-x="711" 
d="M278 700l-96 -386q-19 -77 -25.5 -124.5t-2.5 -68.5t16 -33q20 -20 105 -20h82q52 0 75 5.5t40 23.5q17 17 34 58.5t44 152.5l98 392h78l-96 -389q-32 -130 -54.5 -182t-49.5 -79q-30 -30 -68 -40t-103 -10h-105q-102 0 -140 38q-31 31 -33.5 88t29.5 199l93 375h79z" />
    <glyph glyph-name="V" unicode="V" horiz-adv-x="621" 
d="M178 32l-48 668h78l41 -626h19l349 626h85l-386 -677q-8 -16 -17 -21t-28 -5h-50q-25 0 -33 7t-10 28z" />
    <glyph glyph-name="W" unicode="W" horiz-adv-x="926" 
d="M546 703h34q28 0 36.5 -7t8.5 -28l-3 -575h16l277 607h83l-321 -679q-7 -15 -15.5 -19.5t-29.5 -4.5h-37q-29 0 -37.5 6t-8.5 27l5 572h-16l-284 -580q-7 -15 -15.5 -20t-28.5 -5h-39q-28 0 -37 6.5t-8 26.5l16 670h78l-20 -607h15l282 580q9 18 18.5 24t30.5 6z" />
    <glyph glyph-name="X" unicode="X" horiz-adv-x="612" 
d="M449 0l-131 291h-8l-259 -291h-93l325 362l-156 338h85l126 -277h7l249 277h94l-315 -348l159 -352h-83z" />
    <glyph glyph-name="Y" unicode="Y" horiz-adv-x="576" 
d="M673 700l-343 -422l-69 -278h-79l70 283l-136 417h81l107 -342h6l274 342h89z" />
    <glyph glyph-name="Z" unicode="Z" horiz-adv-x="603" 
d="M505 67l-16 -67h-508l11 51l555 582h-390l17 67h492l-11 -51l-555 -582h405z" />
    <glyph glyph-name="bracketleft" unicode="[" horiz-adv-x="416" 
d="M206 700h256l-15 -62h-185l-181 -726h185l-15 -62h-257z" />
    <glyph glyph-name="backslash" unicode="\" horiz-adv-x="470" 
d="M328 -160l-191 870h69l191 -870h-69z" />
    <glyph glyph-name="bracketright" unicode="]" horiz-adv-x="416" 
d="M425 700l-212 -850h-256l15 62h185l181 726h-185l15 62h257z" />
    <glyph glyph-name="asciicircum" unicode="^" horiz-adv-x="511" 
d="M428 478l-76 167l-159 -167h-56v5l203 220h47l93 -220v-5h-52z" />
    <glyph glyph-name="underscore" unicode="_" horiz-adv-x="486" 
d="M-103 -124l15 59h495l-14 -59h-496z" />
    <glyph glyph-name="grave" unicode="`" horiz-adv-x="494" 
d="M417 606h-62l-118 113v5h112l68 -113v-5z" />
    <glyph glyph-name="a" unicode="a" horiz-adv-x="555" 
d="M408 0h-69l17 74q-66 -45 -100 -60t-75 -15h-40q-63 0 -92 29q-36 36 -15 130q17 69 49 100q25 25 62.5 35t105.5 10q75 0 159 -13l19 77q18 73 -2 94q-13 13 -54 13h-87q-50 0 -70 -19q-15 -15 -35 -80h-72q26 91 56 121q39 39 117 39h115q62 0 92 -28q37 -38 13 -135z
M207 61q35 0 64.5 11.5t95.5 47.5l32 128h-163q-77 0 -101 -24q-17 -19 -29 -66q-15 -65 4 -82q15 -15 57 -15h40z" />
    <glyph glyph-name="b" unicode="b" horiz-adv-x="582" 
d="M296 -1h-40q-35 0 -63 14.5t-85 59.5l-18 -73h-74l179 720h74l-65 -259q67 47 99 61t75 14h40q69 0 99 -30q25 -25 26 -74.5t-26 -166.5q-26 -108 -45.5 -154t-43.5 -70t-54 -33t-78 -9zM350 471q-36 0 -63 -10t-95 -48l-74 -298q71 -51 125 -51h53q57 0 80 23
q16 16 30.5 52.5t37.5 129.5q23 94 25 133.5t-14 52.5q-17 16 -66 16h-39z" />
    <glyph glyph-name="c" unicode="c" horiz-adv-x="539" 
d="M282 0h-111q-69 0 -99 31q-27 27 -29.5 77.5t23.5 166.5q26 106 45.5 150.5t43.5 68.5t54 32.5t78 8.5h102q71 0 100 -29q38 -39 14 -146h-70q14 78 -4 96q-14 14 -61 14h-89q-54 0 -73 -20q-15 -14 -29 -49t-38 -133q-16 -65 -21.5 -104.5t-2.5 -56.5t12 -26
q16 -16 63 -16h91q49 0 68 19q23 23 42 97h72q-18 -66 -31.5 -95t-33.5 -49q-37 -37 -116 -37z" />
    <glyph glyph-name="d" unicode="d" horiz-adv-x="582" 
d="M285 536h41q35 0 63 -14.5t85 -59.5l65 258h74l-181 -720h-72l18 75q-70 -48 -101 -62t-73 -14h-40q-69 0 -99 30q-26 26 -26.5 75t26.5 166q26 108 45.5 154t43.5 70t54 33t77 9zM231 64q37 0 63.5 10t93.5 47l75 298q-70 52 -124 52h-53q-57 0 -80 -23
q-32 -32 -68 -182q-23 -94 -25 -133t14 -52q16 -17 66 -17h38z" />
    <glyph glyph-name="e" unicode="e" horiz-adv-x="559" 
d="M289 0h-118q-67 0 -100 31q-26 27 -28.5 77.5t23.5 166.5q26 106 45.5 150.5t43.5 68.5t54 32.5t78 8.5h103q69 0 100 -31q27 -27 29.5 -77t-26.5 -170q-3 -13 -16 -13h-345q-32 -136 -5 -165q15 -15 63 -15h100q52 0 72 20q19 19 35 80h72q-26 -93 -59 -126
q-23 -23 -50 -30.5t-71 -7.5zM205 451q-27 -25 -59 -149h285q17 73 17 108.5t-14 45.5q-15 16 -62 16h-94q-52 0 -73 -21z" />
    <glyph glyph-name="f" unicode="f" horiz-adv-x="337" 
d="M126 0h-74l117 472h-91l16 63h91l9 35q21 84 50 115q34 35 101 35h75l-16 -62h-57q-34 0 -49 -15q-16 -16 -31 -73l-8 -35h117l-16 -63h-116z" />
    <glyph glyph-name="g" unicode="g" horiz-adv-x="582" 
d="M13 -20h71q-6 -45 6 -57t46 -12h132q41 0 55 13q21 17 36 80l29 116q-67 -47 -98.5 -61t-74.5 -14h-34q-69 0 -100 30q-27 27 -30 73.5t21 150.5q22 90 40.5 131t41.5 64q24 24 54 33t77 9h40q35 0 63 -14.5t85 -59.5l19 73h74l-131 -523q-15 -62 -29 -89t-37 -46
q-33 -27 -99 -27h-160q-55 0 -81 26q-29 29 -16 104zM143 290q-19 -78 -19 -115.5t15 -48.5q17 -17 67 -17h36q37 0 63 10t95 48l63 252q-72 53 -124 53h-53q-56 0 -80 -23q-31 -33 -63 -159z" />
    <glyph glyph-name="h" unicode="h" 
d="M435 0h-74l94 376q14 59 -6 79q-16 16 -61 16h-38q-35 0 -64 -10.5t-93 -46.5l-103 -414h-74l179 720h74l-65 -260q74 49 103 62.5t69 13.5h49q59 0 88 -29q39 -41 14 -138z" />
    <glyph glyph-name="i" unicode="i" horiz-adv-x="239" 
d="M279 730l-24 -95h-88l24 95h88zM223 535l-134 -535h-74l134 535h74z" />
    <glyph glyph-name="j" unicode="j" horiz-adv-x="248" 
d="M289 730l-24 -95h-88l24 95h88zM159 535h74l-136 -545q-20 -80 -48 -106q-35 -36 -104 -36q-31 0 -55 6l14 58h43q36 0 51 15q13 13 21 49z" />
    <glyph glyph-name="k" unicode="k" horiz-adv-x="511" 
d="M90 0h-74l179 720h74l-104 -419h52l251 234h90l-290 -269l165 -266h-84l-145 240h-54z" />
    <glyph glyph-name="l" unicode="l" horiz-adv-x="238" 
d="M89 0h-74l179 720h74z" />
    <glyph glyph-name="m" unicode="m" horiz-adv-x="886" 
d="M740 0h-74l94 376q14 59 -6 79q-14 16 -61 16h-18q-35 0 -64 -10.5t-95 -47.5q-1 -17 -8 -44l-93 -369h-74l94 376q14 60 -6 79q-14 16 -61 16h-18q-35 0 -63 -10.5t-92 -45.5l-105 -415h-74l134 535h73l-19 -75q71 48 101 62t71 14h29q61 0 88 -29q21 -21 24 -56
q81 55 112 70t72 15h29q59 0 88 -29q39 -39 14 -138z" />
    <glyph glyph-name="n" unicode="n" 
d="M90 0h-74l134 535h73l-19 -75q71 48 101 62t71 14h49q59 0 88 -29q39 -41 14 -138l-92 -369h-74l94 376q14 59 -6 79q-16 16 -61 16h-38q-35 0 -63 -10.5t-92 -45.5z" />
    <glyph glyph-name="o" unicode="o" horiz-adv-x="569" 
d="M503 260q-26 -105 -45.5 -149.5t-43.5 -69.5q-42 -41 -132 -41h-111q-67 0 -100 31q-26 27 -28.5 77.5t23.5 166.5q26 106 45.5 150.5t43.5 68.5t54 32.5t78 8.5h111q69 0 100 -31q26 -27 28.5 -77t-23.5 -167zM139 268q-23 -95 -24.5 -138t13.5 -51q15 -15 62 -15h100
q53 0 73 20q15 15 29 50.5t38 133.5q23 94 24.5 137t-13.5 51q-15 15 -62 15h-100q-53 0 -73 -20q-15 -15 -29 -50t-38 -133z" />
    <glyph glyph-name="p" unicode="p" horiz-adv-x="582" 
d="M296 -1h-40q-35 0 -63 14.5t-85 59.5l-56 -223h-74l172 685h73l-19 -74q68 47 99.5 61t74.5 14h40q69 0 99 -30q26 -25 27 -75t-26 -166q-27 -108 -46.5 -154t-44.5 -70q-24 -24 -53.5 -33t-77.5 -9zM351 471q-37 0 -63.5 -10t-93.5 -47l-75 -298q70 -52 124 -52h54
q56 0 79 23q17 17 31.5 53.5t37.5 128.5q23 94 24.5 133t-14.5 53q-16 16 -66 16h-38z" />
    <glyph glyph-name="q" unicode="q" horiz-adv-x="582" 
d="M566 535l-171 -685h-74l56 224q-68 -48 -99.5 -61.5t-73.5 -13.5h-40q-69 0 -99 30q-26 26 -26.5 75t26.5 166q26 108 45.5 154t43.5 70t54 33t77 9h41q35 0 63 -14.5t85 -59.5l18 73h74zM231 64q37 0 63.5 10t93.5 47l75 298q-73 52 -124 52h-53q-57 0 -80 -23
q-32 -32 -68 -182q-23 -94 -25 -133t14 -52q16 -17 66 -17h38z" />
    <glyph glyph-name="r" unicode="r" horiz-adv-x="372" 
d="M90 0h-74l134 535h73l-21 -82q59 50 86.5 66.5t58.5 16.5h62l-19 -76h-62q-33 0 -60.5 -9t-73.5 -37z" />
    <glyph glyph-name="s" unicode="s" horiz-adv-x="533" 
d="M35 162h66q-15 -74 -2 -89q14 -12 47 -12h149q34 0 49 15q16 14 30 67q13 51 -2 66q-11 11 -36 15l-152 30q-56 11 -75 31q-30 30 -9 117q15 66 50 101q31 32 94 32h161q52 0 78 -26q32 -32 10 -132h-68q14 69 -1 84q-13 13 -50 13h-129q-34 0 -49 -15q-16 -18 -28 -63
q-13 -49 2 -64q10 -10 36 -14l153 -30q54 -11 73 -30q32 -31 9 -121q-17 -71 -49 -105q-33 -32 -95 -32h-182q-52 0 -75 25q-34 32 -5 137z" />
    <glyph glyph-name="t" unicode="t" horiz-adv-x="369" 
d="M238 472l-86 -345q-9 -39 4 -52q12 -12 46 -12h79l-12 -47l-49 -12q-38 -8 -65 -8q-43 0 -66 23q-31 31 -12 108l87 345h-92l15 63h93l34 134h74l-34 -134h142l-16 -63h-142z" />
    <glyph glyph-name="u" unicode="u" 
d="M491 535h74l-134 -535h-73l18 75q-72 -49 -101.5 -62.5t-69.5 -13.5h-49q-57 0 -88 29q-39 41 -14 138l92 369h74l-94 -375q-14 -60 6 -80q16 -16 61 -16h38q36 0 64 10.5t91 45.5z" />
    <glyph glyph-name="v" unicode="v" horiz-adv-x="491" 
d="M458 535h77l-296 -513q-14 -25 -38 -25h-40q-17 0 -24.5 7.5t-9.5 25.5l-41 505h72l33 -454h11z" />
    <glyph glyph-name="w" unicode="w" horiz-adv-x="736" 
d="M407 536h41q18 0 25 -6.5t7 -24.5l1 -426h12l204 456h77l-241 -512q-12 -26 -38 -26h-49q-19 0 -26 6.5t-7 26.5l4 418h-11l-206 -425q-12 -26 -38 -26h-49q-19 0 -26 6.5t-7 26.5l13 505h72l-17 -456h12l208 431q7 15 15 20.5t24 5.5z" />
    <glyph glyph-name="x" unicode="x" horiz-adv-x="497" 
d="M40 0h-87l250 276l-125 259h79l99 -207h6l188 207h88l-247 -269l128 -266h-80l-100 213h-6z" />
    <glyph glyph-name="y" unicode="y" horiz-adv-x="519" 
d="M88 535h77l55 -432h5l252 432h83l-378 -627q-20 -33 -43 -46.5t-59 -13.5q-29 0 -99 7l16 59h91q21 0 36 23l40 65z" />
    <glyph glyph-name="z" unicode="z" horiz-adv-x="495" 
d="M399 65l-17 -65h-407l10 46l414 424h-294l16 65h396l-9 -42l-417 -428h308z" />
    <glyph glyph-name="braceleft" unicode="{" horiz-adv-x="438" 
d="M235 535q7 33 37.5 63t136.5 112h59q-93 -85 -124 -118.5t-36 -56.5q-6 -27 -12.5 -86.5t-9.5 -76.5q-9 -44 -34.5 -63.5t-91.5 -32.5v-2q45 -11 63 -28.5t18 -44.5q0 -25 -31 -98.5t-31 -93.5q0 -54 70 -169h-48q-94 118 -94 168q0 30 31 106t31 93q0 13 -10 21t-35 14
q-5 1 -64 10l11 46q52 5 85 14q24 7 36.5 17.5t18.5 33.5q3 13 10 78t14 94z" />
    <glyph glyph-name="bar" unicode="|" horiz-adv-x="313" 
d="M83 -160h-67l234 940h67z" />
    <glyph glyph-name="braceright" unicode="}" horiz-adv-x="438" 
d="M229 187q-3 -13 -10 -78t-14 -94q-7 -33 -37.5 -63t-136.5 -112h-59q93 85 124 118.5t36 56.5q6 27 12.5 86.5t9.5 76.5q9 44 34.5 63.5t91.5 32.5v2q-45 11 -63 28.5t-18 44.5q0 25 31 98.5t31 93.5q0 54 -70 169h48q94 -118 94 -168q0 -30 -31 -106t-31 -93
q0 -13 10 -21t35 -14q5 -1 64 -10l-11 -46q-52 -5 -85 -14q-24 -7 -36.5 -17.5t-18.5 -33.5z" />
    <glyph glyph-name="asciitilde" unicode="~" horiz-adv-x="442" 
d="M73 260l16 66q8 30 21 40q11 11 32 11h8q21 0 58 -15l110 -47l37 61h39l-17 -66q-8 -31 -20 -40q-11 -11 -32 -11h-8q-21 0 -59 15l-109 48l-38 -62h-38z" />
    <glyph glyph-name="uni00A0" unicode="&#xa0;" horiz-adv-x="189" 
 />
    <glyph glyph-name="exclamdown" unicode="&#xa1;" horiz-adv-x="328" 
d="M200 500h34l-81 -463l-9 -37h-95l9 36zM291 598h-91l25 102h91z" />
    <glyph glyph-name="cent" unicode="&#xa2;" horiz-adv-x="550" 
d="M247 -3h-61l24 96h-11q-69 0 -99 31q-27 27 -30 75.5t22 160.5q25 101 44 144t42 66q25 24 55 33t77 9h29l23 91h61l-24 -91h14q71 0 102 -29q21 -21 24 -53.5t-11 -93.5h-69q15 82 -1 98q-14 14 -61 14h-16l-97 -391h28q50 0 68 19q21 21 41 99h70q-18 -70 -31.5 -98
t-34.5 -48q-36 -36 -113 -36h-42zM164 353q-22 -90 -23.5 -131t12.5 -49q16 -16 63 -16h11l98 391h-24q-53 0 -73 -20q-15 -15 -28 -48.5t-36 -126.5z" />
    <glyph glyph-name="sterling" unicode="&#xa3;" horiz-adv-x="657" 
d="M539 67l-17 -67h-533l17 67h96l57 228h-96l16 64h96l34 134q30 118 72 162q47 46 136 46h101q81 0 110 -29q24 -25 26.5 -64t-15.5 -120h-75q24 106 1 130q-18 16 -68 16h-87q-51 0 -74 -23q-27 -27 -50 -118l-33 -134h207l-16 -64h-207l-56 -228h358z" />
    <glyph glyph-name="yen" unicode="&#xa5;" horiz-adv-x="647" 
d="M701 700l-308 -385h155l-17 -64h-174l-62 -251h-78l62 251h-176l16 64h158l-121 385h81l102 -341h7l266 341h89z" />
    <glyph glyph-name="section" unicode="&#xa7;" horiz-adv-x="650" 
d="M117 161h72q-9 -44 -9 -60t10 -28q11 -12 50 -12h72q40 0 58 17q14 14 25 54q12 41 -3 58q-10 9 -43 16l-154 32q-75 15 -95 35q-34 34 -16 107q15 61 45 91q29 29 86 32q-5 28 6 67q15 60 48 93q37 38 116 38h88q67 0 91 -24q18 -18 19.5 -48t-11.5 -90h-72q9 43 9 59.5
t-9 28.5q-12 12 -50 12h-75q-38 0 -55 -17q-15 -15 -26 -54q-11 -44 3 -57q9 -11 44 -17l153 -33q74 -14 95 -35q33 -33 16 -106q-16 -63 -44 -91q-31 -31 -88 -33q5 -28 -5 -67q-15 -59 -47 -93q-38 -37 -119 -37h-86q-65 0 -90 23q-19 19 -20.5 49t11.5 90zM217 302
l215 -46q54 -12 77 11q14 13 25 47q11 45 -5 63q-12 12 -56 21l-215 45q-55 12 -78 -10q-15 -18 -24 -48q-12 -44 5 -63q13 -11 56 -20z" />
    <glyph glyph-name="dieresis" unicode="&#xa8;" horiz-adv-x="494" 
d="M202 625l24 94h83l-23 -94h-84zM385 625l24 94h83l-23 -94h-84z" />
    <glyph glyph-name="copyright" unicode="&#xa9;" horiz-adv-x="784" 
d="M495 288h46q-22 -77 -46 -101t-75 -24h-92q-43 0 -61 18q-16 16 -17 49.5t20 129.5q33 133 64 164q23 24 75 24h93q45 0 62 -17q23 -23 9 -103h-45q12 60 0 72q-10 8 -35 8h-86q-28 0 -40 -12q-21 -21 -50 -141q-31 -124 -13 -142q9 -10 36 -10h83q28 0 40 12
q15 15 32 73zM135 350q-52 -226 8 -288q20 -20 49.5 -29t95.5 -9h111q68 0 104.5 11.5t65.5 39.5q72 72 118 275q52 226 -8 288q-20 20 -49.5 29t-95.5 9h-111q-68 0 -104.5 -11.5t-65.5 -39.5q-72 -72 -118 -275zM715 350q-48 -212 -122 -286q-34 -34 -76.5 -49t-116.5 -15
h-115q-73 0 -106.5 11t-55.5 33q-69 71 -16 306q48 212 122 286q34 34 76.5 49t116.5 15h115q73 0 106.5 -11t55.5 -33q69 -71 16 -306z" />
    <glyph glyph-name="ordfeminine" unicode="&#xaa;" horiz-adv-x="472" 
d="M400 315h-54l11 47q-41 -29 -63 -38.5t-50 -9.5h-36q-54 0 -75 21q-26 27 -10 94q11 53 37 77q33 33 122 33q63 0 116 -10l12 50q14 51 2 63q-9 9 -40 9h-72q-32 0 -45 -13q-11 -13 -22 -53h-56q17 64 40 87q27 28 86 28h81q58 0 76 -20q15 -14 15.5 -38t-9.5 -61z
M256 363q40 0 110 39l23 92h-120q-53 0 -68 -15q-12 -12 -21 -50q-10 -41 3 -55q13 -11 42 -11h31zM59 178l11 49h313l-12 -49h-312z" />
    <glyph glyph-name="guillemotleft" unicode="&#xab;" horiz-adv-x="570" 
d="M383 84l-116 169l9 43l191 156h89l-218 -185l125 -183h-80zM171 84l-116 169l9 43l191 156h89l-218 -185l125 -183h-80z" />
    <glyph glyph-name="registered" unicode="&#xae;" horiz-adv-x="448" 
d="M339 406h-28q1 15 10 54q5 22 -1 28q-6 7 -26 7h-59l-22 -89h-27l52 211h95q26 0 35 -9q14 -14 6 -52q-10 -43 -44 -50v-1q28 -8 19 -43q-9 -46 -10 -56zM324 594h-64l-19 -76h69q14 0 20 5q10 8 16 34q7 24 -1 32q-5 5 -21 5zM452 508q-27 -117 -68 -158
q-19 -20 -42 -28t-64 -8h-63q-67 0 -91 25q-42 42 -12 167q27 117 68 158q19 20 42 28t64 8h63q67 0 91 -25q42 -42 12 -167zM132 507q-29 -121 6 -156q20 -20 75 -20h68q60 0 89 29q38 41 62 147q29 121 -6 156q-20 20 -75 20h-68q-60 0 -89 -29q-38 -41 -62 -147z" />
    <glyph glyph-name="macron" unicode="&#xaf;" horiz-adv-x="494" 
d="M188 617l14 60h291l-13 -60h-292z" />
    <glyph glyph-name="degree" unicode="&#xb0;" horiz-adv-x="413" 
d="M189 537q-21 -82 -2 -101q11 -11 41 -11h45q31 0 46 15q19 19 38 97q21 82 3 101q-11 11 -42 11h-44q-32 0 -46 -15q-19 -17 -39 -97zM414 533q-14 -58 -26.5 -83.5t-30.5 -43.5q-33 -32 -91 -32h-53q-50 0 -72 22q-35 35 -9 145q14 58 27 83.5t31 43.5q32 32 90 32h54
q51 0 71 -22q37 -35 9 -145z" />
    <glyph glyph-name="plusminus" unicode="&#xb1;" horiz-adv-x="511" 
d="M376 619l-41 -163h162l-16 -65h-162l-41 -162h-66l41 162h-163l17 65h162l41 163h66zM19 108l17 64h391l-17 -64h-391z" />
    <glyph glyph-name="acute" unicode="&#xb4;" horiz-adv-x="494" 
d="M219 606v5l121 113h113v-5l-165 -113h-69z" />
    <glyph glyph-name="paragraph" unicode="&#xb6;" horiz-adv-x="543" 
d="M374 278h-131q-87 0 -117 30q-53 53 -17 198q27 104 75 152q42 42 132 42h242l-174 -700h-79z" />
    <glyph glyph-name="periodcentered" unicode="&#xb7;" horiz-adv-x="235" 
d="M93 370h97l-25 -104h-97z" />
    <glyph glyph-name="cedilla" unicode="&#xb8;" horiz-adv-x="494" 
d="M157 -91h-38l12 45h40q50 0 65 -15q19 -19 10 -66q-9 -35 -29 -57q-20 -20 -73 -20h-69l-36 32l3 13h106q23 0 31 8q9 7 13 26q5 19 -3 27q-7 7 -32 7z" />
    <glyph glyph-name="ordmasculine" unicode="&#xba;" horiz-adv-x="498" 
d="M474 507q-29 -120 -66 -159q-34 -33 -100 -33h-79q-58 0 -80 22q-37 40 -5 171q17 73 31.5 106t34.5 53q33 33 100 33h78q57 0 80 -23q38 -38 6 -170zM60 177l12 50h333l-12 -50h-333zM205 505q-26 -102 -6 -126q12 -11 47 -11h63q41 0 57 16q19 21 46 126q27 104 6 125
q-12 12 -46 12h-63q-41 0 -57 -17q-20 -20 -47 -125z" />
    <glyph glyph-name="guillemotright" unicode="&#xbb;" horiz-adv-x="570" 
d="M225 84l217 183l-124 185h80l116 -169l-9 -44l-192 -155h-88zM13 84l217 183l-124 185h80l116 -169l-9 -44l-192 -155h-88z" />
    <glyph glyph-name="questiondown" unicode="&#xbf;" horiz-adv-x="531" 
d="M422 599h-90l25 101h90zM393 210h77q-23 -85 -38 -120.5t-37 -55.5q-37 -34 -116 -34h-131q-78 0 -107 29q-38 38 -14 142q13 57 25.5 82.5t33.5 46.5q4 4 8.5 8t8.5 7t11 6.5t10.5 6t12.5 6.5t13 6t15 6.5t15.5 6.5t18 7.5l18.5 7.5q48 18 66 38q19 19 38 89h61l-7 -29
q-22 -84 -49 -112q-25 -25 -99 -54q-70 -27 -87 -45q-19 -19 -34 -81q-18 -72 1 -92q14 -14 61 -14h117q41 0 59 15q19 16 49 127z" />
    <glyph glyph-name="Agrave" unicode="&#xc0;" horiz-adv-x="635" 
d="M396 703h49q24 0 32 -7t10 -28l57 -668h-77l-16 214h-290l-121 -214h-83l394 677q9 16 17.5 21t27.5 5zM400 634l-201 -354h248l-27 354h-20zM481 766h-62l-118 113v5h112l68 -113v-5z" />
    <glyph glyph-name="Aacute" unicode="&#xc1;" horiz-adv-x="635" 
d="M396 703h49q24 0 32 -7t10 -28l57 -668h-77l-16 214h-290l-121 -214h-83l394 677q9 16 17.5 21t27.5 5zM400 634l-201 -354h248l-27 354h-20zM386 766v5l121 113h113v-5l-165 -113h-69z" />
    <glyph glyph-name="Acircumflex" unicode="&#xc2;" horiz-adv-x="635" 
d="M396 703h49q24 0 32 -7t10 -28l57 -668h-77l-16 214h-290l-121 -214h-83l394 677q9 16 17.5 21t27.5 5zM400 634l-201 -354h248l-27 354h-20zM540 768l-82 72l-118 -72h-59v5l147 119h83l87 -119v-5h-58z" />
    <glyph glyph-name="Atilde" unicode="&#xc3;" horiz-adv-x="635" 
d="M396 703h49q24 0 32 -7t10 -28l57 -668h-77l-16 214h-290l-121 -214h-83l394 677q9 16 17.5 21t27.5 5zM400 634l-201 -354h248l-27 354h-20zM297 775l16 66q8 30 21 40q11 11 32 11h8q21 0 59 -15l110 -47l37 61h38l-17 -66q-6 -29 -20 -40q-11 -11 -32 -11h-8
q-21 0 -58 15l-109 48l-38 -62h-39z" />
    <glyph glyph-name="Adieresis" unicode="&#xc4;" horiz-adv-x="635" 
d="M396 703h49q24 0 32 -7t10 -28l57 -668h-77l-16 214h-290l-121 -214h-83l394 677q9 16 17.5 21t27.5 5zM400 634l-201 -354h248l-27 354h-20zM312 785l24 94h83l-23 -94h-84zM495 785l24 94h83l-23 -94h-84z" />
    <glyph glyph-name="Aring" unicode="&#xc5;" horiz-adv-x="635" 
d="M567 755q-9 -42 -34 -67q-18 -18 -46 -24l57 -664h-77l-16 214h-290l-121 -214h-83l388 667q-14 4 -24 14q-26 28 -13 84q11 46 35 68q24 25 77 25h70q45 0 65 -20q26 -26 12 -83zM400 635l-201 -355h248l-28 355h-19zM395 704h65q26 0 37 11q12 11 20 45q9 36 -3 48
q-8 8 -34 8h-64q-27 0 -37 -10q-14 -14 -21 -45q-9 -36 3 -48q9 -9 34 -9z" />
    <glyph glyph-name="AE" unicode="&#xc6;" horiz-adv-x="957" 
d="M-62 0l537 663q17 22 30 29.5t38 7.5h472l-17 -67h-375l-59 -236h320l-17 -66h-320l-64 -264h371l-16 -67h-450l58 233h-233l-187 -233h-88zM538 636l-272 -337h196l84 337h-8z" />
    <glyph glyph-name="Ccedilla" unicode="&#xc7;" horiz-adv-x="664" 
d="M647 482h-75q18 110 -6 134q-17 17 -70 17h-149q-59 0 -84 -25q-38 -38 -91 -258q-23 -97 -31 -155t-4 -79.5t15 -32.5q15 -16 68 -16h152q60 0 84 25q26 27 59 137h76q-42 -142 -83 -183q-29 -28 -59.5 -37t-84.5 -9h-158q-81 0 -113 32q-19 19 -27.5 50.5t-2.5 101.5
t32 176q25 104 49 170t37.5 86.5t30.5 37.5q28 29 58 37.5t85 8.5h155q82 0 115 -33q44 -41 22 -185zM240 -91h-38l12 45h40q50 0 65 -15q19 -19 10 -66q-9 -35 -29 -57q-20 -20 -73 -20h-69l-36 32l3 13h106q23 0 31 8q9 7 13 26q5 19 -3 27q-7 7 -32 7z" />
    <glyph glyph-name="Egrave" unicode="&#xc8;" horiz-adv-x="595" 
d="M492 67l-16 -67h-451l174 700h453l-16 -67h-375l-59 -236h320l-17 -66h-320l-65 -264h372zM477 766h-62l-118 113v5h112l68 -113v-5z" />
    <glyph glyph-name="Eacute" unicode="&#xc9;" horiz-adv-x="595" 
d="M381 766v5l121 113h113v-5l-165 -113h-69zM492 67l-16 -67h-451l174 700h453l-16 -67h-375l-59 -236h320l-17 -66h-320l-65 -264h372z" />
    <glyph glyph-name="Ecircumflex" unicode="&#xca;" horiz-adv-x="595" 
d="M492 67l-16 -67h-451l174 700h453l-16 -67h-375l-59 -236h320l-17 -66h-320l-65 -264h372zM535 768l-82 72l-118 -72h-59v5l147 119h83l87 -119v-5h-58z" />
    <glyph glyph-name="Edieresis" unicode="&#xcb;" horiz-adv-x="595" 
d="M307 785l24 94h83l-23 -94h-84zM490 785l24 94h83l-23 -94h-84zM492 67l-16 -67h-451l174 700h453l-16 -67h-375l-59 -236h320l-17 -66h-320l-65 -264h372z" />
    <glyph glyph-name="Igrave" unicode="&#xcc;" horiz-adv-x="270" 
d="M108 0h-79l174 700h79zM300 766h-62l-118 113v5h112l68 -113v-5z" />
    <glyph glyph-name="Iacute" unicode="&#xcd;" horiz-adv-x="270" 
d="M108 0h-79l174 700h79zM204 766v5l121 113h113v-5l-165 -113h-69z" />
    <glyph glyph-name="Icircumflex" unicode="&#xce;" horiz-adv-x="270" 
d="M108 0h-79l174 700h79zM358 768l-82 72l-118 -72h-59v5l147 119h83l87 -119v-5h-58z" />
    <glyph glyph-name="Idieresis" unicode="&#xcf;" horiz-adv-x="270" 
d="M108 0h-79l174 700h79zM130 785l24 94h83l-23 -94h-84zM313 785l24 94h83l-23 -94h-84z" />
    <glyph glyph-name="Eth" unicode="&#xd0;" horiz-adv-x="690" 
d="M205 700h278q103 0 147 -44q70 -70 10 -316q-52 -209 -124 -281q-33 -33 -74.5 -46t-103.5 -13h-307l80 321h-98l16 66h98zM470 634h-203l-61 -247h161l-16 -66h-162l-63 -255h227q72 0 106 34q27 27 50.5 79t53.5 171q30 127 29.5 181t-24.5 77q-14 15 -34.5 20.5
t-63.5 5.5z" />
    <glyph glyph-name="Ntilde" unicode="&#xd1;" horiz-adv-x="712" 
d="M727 700l-174 -700h-73q-18 0 -26 5.5t-13 21.5l-177 576h-13l-149 -603h-77l174 700h82q19 0 26 -5.5t12 -22.5l172 -561h13l146 589h77zM335 775l16 66q8 30 21 40q11 11 32 11h8q21 0 59 -15l110 -47l37 61h38l-17 -66q-6 -29 -20 -40q-11 -11 -32 -11h-8
q-21 0 -58 15l-109 48l-38 -62h-39z" />
    <glyph glyph-name="Ograve" unicode="&#xd2;" horiz-adv-x="688" 
d="M373 0h-167q-81 0 -113 32q-19 19 -27.5 50.5t-2.5 101.5t32 176q25 104 49 170t37.5 86.5t30.5 37.5q28 29 58 37.5t85 8.5h167q80 0 112 -32q20 -19 28 -51t2 -101.5t-31 -175.5q-25 -104 -49 -170t-37.5 -86.5t-30.5 -37.5q-28 -29 -58 -37.5t-85 -8.5zM172 350
q-23 -97 -31 -155t-4 -79.5t15 -32.5q15 -16 68 -16h161q59 0 83 25q38 38 92 258q23 97 31 155t4 79.5t-15 32.5q-16 16 -68 16h-161q-59 0 -84 -25q-38 -38 -91 -258zM504 766h-62l-118 113v5h112l68 -113v-5z" />
    <glyph glyph-name="Oacute" unicode="&#xd3;" horiz-adv-x="688" 
d="M409 766v5l121 113h113v-5l-165 -113h-69zM373 0h-167q-81 0 -113 32q-19 19 -27.5 50.5t-2.5 101.5t32 176q25 104 49 170t37.5 86.5t30.5 37.5q28 29 58 37.5t85 8.5h167q80 0 112 -32q20 -19 28 -51t2 -101.5t-31 -175.5q-25 -104 -49 -170t-37.5 -86.5t-30.5 -37.5
q-28 -29 -58 -37.5t-85 -8.5zM172 350q-23 -97 -31 -155t-4 -79.5t15 -32.5q15 -16 68 -16h161q59 0 83 25q38 38 92 258q23 97 31 155t4 79.5t-15 32.5q-16 16 -68 16h-161q-59 0 -84 -25q-38 -38 -91 -258z" />
    <glyph glyph-name="Ocircumflex" unicode="&#xd4;" horiz-adv-x="688" 
d="M373 0h-167q-81 0 -113 32q-19 19 -27.5 50.5t-2.5 101.5t32 176q25 104 49 170t37.5 86.5t30.5 37.5q28 29 58 37.5t85 8.5h167q80 0 112 -32q20 -19 28 -51t2 -101.5t-31 -175.5q-25 -104 -49 -170t-37.5 -86.5t-30.5 -37.5q-28 -29 -58 -37.5t-85 -8.5zM172 350
q-23 -97 -31 -155t-4 -79.5t15 -32.5q15 -16 68 -16h161q59 0 83 25q38 38 92 258q23 97 31 155t4 79.5t-15 32.5q-16 16 -68 16h-161q-59 0 -84 -25q-38 -38 -91 -258zM563 768l-82 72l-118 -72h-59v5l147 119h83l87 -119v-5h-58z" />
    <glyph glyph-name="Otilde" unicode="&#xd5;" horiz-adv-x="688" 
d="M373 0h-167q-81 0 -113 32q-19 19 -27.5 50.5t-2.5 101.5t32 176q25 104 49 170t37.5 86.5t30.5 37.5q28 29 58 37.5t85 8.5h167q80 0 112 -32q20 -19 28 -51t2 -101.5t-31 -175.5q-25 -104 -49 -170t-37.5 -86.5t-30.5 -37.5q-28 -29 -58 -37.5t-85 -8.5zM172 350
q-23 -97 -31 -155t-4 -79.5t15 -32.5q15 -16 68 -16h161q59 0 83 25q38 38 92 258q23 97 31 155t4 79.5t-15 32.5q-16 16 -68 16h-161q-59 0 -84 -25q-38 -38 -91 -258zM319 775l16 66q8 30 21 40q11 11 32 11h8q21 0 59 -15l110 -47l37 61h38l-17 -66q-6 -29 -20 -40
q-11 -11 -32 -11h-8q-21 0 -58 15l-109 48l-38 -62h-39z" />
    <glyph glyph-name="Odieresis" unicode="&#xd6;" horiz-adv-x="688" 
d="M335 785l24 94h83l-23 -94h-84zM518 785l24 94h83l-23 -94h-84zM373 0h-167q-81 0 -113 32q-19 19 -27.5 50.5t-2.5 101.5t32 176q25 104 49 170t37.5 86.5t30.5 37.5q28 29 58 37.5t85 8.5h167q80 0 112 -32q20 -19 28 -51t2 -101.5t-31 -175.5q-25 -104 -49 -170
t-37.5 -86.5t-30.5 -37.5q-28 -29 -58 -37.5t-85 -8.5zM172 350q-23 -97 -31 -155t-4 -79.5t15 -32.5q15 -16 68 -16h161q59 0 83 25q38 38 92 258q23 97 31 155t4 79.5t-15 32.5q-16 16 -68 16h-161q-59 0 -84 -25q-38 -38 -91 -258z" />
    <glyph glyph-name="multiply" unicode="&#xd7;" horiz-adv-x="511" 
d="M188 538l99 -130l154 124l37 -49l-154 -124l98 -130l-52 -41l-98 130l-154 -124l-38 50l156 123l-100 130z" />
    <glyph glyph-name="Oslash" unicode="&#xd8;" horiz-adv-x="688" 
d="M373 0h-167q-20 0 -46 2l-39 -55h-77l56 78q-4 3 -7 7q-19 19 -27.5 50.5t-2.5 101.5t32 176q25 104 49 170t37.5 86.5t30.5 37.5q28 28 58.5 37t84.5 9h167q31 0 56 -5l40 58h77l-61 -86q20 -19 28.5 -51t2.5 -101.5t-32 -174.5q-25 -104 -49 -170t-37.5 -86.5
t-30.5 -37.5q-28 -28 -58.5 -37t-84.5 -9zM172 350q-54 -224 -24 -263l386 545q-8 1 -26 1h-161q-59 0 -83 -25q-39 -39 -92 -258zM220 67h161q58 0 82 25q39 36 93 258q50 208 29 254l-380 -537h15z" />
    <glyph glyph-name="Ugrave" unicode="&#xd9;" horiz-adv-x="711" 
d="M278 700l-96 -386q-19 -77 -25.5 -124.5t-2.5 -68.5t16 -33q20 -20 105 -20h82q52 0 75 5.5t40 23.5q17 17 34 58.5t44 152.5l98 392h78l-96 -389q-32 -130 -54.5 -182t-49.5 -79q-30 -30 -68 -40t-103 -10h-105q-102 0 -140 38q-31 31 -33.5 88t29.5 199l93 375h79z
M512 766h-62l-118 113v5h112l68 -113v-5z" />
    <glyph glyph-name="Uacute" unicode="&#xda;" horiz-adv-x="711" 
d="M416 766v5l121 113h113v-5l-165 -113h-69zM278 700l-96 -386q-19 -77 -25.5 -124.5t-2.5 -68.5t16 -33q20 -20 105 -20h82q52 0 75 5.5t40 23.5q17 17 34 58.5t44 152.5l98 392h78l-96 -389q-32 -130 -54.5 -182t-49.5 -79q-30 -30 -68 -40t-103 -10h-105q-102 0 -140 38
q-31 31 -33.5 88t29.5 199l93 375h79z" />
    <glyph glyph-name="Ucircumflex" unicode="&#xdb;" horiz-adv-x="711" 
d="M278 700l-96 -386q-19 -77 -25.5 -124.5t-2.5 -68.5t16 -33q20 -20 105 -20h82q52 0 75 5.5t40 23.5q17 17 34 58.5t44 152.5l98 392h78l-96 -389q-32 -130 -54.5 -182t-49.5 -79q-30 -30 -68 -40t-103 -10h-105q-102 0 -140 38q-31 31 -33.5 88t29.5 199l93 375h79z
M570 768l-82 72l-118 -72h-59v5l147 119h83l87 -119v-5h-58z" />
    <glyph glyph-name="Udieresis" unicode="&#xdc;" horiz-adv-x="711" 
d="M342 785l24 94h83l-23 -94h-84zM525 785l24 94h83l-23 -94h-84zM278 700l-96 -386q-19 -77 -25.5 -124.5t-2.5 -68.5t16 -33q20 -20 105 -20h82q52 0 75 5.5t40 23.5q17 17 34 58.5t44 152.5l98 392h78l-96 -389q-32 -130 -54.5 -182t-49.5 -79q-30 -30 -68 -40t-103 -10
h-105q-102 0 -140 38q-31 31 -33.5 88t29.5 199l93 375h79z" />
    <glyph glyph-name="Yacute" unicode="&#xdd;" horiz-adv-x="576" 
d="M673 700l-343 -422l-69 -278h-79l70 283l-136 417h81l107 -342h6l274 342h89zM353 766v5l121 113h113v-5l-165 -113h-69z" />
    <glyph glyph-name="Thorn" unicode="&#xde;" horiz-adv-x="620" 
d="M244 561h214q87 0 117 -30q53 -53 17 -198q-27 -104 -75 -152q-42 -42 -132 -42h-247l-34 -139h-79l174 700h79zM438 494h-212l-71 -288h230q55 0 77 22q31 31 54 119q26 102 -3 131q-17 16 -75 16z" />
    <glyph glyph-name="germandbls" unicode="&#xdf;" horiz-adv-x="612" 
d="M60 0l117 472h-89l15 63h91l4 17q22 84 56 118q42 42 121 42h90q80 0 107 -26q42 -42 16 -149q-17 -70 -45 -101.5t-77 -44.5v-1q58 -10 73 -52t-7 -131q-18 -75 -34 -108.5t-39 -56.5q-42 -42 -134 -42h-109l15 62h95q60 0 81 21q26 24 52 131q23 99 3 123
q-17 20 -75 20h-65l15 64h60q54 0 76 22q24 26 40 94q18 75 -4 99q-14 14 -65 14h-68q-47 0 -67 -19q-24 -26 -37 -78l-138 -553h-74z" />
    <glyph glyph-name="agrave" unicode="&#xe0;" horiz-adv-x="555" 
d="M408 0h-69l17 74q-66 -45 -100 -60t-75 -15h-40q-63 0 -92 29q-36 36 -15 130q17 69 49 100q25 25 62.5 35t105.5 10q75 0 159 -13l19 77q18 73 -2 94q-13 13 -54 13h-87q-50 0 -70 -19q-15 -15 -35 -80h-72q26 91 56 121q39 39 117 39h115q62 0 92 -28q37 -38 13 -135z
M207 61q35 0 64.5 11.5t95.5 47.5l32 128h-163q-77 0 -101 -24q-17 -19 -29 -66q-15 -65 4 -82q15 -15 57 -15h40zM406 606h-62l-118 113v5h112l68 -113v-5z" />
    <glyph glyph-name="aacute" unicode="&#xe1;" horiz-adv-x="555" 
d="M408 0h-69l17 74q-66 -45 -100 -60t-75 -15h-40q-63 0 -92 29q-36 36 -15 130q17 69 49 100q25 25 62.5 35t105.5 10q75 0 159 -13l19 77q18 73 -2 94q-13 13 -54 13h-87q-50 0 -70 -19q-15 -15 -35 -80h-72q26 91 56 121q39 39 117 39h115q62 0 92 -28q37 -38 13 -135z
M207 61q35 0 64.5 11.5t95.5 47.5l32 128h-163q-77 0 -101 -24q-17 -19 -29 -66q-15 -65 4 -82q15 -15 57 -15h40zM310 606v5l121 113h113v-5l-165 -113h-69z" />
    <glyph glyph-name="acircumflex" unicode="&#xe2;" horiz-adv-x="555" 
d="M408 0h-69l17 74q-66 -45 -100 -60t-75 -15h-40q-63 0 -92 29q-36 36 -15 130q17 69 49 100q25 25 62.5 35t105.5 10q75 0 159 -13l19 77q18 73 -2 94q-13 13 -54 13h-87q-50 0 -70 -19q-15 -15 -35 -80h-72q26 91 56 121q39 39 117 39h115q62 0 92 -28q37 -38 13 -135z
M207 61q35 0 64.5 11.5t95.5 47.5l32 128h-163q-77 0 -101 -24q-17 -19 -29 -66q-15 -65 4 -82q15 -15 57 -15h40zM465 608l-82 72l-118 -72h-59v5l147 119h83l87 -119v-5h-58z" />
    <glyph glyph-name="atilde" unicode="&#xe3;" horiz-adv-x="555" 
d="M408 0h-69l17 74q-66 -45 -100 -60t-75 -15h-40q-63 0 -92 29q-36 36 -15 130q17 69 49 100q25 25 62.5 35t105.5 10q75 0 159 -13l19 77q18 73 -2 94q-13 13 -54 13h-87q-50 0 -70 -19q-15 -15 -35 -80h-72q26 91 56 121q39 39 117 39h115q62 0 92 -28q37 -38 13 -135z
M207 61q35 0 64.5 11.5t95.5 47.5l32 128h-163q-77 0 -101 -24q-17 -19 -29 -66q-15 -65 4 -82q15 -15 57 -15h40zM222 615l16 66q8 30 21 40q11 11 32 11h8q21 0 59 -15l110 -47l37 61h38l-17 -66q-6 -29 -20 -40q-11 -11 -32 -11h-8q-21 0 -58 15l-109 48l-38 -62h-39z
" />
    <glyph glyph-name="adieresis" unicode="&#xe4;" horiz-adv-x="555" 
d="M408 0h-69l17 74q-66 -45 -100 -60t-75 -15h-40q-63 0 -92 29q-36 36 -15 130q17 69 49 100q25 25 62.5 35t105.5 10q75 0 159 -13l19 77q18 73 -2 94q-13 13 -54 13h-87q-50 0 -70 -19q-15 -15 -35 -80h-72q26 91 56 121q39 39 117 39h115q62 0 92 -28q37 -38 13 -135z
M207 61q35 0 64.5 11.5t95.5 47.5l32 128h-163q-77 0 -101 -24q-17 -19 -29 -66q-15 -65 4 -82q15 -15 57 -15h40zM237 625l24 94h83l-23 -94h-84zM420 625l24 94h83l-23 -94h-84z" />
    <glyph glyph-name="aring" unicode="&#xe5;" horiz-adv-x="555" 
d="M408 0h-69l17 74q-66 -45 -100 -60t-75 -15h-40q-63 0 -92 29q-36 36 -15 130q17 69 49 100q25 25 62.5 35t105.5 10q75 0 159 -13l19 77q18 73 -2 94q-13 13 -54 13h-87q-50 0 -70 -19q-15 -15 -35 -80h-72q26 91 56 121q39 39 117 39h115q62 0 92 -28q37 -38 13 -135z
M207 61q35 0 64.5 11.5t95.5 47.5l32 128h-163q-77 0 -101 -24q-17 -19 -29 -66q-15 -65 4 -82q15 -15 57 -15h40zM520 702q-9 -42 -34 -67q-25 -26 -78 -26h-69q-46 0 -65 19q-26 28 -13 84q11 46 35 68q24 25 77 25h70q45 0 65 -20q26 -26 12 -83zM348 651h65q26 0 37 11
q12 11 20 45q9 36 -3 48q-8 8 -34 8h-64q-27 0 -37 -10q-14 -14 -21 -45q-9 -36 3 -48q9 -9 34 -9z" />
    <glyph glyph-name="ae" unicode="&#xe6;" horiz-adv-x="897" 
d="M251 302q75 0 158 -13l20 78q18 73 -2 94q-13 13 -54 13h-87q-50 0 -70 -19q-15 -15 -35 -80h-72q26 91 56 121q39 39 117 39h112q63 0 93 -28q7 -8 11 -17l4 4q24 24 54 32.5t78 8.5h94q69 0 100 -31q27 -28 29.5 -77t-26.5 -168q-3 -13 -16 -13h-345
q-19 -82 -19 -117.5t14 -49.5q14 -15 62 -15h101q52 0 72 20q18 18 35 80h72q-27 -94 -59 -126q-23 -23 -50 -30.5t-71 -7.5h-118q-69 0 -100 31q-21 20 -27 55q-77 -53 -114 -70t-81 -17h-46q-63 0 -92 29q-36 36 -15 130q17 68 49 99q24 25 62 35t106 10zM207 61
q38 0 69 12.5t104 54.5q2 46 19 119h-163q-77 0 -101 -24q-18 -19 -29 -66q-15 -64 4 -81q15 -15 57 -15h40zM769 304q29 126 3 152q-16 16 -62 16h-94q-53 0 -73 -21q-27 -25 -58 -147h284z" />
    <glyph glyph-name="ccedilla" unicode="&#xe7;" horiz-adv-x="539" 
d="M282 0h-111q-69 0 -99 31q-27 27 -29.5 77.5t23.5 166.5q26 106 45.5 150.5t43.5 68.5t54 32.5t78 8.5h102q71 0 100 -29q38 -39 14 -146h-70q14 78 -4 96q-14 14 -61 14h-89q-54 0 -73 -20q-15 -14 -29 -49t-38 -133q-16 -65 -21.5 -104.5t-2.5 -56.5t12 -26
q16 -16 63 -16h91q49 0 68 19q23 23 42 97h72q-18 -66 -31.5 -95t-33.5 -49q-37 -37 -116 -37zM172 -91h-38l12 45h40q50 0 65 -15q19 -19 10 -66q-9 -35 -29 -57q-20 -20 -73 -20h-69l-36 32l3 13h106q23 0 31 8q9 7 13 26q5 19 -3 27q-7 7 -32 7z" />
    <glyph glyph-name="egrave" unicode="&#xe8;" horiz-adv-x="559" 
d="M289 0h-118q-67 0 -100 31q-26 27 -28.5 77.5t23.5 166.5q26 106 45.5 150.5t43.5 68.5t54 32.5t78 8.5h103q69 0 100 -31q27 -27 29.5 -77t-26.5 -170q-3 -13 -16 -13h-345q-32 -136 -5 -165q15 -15 63 -15h100q52 0 72 20q19 19 35 80h72q-26 -93 -59 -126
q-23 -23 -50 -30.5t-71 -7.5zM205 451q-27 -25 -59 -149h285q17 73 17 108.5t-14 45.5q-15 16 -62 16h-94q-52 0 -73 -21zM405 606h-62l-118 113v5h112l68 -113v-5z" />
    <glyph glyph-name="eacute" unicode="&#xe9;" horiz-adv-x="559" 
d="M289 0h-118q-67 0 -100 31q-26 27 -28.5 77.5t23.5 166.5q26 106 45.5 150.5t43.5 68.5t54 32.5t78 8.5h103q69 0 100 -31q27 -27 29.5 -77t-26.5 -170q-3 -13 -16 -13h-345q-32 -136 -5 -165q15 -15 63 -15h100q52 0 72 20q19 19 35 80h72q-26 -93 -59 -126
q-23 -23 -50 -30.5t-71 -7.5zM205 451q-27 -25 -59 -149h285q17 73 17 108.5t-14 45.5q-15 16 -62 16h-94q-52 0 -73 -21zM309 606v5l121 113h113v-5l-165 -113h-69z" />
    <glyph glyph-name="ecircumflex" unicode="&#xea;" horiz-adv-x="559" 
d="M289 0h-118q-67 0 -100 31q-26 27 -28.5 77.5t23.5 166.5q26 106 45.5 150.5t43.5 68.5t54 32.5t78 8.5h103q69 0 100 -31q27 -27 29.5 -77t-26.5 -170q-3 -13 -16 -13h-345q-32 -136 -5 -165q15 -15 63 -15h100q52 0 72 20q19 19 35 80h72q-26 -93 -59 -126
q-23 -23 -50 -30.5t-71 -7.5zM205 451q-27 -25 -59 -149h285q17 73 17 108.5t-14 45.5q-15 16 -62 16h-94q-52 0 -73 -21zM462 608l-82 72l-118 -72h-59v5l147 119h83l87 -119v-5h-58z" />
    <glyph glyph-name="edieresis" unicode="&#xeb;" horiz-adv-x="559" 
d="M289 0h-118q-67 0 -100 31q-26 27 -28.5 77.5t23.5 166.5q26 106 45.5 150.5t43.5 68.5t54 32.5t78 8.5h103q69 0 100 -31q27 -27 29.5 -77t-26.5 -170q-3 -13 -16 -13h-345q-32 -136 -5 -165q15 -15 63 -15h100q52 0 72 20q19 19 35 80h72q-26 -93 -59 -126
q-23 -23 -50 -30.5t-71 -7.5zM205 451q-27 -25 -59 -149h285q17 73 17 108.5t-14 45.5q-15 16 -62 16h-94q-52 0 -73 -21zM418 625l24 94h83l-23 -94h-84zM235 625l24 94h83l-23 -94h-84z" />
    <glyph glyph-name="igrave" unicode="&#xec;" horiz-adv-x="239" 
d="M223 535l-134 -535h-74l134 535h74zM244 606h-62l-118 113v5h112l68 -113v-5z" />
    <glyph glyph-name="iacute" unicode="&#xed;" horiz-adv-x="239" 
d="M149 606v5l121 113h113v-5l-165 -113h-69zM223 535l-134 -535h-74l134 535h74z" />
    <glyph glyph-name="icircumflex" unicode="&#xee;" horiz-adv-x="239" 
d="M223 535l-134 -535h-74l134 535h74zM302 608l-82 72l-118 -72h-59v5l147 119h83l87 -119v-5h-58z" />
    <glyph glyph-name="idieresis" unicode="&#xef;" horiz-adv-x="239" 
d="M75 625l24 94h83l-23 -94h-84zM258 625l24 94h83l-23 -94h-84zM223 535l-134 -535h-74l134 535h74z" />
    <glyph glyph-name="eth" unicode="&#xf0;" horiz-adv-x="584" 
d="M504 260q-26 -109 -46.5 -154.5t-49.5 -70.5q-39 -35 -124 -35h-111q-72 0 -103 34q-23 26 -26.5 69t18.5 146q23 96 42 137.5t47 64.5q41 34 125 34h45q34 0 62 -14t84 -58q13 62 13 89q0 33 -33 97l-151 -50l14 59l112 37l-44 75h60q3 -5 41 -56l143 47l-14 -59
l-100 -33q45 -73 45 -112q0 -46 -49 -247zM432 268l25 102q-72 51 -122 51h-67q-52 0 -71 -19q-16 -13 -29.5 -45t-33.5 -115q-32 -133 -6 -161q14 -17 63 -17h102q51 0 71 19q16 14 30 49.5t38 135.5z" />
    <glyph glyph-name="ntilde" unicode="&#xf1;" 
d="M90 0h-74l134 535h73l-19 -75q71 48 101 62t71 14h49q59 0 88 -29q39 -41 14 -138l-92 -369h-74l94 376q14 59 -6 79q-16 16 -61 16h-38q-35 0 -63 -10.5t-92 -45.5zM234 615l16 66q8 30 21 40q11 11 32 11h8q21 0 59 -15l110 -47l37 61h38l-17 -66q-6 -29 -20 -40
q-11 -11 -32 -11h-8q-21 0 -58 15l-109 48l-38 -62h-39z" />
    <glyph glyph-name="ograve" unicode="&#xf2;" horiz-adv-x="569" 
d="M503 260q-26 -105 -45.5 -149.5t-43.5 -69.5q-42 -41 -132 -41h-111q-67 0 -100 31q-26 27 -28.5 77.5t23.5 166.5q26 106 45.5 150.5t43.5 68.5t54 32.5t78 8.5h111q69 0 100 -31q26 -27 28.5 -77t-23.5 -167zM139 268q-23 -95 -24.5 -138t13.5 -51q15 -15 62 -15h100
q53 0 73 20q15 15 29 50.5t38 133.5q23 94 24.5 137t-13.5 51q-15 15 -62 15h-100q-53 0 -73 -20q-15 -15 -29 -50t-38 -133zM410 606h-62l-118 113v5h112l68 -113v-5z" />
    <glyph glyph-name="oacute" unicode="&#xf3;" horiz-adv-x="569" 
d="M314 606v5l121 113h113v-5l-165 -113h-69zM503 260q-26 -105 -45.5 -149.5t-43.5 -69.5q-42 -41 -132 -41h-111q-67 0 -100 31q-26 27 -28.5 77.5t23.5 166.5q26 106 45.5 150.5t43.5 68.5t54 32.5t78 8.5h111q69 0 100 -31q26 -27 28.5 -77t-23.5 -167zM139 268
q-23 -95 -24.5 -138t13.5 -51q15 -15 62 -15h100q53 0 73 20q15 15 29 50.5t38 133.5q23 94 24.5 137t-13.5 51q-15 15 -62 15h-100q-53 0 -73 -20q-15 -15 -29 -50t-38 -133z" />
    <glyph glyph-name="ocircumflex" unicode="&#xf4;" horiz-adv-x="569" 
d="M503 260q-26 -105 -45.5 -149.5t-43.5 -69.5q-42 -41 -132 -41h-111q-67 0 -100 31q-26 27 -28.5 77.5t23.5 166.5q26 106 45.5 150.5t43.5 68.5t54 32.5t78 8.5h111q69 0 100 -31q26 -27 28.5 -77t-23.5 -167zM139 268q-23 -95 -24.5 -138t13.5 -51q15 -15 62 -15h100
q53 0 73 20q15 15 29 50.5t38 133.5q23 94 24.5 137t-13.5 51q-15 15 -62 15h-100q-53 0 -73 -20q-15 -15 -29 -50t-38 -133zM468 608l-82 72l-118 -72h-59v5l147 119h83l87 -119v-5h-58z" />
    <glyph glyph-name="otilde" unicode="&#xf5;" horiz-adv-x="569" 
d="M503 260q-26 -105 -45.5 -149.5t-43.5 -69.5q-42 -41 -132 -41h-111q-67 0 -100 31q-26 27 -28.5 77.5t23.5 166.5q26 106 45.5 150.5t43.5 68.5t54 32.5t78 8.5h111q69 0 100 -31q26 -27 28.5 -77t-23.5 -167zM139 268q-23 -95 -24.5 -138t13.5 -51q15 -15 62 -15h100
q53 0 73 20q15 15 29 50.5t38 133.5q23 94 24.5 137t-13.5 51q-15 15 -62 15h-100q-53 0 -73 -20q-15 -15 -29 -50t-38 -133zM225 615l16 66q8 30 21 40q11 11 32 11h8q21 0 59 -15l110 -47l37 61h38l-17 -66q-6 -29 -20 -40q-11 -11 -32 -11h-8q-21 0 -58 15l-109 48
l-38 -62h-39z" />
    <glyph glyph-name="odieresis" unicode="&#xf6;" horiz-adv-x="569" 
d="M240 625l24 94h83l-23 -94h-84zM423 625l24 94h83l-23 -94h-84zM503 260q-26 -105 -45.5 -149.5t-43.5 -69.5q-42 -41 -132 -41h-111q-67 0 -100 31q-26 27 -28.5 77.5t23.5 166.5q26 106 45.5 150.5t43.5 68.5t54 32.5t78 8.5h111q69 0 100 -31q26 -27 28.5 -77
t-23.5 -167zM139 268q-23 -95 -24.5 -138t13.5 -51q15 -15 62 -15h100q53 0 73 20q15 15 29 50.5t38 133.5q23 94 24.5 137t-13.5 51q-15 15 -62 15h-100q-53 0 -73 -20q-15 -15 -29 -50t-38 -133z" />
    <glyph glyph-name="divide" unicode="&#xf7;" horiz-adv-x="511" 
d="M76 331l16 64h390l-16 -64h-390zM184 159l22 92h89l-23 -92h-88zM262 476l23 91h88l-22 -91h-89z" />
    <glyph glyph-name="oslash" unicode="&#xf8;" horiz-adv-x="569" 
d="M503 260q-26 -105 -45.5 -149.5t-43.5 -69.5q-42 -41 -132 -41h-111q-29 0 -54 5l-42 -55h-74l67 84q-24 28 -25.5 78.5t23.5 162.5q26 106 45.5 150.5t43.5 68.5t54 32.5t78 8.5h111q29 0 52 -5l47 60h73l-70 -89q25 -27 26.5 -77t-23.5 -164zM430 268q34 138 20 174
l-287 -377q8 -1 27 -1h100q53 0 73 20q15 15 29 50.5t38 133.5zM139 268q-34 -137 -21 -174l286 376q-3 0 -11.5 0.5t-13.5 0.5h-100q-53 0 -73 -20q-15 -15 -29 -50t-38 -133z" />
    <glyph glyph-name="ugrave" unicode="&#xf9;" 
d="M491 535h74l-134 -535h-73l18 75q-72 -49 -101.5 -62.5t-69.5 -13.5h-49q-57 0 -88 29q-39 41 -14 138l92 369h74l-94 -375q-14 -60 6 -80q16 -16 61 -16h38q36 0 64 10.5t91 45.5zM415 606h-62l-118 113v5h112l68 -113v-5z" />
    <glyph glyph-name="uacute" unicode="&#xfa;" 
d="M491 535h74l-134 -535h-73l18 75q-72 -49 -101.5 -62.5t-69.5 -13.5h-49q-57 0 -88 29q-39 41 -14 138l92 369h74l-94 -375q-14 -60 6 -80q16 -16 61 -16h38q36 0 64 10.5t91 45.5zM319 606v5l121 113h113v-5l-165 -113h-69z" />
    <glyph glyph-name="ucircumflex" unicode="&#xfb;" 
d="M491 535h74l-134 -535h-73l18 75q-72 -49 -101.5 -62.5t-69.5 -13.5h-49q-57 0 -88 29q-39 41 -14 138l92 369h74l-94 -375q-14 -60 6 -80q16 -16 61 -16h38q36 0 64 10.5t91 45.5zM474 608l-82 72l-118 -72h-59v5l147 119h83l87 -119v-5h-58z" />
    <glyph glyph-name="udieresis" unicode="&#xfc;" 
d="M491 535h74l-134 -535h-73l18 75q-72 -49 -101.5 -62.5t-69.5 -13.5h-49q-57 0 -88 29q-39 41 -14 138l92 369h74l-94 -375q-14 -60 6 -80q16 -16 61 -16h38q36 0 64 10.5t91 45.5zM429 625l24 94h83l-23 -94h-84zM246 625l24 94h83l-23 -94h-84z" />
    <glyph glyph-name="yacute" unicode="&#xfd;" horiz-adv-x="519" 
d="M88 535h77l55 -432h5l252 432h83l-378 -627q-20 -33 -43 -46.5t-59 -13.5q-29 0 -99 7l16 59h91q21 0 36 23l40 65zM292 606v5l121 113h113v-5l-165 -113h-69z" />
    <glyph glyph-name="thorn" unicode="&#xfe;" horiz-adv-x="582" 
d="M52 -150h-74l217 870h74l-65 -259q67 47 99 61t75 14h40q69 0 99 -30q25 -25 26 -74.5t-26 -166.5q-26 -108 -45.5 -154t-43.5 -70t-54 -33t-78 -9h-40q-35 0 -63 14.5t-85 59.5zM350 471q-36 0 -63 -10t-95 -48l-74 -298q71 -51 125 -51h53q57 0 79 23q17 16 31.5 52
t37.5 130t25 133.5t-14 52.5q-17 16 -66 16h-39z" />
    <glyph glyph-name="ydieresis" unicode="&#xff;" horiz-adv-x="519" 
d="M88 535h77l55 -432h5l252 432h83l-378 -627q-20 -33 -43 -46.5t-59 -13.5q-29 0 -99 7l16 59h91q21 0 36 23l40 65zM401 625l24 94h83l-23 -94h-84zM218 625l24 94h83l-23 -94h-84z" />
    <glyph glyph-name="Amacron" unicode="&#x100;" horiz-adv-x="635" 
d="M396 703h49q24 0 32 -7t10 -28l57 -668h-77l-16 214h-290l-121 -214h-83l394 677q9 16 17.5 21t27.5 5zM400 634l-201 -354h248l-27 354h-20zM298 777l14 60h291l-13 -60h-292z" />
    <glyph glyph-name="amacron" unicode="&#x101;" horiz-adv-x="555" 
d="M408 0h-69l17 74q-66 -45 -100 -60t-75 -15h-40q-63 0 -92 29q-36 36 -15 130q17 69 49 100q25 25 62.5 35t105.5 10q75 0 159 -13l19 77q18 73 -2 94q-13 13 -54 13h-87q-50 0 -70 -19q-15 -15 -35 -80h-72q26 91 56 121q39 39 117 39h115q62 0 92 -28q37 -38 13 -135z
M207 61q35 0 64.5 11.5t95.5 47.5l32 128h-163q-77 0 -101 -24q-17 -19 -29 -66q-15 -65 4 -82q15 -15 57 -15h40zM223 617l14 60h291l-13 -60h-292z" />
    <glyph glyph-name="Abreve" unicode="&#x102;" horiz-adv-x="635" 
d="M396 703h49q24 0 32 -7t10 -28l57 -668h-77l-16 214h-290l-121 -214h-83l394 677q9 16 17.5 21t27.5 5zM400 634l-201 -354h248l-27 354h-20zM457 820q79 0 111 72h54q-18 -61 -62.5 -94t-108.5 -33q-67 0 -101 35t-30 92h51q1 -32 23 -52t63 -20z" />
    <glyph glyph-name="abreve" unicode="&#x103;" horiz-adv-x="555" 
d="M408 0h-69l17 74q-66 -45 -100 -60t-75 -15h-40q-63 0 -92 29q-36 36 -15 130q17 69 49 100q25 25 62.5 35t105.5 10q75 0 159 -13l19 77q18 73 -2 94q-13 13 -54 13h-87q-50 0 -70 -19q-15 -15 -35 -80h-72q26 91 56 121q39 39 117 39h115q62 0 92 -28q37 -38 13 -135z
M207 61q35 0 64.5 11.5t95.5 47.5l32 128h-163q-77 0 -101 -24q-17 -19 -29 -66q-15 -65 4 -82q15 -15 57 -15h40zM382 660q79 0 111 72h54q-18 -61 -62.5 -94t-108.5 -33q-67 0 -101 35t-30 92h51q1 -32 23 -52t63 -20z" />
    <glyph glyph-name="Aogonek" unicode="&#x104;" horiz-adv-x="635" 
d="M396 703h49q24 0 32 -7t10 -28l57 -668h-55q-40 -29 -61 -50q-12 -12 -19 -44q-8 -32 -2 -42q7 -7 27 -7h26q16 0 24 7q9 9 20 54h54q-12 -47 -20.5 -66.5t-21.5 -29.5q-20 -16 -57 -16h-45q-41 0 -57 16q-19 19 -9 71q8 39 28 60q18 21 89 68l-14 193h-290l-121 -214
h-83l394 677q9 16 17.5 21t27.5 5zM400 634l-201 -354h248l-27 354h-20z" />
    <glyph glyph-name="aogonek" unicode="&#x105;" horiz-adv-x="555" 
d="M408 0h-35q-40 -32 -53 -45q-14 -15 -20 -45q-9 -37 -3 -46q7 -7 27 -7h26q16 0 24 7q9 9 20 54h54q-12 -47 -20.5 -66.5t-21.5 -29.5q-20 -16 -57 -16h-46q-42 0 -56 16q-19 20 -9 74q7 37 31 62q16 18 73 57l14 59q-66 -45 -100 -60t-75 -15h-40q-63 0 -92 29
q-36 36 -15 130q17 69 49 100q25 25 62.5 35t105.5 10q75 0 159 -13l19 77q18 73 -2 94q-13 13 -54 13h-87q-50 0 -70 -19q-15 -15 -35 -80h-72q26 91 56 121q39 39 117 39h115q62 0 92 -28q37 -38 13 -135zM207 61q35 0 64.5 11.5t95.5 47.5l32 128h-163q-77 0 -101 -24
q-17 -19 -29 -66q-15 -65 4 -82q15 -15 57 -15h40z" />
    <glyph glyph-name="Cacute" unicode="&#x106;" horiz-adv-x="664" 
d="M407 766v5l121 113h113v-5l-165 -113h-69zM647 482h-75q18 110 -6 134q-17 17 -70 17h-149q-59 0 -84 -25q-38 -38 -91 -258q-23 -97 -31 -155t-4 -79.5t15 -32.5q15 -16 68 -16h152q60 0 84 25q26 27 59 137h76q-42 -142 -83 -183q-29 -28 -59.5 -37t-84.5 -9h-158
q-81 0 -113 32q-19 19 -27.5 50.5t-2.5 101.5t32 176q25 104 49 170t37.5 86.5t30.5 37.5q28 29 58 37.5t85 8.5h155q82 0 115 -33q44 -41 22 -185z" />
    <glyph glyph-name="cacute" unicode="&#x107;" horiz-adv-x="539" 
d="M306 606v5l121 113h113v-5l-165 -113h-69zM282 0h-111q-69 0 -99 31q-27 27 -29.5 77.5t23.5 166.5q26 106 45.5 150.5t43.5 68.5t54 32.5t78 8.5h102q71 0 100 -29q38 -39 14 -146h-70q14 78 -4 96q-14 14 -61 14h-89q-54 0 -73 -20q-15 -14 -29 -49t-38 -133
q-16 -65 -21.5 -104.5t-2.5 -56.5t12 -26q16 -16 63 -16h91q49 0 68 19q23 23 42 97h72q-18 -66 -31.5 -95t-33.5 -49q-37 -37 -116 -37z" />
    <glyph glyph-name="Cdotaccent" unicode="&#x10a;" horiz-adv-x="664" 
d="M647 482h-75q18 110 -6 134q-17 17 -70 17h-149q-59 0 -84 -25q-38 -38 -91 -258q-23 -97 -31 -155t-4 -79.5t15 -32.5q15 -16 68 -16h152q60 0 84 25q26 27 59 137h76q-42 -142 -83 -183q-29 -28 -59.5 -37t-84.5 -9h-158q-81 0 -113 32q-19 19 -27.5 50.5t-2.5 101.5
t32 176q25 104 49 170t37.5 86.5t30.5 37.5q28 29 58 37.5t85 8.5h155q82 0 115 -33q44 -41 22 -185zM423 790l24 94h88l-24 -94h-88z" />
    <glyph glyph-name="cdotaccent" unicode="&#x10b;" horiz-adv-x="539" 
d="M282 0h-111q-69 0 -99 31q-27 27 -29.5 77.5t23.5 166.5q26 106 45.5 150.5t43.5 68.5t54 32.5t78 8.5h102q71 0 100 -29q38 -39 14 -146h-70q14 78 -4 96q-14 14 -61 14h-89q-54 0 -73 -20q-15 -14 -29 -49t-38 -133q-16 -65 -21.5 -104.5t-2.5 -56.5t12 -26
q16 -16 63 -16h91q49 0 68 19q23 23 42 97h72q-18 -66 -31.5 -95t-33.5 -49q-37 -37 -116 -37zM323 630l24 94h88l-24 -94h-88z" />
    <glyph glyph-name="Ccaron" unicode="&#x10c;" horiz-adv-x="664" 
d="M647 482h-75q18 110 -6 134q-17 17 -70 17h-149q-59 0 -84 -25q-38 -38 -91 -258q-23 -97 -31 -155t-4 -79.5t15 -32.5q15 -16 68 -16h152q60 0 84 25q26 27 59 137h76q-42 -142 -83 -183q-29 -28 -59.5 -37t-84.5 -9h-158q-81 0 -113 32q-19 19 -27.5 50.5t-2.5 101.5
t32 176q25 104 49 170t37.5 86.5t30.5 37.5q28 29 58 37.5t85 8.5h155q82 0 115 -33q44 -41 22 -185zM390 892l80 -72l120 72h59v-5l-147 -119h-83l-88 119v5h59z" />
    <glyph glyph-name="ccaron" unicode="&#x10d;" horiz-adv-x="539" 
d="M282 0h-111q-69 0 -99 31q-27 27 -29.5 77.5t23.5 166.5q26 106 45.5 150.5t43.5 68.5t54 32.5t78 8.5h102q71 0 100 -29q38 -39 14 -146h-70q14 78 -4 96q-14 14 -61 14h-89q-54 0 -73 -20q-15 -14 -29 -49t-38 -133q-16 -65 -21.5 -104.5t-2.5 -56.5t12 -26
q16 -16 63 -16h91q49 0 68 19q23 23 42 97h72q-18 -66 -31.5 -95t-33.5 -49q-37 -37 -116 -37zM290 732l80 -72l120 72h59v-5l-147 -119h-83l-88 119v5h59z" />
    <glyph glyph-name="Dcaron" unicode="&#x10e;" horiz-adv-x="684" 
d="M199 700h278q103 0 147 -44q70 -70 10 -316q-52 -209 -124 -281q-33 -33 -74.5 -46t-103.5 -13h-307zM464 634h-203l-141 -568h227q72 0 106 34q27 27 50.5 79t53.5 171q30 127 29.5 181t-24.5 77q-14 15 -34.5 20.5t-63.5 5.5zM376 892l80 -72l120 72h59v-5l-147 -119
h-83l-88 119v5h59z" />
    <glyph glyph-name="dcaron" unicode="&#x10f;" horiz-adv-x="582" 
d="M285 536h41q35 0 63 -14.5t85 -59.5l65 258h74l-181 -720h-72l18 75q-70 -48 -101 -62t-73 -14h-40q-69 0 -99 30q-26 26 -26.5 75t26.5 166q26 108 45.5 154t43.5 70t54 33t77 9zM231 64q37 0 63.5 10t93.5 47l75 298q-70 52 -124 52h-53q-57 0 -80 -23
q-32 -32 -68 -182q-23 -94 -25 -133t14 -52q16 -17 66 -17h38zM776 800l-15 -77q-12 -56 -49 -99l-56 -72l-23 15l42 84q12 26 12 48v82l4 19h85z" />
    <glyph glyph-name="Dcroat" unicode="&#x110;" horiz-adv-x="690" 
d="M205 700h278q103 0 147 -44q70 -70 10 -316q-52 -209 -124 -281q-33 -33 -74.5 -46t-103.5 -13h-307l80 321h-98l16 66h98zM470 634h-203l-61 -247h161l-16 -66h-162l-63 -255h227q72 0 106 34q27 27 50.5 79t53.5 171q30 127 29.5 181t-24.5 77q-14 15 -34.5 20.5
t-63.5 5.5z" />
    <glyph glyph-name="dcroat" unicode="&#x111;" horiz-adv-x="583" 
d="M285 536h41q35 0 63 -14.5t85 -59.5l31 122h-150l15 59h149l20 77h74l-20 -77h86l-15 -59h-86l-146 -584h-72l18 75q-68 -48 -99.5 -62t-74.5 -14h-40q-69 0 -99 30q-26 26 -26.5 75t26.5 166q26 108 45.5 154t43.5 70t54 33t77 9zM231 64q37 0 63.5 10t93.5 47l75 298
q-70 52 -124 52h-53q-57 0 -80 -23q-32 -32 -68 -182q-23 -94 -25 -133t14 -52q16 -17 66 -17h38z" />
    <glyph glyph-name="Emacron" unicode="&#x112;" horiz-adv-x="595" 
d="M492 67l-16 -67h-451l174 700h453l-16 -67h-375l-59 -236h320l-17 -66h-320l-65 -264h372zM294 777l14 60h291l-13 -60h-292z" />
    <glyph glyph-name="emacron" unicode="&#x113;" horiz-adv-x="559" 
d="M289 0h-118q-67 0 -100 31q-26 27 -28.5 77.5t23.5 166.5q26 106 45.5 150.5t43.5 68.5t54 32.5t78 8.5h103q69 0 100 -31q27 -27 29.5 -77t-26.5 -170q-3 -13 -16 -13h-345q-32 -136 -5 -165q15 -15 63 -15h100q52 0 72 20q19 19 35 80h72q-26 -93 -59 -126
q-23 -23 -50 -30.5t-71 -7.5zM205 451q-27 -25 -59 -149h285q17 73 17 108.5t-14 45.5q-15 16 -62 16h-94q-52 0 -73 -21zM221 617l14 60h291l-13 -60h-292z" />
    <glyph glyph-name="Ebreve" unicode="&#x114;" horiz-adv-x="595" 
d="M492 67l-16 -67h-451l174 700h453l-16 -67h-375l-59 -236h320l-17 -66h-320l-65 -264h372zM452 820q79 0 111 72h54q-18 -61 -62.5 -94t-108.5 -33q-67 0 -101 35t-30 92h51q1 -32 23 -52t63 -20z" />
    <glyph glyph-name="ebreve" unicode="&#x115;" horiz-adv-x="559" 
d="M289 0h-118q-67 0 -100 31q-26 27 -28.5 77.5t23.5 166.5q26 106 45.5 150.5t43.5 68.5t54 32.5t78 8.5h103q69 0 100 -31q27 -27 29.5 -77t-26.5 -170q-3 -13 -16 -13h-345q-32 -136 -5 -165q15 -15 63 -15h100q52 0 72 20q19 19 35 80h72q-26 -93 -59 -126
q-23 -23 -50 -30.5t-71 -7.5zM205 451q-27 -25 -59 -149h285q17 73 17 108.5t-14 45.5q-15 16 -62 16h-94q-52 0 -73 -21zM380 660q79 0 111 72h54q-18 -61 -62.5 -94t-108.5 -33q-67 0 -101 35t-30 92h51q1 -32 23 -52t63 -20z" />
    <glyph glyph-name="Edotaccent" unicode="&#x116;" horiz-adv-x="595" 
d="M492 67l-16 -67h-451l174 700h453l-16 -67h-375l-59 -236h320l-17 -66h-320l-65 -264h372zM398 790l24 94h88l-24 -94h-88z" />
    <glyph glyph-name="edotaccent" unicode="&#x117;" horiz-adv-x="559" 
d="M289 0h-118q-67 0 -100 31q-26 27 -28.5 77.5t23.5 166.5q26 106 45.5 150.5t43.5 68.5t54 32.5t78 8.5h103q69 0 100 -31q27 -27 29.5 -77t-26.5 -170q-3 -13 -16 -13h-345q-32 -136 -5 -165q15 -15 63 -15h100q52 0 72 20q19 19 35 80h72q-26 -93 -59 -126
q-23 -23 -50 -30.5t-71 -7.5zM205 451q-27 -25 -59 -149h285q17 73 17 108.5t-14 45.5q-15 16 -62 16h-94q-52 0 -73 -21zM326 630l24 94h88l-24 -94h-88z" />
    <glyph glyph-name="Eogonek" unicode="&#x118;" horiz-adv-x="595" 
d="M492 67l-16 -67h-91q-32 -24 -51 -43q-13 -13 -21 -46q-9 -38 -3 -47q7 -7 27 -7h26q16 0 24 7q9 9 20 54h54q-12 -47 -20.5 -66.5t-21.5 -29.5q-20 -16 -57 -16h-45q-41 0 -57 16q-20 20 -9 75q7 38 31 63q13 15 48 40h-305l174 700h453l-16 -67h-375l-59 -236h320
l-17 -66h-320l-65 -264h372z" />
    <glyph glyph-name="eogonek" unicode="&#x119;" horiz-adv-x="559" 
d="M256 -89q-9 -39 -2 -47q6 -7 27 -7h26q16 0 23 7q8 7 20 54h54q-12 -47 -20.5 -66.5t-21.5 -29.5q-20 -16 -57 -16h-45q-41 0 -57 16q-20 20 -8 75q7 38 30 63q10 12 48 40h-102q-67 0 -100 31q-26 27 -28.5 77.5t23.5 166.5q26 106 45.5 150.5t43.5 68.5t54 32.5t78 8.5
h103q69 0 100 -31q27 -27 29.5 -77t-26.5 -170q-3 -13 -16 -13h-345q-32 -136 -5 -165q15 -15 63 -15h100q52 0 72 20q19 19 35 80h72q-26 -93 -59 -126q-32 -32 -81 -37q-35 -26 -52 -44q-13 -13 -21 -46zM205 451q-27 -25 -59 -149h285q17 73 17 108.5t-14 45.5
q-15 16 -62 16h-94q-52 0 -73 -21z" />
    <glyph glyph-name="Ecaron" unicode="&#x11a;" horiz-adv-x="595" 
d="M492 67l-16 -67h-451l174 700h453l-16 -67h-375l-59 -236h320l-17 -66h-320l-65 -264h372zM365 892l80 -72l120 72h59v-5l-147 -119h-83l-88 119v5h59z" />
    <glyph glyph-name="ecaron" unicode="&#x11b;" horiz-adv-x="559" 
d="M289 0h-118q-67 0 -100 31q-26 27 -28.5 77.5t23.5 166.5q26 106 45.5 150.5t43.5 68.5t54 32.5t78 8.5h103q69 0 100 -31q27 -27 29.5 -77t-26.5 -170q-3 -13 -16 -13h-345q-32 -136 -5 -165q15 -15 63 -15h100q52 0 72 20q19 19 35 80h72q-26 -93 -59 -126
q-23 -23 -50 -30.5t-71 -7.5zM205 451q-27 -25 -59 -149h285q17 73 17 108.5t-14 45.5q-15 16 -62 16h-94q-52 0 -73 -21zM292 732l80 -72l120 72h59v-5l-147 -119h-83l-88 119v5h59z" />
    <glyph glyph-name="Gbreve" unicode="&#x11e;" horiz-adv-x="681" 
d="M533 287h-186l18 67h263q-11 -44 -14 -54q-51 -202 -106 -254q-28 -28 -58.5 -37t-84.5 -9h-159q-81 0 -113 32q-19 19 -27.5 50.5t-2.5 101.5t32 176q25 104 49 170t37.5 86.5t30.5 37.5q28 29 58 37.5t85 8.5h162q78 0 112 -32q43 -43 20 -180h-73q9 68 7 92t-15 37
q-16 16 -67 16h-154q-59 0 -84 -25q-38 -38 -91 -258q-23 -97 -31 -155t-4 -79.5t15 -32.5q15 -16 68 -16h154q59 0 84 25q33 33 75 195zM475 820q79 0 111 72h54q-18 -61 -62.5 -94t-108.5 -33q-67 0 -101 35t-30 92h51q1 -32 23 -52t63 -20z" />
    <glyph glyph-name="gbreve" unicode="&#x11f;" horiz-adv-x="582" 
d="M13 -20h71q-6 -45 6 -57t46 -12h132q41 0 55 13q21 17 36 80l29 116q-67 -47 -98.5 -61t-74.5 -14h-34q-69 0 -100 30q-27 27 -30 73.5t21 150.5q22 90 40.5 131t41.5 64q24 24 54 33t77 9h40q35 0 63 -14.5t85 -59.5l19 73h74l-131 -523q-15 -62 -29 -89t-37 -46
q-33 -27 -99 -27h-160q-55 0 -81 26q-29 29 -16 104zM143 290q-19 -78 -19 -115.5t15 -48.5q17 -17 67 -17h36q37 0 63 10t95 48l63 252q-72 53 -124 53h-53q-56 0 -80 -23q-31 -33 -63 -159zM403 660q79 0 111 72h54q-18 -61 -62.5 -94t-108.5 -33q-67 0 -101 35t-30 92h51
q1 -32 23 -52t63 -20z" />
    <glyph glyph-name="Gdotaccent" unicode="&#x120;" horiz-adv-x="681" 
d="M533 287h-186l18 67h263q-11 -44 -14 -54q-51 -202 -106 -254q-28 -28 -58.5 -37t-84.5 -9h-159q-81 0 -113 32q-19 19 -27.5 50.5t-2.5 101.5t32 176q25 104 49 170t37.5 86.5t30.5 37.5q28 29 58 37.5t85 8.5h162q78 0 112 -32q43 -43 20 -180h-73q9 68 7 92t-15 37
q-16 16 -67 16h-154q-59 0 -84 -25q-38 -38 -91 -258q-23 -97 -31 -155t-4 -79.5t15 -32.5q15 -16 68 -16h154q59 0 84 25q33 33 75 195zM420 790l24 94h88l-24 -94h-88z" />
    <glyph glyph-name="gdotaccent" unicode="&#x121;" horiz-adv-x="582" 
d="M13 -20h71q-6 -45 6 -57t46 -12h132q41 0 55 13q21 17 36 80l29 116q-67 -47 -98.5 -61t-74.5 -14h-34q-69 0 -100 30q-27 27 -30 73.5t21 150.5q22 90 40.5 131t41.5 64q24 24 54 33t77 9h40q35 0 63 -14.5t85 -59.5l19 73h74l-131 -523q-15 -62 -29 -89t-37 -46
q-33 -27 -99 -27h-160q-55 0 -81 26q-29 29 -16 104zM143 290q-19 -78 -19 -115.5t15 -48.5q17 -17 67 -17h36q37 0 63 10t95 48l63 252q-72 53 -124 53h-53q-56 0 -80 -23q-31 -33 -63 -159zM348 630l24 94h88l-24 -94h-88z" />
    <glyph glyph-name="Gcommaaccent" unicode="&#x122;" horiz-adv-x="681" 
d="M220 -70h89l-23 -90q-10 -36 -33 -56l-95 -87l-20 20l79 87q8 8 14 24l2 7h-37zM533 287h-186l18 67h263q-11 -44 -14 -54q-51 -202 -106 -254q-28 -28 -58.5 -37t-84.5 -9h-159q-81 0 -113 32q-19 19 -27.5 50.5t-2.5 101.5t32 176q25 104 49 170t37.5 86.5t30.5 37.5
q28 29 58 37.5t85 8.5h162q78 0 112 -32q43 -43 20 -180h-73q9 68 7 92t-15 37q-16 16 -67 16h-154q-59 0 -84 -25q-38 -38 -91 -258q-23 -97 -31 -155t-4 -79.5t15 -32.5q15 -16 68 -16h154q59 0 84 25q33 33 75 195z" />
    <glyph glyph-name="gcommaaccent" unicode="&#x123;" horiz-adv-x="582" 
d="M13 -20h71q-6 -45 6 -57t46 -12h132q41 0 55 13q21 17 36 80l29 116q-67 -47 -98.5 -61t-74.5 -14h-34q-69 0 -100 30q-27 27 -30 73.5t21 150.5q22 90 40.5 131t41.5 64q24 24 54 33t77 9h40q35 0 63 -14.5t85 -59.5l19 73h74l-131 -523q-15 -62 -29 -89t-37 -46
q-33 -27 -99 -27h-160q-55 0 -81 26q-29 29 -16 104zM143 290q-19 -78 -19 -115.5t15 -48.5q17 -17 67 -17h36q37 0 63 10t95 48l63 252q-72 53 -124 53h-53q-56 0 -80 -23q-31 -33 -63 -159zM435 631h-89l23 90q10 36 33 56l95 87l20 -20l-79 -87q-8 -8 -14 -24l-2 -7h37z
" />
    <glyph glyph-name="Hbar" unicode="&#x126;" horiz-adv-x="720" 
d="M735 700l-31 -125h98l-16 -64h-98l-127 -511h-79l82 330h-378l-82 -330h-79l127 511h-98l16 64h98l31 125h79l-31 -125h378l31 125h79zM203 397h378l28 114h-378z" />
    <glyph glyph-name="hbar" unicode="&#x127;" 
d="M90 0h-74l145 584h-85l14 59h85l20 77h74l-19 -77h151l-15 -59h-151l-31 -124q74 49 103 62.5t69 13.5h49q59 0 88 -29q39 -41 14 -138l-92 -369h-74l94 376q14 59 -6 79q-16 16 -61 16h-38q-35 0 -64 -10.5t-93 -46.5z" />
    <glyph glyph-name="Imacron" unicode="&#x12a;" horiz-adv-x="270" 
d="M108 0h-79l174 700h79zM117 777l14 60h291l-13 -60h-292z" />
    <glyph glyph-name="imacron" unicode="&#x12b;" horiz-adv-x="239" 
d="M223 535l-134 -535h-74l134 535h74zM61 617l14 60h291l-13 -60h-292z" />
    <glyph glyph-name="Ibreve" unicode="&#x12c;" horiz-adv-x="270" 
d="M108 0h-79l174 700h79zM275 820q79 0 111 72h54q-18 -61 -62.5 -94t-108.5 -33q-67 0 -101 35t-30 92h51q1 -32 23 -52t63 -20z" />
    <glyph glyph-name="ibreve" unicode="&#x12d;" horiz-adv-x="239" 
d="M223 535l-134 -535h-74l134 535h74zM220 660q79 0 111 72h54q-18 -61 -62.5 -94t-108.5 -33q-67 0 -101 35t-30 92h51q1 -32 23 -52t63 -20z" />
    <glyph glyph-name="Iogonek" unicode="&#x12e;" horiz-adv-x="258" 
d="M108 0h-37q-32 -22 -52 -42q-13 -14 -21 -47q-9 -38 -3 -47q7 -7 27 -7h26q16 0 23 7q8 7 20 54h54q-12 -47 -20.5 -66.5t-21.5 -29.5q-20 -16 -57 -16h-44q-41 0 -57 16q-19 20 -9 75q9 39 30 63q18 19 65 50l172 690h79z" />
    <glyph glyph-name="iogonek" unicode="&#x12f;" horiz-adv-x="239" 
d="M223 535l-134 -535h-32q-32 -22 -53 -45q-14 -15 -20 -44q-9 -38 -3 -47q7 -7 27 -7h26q16 0 24 7q9 9 20 54h54q-12 -47 -20.5 -66.5t-21.5 -29.5q-20 -16 -57 -16h-45q-41 0 -57 16q-19 20 -9 75q7 37 31 63q16 18 64 50l132 525h74zM279 730l-24 -95h-88l24 95h88z
" />
    <glyph glyph-name="Idotaccent" unicode="&#x130;" horiz-adv-x="270" 
d="M108 0h-79l174 700h79zM221 790l24 94h88l-24 -94h-88z" />
    <glyph glyph-name="dotlessi" unicode="&#x131;" horiz-adv-x="239" 
d="M223 535l-134 -535h-74l134 535h74z" />
    <glyph glyph-name="Kcommaaccent" unicode="&#x136;" horiz-adv-x="616" 
d="M599 700h93l-366 -341l210 -359h-86l-188 330h-76l-82 -330h-79l174 700h79l-76 -303h70zM208 -70h89l-23 -90q-10 -36 -33 -56l-95 -87l-20 20l79 87q8 8 14 24l2 7h-37z" />
    <glyph glyph-name="kcommaaccent" unicode="&#x137;" horiz-adv-x="511" 
d="M90 0h-74l179 720h74l-104 -419h52l251 234h90l-290 -269l165 -266h-84l-145 240h-54zM147 -70h89l-23 -90q-10 -36 -33 -56l-95 -87l-20 20l79 87q8 8 14 24l2 7h-37z" />
    <glyph glyph-name="Lacute" unicode="&#x139;" horiz-adv-x="550" 
d="M220 766v5l121 113h113v-5l-165 -113h-69zM278 700l-157 -633h346l-16 -67h-426l174 700h79z" />
    <glyph glyph-name="lacute" unicode="&#x13a;" horiz-adv-x="238" 
d="M196 766v5l121 113h113v-5l-165 -113h-69zM89 0h-74l179 720h74z" />
    <glyph glyph-name="Lcommaaccent" unicode="&#x13b;" horiz-adv-x="550" 
d="M176 -70h89l-23 -90q-10 -36 -33 -56l-95 -87l-20 20l79 87q8 8 14 24l2 7h-37zM278 700l-157 -633h346l-16 -67h-426l174 700h79z" />
    <glyph glyph-name="lcommaaccent" unicode="&#x13c;" horiz-adv-x="238" 
d="M-8 -70h89l-23 -90q-10 -36 -33 -56l-95 -87l-20 20l79 87q8 8 14 24l2 7h-37zM89 0h-74l179 720h74z" />
    <glyph glyph-name="Lcaron" unicode="&#x13d;" horiz-adv-x="550" 
d="M457 780l-15 -77q-12 -56 -49 -99l-56 -72l-23 15l42 84q12 26 12 48v82l4 19h85zM278 700l-157 -633h346l-16 -67h-426l174 700h79z" />
    <glyph glyph-name="lcaron" unicode="&#x13e;" horiz-adv-x="238" 
d="M432 800l-15 -77q-12 -56 -49 -99l-56 -72l-23 15l42 84q12 26 12 48v82l4 19h85zM89 0h-74l179 720h74z" />
    <glyph glyph-name="Ldot" unicode="&#x13f;" horiz-adv-x="550" 
d="M278 700l-157 -633h346l-16 -67h-426l174 700h79zM380 340l24 94h88l-24 -94h-88z" />
    <glyph glyph-name="ldot" unicode="&#x140;" horiz-adv-x="334" 
d="M248 295l24 95h87l-24 -95h-87zM89 0h-74l179 720h74z" />
    <glyph glyph-name="Lslash" unicode="&#x141;" horiz-adv-x="559" 
d="M286 700l-74 -297l189 52l-17 -67l-188 -52l-67 -269h346l-16 -67h-426l78 313l-104 -28l17 66l103 28l80 321h79z" />
    <glyph glyph-name="lslash" unicode="&#x142;" horiz-adv-x="255" 
d="M97 0h-74l82 330l-94 -25l17 67l93 25l81 323h74l-75 -301l94 26l-16 -68l-95 -25z" />
    <glyph glyph-name="Nacute" unicode="&#x143;" horiz-adv-x="712" 
d="M425 766v5l121 113h113v-5l-165 -113h-69zM727 700l-174 -700h-73q-18 0 -26 5.5t-13 21.5l-177 576h-13l-149 -603h-77l174 700h82q19 0 26 -5.5t12 -22.5l172 -561h13l146 589h77z" />
    <glyph glyph-name="nacute" unicode="&#x144;" 
d="M90 0h-74l134 535h73l-19 -75q71 48 101 62t71 14h49q59 0 88 -29q39 -41 14 -138l-92 -369h-74l94 376q14 59 -6 79q-16 16 -61 16h-38q-35 0 -63 -10.5t-92 -45.5zM323 606v5l121 113h113v-5l-165 -113h-69z" />
    <glyph glyph-name="Ncommaaccent" unicode="&#x145;" horiz-adv-x="712" 
d="M228 -70h89l-23 -90q-10 -36 -33 -56l-95 -87l-20 20l79 87q8 8 14 24l2 7h-37zM727 700l-174 -700h-73q-18 0 -26 5.5t-13 21.5l-177 576h-13l-149 -603h-77l174 700h82q19 0 26 -5.5t12 -22.5l172 -561h13l146 589h77z" />
    <glyph glyph-name="ncommaaccent" unicode="&#x146;" 
d="M90 0h-74l134 535h73l-19 -75q71 48 101 62t71 14h49q59 0 88 -29q39 -41 14 -138l-92 -369h-74l94 376q14 59 -6 79q-16 16 -61 16h-38q-35 0 -63 -10.5t-92 -45.5zM169 -70h89l-23 -90q-10 -36 -33 -56l-95 -87l-20 20l79 87q8 8 14 24l2 7h-37z" />
    <glyph glyph-name="Ncaron" unicode="&#x147;" horiz-adv-x="712" 
d="M727 700l-174 -700h-73q-18 0 -26 5.5t-13 21.5l-177 576h-13l-149 -603h-77l174 700h82q19 0 26 -5.5t12 -22.5l172 -561h13l146 589h77zM408 892l80 -72l120 72h59v-5l-147 -119h-83l-88 119v5h59z" />
    <glyph glyph-name="ncaron" unicode="&#x148;" 
d="M90 0h-74l134 535h73l-19 -75q71 48 101 62t71 14h49q59 0 88 -29q39 -41 14 -138l-92 -369h-74l94 376q14 59 -6 79q-16 16 -61 16h-38q-35 0 -63 -10.5t-92 -45.5zM306 732l80 -72l120 72h59v-5l-147 -119h-83l-88 119v5h59z" />
    <glyph glyph-name="Omacron" unicode="&#x14c;" horiz-adv-x="688" 
d="M321 777l14 60h291l-13 -60h-292zM373 0h-167q-81 0 -113 32q-19 19 -27.5 50.5t-2.5 101.5t32 176q25 104 49 170t37.5 86.5t30.5 37.5q28 29 58 37.5t85 8.5h167q80 0 112 -32q20 -19 28 -51t2 -101.5t-31 -175.5q-25 -104 -49 -170t-37.5 -86.5t-30.5 -37.5
q-28 -29 -58 -37.5t-85 -8.5zM172 350q-23 -97 -31 -155t-4 -79.5t15 -32.5q15 -16 68 -16h161q59 0 83 25q38 38 92 258q23 97 31 155t4 79.5t-15 32.5q-16 16 -68 16h-161q-59 0 -84 -25q-38 -38 -91 -258z" />
    <glyph glyph-name="omacron" unicode="&#x14d;" horiz-adv-x="569" 
d="M226 617l14 60h291l-13 -60h-292zM503 260q-26 -105 -45.5 -149.5t-43.5 -69.5q-42 -41 -132 -41h-111q-67 0 -100 31q-26 27 -28.5 77.5t23.5 166.5q26 106 45.5 150.5t43.5 68.5t54 32.5t78 8.5h111q69 0 100 -31q26 -27 28.5 -77t-23.5 -167zM139 268
q-23 -95 -24.5 -138t13.5 -51q15 -15 62 -15h100q53 0 73 20q15 15 29 50.5t38 133.5q23 94 24.5 137t-13.5 51q-15 15 -62 15h-100q-53 0 -73 -20q-15 -15 -29 -50t-38 -133z" />
    <glyph glyph-name="Obreve" unicode="&#x14e;" horiz-adv-x="688" 
d="M373 0h-167q-81 0 -113 32q-19 19 -27.5 50.5t-2.5 101.5t32 176q25 104 49 170t37.5 86.5t30.5 37.5q28 29 58 37.5t85 8.5h167q80 0 112 -32q20 -19 28 -51t2 -101.5t-31 -175.5q-25 -104 -49 -170t-37.5 -86.5t-30.5 -37.5q-28 -29 -58 -37.5t-85 -8.5zM172 350
q-23 -97 -31 -155t-4 -79.5t15 -32.5q15 -16 68 -16h161q59 0 83 25q38 38 92 258q23 97 31 155t4 79.5t-15 32.5q-16 16 -68 16h-161q-59 0 -84 -25q-38 -38 -91 -258zM479 820q79 0 111 72h54q-18 -61 -62.5 -94t-108.5 -33q-67 0 -101 35t-30 92h51q1 -32 23 -52t63 -20z
" />
    <glyph glyph-name="obreve" unicode="&#x14f;" horiz-adv-x="569" 
d="M503 260q-26 -105 -45.5 -149.5t-43.5 -69.5q-42 -41 -132 -41h-111q-67 0 -100 31q-26 27 -28.5 77.5t23.5 166.5q26 106 45.5 150.5t43.5 68.5t54 32.5t78 8.5h111q69 0 100 -31q26 -27 28.5 -77t-23.5 -167zM139 268q-23 -95 -24.5 -138t13.5 -51q15 -15 62 -15h100
q53 0 73 20q15 15 29 50.5t38 133.5q23 94 24.5 137t-13.5 51q-15 15 -62 15h-100q-53 0 -73 -20q-15 -15 -29 -50t-38 -133zM385 660q79 0 111 72h54q-18 -61 -62.5 -94t-108.5 -33q-67 0 -101 35t-30 92h51q1 -32 23 -52t63 -20z" />
    <glyph glyph-name="Ohungarumlaut" unicode="&#x150;" horiz-adv-x="688" 
d="M314 766v5l119 113h106v-5l-162 -113h-63zM497 766v5l120 113h106v-5l-163 -113h-63zM373 0h-167q-81 0 -113 32q-19 19 -27.5 50.5t-2.5 101.5t32 176q25 104 49 170t37.5 86.5t30.5 37.5q28 29 58 37.5t85 8.5h167q80 0 112 -32q20 -19 28 -51t2 -101.5t-31 -175.5
q-25 -104 -49 -170t-37.5 -86.5t-30.5 -37.5q-28 -29 -58 -37.5t-85 -8.5zM172 350q-23 -97 -31 -155t-4 -79.5t15 -32.5q15 -16 68 -16h161q59 0 83 25q38 38 92 258q23 97 31 155t4 79.5t-15 32.5q-16 16 -68 16h-161q-59 0 -84 -25q-38 -38 -91 -258z" />
    <glyph glyph-name="ohungarumlaut" unicode="&#x151;" horiz-adv-x="569" 
d="M219 606v5l119 113h106v-5l-162 -113h-63zM402 606v5l120 113h106v-5l-163 -113h-63zM503 260q-26 -105 -45.5 -149.5t-43.5 -69.5q-42 -41 -132 -41h-111q-67 0 -100 31q-26 27 -28.5 77.5t23.5 166.5q26 106 45.5 150.5t43.5 68.5t54 32.5t78 8.5h111q69 0 100 -31
q26 -27 28.5 -77t-23.5 -167zM139 268q-23 -95 -24.5 -138t13.5 -51q15 -15 62 -15h100q53 0 73 20q15 15 29 50.5t38 133.5q23 94 24.5 137t-13.5 51q-15 15 -62 15h-100q-53 0 -73 -20q-15 -15 -29 -50t-38 -133z" />
    <glyph glyph-name="OE" unicode="&#x152;" horiz-adv-x="1014" 
d="M390 700h682l-17 -67h-375l-59 -236h320l-17 -66h-320l-65 -264h372l-16 -67h-650q-103 0 -147 44q-71 71 -10 316q52 209 124 281q33 33 74.5 46t103.5 13zM257 66h204l141 568h-227q-72 0 -106 -34q-27 -27 -50.5 -79t-53.5 -171q-30 -127 -29.5 -181t23.5 -77
q26 -26 98 -26z" />
    <glyph glyph-name="oe" unicode="&#x153;" horiz-adv-x="924" 
d="M654 0h-112q-67 0 -100 31q-14 14 -20 29q-8 -11 -16 -19q-41 -41 -132 -41h-103q-67 0 -100 31q-26 27 -28.5 77.5t23.5 166.5q26 106 45.5 150.5t43.5 68.5t54 32.5t78 8.5h103q69 0 100 -31q13 -13 19 -29q5 7 17 19q23 24 53 32.5t79 8.5h97q69 0 100 -31
q27 -28 29 -77t-27 -170q-3 -13 -15 -13h-345q-19 -81 -19 -116t14 -49q15 -15 62 -15h101q52 0 72 20q19 19 35 80h72q-27 -94 -59 -126q-23 -23 -50 -30.5t-71 -7.5zM139 268q-23 -95 -24.5 -138t13.5 -51q15 -15 62 -15h100q53 0 73 20q15 15 29 50.5t38 133.5
q23 94 24.5 137t-13.5 51q-15 15 -62 15h-100q-53 0 -73 -20q-15 -15 -29 -50t-38 -133zM570 451q-27 -25 -59 -149h284q30 128 4 154q-15 16 -62 16h-94q-53 0 -73 -21z" />
    <glyph glyph-name="Racute" unicode="&#x154;" horiz-adv-x="666" 
d="M387 766v5l121 113h113v-5l-165 -113h-69zM494 633h-233l-65 -264h240q53 0 75 22q33 28 53 111q21 89 -5 117q-15 14 -65 14zM558 187q-27 -129 -33 -187h-79q3 45 33 190q9 42 7 62t-15 33q-20 20 -84 20h-207l-76 -305h-79l174 700h311q82 0 112 -30q47 -49 20 -168
q-20 -86 -56 -122.5t-96 -45.5v-2q50 -14 66.5 -44.5t1.5 -100.5z" />
    <glyph glyph-name="racute" unicode="&#x155;" horiz-adv-x="372" 
d="M90 0h-74l134 535h73l-21 -82q59 50 86.5 66.5t58.5 16.5h62l-19 -76h-62q-33 0 -60.5 -9t-73.5 -37zM240 606v5l121 113h113v-5l-165 -113h-69z" />
    <glyph glyph-name="Rcommaaccent" unicode="&#x156;" horiz-adv-x="666" 
d="M204 -70h89l-23 -90q-10 -36 -33 -56l-95 -87l-20 20l79 87q8 8 14 24l2 7h-37zM494 633h-233l-65 -264h240q53 0 75 22q33 28 53 111q21 89 -5 117q-15 14 -65 14zM558 187q-27 -129 -33 -187h-79q3 45 33 190q9 42 7 62t-15 33q-20 20 -84 20h-207l-76 -305h-79
l174 700h311q82 0 112 -30q47 -49 20 -168q-20 -86 -56 -122.5t-96 -45.5v-2q50 -14 66.5 -44.5t1.5 -100.5z" />
    <glyph glyph-name="rcommaaccent" unicode="&#x157;" horiz-adv-x="372" 
d="M90 0h-74l134 535h73l-21 -82q59 50 86.5 66.5t58.5 16.5h62l-19 -76h-62q-33 0 -60.5 -9t-73.5 -37zM-10 -70h89l-23 -90q-10 -36 -33 -56l-95 -87l-20 20l79 87q8 8 14 24l2 7h-37z" />
    <glyph glyph-name="Rcaron" unicode="&#x158;" horiz-adv-x="666" 
d="M558 187q-27 -129 -33 -187h-79q3 45 33 190q9 42 7 62t-15 33q-20 20 -84 20h-207l-76 -305h-79l174 700h311q82 0 112 -30q47 -49 20 -168q-20 -86 -56 -122.5t-96 -45.5v-2q50 -14 66.5 -44.5t1.5 -100.5zM494 633h-233l-65 -264h240q53 0 75 22q33 28 53 111
q21 89 -5 117q-15 14 -65 14zM371 892l80 -72l120 72h59v-5l-147 -119h-83l-88 119v5h59z" />
    <glyph glyph-name="rcaron" unicode="&#x159;" horiz-adv-x="372" 
d="M90 0h-74l134 535h73l-21 -82q59 50 86.5 66.5t58.5 16.5h62l-19 -76h-62q-33 0 -60.5 -9t-73.5 -37zM224 732l80 -72l120 72h59v-5l-147 -119h-83l-88 119v5h59z" />
    <glyph glyph-name="Sacute" unicode="&#x15a;" horiz-adv-x="656" 
d="M390 766v5l121 113h113v-5l-165 -113h-69zM59 211h74q-26 -112 -7 -132q13 -12 54 -12h200q48 0 67 20q21 19 40 98q19 77 -1 97q-10 11 -42 18l-200 39q-66 13 -90 37q-37 37 -10 151q22 92 62 132q41 41 123 41h189q73 0 100 -27q24 -24 26 -62t-15 -117h-76
q13 63 13.5 88.5t-10.5 37.5q-14 13 -57 13h-175q-47 0 -66 -20q-20 -20 -38 -93q-18 -74 1 -93q10 -12 43 -19l200 -40q65 -12 89 -36q40 -40 11 -153q-15 -59 -28 -87t-36 -51q-40 -41 -124 -41h-216q-72 0 -99 27q-22 22 -22 64t20 120z" />
    <glyph glyph-name="sacute" unicode="&#x15b;" horiz-adv-x="533" 
d="M291 606v5l121 113h113v-5l-165 -113h-69zM35 162h66q-15 -74 -2 -89q14 -12 47 -12h149q34 0 49 15q16 14 30 67q13 51 -2 66q-11 11 -36 15l-152 30q-56 11 -75 31q-30 30 -9 117q15 66 50 101q31 32 94 32h161q52 0 78 -26q32 -32 10 -132h-68q14 69 -1 84
q-13 13 -50 13h-129q-34 0 -49 -15q-16 -18 -28 -63q-13 -49 2 -64q10 -10 36 -14l153 -30q54 -11 73 -30q32 -31 9 -121q-17 -71 -49 -105q-33 -32 -95 -32h-182q-52 0 -75 25q-34 32 -5 137z" />
    <glyph glyph-name="Scedilla" unicode="&#x15e;" horiz-adv-x="656" 
d="M59 211h74q-26 -112 -7 -132q13 -12 54 -12h200q48 0 67 20q21 19 40 98q19 77 -1 97q-10 11 -42 18l-200 39q-66 13 -90 37q-37 37 -10 151q22 92 62 132q41 41 123 41h189q73 0 100 -27q24 -24 26 -62t-15 -117h-76q13 63 13.5 88.5t-10.5 37.5q-14 13 -57 13h-175
q-47 0 -66 -20q-20 -20 -38 -93q-18 -74 1 -93q10 -12 43 -19l200 -40q65 -12 89 -36q40 -40 11 -153q-15 -59 -28 -87t-36 -51q-40 -41 -124 -41h-216q-72 0 -99 27q-22 22 -22 64t20 120zM236 -91h-38l12 45h40q50 0 65 -15q19 -19 10 -66q-9 -35 -29 -57q-20 -20 -73 -20
h-69l-36 32l3 13h106q23 0 31 8q9 7 13 26q5 19 -3 27q-7 7 -32 7z" />
    <glyph glyph-name="scedilla" unicode="&#x15f;" horiz-adv-x="533" 
d="M35 162h66q-15 -74 -2 -89q14 -12 47 -12h149q34 0 49 15q16 14 30 67q13 51 -2 66q-11 11 -36 15l-152 30q-56 11 -75 31q-30 30 -9 117q15 66 50 101q31 32 94 32h161q52 0 78 -26q32 -32 10 -132h-68q14 69 -1 84q-13 13 -50 13h-129q-34 0 -49 -15q-16 -18 -28 -63
q-13 -49 2 -64q10 -10 36 -14l153 -30q54 -11 73 -30q32 -31 9 -121q-17 -71 -49 -105q-33 -32 -95 -32h-182q-52 0 -75 25q-34 32 -5 137zM171 -91h-38l12 45h40q50 0 65 -15q19 -19 10 -66q-9 -35 -29 -57q-20 -20 -73 -20h-69l-36 32l3 13h106q23 0 31 8q9 7 13 26
q5 19 -3 27q-7 7 -32 7z" />
    <glyph glyph-name="Scaron" unicode="&#x160;" horiz-adv-x="656" 
d="M59 211h74q-26 -112 -7 -132q13 -12 54 -12h200q48 0 67 20q21 19 40 98q19 77 -1 97q-10 11 -42 18l-200 39q-66 13 -90 37q-37 37 -10 151q22 92 62 132q41 41 123 41h189q73 0 100 -27q24 -24 26 -62t-15 -117h-76q13 63 13.5 88.5t-10.5 37.5q-14 13 -57 13h-175
q-47 0 -66 -20q-20 -20 -38 -93q-18 -74 1 -93q10 -12 43 -19l200 -40q65 -12 89 -36q40 -40 11 -153q-15 -59 -28 -87t-36 -51q-40 -41 -124 -41h-216q-72 0 -99 27q-22 22 -22 64t20 120zM374 892l80 -72l120 72h59v-5l-147 -119h-83l-88 119v5h59z" />
    <glyph glyph-name="scaron" unicode="&#x161;" horiz-adv-x="533" 
d="M35 162h66q-15 -74 -2 -89q14 -12 47 -12h149q34 0 49 15q16 14 30 67q13 51 -2 66q-11 11 -36 15l-152 30q-56 11 -75 31q-30 30 -9 117q15 66 50 101q31 32 94 32h161q52 0 78 -26q32 -32 10 -132h-68q14 69 -1 84q-13 13 -50 13h-129q-34 0 -49 -15q-16 -18 -28 -63
q-13 -49 2 -64q10 -10 36 -14l153 -30q54 -11 73 -30q32 -31 9 -121q-17 -71 -49 -105q-33 -32 -95 -32h-182q-52 0 -75 25q-34 32 -5 137zM274 732l80 -72l120 72h59v-5l-147 -119h-83l-88 119v5h59z" />
    <glyph glyph-name="Tcommaaccent" unicode="&#x162;" horiz-adv-x="568" 
d="M156 -70h89l-23 -90q-10 -36 -33 -56l-95 -87l-20 20l79 87q8 8 14 24l2 7h-37zM638 633h-224l-158 -633h-78l157 633h-224l17 67h526z" />
    <glyph glyph-name="tcommaaccent" unicode="&#x163;" horiz-adv-x="369" 
d="M96 -70h89l-23 -90q-10 -36 -33 -56l-95 -87l-20 20l79 87q8 8 14 24l2 7h-37zM238 472l-86 -345q-9 -39 4 -52q12 -12 46 -12h79l-12 -47l-49 -12q-38 -8 -65 -8q-43 0 -66 23q-31 31 -12 108l87 345h-92l15 63h93l34 134h74l-34 -134h142l-16 -63h-142z" />
    <glyph glyph-name="Tcaron" unicode="&#x164;" horiz-adv-x="568" 
d="M638 633h-224l-158 -633h-78l157 633h-224l17 67h526zM336 892l80 -72l120 72h59v-5l-147 -119h-83l-88 119v5h59z" />
    <glyph glyph-name="tcaron" unicode="&#x165;" horiz-adv-x="369" 
d="M477 847l-15 -77q-12 -56 -49 -99l-56 -72l-23 15l42 84q12 26 12 48v82l4 19h85zM238 472l-86 -345q-9 -39 4 -52q12 -12 46 -12h79l-12 -47l-49 -12q-38 -8 -65 -8q-43 0 -66 23q-31 31 -12 108l87 345h-92l15 63h93l34 134h74l-34 -134h142l-16 -63h-142z" />
    <glyph glyph-name="Umacron" unicode="&#x16a;" horiz-adv-x="711" 
d="M278 700l-96 -386q-19 -77 -25.5 -124.5t-2.5 -68.5t16 -33q20 -20 105 -20h82q52 0 75 5.5t40 23.5q17 17 34 58.5t44 152.5l98 392h78l-96 -389q-32 -130 -54.5 -182t-49.5 -79q-30 -30 -68 -40t-103 -10h-105q-102 0 -140 38q-31 31 -33.5 88t29.5 199l93 375h79z
M329 777l14 60h291l-13 -60h-292z" />
    <glyph glyph-name="umacron" unicode="&#x16b;" 
d="M491 535h74l-134 -535h-73l18 75q-72 -49 -101.5 -62.5t-69.5 -13.5h-49q-57 0 -88 29q-39 41 -14 138l92 369h74l-94 -375q-14 -60 6 -80q16 -16 61 -16h38q36 0 64 10.5t91 45.5zM232 617l14 60h291l-13 -60h-292z" />
    <glyph glyph-name="Ubreve" unicode="&#x16c;" horiz-adv-x="711" 
d="M278 700l-96 -386q-19 -77 -25.5 -124.5t-2.5 -68.5t16 -33q20 -20 105 -20h82q52 0 75 5.5t40 23.5q17 17 34 58.5t44 152.5l98 392h78l-96 -389q-32 -130 -54.5 -182t-49.5 -79q-30 -30 -68 -40t-103 -10h-105q-102 0 -140 38q-31 31 -33.5 88t29.5 199l93 375h79z
M487 820q79 0 111 72h54q-18 -61 -62.5 -94t-108.5 -33q-67 0 -101 35t-30 92h51q1 -32 23 -52t63 -20z" />
    <glyph glyph-name="ubreve" unicode="&#x16d;" 
d="M491 535h74l-134 -535h-73l18 75q-72 -49 -101.5 -62.5t-69.5 -13.5h-49q-57 0 -88 29q-39 41 -14 138l92 369h74l-94 -375q-14 -60 6 -80q16 -16 61 -16h38q36 0 64 10.5t91 45.5zM391 660q79 0 111 72h54q-18 -61 -62.5 -94t-108.5 -33q-67 0 -101 35t-30 92h51
q1 -32 23 -52t63 -20z" />
    <glyph glyph-name="Uring" unicode="&#x16e;" horiz-adv-x="711" 
d="M454 811h65q26 0 37 11q12 11 20 45q9 36 -3 48q-8 8 -34 8h-64q-27 0 -37 -10q-14 -14 -21 -45q-9 -36 3 -48q9 -9 34 -9zM626 862q-9 -42 -34 -67q-25 -26 -78 -26h-69q-46 0 -65 19q-26 28 -13 84q11 46 35 68q24 25 77 25h70q45 0 65 -20q26 -26 12 -83zM278 700
l-96 -386q-19 -77 -25.5 -124.5t-2.5 -68.5t16 -33q20 -20 105 -20h82q52 0 75 5.5t40 23.5q17 17 34 58.5t44 152.5l98 392h78l-96 -389q-32 -130 -54.5 -182t-49.5 -79q-30 -30 -68 -40t-103 -10h-105q-102 0 -140 38q-31 31 -33.5 88t29.5 199l93 375h79z" />
    <glyph glyph-name="uring" unicode="&#x16f;" 
d="M491 535h74l-134 -535h-73l18 75q-72 -49 -101.5 -62.5t-69.5 -13.5h-49q-57 0 -88 29q-39 41 -14 138l92 369h74l-94 -375q-14 -60 6 -80q16 -16 61 -16h38q36 0 64 10.5t91 45.5zM529 702q-9 -42 -34 -67q-25 -26 -78 -26h-69q-46 0 -65 19q-26 28 -13 84q11 46 35 68
q24 25 77 25h70q45 0 65 -20q26 -26 12 -83zM357 651h65q26 0 37 11q12 11 20 45q9 36 -3 48q-8 8 -34 8h-64q-27 0 -37 -10q-14 -14 -21 -45q-9 -36 3 -48q9 -9 34 -9z" />
    <glyph glyph-name="Uhungarumlaut" unicode="&#x170;" horiz-adv-x="711" 
d="M278 700l-96 -386q-19 -77 -25.5 -124.5t-2.5 -68.5t16 -33q20 -20 105 -20h82q52 0 75 5.5t40 23.5q17 17 34 58.5t44 152.5l98 392h78l-96 -389q-32 -130 -54.5 -182t-49.5 -79q-30 -30 -68 -40t-103 -10h-105q-102 0 -140 38q-31 31 -33.5 88t29.5 199l93 375h79z
M322 766v5l119 113h106v-5l-162 -113h-63zM505 766v5l120 113h106v-5l-163 -113h-63z" />
    <glyph glyph-name="uhungarumlaut" unicode="&#x171;" 
d="M491 535h74l-134 -535h-73l18 75q-72 -49 -101.5 -62.5t-69.5 -13.5h-49q-57 0 -88 29q-39 41 -14 138l92 369h74l-94 -375q-14 -60 6 -80q16 -16 61 -16h38q36 0 64 10.5t91 45.5zM407 606v5l120 113h106v-5l-163 -113h-63zM224 606v5l119 113h106v-5l-162 -113h-63z
" />
    <glyph glyph-name="Uogonek" unicode="&#x172;" horiz-adv-x="711" 
d="M278 700l-96 -386q-19 -77 -25.5 -124.5t-2.5 -68.5t16 -33q20 -20 105 -20h82q52 0 75 5.5t40 23.5q17 17 34 58.5t44 152.5l98 392h78l-96 -389q-32 -130 -54.5 -182t-49.5 -79q-30 -30 -68 -40t-103 -10h-37q-32 -24 -51 -43q-13 -13 -21 -46q-9 -38 -3 -47
q7 -7 27 -7h26q16 0 24 7q9 9 20 54h54q-12 -47 -20.5 -66.5t-21.5 -29.5q-20 -16 -57 -16h-45q-41 0 -57 16q-19 20 -9 75q7 38 31 63q13 15 48 40h-13q-102 0 -140 38q-31 31 -33.5 88t29.5 199l93 375h79z" />
    <glyph glyph-name="uogonek" unicode="&#x173;" 
d="M491 535h74l-134 -535h-41q-30 -22 -53 -45q-12 -14 -20 -44q-9 -38 -3 -47q7 -7 27 -7h26q16 0 24 7q9 9 20 54h54q-12 -47 -20.5 -66.5t-21.5 -29.5q-20 -16 -57 -16h-45q-41 0 -57 16q-20 20 -9 75q7 37 31 63q23 24 76 58l14 57q-72 -49 -101.5 -62.5t-69.5 -13.5
h-49q-57 0 -88 29q-39 41 -14 138l92 369h74l-94 -375q-14 -60 6 -80q16 -16 61 -16h38q36 0 64 10.5t91 45.5z" />
    <glyph glyph-name="Wcircumflex" unicode="&#x174;" horiz-adv-x="926" 
d="M546 703h34q28 0 36.5 -7t8.5 -28l-3 -575h16l277 607h83l-321 -679q-7 -15 -15.5 -19.5t-29.5 -4.5h-37q-29 0 -37.5 6t-8.5 27l5 572h-16l-284 -580q-7 -15 -15.5 -20t-28.5 -5h-39q-28 0 -37 6.5t-8 26.5l16 670h78l-20 -607h15l282 580q9 18 18.5 24t30.5 6zM685 768
l-82 72l-118 -72h-59v5l147 119h83l87 -119v-5h-58z" />
    <glyph glyph-name="wcircumflex" unicode="&#x175;" horiz-adv-x="736" 
d="M407 536h41q18 0 25 -6.5t7 -24.5l1 -426h12l204 456h77l-241 -512q-12 -26 -38 -26h-49q-19 0 -26 6.5t-7 26.5l4 418h-11l-206 -425q-12 -26 -38 -26h-49q-19 0 -26 6.5t-7 26.5l13 505h72l-17 -456h12l208 431q7 15 15 20.5t24 5.5zM550 608l-82 72l-118 -72h-59v5
l147 119h83l87 -119v-5h-58z" />
    <glyph glyph-name="Ycircumflex" unicode="&#x176;" horiz-adv-x="576" 
d="M673 700l-343 -422l-69 -278h-79l70 283l-136 417h81l107 -342h6l274 342h89zM507 768l-82 72l-118 -72h-59v5l147 119h83l87 -119v-5h-58z" />
    <glyph glyph-name="ycircumflex" unicode="&#x177;" horiz-adv-x="519" 
d="M88 535h77l55 -432h5l252 432h83l-378 -627q-20 -33 -43 -46.5t-59 -13.5q-29 0 -99 7l16 59h91q21 0 36 23l40 65zM446 608l-82 72l-118 -72h-59v5l147 119h83l87 -119v-5h-58z" />
    <glyph glyph-name="Ydieresis" unicode="&#x178;" horiz-adv-x="576" 
d="M673 700l-343 -422l-69 -278h-79l70 283l-136 417h81l107 -342h6l274 342h89zM279 785l24 94h83l-23 -94h-84zM462 785l24 94h83l-23 -94h-84z" />
    <glyph glyph-name="Zacute" unicode="&#x179;" horiz-adv-x="603" 
d="M372 766v5l121 113h113v-5l-165 -113h-69zM505 67l-16 -67h-508l11 51l555 582h-390l17 67h492l-11 -51l-555 -582h405z" />
    <glyph glyph-name="zacute" unicode="&#x17a;" horiz-adv-x="495" 
d="M275 606v5l121 113h113v-5l-165 -113h-69zM399 65l-17 -65h-407l10 46l414 424h-294l16 65h396l-9 -42l-417 -428h308z" />
    <glyph glyph-name="Zdotaccent" unicode="&#x17b;" horiz-adv-x="603" 
d="M505 67l-16 -67h-508l11 51l555 582h-390l17 67h492l-11 -51l-555 -582h405zM389 790l24 94h88l-24 -94h-88z" />
    <glyph glyph-name="zdotaccent" unicode="&#x17c;" horiz-adv-x="495" 
d="M399 65l-17 -65h-407l10 46l414 424h-294l16 65h396l-9 -42l-417 -428h308zM293 630l24 94h88l-24 -94h-88z" />
    <glyph glyph-name="Zcaron" unicode="&#x17d;" horiz-adv-x="603" 
d="M505 67l-16 -67h-508l11 51l555 582h-390l17 67h492l-11 -51l-555 -582h405zM356 892l80 -72l120 72h59v-5l-147 -119h-83l-88 119v5h59z" />
    <glyph glyph-name="zcaron" unicode="&#x17e;" horiz-adv-x="495" 
d="M399 65l-17 -65h-407l10 46l414 424h-294l16 65h396l-9 -42l-417 -428h308zM259 732l80 -72l120 72h59v-5l-147 -119h-83l-88 119v5h59z" />
    <glyph glyph-name="Aringacute" unicode="&#x1fa;" horiz-adv-x="635" 
d="M567 755q-9 -42 -34 -67q-18 -18 -46 -24l57 -664h-77l-16 214h-290l-121 -214h-83l388 667q-14 4 -24 14q-26 28 -13 84q11 46 35 68q24 25 77 25h70q45 0 65 -20q26 -26 12 -83zM400 635l-201 -355h248l-28 355h-19zM395 704h65q26 0 37 11q12 11 20 45q9 36 -3 48
q-8 8 -34 8h-64q-27 0 -37 -10q-14 -14 -21 -45q-9 -36 3 -48q9 -9 34 -9zM434 917v5l121 113h113v-5l-165 -113h-69z" />
    <glyph glyph-name="aringacute" unicode="&#x1fb;" horiz-adv-x="555" 
d="M408 0h-69l17 74q-66 -45 -100 -60t-75 -15h-40q-63 0 -92 29q-36 36 -15 130q17 69 49 100q25 25 62.5 35t105.5 10q75 0 159 -13l19 77q18 73 -2 94q-13 13 -54 13h-87q-50 0 -70 -19q-15 -15 -35 -80h-72q26 91 56 121q39 39 117 39h115q62 0 92 -28q37 -38 13 -135z
M207 61q35 0 64.5 11.5t95.5 47.5l32 128h-163q-77 0 -101 -24q-17 -19 -29 -66q-15 -65 4 -82q15 -15 57 -15h40zM520 702q-9 -42 -34 -67q-25 -26 -78 -26h-69q-46 0 -65 19q-26 28 -13 84q11 46 35 68q24 25 77 25h70q45 0 65 -20q26 -26 12 -83zM348 651h65q26 0 37 11
q12 11 20 45q9 36 -3 48q-8 8 -34 8h-64q-27 0 -37 -10q-14 -14 -21 -45q-9 -36 3 -48q9 -9 34 -9zM387 870v5l121 113h113v-5l-165 -113h-69z" />
    <glyph glyph-name="AEacute" unicode="&#x1fc;" horiz-adv-x="957" 
d="M-62 0l537 663q17 22 30 29.5t38 7.5h472l-17 -67h-375l-59 -236h320l-17 -66h-320l-64 -264h371l-16 -67h-450l58 233h-233l-187 -233h-88zM538 636l-272 -337h196l84 337h-8zM581 766v5l121 113h113v-5l-165 -113h-69z" />
    <glyph glyph-name="aeacute" unicode="&#x1fd;" horiz-adv-x="897" 
d="M251 302q75 0 158 -13l20 78q18 73 -2 94q-13 13 -54 13h-87q-50 0 -70 -19q-15 -15 -35 -80h-72q26 91 56 121q39 39 117 39h112q63 0 93 -28q7 -8 11 -17l4 4q24 24 54 32.5t78 8.5h94q69 0 100 -31q27 -28 29.5 -77t-26.5 -168q-3 -13 -16 -13h-345
q-19 -82 -19 -117.5t14 -49.5q14 -15 62 -15h101q52 0 72 20q18 18 35 80h72q-27 -94 -59 -126q-23 -23 -50 -30.5t-71 -7.5h-118q-69 0 -100 31q-21 20 -27 55q-77 -53 -114 -70t-81 -17h-46q-63 0 -92 29q-36 36 -15 130q17 68 49 99q24 25 62 35t106 10zM207 61
q38 0 69 12.5t104 54.5q2 46 19 119h-163q-77 0 -101 -24q-18 -19 -29 -66q-15 -64 4 -81q15 -15 57 -15h40zM769 304q29 126 3 152q-16 16 -62 16h-94q-53 0 -73 -21q-27 -25 -58 -147h284zM474 606v5l121 113h113v-5l-165 -113h-69z" />
    <glyph glyph-name="Oslashacute" unicode="&#x1fe;" horiz-adv-x="688" 
d="M373 0h-167q-20 0 -46 2l-39 -55h-77l56 78q-4 3 -7 7q-19 19 -27.5 50.5t-2.5 101.5t32 176q25 104 49 170t37.5 86.5t30.5 37.5q28 28 58.5 37t84.5 9h167q31 0 56 -5l40 58h77l-61 -86q20 -19 28.5 -51t2.5 -101.5t-32 -174.5q-25 -104 -49 -170t-37.5 -86.5
t-30.5 -37.5q-28 -28 -58.5 -37t-84.5 -9zM172 350q-54 -224 -24 -263l386 545q-8 1 -26 1h-161q-59 0 -83 -25q-39 -39 -92 -258zM220 67h161q58 0 82 25q39 36 93 258q50 208 29 254l-380 -537h15zM414 766v5l121 113h113v-5l-165 -113h-69z" />
    <glyph glyph-name="oslashacute" unicode="&#x1ff;" horiz-adv-x="569" 
d="M503 260q-26 -105 -45.5 -149.5t-43.5 -69.5q-42 -41 -132 -41h-111q-29 0 -54 5l-42 -55h-74l67 84q-24 28 -25.5 78.5t23.5 162.5q26 106 45.5 150.5t43.5 68.5t54 32.5t78 8.5h111q29 0 52 -5l47 60h73l-70 -89q25 -27 26.5 -77t-23.5 -164zM430 268q34 138 20 174
l-287 -377q8 -1 27 -1h100q53 0 73 20q15 15 29 50.5t38 133.5zM139 268q-34 -137 -21 -174l286 376q-3 0 -11.5 0.5t-13.5 0.5h-100q-53 0 -73 -20q-15 -15 -29 -50t-38 -133zM314 606v5l121 113h113v-5l-165 -113h-69z" />
    <glyph glyph-name="Scommaaccent" unicode="&#x218;" horiz-adv-x="656" 
d="M208 -70h89l-23 -90q-10 -36 -33 -56l-95 -87l-20 20l79 87q8 8 14 24l2 7h-37zM59 211h74q-26 -112 -7 -132q13 -12 54 -12h200q48 0 67 20q21 19 40 98q19 77 -1 97q-10 11 -42 18l-200 39q-66 13 -90 37q-37 37 -10 151q22 92 62 132q41 41 123 41h189q73 0 100 -27
q24 -24 26 -62t-15 -117h-76q13 63 13.5 88.5t-10.5 37.5q-14 13 -57 13h-175q-47 0 -66 -20q-20 -20 -38 -93q-18 -74 1 -93q10 -12 43 -19l200 -40q65 -12 89 -36q40 -40 11 -153q-15 -59 -28 -87t-36 -51q-40 -41 -124 -41h-216q-72 0 -99 27q-22 22 -22 64t20 120z" />
    <glyph glyph-name="scommaaccent" unicode="&#x219;" horiz-adv-x="533" 
d="M148 -70h89l-23 -90q-10 -36 -33 -56l-95 -87l-20 20l79 87q8 8 14 24l2 7h-37zM35 162h66q-15 -74 -2 -89q14 -12 47 -12h149q34 0 49 15q16 14 30 67q13 51 -2 66q-11 11 -36 15l-152 30q-56 11 -75 31q-30 30 -9 117q15 66 50 101q31 32 94 32h161q52 0 78 -26
q32 -32 10 -132h-68q14 69 -1 84q-13 13 -50 13h-129q-34 0 -49 -15q-16 -18 -28 -63q-13 -49 2 -64q10 -10 36 -14l153 -30q54 -11 73 -30q32 -31 9 -121q-17 -71 -49 -105q-33 -32 -95 -32h-182q-52 0 -75 25q-34 32 -5 137z" />
    <glyph glyph-name="schwa" unicode="&#x259;" horiz-adv-x="559" 
d="M269 535h118q69 0 100 -31q27 -27 29 -77t-24 -167q-26 -106 -45 -150t-44 -69q-41 -41 -132 -41h-103q-67 0 -100 31q-27 28 -29 77.5t27 169.5q4 14 15 14h345q32 139 5 164q-16 16 -62 16h-101q-51 0 -72 -20q-20 -22 -35 -81h-72q28 96 59 127q23 22 50 29.5t71 7.5z
M353 84q27 25 58 149h-283q-31 -127 -4 -154q14 -15 62 -15h94q54 0 73 20z" />
    <glyph glyph-name="circumflex" unicode="&#x2c6;" horiz-adv-x="494" 
d="M432 608l-82 72l-118 -72h-59v5l147 119h83l87 -119v-5h-58z" />
    <glyph glyph-name="caron" unicode="&#x2c7;" horiz-adv-x="494" 
d="M260 732l80 -72l120 72h59v-5l-147 -119h-83l-88 119v5h59z" />
    <glyph glyph-name="breve" unicode="&#x2d8;" horiz-adv-x="494" 
d="M347 660q79 0 111 72h54q-18 -61 -62.5 -94t-108.5 -33q-67 0 -101 35t-30 92h51q1 -32 23 -52t63 -20z" />
    <glyph glyph-name="dotaccent" unicode="&#x2d9;" horiz-adv-x="494" 
d="M293 630l24 94h88l-24 -94h-88z" />
    <glyph glyph-name="ring" unicode="&#x2da;" horiz-adv-x="494" 
d="M313 651h65q26 0 37 11q12 11 20 45q9 36 -3 48q-8 8 -34 8h-64q-27 0 -37 -10q-14 -14 -21 -45q-9 -36 3 -48q9 -9 34 -9zM485 702q-9 -42 -34 -67q-25 -26 -78 -26h-69q-46 0 -65 19q-26 28 -13 84q11 46 35 68q24 25 77 25h70q45 0 65 -20q26 -26 12 -83z" />
    <glyph glyph-name="ogonek" unicode="&#x2db;" horiz-adv-x="494" 
d="M113 -89q-9 -38 -3 -47q7 -7 27 -7h26q16 0 24 7q9 9 20 54h54q-12 -47 -20.5 -66.5t-21.5 -29.5q-20 -16 -57 -16h-45q-41 0 -57 16q-20 20 -9 75q7 38 31 63q22 25 94 70l20 -22q-33 -22 -62 -51q-13 -13 -21 -46z" />
    <glyph glyph-name="tilde" unicode="&#x2dc;" horiz-adv-x="494" 
d="M186 615l16 66q8 30 21 40q11 11 32 11h8q21 0 59 -15l110 -47l37 61h38l-17 -66q-6 -29 -20 -40q-11 -11 -32 -11h-8q-21 0 -58 15l-109 48l-38 -62h-39z" />
    <glyph glyph-name="hungarumlaut" unicode="&#x2dd;" horiz-adv-x="494" 
d="M137 606v5l119 113h106v-5l-162 -113h-63zM320 606v5l120 113h106v-5l-163 -113h-63z" />
    <glyph glyph-name="commaaccent" unicode="&#x326;" horiz-adv-x="494" 
d="M127 -70h89l-23 -90q-10 -36 -33 -56l-95 -87l-20 20l79 87q8 8 14 24l2 7h-37z" />
    <glyph glyph-name="Wgrave" unicode="&#x1e80;" horiz-adv-x="926" 
d="M546 703h34q28 0 36.5 -7t8.5 -28l-3 -575h16l277 607h83l-321 -679q-7 -15 -15.5 -19.5t-29.5 -4.5h-37q-29 0 -37.5 6t-8.5 27l5 572h-16l-284 -580q-7 -15 -15.5 -20t-28.5 -5h-39q-28 0 -37 6.5t-8 26.5l16 670h78l-20 -607h15l282 580q9 18 18.5 24t30.5 6zM626 766
h-62l-118 113v5h112l68 -113v-5z" />
    <glyph glyph-name="wgrave" unicode="&#x1e81;" horiz-adv-x="736" 
d="M407 536h41q18 0 25 -6.5t7 -24.5l1 -426h12l204 456h77l-241 -512q-12 -26 -38 -26h-49q-19 0 -26 6.5t-7 26.5l4 418h-11l-206 -425q-12 -26 -38 -26h-49q-19 0 -26 6.5t-7 26.5l13 505h72l-17 -456h12l208 431q7 15 15 20.5t24 5.5zM491 606h-62l-118 113v5h112
l68 -113v-5z" />
    <glyph glyph-name="Wacute" unicode="&#x1e82;" horiz-adv-x="926" 
d="M531 766v5l121 113h113v-5l-165 -113h-69zM546 703h34q28 0 36.5 -7t8.5 -28l-3 -575h16l277 607h83l-321 -679q-7 -15 -15.5 -19.5t-29.5 -4.5h-37q-29 0 -37.5 6t-8.5 27l5 572h-16l-284 -580q-7 -15 -15.5 -20t-28.5 -5h-39q-28 0 -37 6.5t-8 26.5l16 670h78l-20 -607
h15l282 580q9 18 18.5 24t30.5 6z" />
    <glyph glyph-name="wacute" unicode="&#x1e83;" horiz-adv-x="736" 
d="M396 606v5l121 113h113v-5l-165 -113h-69zM407 536h41q18 0 25 -6.5t7 -24.5l1 -426h12l204 456h77l-241 -512q-12 -26 -38 -26h-49q-19 0 -26 6.5t-7 26.5l4 418h-11l-206 -425q-12 -26 -38 -26h-49q-19 0 -26 6.5t-7 26.5l13 505h72l-17 -456h12l208 431q7 15 15 20.5
t24 5.5z" />
    <glyph glyph-name="Wdieresis" unicode="&#x1e84;" horiz-adv-x="926" 
d="M457 785l24 94h83l-23 -94h-84zM640 785l24 94h83l-23 -94h-84zM546 703h34q28 0 36.5 -7t8.5 -28l-3 -575h16l277 607h83l-321 -679q-7 -15 -15.5 -19.5t-29.5 -4.5h-37q-29 0 -37.5 6t-8.5 27l5 572h-16l-284 -580q-7 -15 -15.5 -20t-28.5 -5h-39q-28 0 -37 6.5
t-8 26.5l16 670h78l-20 -607h15l282 580q9 18 18.5 24t30.5 6z" />
    <glyph glyph-name="wdieresis" unicode="&#x1e85;" horiz-adv-x="736" 
d="M322 625l24 94h83l-23 -94h-84zM505 625l24 94h83l-23 -94h-84zM407 536h41q18 0 25 -6.5t7 -24.5l1 -426h12l204 456h77l-241 -512q-12 -26 -38 -26h-49q-19 0 -26 6.5t-7 26.5l4 418h-11l-206 -425q-12 -26 -38 -26h-49q-19 0 -26 6.5t-7 26.5l13 505h72l-17 -456h12
l208 431q7 15 15 20.5t24 5.5z" />
    <glyph glyph-name="Ygrave" unicode="&#x1ef2;" horiz-adv-x="576" 
d="M673 700l-343 -422l-69 -278h-79l70 283l-136 417h81l107 -342h6l274 342h89zM448 766h-62l-118 113v5h112l68 -113v-5z" />
    <glyph glyph-name="ygrave" unicode="&#x1ef3;" horiz-adv-x="519" 
d="M88 535h77l55 -432h5l252 432h83l-378 -627q-20 -33 -43 -46.5t-59 -13.5q-29 0 -99 7l16 59h91q21 0 36 23l40 65zM388 606h-62l-118 113v5h112l68 -113v-5z" />
    <glyph glyph-name="enspace" unicode="&#x2002;" horiz-adv-x="500" 
 />
    <glyph glyph-name="emspace" unicode="&#x2003;" horiz-adv-x="1000" 
 />
    <glyph glyph-name="threeperemspace" unicode="&#x2004;" horiz-adv-x="333" 
 />
    <glyph glyph-name="fourperemspace" unicode="&#x2005;" horiz-adv-x="250" 
 />
    <glyph glyph-name="thinspace" unicode="&#x2009;" horiz-adv-x="133" 
 />
    <glyph glyph-name="hairspace" unicode="&#x200a;" horiz-adv-x="75" 
 />
    <glyph glyph-name="endash" unicode="&#x2013;" horiz-adv-x="541" 
d="M478 283h-409l18 72h409z" />
    <glyph glyph-name="emdash" unicode="&#x2014;" horiz-adv-x="973" 
d="M910 284h-841l18 70h841z" />
    <glyph glyph-name="quoteleft" unicode="&#x2018;" horiz-adv-x="218" 
d="M200 452h-99l25 100q9 36 37 62l108 99l22 -22l-90 -98q-12 -13 -16 -28l-2 -9h41z" />
    <glyph glyph-name="quoteright" unicode="&#x2019;" horiz-adv-x="218" 
d="M170 700h99l-25 -100q-9 -36 -37 -62l-108 -99l-22 22l90 98q12 13 16 28l2 9h-41z" />
    <glyph glyph-name="quotesinglbase" unicode="&#x201a;" horiz-adv-x="220" 
d="M19 104h99l-25 -100q-9 -36 -37 -62l-107 -98l-23 22l90 98q11 11 16 27l3 9h-41z" />
    <glyph glyph-name="quotedblleft" unicode="&#x201c;" horiz-adv-x="401" 
d="M384 452h-99l25 100q9 38 37 62l107 99l23 -22l-91 -98q-11 -13 -15 -28l-3 -9h41zM200 452h-99l25 100q9 36 37 62l108 99l22 -22l-90 -98q-12 -13 -16 -28l-2 -9h41z" />
    <glyph glyph-name="quotedblright" unicode="&#x201d;" horiz-adv-x="401" 
d="M170 700h99l-25 -100q-9 -36 -37 -62l-108 -99l-22 22l90 98q12 13 16 28l2 9h-41zM353 700h99l-24 -100q-9 -36 -37 -62l-108 -99l-23 22l91 98q13 15 16 28l2 9h-41z" />
    <glyph glyph-name="quotedblbase" unicode="&#x201e;" horiz-adv-x="401" 
d="M19 104h99l-25 -100q-9 -36 -37 -62l-107 -98l-23 22l90 98q11 11 16 27l3 9h-41zM203 104h99l-25 -100q-9 -36 -37 -62l-108 -98l-22 22l90 98q12 13 16 27l2 9h-41z" />
    <glyph glyph-name="dagger" unicode="&#x2020;" horiz-adv-x="481" 
d="M148 566l121 -21l-7 -30l-131 -21zM480 566l-17 -72l-122 21l7 30zM386 700l-55 -134h-34l13 134h76zM302 374l-84 -257h-31l44 257l48 120h34z" />
    <glyph glyph-name="daggerdbl" unicode="&#x2021;" horiz-adv-x="489" 
d="M152 566l122 -21l-8 -30l-131 -21zM485 566l-18 -72l-122 21l7 30zM390 700l-54 -134h-35l13 134h76zM45 134l17 72l122 -21l-8 -30zM377 134l-122 21l8 30l132 21zM216 0h-76l53 134h35zM300 350l-53 -144h-36l19 144l53 144h35z" />
    <glyph glyph-name="bullet" unicode="&#x2022;" horiz-adv-x="481" 
d="M254 492h67q43 0 59 -16q24 -24 3 -113q-12 -53 -21.5 -73.5t-24.5 -34.5q-20 -21 -64 -21h-67q-44 0 -58 14q-15 14 -15.5 38.5t11.5 76.5t21.5 72.5t23.5 35.5q22 21 65 21z" />
    <glyph glyph-name="ellipsis" unicode="&#x2026;" horiz-adv-x="698" 
d="M28 102h93l-25 -102h-93zM260 102h94l-25 -102h-93zM493 102h94l-25 -102h-94z" />
    <glyph glyph-name="guilsinglleft" unicode="&#x2039;" horiz-adv-x="358" 
d="M55 253l9 43l191 156h89l-218 -185l125 -183h-80z" />
    <glyph glyph-name="guilsinglright" unicode="&#x203a;" horiz-adv-x="358" 
d="M13 84l217 183l-124 185h80l116 -169l-9 -44l-192 -155h-88z" />
    <glyph glyph-name="fraction" unicode="&#x2044;" horiz-adv-x="563" 
d="M9 -3h-67l342 369l310 337h67l-341 -367z" />
    <glyph glyph-name="Euro" unicode="&#x20ac;" horiz-adv-x="676" 
d="M526 229h75q-43 -145 -83 -185q-26 -26 -56 -35t-82 -9h-142q-81 0 -111 32q-46 46 -22 196h-79l16 64h75l16 67q2 6 6.5 25.5t7.5 29.5h-75l16 65h77q40 131 83 177q26 26 56 35t82 9h141q79 0 113 -31q22 -22 26.5 -61t-9.5 -126h-74q13 73 12.5 98t-13.5 37
q-17 17 -67 17h-139q-53 0 -75 -22q-27 -27 -59 -133h212l-16 -65h-214l-16 -64l-14 -58h214l-16 -64h-211q-23 -120 3 -146q16 -16 67 -16h138q54 0 76 22q29 29 61 141z" />
    <glyph glyph-name="published" unicode="&#x2117;" horiz-adv-x="784" 
d="M578 423q-14 -57 -42 -85q-24 -24 -74 -24h-133l-38 -151h-47l95 385h165q47 0 64 -17q29 -29 10 -108zM489 508h-113l-37 -153h121q31 0 43 12q17 17 29 64q13 52 -3 68q-9 9 -40 9zM135 350q-52 -226 8 -288q20 -20 49.5 -29t95.5 -9h111q68 0 104.5 11.5t65.5 39.5
q72 72 118 275q52 226 -8 288q-20 20 -49.5 29t-95.5 9h-111q-68 0 -104.5 -11.5t-65.5 -39.5q-72 -72 -118 -275zM715 350q-48 -212 -122 -286q-34 -34 -76.5 -49t-116.5 -15h-115q-73 0 -106.5 11t-55.5 33q-69 71 -16 306q48 212 122 286q34 34 76.5 49t116.5 15h115
q73 0 106.5 -11t55.5 -33q69 -71 16 -306z" />
    <glyph glyph-name="servicemark" unicode="&#x2120;" horiz-adv-x="858" 
d="M917 700l-96 -385h-47l85 340h-7l-189 -325q-9 -15 -22 -15h-22q-12 0 -15.5 4t-4.5 16l-27 323h-7l-86 -343h-45l96 385h63q19 0 20 -19l26 -306h6l177 310q8 15 23 15h72zM408 587h-46q12 57 2 66q-7 7 -29 7h-92q-24 0 -34 -9q-12 -11 -22 -52q-10 -39 0 -48
q8 -8 25 -10l105 -22q34 -6 49 -21q22 -22 7 -80t-39 -82q-22 -21 -66 -21h-118q-42 0 -55 16q-20 20 -1 100h45q-13 -61 -4 -70q6 -6 29 -6h105q25 0 34 9q12 11 23 56q10 39 0 49q-6 6 -25 10l-105 21q-36 7 -49 20q-21 21 -6 82q11 53 37 76q23 22 66 22h103q41 0 56 -15
q13 -13 14 -34t-9 -64z" />
    <glyph glyph-name="trademark" unicode="&#x2122;" horiz-adv-x="843" 
d="M429 661h-118l-86 -346h-47l86 346h-118l10 39h283zM902 700l-96 -385h-47l85 340h-7l-189 -325q-9 -15 -22 -15h-22q-12 0 -15.5 4t-4.5 16l-27 323h-7l-86 -343h-45l96 385h63q19 0 20 -19l26 -306h6l177 310q8 15 23 15h72z" />
    <glyph glyph-name="minus" unicode="&#x2212;" horiz-adv-x="511" 
d="M76 331l16 64h390l-16 -64h-390z" />
    <glyph glyph-name="NUL" unicode="&#xe05d;" horiz-adv-x="0" 
 />
    <glyph glyph-name="aring.alt" horiz-adv-x="555" 
d="M408 0h-69l17 74q-66 -45 -100 -60t-75 -15h-40q-63 0 -92 29q-36 36 -15 130q17 69 49 100q25 25 62.5 35t105.5 10q75 0 159 -13l19 77q18 73 -2 94q-13 13 -54 13h-87q-50 0 -70 -19q-15 -15 -35 -80h-72q26 91 56 121t75 36q-11 26 -1 69q11 46 35 68q24 25 77 25h70
q45 0 65 -20q26 -26 12 -83q-9 -42 -34 -67q15 -8 25 -17q37 -38 13 -135zM207 61q35 0 64.5 11.5t95.5 47.5l32 128h-163q-77 0 -101 -24q-17 -19 -29 -66q-15 -65 4 -82q15 -15 57 -15h40zM326 540h65q26 0 37 11q12 11 20 45q9 36 -3 48q-8 8 -34 8h-64q-27 0 -37 -10
q-14 -14 -21 -45q-9 -36 3 -48q9 -9 34 -9z" />
    <glyph glyph-name="aringacute.alt" horiz-adv-x="555" 
d="M408 0h-69l17 74q-66 -45 -100 -60t-75 -15h-40q-63 0 -92 29q-36 36 -15 130q17 69 49 100q25 25 62.5 35t105.5 10q75 0 159 -13l19 77q18 73 -2 94q-13 13 -54 13h-87q-50 0 -70 -19q-15 -15 -35 -80h-72q26 91 56 121t75 36q-11 26 -1 69q11 46 35 68q24 25 77 25h70
q45 0 65 -20q26 -26 12 -83q-9 -42 -34 -67q15 -8 25 -17q37 -38 13 -135zM207 61q35 0 64.5 11.5t95.5 47.5l32 128h-163q-77 0 -101 -24q-17 -19 -29 -66q-15 -65 4 -82q15 -15 57 -15h40zM326 540h65q26 0 37 11q12 11 20 45q9 36 -3 48q-8 8 -34 8h-64q-27 0 -37 -10
q-14 -14 -21 -45q-9 -36 3 -48q9 -9 34 -9zM365 758v5l121 113h113v-5l-165 -113h-69z" />
    <glyph glyph-name="registered.alt" horiz-adv-x="784" 
d="M512 163h-47q2 33 18 102q8 40 -3 51q-12 12 -48 12h-111l-41 -165h-47l96 385h176q44 0 61 -17q26 -26 10 -93q-10 -45 -29.5 -66t-52.5 -26v-1q27 -8 36.5 -25t1.5 -55q-16 -71 -20 -102zM331 367h131q29 0 40 11q16 19 27 60q11 49 -3 62q-8 8 -35 8h-125zM135 350
q-52 -226 8 -288q20 -20 49.5 -29t95.5 -9h111q68 0 104.5 11.5t65.5 39.5q72 72 118 275q52 226 -8 288q-20 20 -49.5 29t-95.5 9h-111q-68 0 -104.5 -11.5t-65.5 -39.5q-72 -72 -118 -275zM715 350q-48 -212 -122 -286q-34 -34 -76.5 -49t-116.5 -15h-115q-73 0 -106.5 11
t-55.5 33q-69 71 -16 306q48 212 122 286q34 34 76.5 49t116.5 15h115q73 0 106.5 -11t55.5 -33q69 -71 16 -306z" />
    <glyph glyph-name="hcoslug" horiz-adv-x="694" 
d="M273 18h-26q0 -12 10 -12q8 0 9 7h7q-3 -14 -18 -14q-21 0 -21 20q0 9 6 15t14 6q21 0 19 -22zM254 35q-7 0 -7 -12h14q0 12 -7 12zM195 78q8 0 8 16q0 15 -8 15t-8 -15q0 -16 8 -16zM210 4q8 0 8 16q0 15 -8 15t-8 -15q0 -16 8 -16zM210 -1q-21 0 -21 21q0 20 21 20
t21 -20q0 -9 -6 -15t-15 -6zM546 4q8 0 8 16q0 15 -8 15t-8 -15q0 -16 8 -16zM546 -1q-21 0 -21 21q0 20 21 20t21 -20q0 -9 -6 -15t-15 -6zM125 74v7h7v41h-7v7h51v-20h-8q-2 13 -11 13h-12v-18h4q5 0 6 8h7v-23h-7q-1 8 -6 8h-4v-16h10v-7h-30zM195 73q-21 0 -21 21
q0 20 21 20t21 -20q0 -9 -6 -15t-15 -6zM644 -100v800h-594v-800h594zM498 -1q-29 0 -29 28q0 13 8 21.5t19 8.5q9 0 16 -7l1 6h8v-22h-8q-5 16 -15 16q-14 0 -14 -22t16 -22q12 0 14 16h8q-2 -23 -24 -23zM372 80q7 0 7 13t-7 13q-8 0 -8 -13t8 -13zM276 0v7h6v25h-7v7h7v1
q0 19 19 19q5 0 9 -2l10 2v-52h6v-7h-23v7h5v25h-14v-25h5v-7h-23zM368 0v7h6v25h-6v7h18v-10q4 11 12 11t8 -8q0 -7 -7 -7q-6 0 -6 6v1q-3 0 -7 -9v-16h8v-7h-26zM352 73v52h-6v7h18v-27q3 9 13 9q15 0 15 -20q0 -21 -16 -21q-9 0 -14 8l-4 -8h-6zM400 75q5 0 6.5 -4
t-1.5 -6q6 0 8 8l-16 33h-5v7h25v-7h-6l9 -20l8 20h-5v7h17v-7h-5l-13 -31q-6 -16 -18 -16q-11 0 -11 9q0 7 7 7zM247 428q0 13 7.5 21t19.5 8q13 0 21 -10.5t8 -27.5q0 -22 -18 -50q-15 14 -21 20.5t-11.5 17t-5.5 21.5zM302 74v14h7q6 -9 12 -9q5 0 5 4q0 3 -12 6.5
t-12 12.5q0 12 14 12q8 0 11 -5l2 5h6v-13h-7q-5 7 -10 7t-5 -4q0 -3 12 -6t12 -12q0 -13 -14 -13q-5 0 -13 5l-1 -4h-7zM261 219q-22 0 -37 15.5t-15 38.5q0 24 16 40q34 -32 74 -82q-15 -12 -38 -12zM274 122l12 2v-11h13v-7h-13v-20q0 -5 4 -5t5 7l5 -2q-3 -13 -14 -13
q-12 0 -12 13v20h-7v7h7v9zM428 306q-26 -16 -46 -42q35 -41 62 -41q26 0 43 29l7 -2q-1 -43 -24 -68.5t-56 -25.5q-41 0 -85 45q-41 -45 -104 -45q-45 0 -77 27t-32 66q0 63 82 91q-31 32 -31 69q0 34 30.5 59.5t78.5 25.5q44 0 69.5 -22.5t25.5 -51.5q0 -19 -9 -34
q46 2 49 -37q25 38 60 38q21 0 35.5 -14.5t14.5 -37.5t-14.5 -38.5t-35.5 -15.5q-28 0 -43 25zM219 74v7h6v25h-6v7h17v-10q5 11 14 11q12 0 12 -14v-19h6v-7h-22v7h4v18q0 7 -6 7q-7 0 -7 -10v-15h4v-7h-22zM446 33h18v-7h-5q-3 -6 -9 -14q3 -5 6 -5t4 5l5 -1
q-3 -12 -13 -12q-7 0 -12 6q-6 -6 -15 -6q-18 0 -18 14q0 11 13 15q-6 6 -6 12q0 14 17 14q14 0 14 -12q0 -7 -11 -12q3 -3 6.5 -7t5.5 -6q4 5 6 9h-6v7zM429 6q3 0 8 3q-10 12 -14 16q-4 -4 -4 -9q0 -10 10 -10zM294 42v-3h14v5q-6 0 -6 6l1 3q-1 1 -3 1q-6 0 -6 -12z
M425 43q0 -4 6 -10q5 3 5 9t-6 6q-5 0 -5 -5zM312 342q30 20 42 34q29 -29 -1 -80q-33 38 -41 46zM366 18h-26q0 -12 10 -12q8 0 9 7h7q-4 -14 -18 -14q-21 0 -21 20q0 9 6 15t14 6q21 0 19 -22zM347 35q-7 0 -7 -12h14q0 12 -7 12zM124 0v7h8v41h-8v7h29v-7h-8v-16h22v16
h-8v7h29v-7h-8v-41h8v-7h-29v7h8v18h-22v-18h8v-7h-29zM576 13q7 0 7 -7t-7 -7t-7 7t7 7z" />
    <glyph glyph-name="caron.alt" horiz-adv-x="494" 
d="M426 800l-15 -77q-12 -56 -49 -99l-56 -72l-23 15l42 84q12 26 12 48v82l4 19h85z" />
    <glyph glyph-name="i.dot" horiz-adv-x="239" 
d="M279 730l-24 -95h-88l24 95h88zM223 535l-134 -535h-74l134 535h74z" />
    </font>
</defs>
</svg>
