<svg xmlns="http://www.w3.org/2000/svg" viewBox="0 0 32.33 32.33"><defs><style>.a{fill:#939598;}</style></defs><title>get-in-touch-01</title><path class="a" d="M12.19,20.14C7.76,15.72,6.45,10.3,7.65,8.31c.71-1,.72-1,1.28-1.8S4.62-.32,3.53,0A3.74,3.74,0,0,0,2,1.29,9.11,9.11,0,0,0,.28,9.2c1,4,4.2,8.58,9.24,13.62s9.67,8.24,13.62,9.24A9.11,9.11,0,0,0,31,30.34a3.74,3.74,0,0,0,1.28-1.54c.33-1.08-5.7-5.94-6.5-5.39S25,24,24,24.68C22,25.88,16.62,24.57,12.19,20.14Z"/><rect class="a" x="14.24" y="10.32" width="13.89" height="1.66" transform="translate(-1.68 18.24) rotate(-45)"/><polygon class="a" points="26.92 14.47 25.26 14.47 25.26 7.07 17.86 7.07 17.86 5.41 26.92 5.41 26.92 14.47"/></svg>