<svg xmlns="http://www.w3.org/2000/svg" viewBox="0 0 44.26 61.54"><defs><style>.a{fill:none;stroke-miterlimit:10;stroke-width:2px;}.a,.b{stroke:#939598;}.b{fill:#939598;stroke-linejoin:round;stroke-width:0.98px;}.c{fill:#fff;}</style></defs><title>get-in-touch-05</title><line class="a" x1="1" x2="1" y2="61.54"/><polygon class="b" points="36.26 31.35 1 31.35 1 4.25 43.77 4.25 36.26 31.35"/><path class="c" d="M10.8,11.53h4.05V22.88H10.8ZM16,20.45h2.13V14H16V11.53h4.56l1.62,1.62v8.1l-1.62,1.62H16Z"/><polygon class="c" points="29.71 13.15 28.09 11.53 25.48 11.53 23.24 11.53 21.9 11.53 23.24 12.88 23.24 13.96 25.66 13.96 25.66 15.99 23.24 15.99 23.24 18.42 25.67 18.42 25.67 20.45 23.24 20.45 23.24 21.53 21.9 22.88 23.24 22.88 25.48 22.88 28.09 22.88 29.71 21.26 29.71 18.66 28.25 17.21 29.71 15.75 29.71 13.15"/></svg>