<svg xmlns="http://www.w3.org/2000/svg" viewBox="0 0 60.31 80.23"><defs><style>.a{fill:#2d2d2d;stroke:#06b9e4;stroke-miterlimit:10;stroke-width:0.17px;}</style></defs><title>get-ready-03</title><path class="a" d="M43.88,26.49c-1.73,2.73-3.49,5.43-5.25,8.15-.66,1-.62,1.42.28,2.26A3.89,3.89,0,0,0,41.28,38a2.4,2.4,0,0,0,2-.71l4.26-4.81c-.11.34-.28.82-.47,1.26l.5.39a13.47,13.47,0,0,0,1.16.8,6.08,6.08,0,0,1,.08-2.25c.05-.3.08-.61.13-1h0v-.09s-.07-.4-.11-.74a1.05,1.05,0,0,0-.09-.82A10.24,10.24,0,0,1,48.31,29a4.41,4.41,0,0,0-3.49-2.89A.74.74,0,0,0,43.88,26.49Z"/><path class="a" d="M42.21,39.3l-.64-.51.33,0a2.81,2.81,0,0,1-1.07-.08c-.65-.17-.9-.16-1.61-.35a8.76,8.76,0,0,1,.68,3.17.06.06,0,0,1-.13,0,14.29,14.29,0,0,0-2.3-3.89,4.77,4.77,0,0,1-2.83.06,8,8,0,0,1-4-1.89c-.13-.13.29.66.37,1.42.1.57,0,1.12.08,1.6A7.11,7.11,0,0,1,30,43.19a14.3,14.3,0,0,1-2.4,2.88.09.09,0,0,1-.13-.12c.42-.52.87-1.07,1.26-1.67a7.54,7.54,0,0,0,1.36-4.36c0-1.78,0-2.11-1.55-4.79-1.33-2.35-3.67-3.8-5.86-5.8L22,28.67a1.81,1.81,0,0,1-.62-1.17,2.21,2.21,0,0,0-.22-.56,2.68,2.68,0,0,1-1.8,1.24,0,0,0,0,1,0-.09,3.74,3.74,0,0,0,.92-.69A2.69,2.69,0,0,0,21,26c.08-.4.12-1.26,0-1.32h0l-.53-.07a4,4,0,0,1-2.09-1c-.06-.16.82.27,2.23.46l.39,0H21a12.66,12.66,0,0,0,5.51-.75,5.6,5.6,0,0,0,3.26-3.61c.08-1.32-.41-2.34-1.72-2.45a45.2,45.2,0,0,1-9.37-.48,8.81,8.81,0,0,0-2.37,0,2.28,2.28,0,0,0-1.8,1.5,18.41,18.41,0,0,0-.78,2.8c-.64,3.21-1.21,6.42-1.85,9.63a5.33,5.33,0,0,0,.5,3.15c.88,2.09,1.82,4.16,2.79,6.21s2,4,3,6a3.69,3.69,0,0,1,.1,2.42,40.48,40.48,0,0,1-1.89,5.8Q11.7,67.26,7.05,80.15H32.61c2-8,3.83-16.11,5.92-24.11a5.43,5.43,0,0,1,1.06-1.73,56.8,56.8,0,0,0,6.73-11A23.25,23.25,0,0,0,42.21,39.3ZM22.9,19c.35-.71,0-1.13.2-1.22a8.58,8.58,0,0,1,1.45,0c.77,0,2.76-.17,3.52-.07s1,.84.27,2.06-4.67,1.38-5.42,1S22.54,19.73,22.9,19Z"/><path class="a" d="M21.6,24.71s-.16,1.33-.18,1.37c.11.23.1.46.26.65a5.11,5.11,0,0,0,2.94,1.82,1,1,0,0,0,1.2-.48l2.21-4a13.94,13.94,0,0,0,.59-1.32C26.66,24.47,23.32,24.85,21.6,24.71Z"/><path class="a" d="M8.41,16.06l.45,0,.59,0a8,8,0,0,1,4.11,1l.9.52a3.3,3.3,0,0,1,.93-.88,4.49,4.49,0,0,1,2-.29l.41,0L14.9,14.07l.75-1L20,16.54l.44,0h0c.71,0,1.84.16,2.45.2h0a7.87,7.87,0,0,0,.82,0h0c1.16,0,3-.05,3.55,0a8.73,8.73,0,0,1,1.39.12,2.28,2.28,0,0,1,1.44,1.17c.14.2.12.64.22,1a5.23,5.23,0,0,0-.19-3.81,2.39,2.39,0,0,0-.68-.85A6.36,6.36,0,0,0,26.29,13a1.49,1.49,0,0,0-.93.18c-.8.53-1.59,1.08-2.37,1.63l1.15.91-.18.55-3.84-3A14.27,14.27,0,0,1,15,6c-.27-.94-.62-1.86-1-2.78a4.46,4.46,0,0,0-3.9-3A11.9,11.9,0,0,0,8.47.08,18.14,18.14,0,0,0,3.93.8c-.33.09-.57.49-.86.75a4,4,0,0,0,.82.66c1.48.64,3,1.22,4.47,1.86A2.12,2.12,0,0,1,9.66,6a5.15,5.15,0,0,1-2,4.73,2.5,2.5,0,0,1-1.52.6A2.4,2.4,0,0,1,5,11c-1.25-.65-2.54-1.25-3.82-1.83a4.48,4.48,0,0,0-1-.2,3,3,0,0,0,0,1.14C1.45,13,4.12,16.12,8.41,16.06Z"/><path class="a" d="M59.64,41.4a5.65,5.65,0,0,0-5.14-3.54,7.43,7.43,0,0,1-3.37-.94,30.28,30.28,0,0,1-3.92-2.37l-.52-.4c-.47.63-1.09,1.41-1.59,2L48,38.44l-.75,1-2.95-2.3,0,0-.41.46a4.92,4.92,0,0,1-1.08.91,4.8,4.8,0,0,1-.61.24l.28.22a18.3,18.3,0,0,1,6.14,7.55A5.52,5.52,0,0,0,54,49.9a6.71,6.71,0,0,0,5.19-2.67A5.71,5.71,0,0,0,59.64,41.4Zm-1.67,3,.35,1.22-1.12.59-.31,1.23-1.27,0-.88.91-1.07-.68L52.45,48l-.59-1.12-1.23-.31,0-1.27-.91-.88.68-1.07-.35-1.22,1.12-.59.31-1.23,1.27,0,.88-.91,1.07.68L56,39.79l.59,1.12,1.23.31,0,1.27.91.88Z"/><path class="a" d="M27.79,25.5c-.48.91-1,1.81-1.5,2.69a2,2,0,0,0,.24,2.48,4,4,0,0,0,3.59,1.62,1.57,1.57,0,0,0,1.28-.72c2.14-3.36,4.31-6.71,6.18-10.23a1.74,1.74,0,0,0,0-1.86,5,5,0,0,0-2.8-2.63,10.05,10.05,0,0,0-1.32-.24,5.43,5.43,0,0,0-2.14.58c-.11.06-.25.21-.24.31a6.77,6.77,0,0,1-.79,3C29.43,22.26,28.7,23.79,27.79,25.5Z"/><path class="a" d="M32,31.52a2.08,2.08,0,0,0,.19,2.61A5.26,5.26,0,0,0,36,35.85a2,2,0,0,0,1.85-1c1.2-1.68,2.41-3.37,3.51-5.11.91-1.43,1.67-3,2.5-4.43a1.76,1.76,0,0,0-.14-2A5.78,5.78,0,0,0,40,20.77a3.26,3.26,0,0,0-.9,0,1.09,1.09,0,0,0-.9.64c-1.55,2.63-3.14,5.23-4.73,7.84C33,30,32.55,30.78,32,31.52Z"/></svg>