<svg xmlns="http://www.w3.org/2000/svg" viewBox="0 0 113.7 40.68"><defs><style>.a,.b,.c{fill:#2d2d2d;}.b,.c{stroke:#06b9e4;stroke-width:1.45px;}.b{stroke-linejoin:round;}.c{stroke-miterlimit:10;}</style></defs><title>get-ready-01</title><rect class="a" x="8.04" y="0.73" width="96.54" height="26.15"/><polyline class="b" points="56.85 0.73 8.04 0.73 2.46 13.8 0.73 35.5 3.18 39.95 6.3 26.88 0.73 35.5"/><line class="c" x1="8.06" y1="0.43" x2="6.32" y2="26.58"/><polyline class="c" points="56.85 39.95 3.18 39.95 6.3 26.88 56.85 26.88"/><polyline class="b" points="56.85 0.73 104.6 0.73 110.18 13.8 112.98 35.5 110.52 39.95 107.4 26.88 112.98 35.5"/><line class="c" x1="104.58" y1="0.43" x2="107.38" y2="26.58"/><polyline class="c" points="56.85 39.95 110.52 39.95 107.4 26.88 56.85 26.88"/><line class="c" x1="49.69" y1="0.43" x2="49.69" y2="39.95"/><line class="c" x1="64.02" y1="0.43" x2="64.02" y2="39.95"/></svg>