<svg xmlns="http://www.w3.org/2000/svg" viewBox="0 0 129.37 47.84"><defs><style>.a{fill:#2d2d2d;}.b{fill:#06b9e4;}.c,.d,.e{fill:none;stroke-miterlimit:10;}.c,.d{stroke:#06b9e4;}.c{stroke-width:1.79px;}.d,.e{stroke-width:1.66px;}.e{stroke:#2d2d2d;}</style></defs><title>get-ready-02</title><path class="a" d="M129.17,20.21l-5.24-9.64a1.51,1.51,0,0,0-1.32-.8H109.94a1.54,1.54,0,0,0-1.52,1.56V28.65h-2.38V2.2A1.35,1.35,0,0,0,104.7.85H57A1.35,1.35,0,0,0,55.64,2.2V31.32A1.35,1.35,0,0,0,57,32.67h51.44v2a1.54,1.54,0,0,0,1.52,1.56h17.91a1.54,1.54,0,0,0,1.52-1.56V21A1.6,1.6,0,0,0,129.17,20.21Zm-3.91-.05H113.09a.87.87,0,0,1-.85-.88V12.7a.87.87,0,0,1,.85-.88h8.64a.85.85,0,0,1,.75.45L126,18.85A.88.88,0,0,1,125.26,20.16Z"/><circle class="a" cx="115.38" cy="37.86" r="8.51"/><path class="b" d="M115.38,30.81a7.05,7.05,0,1,1-7.05,7.05,7.05,7.05,0,0,1,7.05-7.05m0-2.92a10,10,0,1,0,10,10,10,10,0,0,0-10-10Z"/><circle class="a" cx="70.24" cy="37.86" r="8.51"/><path class="b" d="M70.24,30.81a7.05,7.05,0,1,1-7.05,7.05,7.05,7.05,0,0,1,7.05-7.05m0-2.92a10,10,0,1,0,10,10,10,10,0,0,0-10-10Z"/><line class="c" x1="53.74" y1="16.59" x2="95.03" y2="16.59"/><polyline class="c" points="88.28 23.35 95.03 16.59 88.28 9.84"/><path class="a" d="M21.61,1a.62.62,0,0,0-.38-.16H1.05a.22.22,0,0,0-.22.22V35.41a.22.22,0,0,0,.22.22H27.43a.22.22,0,0,0,.22-.22V7.26a.62.62,0,0,0-.16-.38Z"/><path class="d" d="M21.61,1a.62.62,0,0,0-.38-.16H1.05a.22.22,0,0,0-.22.22V35.41a.22.22,0,0,0,.22.22H27.43a.22.22,0,0,0,.22-.22V7.26a.62.62,0,0,0-.16-.38Z"/><path class="a" d="M21.45.83v6a.22.22,0,0,0,.22.22h6"/><path class="d" d="M21.45.83v6a.22.22,0,0,0,.22.22h6"/><path class="d" d="M11.21,15.23h6.92a.22.22,0,0,1,.22.22v6.92"/><line class="d" x1="18.35" y1="15.23" x2="9.82" y2="23.76"/><line class="e" x1="36.35" y1="16.59" x2="46.31" y2="16.59"/><line class="e" x1="41.33" y1="11.61" x2="41.33" y2="21.57"/></svg>