<svg xmlns="http://www.w3.org/2000/svg" viewBox="0 0 112.81 130"><defs><style>.a{fill:#2d2d2d;}</style></defs><title>icon-warranty</title><path class="a" d="M32.06,102.93l-5.66,9.81L0,97.5V76.89H11.33V91Zm24.24,14L35.67,105,30,114.82,56.29,130l26.29-15.18L76.91,105ZM11.33,39,31.95,27.13l-5.66-9.81L0,32.5V53.11H11.33Zm45-26L77,25l5.66-9.81L56.29,0,29.9,15.24,35.56,25Zm45,26V53.11h11.33V32.5L86.3,17.32l-5.66,9.81Zm0,51.92-20.73,12,5.66,9.81L112.58,97.5V76.89H101.26ZM22.36,47.32l-.94-.94H18.61v1.4H20v3.75h-1.4v1.4h2.81l.94-.94Zm-6.55-.94v6.55h2.34V46.39Zm10.39,5.15V47.79h.47v-1.4H23.39v1.4h.47v3.75h-.47v1.4h3.28v-1.4Zm6.42-5.15H31.19v1.4l.71.69v1.65H30.49v1.4h1.41v1.4h2.34V48Zm-1.89,1.4v-1.4H29.34L27.69,48v4.92H30V48.48Zm11.57-1.4-.94,1v5.6H43.7V46.39Zm-7,2.05v4.5h2.34V50.76Zm1.4-2.05h-1.4v1.4L39.49,52l1.4-1.4V47.79l-1.4,1.4Zm10.39,5.15V47.79h.71v-1.4H45.67l-.94.94V52l.94.94h2.12v-1.4Zm4.21-4.21-.94-.94h-2.1v1.4h.69v3.75h-.69v1.4h2.1l.94-.94Zm2.43-.94h-1.4v1.4l5.15,5.15h1.4v-1.4Zm-1.4,2.1v4.46h2.34V50.82Zm4.21,0,2.34,2.34V46.39H56.53Zm3.37-2.12v6.55h2.34V46.39Zm6.55.94-.94-.94H62.71v1.4h1.4v3.75h-1.4v1.4h2.81l.94-.94ZM74,50.51l-.84-.84.84-.84v-1.5l-.94-.94H70.3v1.4h1.4V49H70.3v1.4h1.4v1.17H70.3v1.4h2.8L74,52Zm-6.55-4.12v6.55h2.35V46.39Zm12.51,0H78.56v1.4l.71.69v1.65H77.86v1.4h1.41v1.4h2.34V48Zm-1.89,1.4v-1.4H76.71L75.06,48v4.92H77.4V48.48Zm8.07-1.4v1.4h.69v1.4H89.2V47.32l-.94-.94Zm3,3.75H86.86v1.4h-.69v1.4h2.1L89.2,52ZM85,51.54V47.79h.71v-1.4H83.58l-.94.94V52l.94.94H85.7v-1.4ZM95.25,50l-1.4,1.4,1.54,1.54h1.4v-1.4Zm.13-3.61L93,48.73v2.81l3.75-3.75v-1.4Zm-5.15-.47v7h2.34v-7Zm-81,20.34V68.8H6.14v3.05h8.14V66.26ZM0,71.85H5.12V57.61H0ZM16,60.66h1V68.8H16v3.05h7.12V68.8h-1V60.66h1V57.61H16Zm14.95,0h7.12V57.61H30.95Zm-1-3.05H24.85V71.85h5.08V66.26h7.12V63.2H29.93Zm16,3.05H53V57.61H45.9ZM52,63.2H44.88V57.61H39.8V71.85h5.08V66.26H52Zm-6.1,8.64H53V68.8H45.9Zm13.42,0h5.08V61.68H59.32ZM54.75,60.66H69V57.61H54.75Zm16,0h1V68.8h-1v3.05h7.12V68.8h-1V60.66h1V57.61H70.71Zm22.07-1V71.85h5.08V57.61H94.81ZM82.61,57.61H79.56v3.05l9.15,9.15,3.05-3.05v-6.1l-3.05,3.05ZM79.56,71.85h5.08V67.11l-5.08-5ZM111.8,63.2h-7.12V57.61H99.59V71.85h5.08V66.26h7.12Zm-6.1-5.59v3.05h7.12V57.61Zm0,11.19v3.05h7.12V68.8Zm-84,16.45.61.61h1.54V83.72l-.61-.6V77.32h-3v5.81l-.61.61v2.12h1.51Zm6.42-1.52v-6.4h-3v5.81l-.61.61v2.12H26ZM17.43,85.86H19V83.72l-.61-.6V77.32h-3v6.4Zm15.08-5.81.9-.9V77.32H31.6l-2.15,2.13v6.4h3Zm2.44,2.15H33.1V84h1.84v1.83h3v-6.4l-2.12-2.13H34v1.83l.93.9Zm9.88,3.66h3V83.3l-1.1-1.1,1.1-1.1V78.54l-1.22-1.22H43v1.83h1.83v2.13H43v1.83h1.83Zm-2.44-8.54h-3v8.54h3Zm9.88,0h-3v8.54h3Zm2.44,8.54h3V83.3l-1.1-1.1,1.1-1.1V78.54l-1.22-1.22H52.88v1.83h1.83v2.13H52.88v1.83h1.83Zm9.88-3.66H62.74V84h1.84v1.83h3v-6.4l-2.12-2.13H63.66v1.83l.93.9Zm-2.44-2.15.9-.9V77.32H61.24L59.1,79.45v6.4h3Zm15.37,5.81V84l-6.71-6.71H69v1.83l6.71,6.71Zm0-8.54h-3v2.76l3,3ZM72,83.1l-3-3v5.81h3ZM87.4,77.32H78.86v1.83H87.4ZM81.6,85.86h3v-6.1h-3Zm15.67-5.79V77.32h-3v2.44l-.79.79,1.67,1.67Zm-5.79,5.79h3V82.5l-2.74-2.74V77.32h-3v2.74l2.74,2.74Z"/></svg>