<svg xmlns="http://www.w3.org/2000/svg" viewBox="0 0 181.5 53.42"><title>icon-how-patent</title><path d="M50.72,48a5.27,5.27,0,0,0,1-5.31A5.21,5.21,0,0,0,47.3,39a6.85,6.85,0,0,1-3-1.18,27.89,27.89,0,0,1-3.37-2.54Q29.44,24.29,18,13.21a13.16,13.16,0,0,1-4-7.16c-.16-.89-.39-1.77-.62-2.64A4.11,4.11,0,0,0,10.16.3a14.52,14.52,0,0,0-5.79,0c-.31.05-.57.4-.86.61a3.66,3.66,0,0,0,.69.68C5.51,2.3,6.84,3,8.14,3.69a2,2,0,0,1,1,1.87A4.75,4.75,0,0,1,6.86,9.72a2.1,2.1,0,0,1-2.47,0C3.31,9,2.18,8.36,1.06,7.71a4.13,4.13,0,0,0-.93-.28A2.77,2.77,0,0,0,0,8.48c.95,2.89,3.24,6.09,7.43,6.25A7.71,7.71,0,0,1,11.69,16a45.94,45.94,0,0,1,5.11,4.06q9.78,9.3,19.44,18.73a16.88,16.88,0,0,1,4.93,7.49C42.31,50.32,47.52,51.37,50.72,48Zm-4.35-7.64.92.72,1.15-.21L48.89,42l1.1.4-.16,1.16.76.89-.72.92.21,1.15L49,47l-.4,1.1-1.16-.16-.89.76-.92-.72-1.15.21L44,47l-1.1-.4.16-1.16-.76-.89.72-.92-.21-1.15,1.09-.44.4-1.1,1.16.16Zm-5.85-.65L13.19,13.48l.77-.81L41.3,38.93Z" style="fill:#2d2d2d"/><path d="M50,3.91,47.07,1A2.24,2.24,0,0,0,45.4.38a2.52,2.52,0,0,0-1.71.75L41.05,3.76h0L37.56,7.25h0L8,36.77a.61.61,0,0,0-.1.14L1.19,49.21a.18.18,0,0,0,.24.24L14,43a.61.61,0,0,0,.15-.11L42.36,14.79h0l4.87-4.86h0l2.64-2.64a2.52,2.52,0,0,0,.75-1.71A2.23,2.23,0,0,0,50,3.91Zm-37,38-1.42-1.42,29.86-29.8,1.42,1.42ZM7.68,44.7,6.12,43.13l2-3.8,3.49,3.48ZM38.91,8.14l1.42,1.42L10.47,39.36,9,37.94Zm2.74-2.76,4,3.94L44,10.9,40.09,7Z" style="fill:#2d2d2d"/><polygon points="44.04 10.9 45.6 9.32 41.65 5.38 40.09 6.96 44.04 10.9" style="fill:#06b9e4"/><polygon points="6.12 43.13 7.68 44.7 11.58 42.82 8.09 39.34 6.12 43.13" style="fill:#2d2d2d"/><polygon points="11.58 40.47 13 41.88 42.86 12.08 41.44 10.66 11.58 40.47" style="fill:#06b9e4"/><polygon points="40.33 9.55 38.91 8.14 9.05 37.94 10.47 39.36 40.33 9.55" style="fill:#06b9e4"/><path d="M74.33,18.89c0,2.89-.26,3.62-.85,4.23-.48.46-1.16.63-2.52.63H68.58c-1.36,0-2-.17-2.46-.61-.61-.61-.85-1.34-.85-4.25v-7h1.41v7.29c0,2.33.19,2.75.49,3s.51.32,1.68.32h1.94c1.14,0,1.44-.1,1.65-.32s.48-.7.48-3V11.85h1.41Z" style="fill:#2d2d2d"/><path d="M85.62,23.22a2.28,2.28,0,0,1-1.75.53h-4a2.3,2.3,0,0,1-1.77-.49c-.46-.46-.63-1-.65-3.11H78.8c0,1.65.12,1.94.31,2.14s.37.25.92.25h3.64c.54,0,.77-.08,1-.27s.29-.7.29-1.82,0-1.36-.27-1.6-.41-.25-1-.31l-3.72-.34a2.75,2.75,0,0,1-1.75-.59c-.42-.43-.54-1-.54-2.52s.17-2.19.68-2.72A2.29,2.29,0,0,1,80,11.85h3.69a2.27,2.27,0,0,1,1.77.49c.48.48.6,1,.65,3H84.7c0-1.51-.1-1.85-.31-2.06s-.37-.26-.92-.26H80.21c-.54,0-.76.08-1,.27s-.29.75-.29,1.75.05,1.33.29,1.56.39.22,1,.29l3.72.34a2.69,2.69,0,0,1,1.73.58c.42.42.58,1,.58,2.6S86.13,22.71,85.62,23.22Z" style="fill:#2d2d2d"/><path d="M101,18.6a2.54,2.54,0,0,1-1.82.46H94.88v4.69H93.47V11.85h5.69a2.54,2.54,0,0,1,1.82.46c.49.46.88,1.14.88,3.18S101.46,18.14,101,18.6Zm-2.14-.75c.63,0,.92-.07,1.1-.24s.48-.61.48-2.16-.25-2-.48-2.16-.48-.24-1.1-.24h-4v4.79Z" style="fill:#2d2d2d"/><path d="M110.23,20.15h-4.91l-1.17,3.6h-1.41l3.86-11.51c.12-.36.22-.44.66-.44h1.12c.42,0,.54.08.66.44l3.86,11.51h-1.51ZM105.69,19h4.15L107.94,13h-.34Z" style="fill:#2d2d2d"/><path d="M118.43,13.06V23.75H117V13.06h-3.86V11.85h9.13v1.21Z" style="fill:#2d2d2d"/><path d="M132.42,23.75h-7.87V11.85h7.92v1.21H126V17h5.56v1.21H126v4.37h6.46Z" style="fill:#2d2d2d"/><path d="M144.35,23.75h-1.44a.7.7,0,0,1-.78-.48l-5.34-9.59h-.22V23.75h-1.36V11.85h1.55a.69.69,0,0,1,.77.48l5.24,9.32H143V11.85h1.38Z" style="fill:#2d2d2d"/><path d="M151.87,13.06V23.75h-1.41V13.06H146.6V11.85h9.13v1.21Z" style="fill:#2d2d2d"/><path d="M74,49.75H69.5c-1.72,0-2.44-.24-3.15-.92-.92-.88-1.52-2.55-1.52-6.78s.59-5.87,1.56-6.8c.7-.68,1.45-.9,3.19-.9h3.85c1.5,0,2.35.2,2.93.79.79.79,1,2.16,1,3.92H73.63c0-.86-.13-1.3-.33-1.47s-.48-.26-1.19-.26H70.64c-.88,0-1.19.11-1.41.31s-.46.77-.48,3.83a3.67,3.67,0,0,1,2.77-1.08h2.42c1.45,0,2.18.22,2.75.79.77.75,1,1.94,1,3.61,0,2.29-.29,3.34-1,4.14A3.47,3.47,0,0,1,74,49.75Zm-1.52-2.93c.62,0,.88,0,1.1-.26s.33-.68.33-1.54-.11-1.28-.33-1.5-.48-.26-1.12-.26h-2a3.16,3.16,0,0,0-1.72.48c.07,2.09.29,2.57.48,2.77s.51.31,1.39.31Z" style="fill:#2d2d2d"/><path d="M83.84,46.12V49.2a2.72,2.72,0,0,1-1,2.33l-2.09,1.89-1-.84,1.52-2a1.11,1.11,0,0,0,.29-.79v-.07H80.28V46.12Z" style="fill:#2d2d2d"/><path d="M95.13,34.35a3.52,3.52,0,0,1,2.79.88,4.12,4.12,0,0,1,1,3.08c0,2.07-.84,3.17-2.24,3.52v0c1.52.33,2.42,1.36,2.42,3.67A4.39,4.39,0,0,1,98,48.83a3.79,3.79,0,0,1-2.88.92H90.4a3.81,3.81,0,0,1-2.9-.92,4.39,4.39,0,0,1-1.12-3.28c0-2.31.9-3.34,2.42-3.67v0c-1.41-.35-2.27-1.45-2.27-3.52a4.13,4.13,0,0,1,1-3.08,3.52,3.52,0,0,1,2.79-.88ZM93.74,46.89c.59,0,.9,0,1.12-.26s.37-.7.37-1.54-.11-1.34-.35-1.58a1.56,1.56,0,0,0-1.14-.29h-2a1.53,1.53,0,0,0-1.12.29c-.26.24-.37.68-.37,1.58s.11,1.28.4,1.54.53.26,1.1.26Zm0-6.38a1.38,1.38,0,0,0,1-.24c.24-.24.35-.64.35-1.45s-.11-1.14-.35-1.34-.42-.26-1-.26h-2a1.36,1.36,0,0,0-1,.26c-.22.2-.33.59-.33,1.34s.11,1.21.35,1.45a1.38,1.38,0,0,0,1,.24Z" style="fill:#2d2d2d"/><path d="M110.31,34.35a3.52,3.52,0,0,1,2.79.88,4.12,4.12,0,0,1,1,3.08c0,2.07-.84,3.17-2.24,3.52v0c1.52.33,2.42,1.36,2.42,3.67a4.39,4.39,0,0,1-1.14,3.28,3.79,3.79,0,0,1-2.88.92h-4.69a3.81,3.81,0,0,1-2.9-.92,4.39,4.39,0,0,1-1.12-3.28c0-2.31.9-3.34,2.42-3.67v0c-1.41-.35-2.27-1.45-2.27-3.52a4.13,4.13,0,0,1,1-3.08,3.52,3.52,0,0,1,2.79-.88Zm-1.39,12.54c.59,0,.9,0,1.12-.26s.37-.7.37-1.54-.11-1.34-.35-1.58a1.56,1.56,0,0,0-1.14-.29h-2a1.53,1.53,0,0,0-1.12.29c-.26.24-.37.68-.37,1.58s.11,1.28.4,1.54.53.26,1.1.26Zm0-6.38a1.38,1.38,0,0,0,1-.24c.24-.24.35-.64.35-1.45s-.11-1.14-.35-1.34-.42-.26-1-.26h-2a1.36,1.36,0,0,0-1,.26c-.22.2-.33.59-.33,1.34s.11,1.21.35,1.45a1.38,1.38,0,0,0,1,.24Z" style="fill:#2d2d2d"/><path d="M121.44,43.24V40.51h2.75a1.34,1.34,0,0,0,1-.24,2.27,2.27,0,0,0,.33-1.39,2,2,0,0,0-.33-1.34c-.15-.15-.42-.24-1-.24h-2.13a1.77,1.77,0,0,0-1.12.22c-.2.2-.29.66-.35,2.09h-3.72c0-2.29.33-3.61,1.17-4.47a4,4,0,0,1,3-.79h4.6a3.69,3.69,0,0,1,2.84.84,4.25,4.25,0,0,1,1,3.12c0,2.09-1,3.15-2.29,3.52v0c1.52.33,2.42,1.39,2.42,3.56a4.62,4.62,0,0,1-1.14,3.43,3.64,3.64,0,0,1-2.84.88h-4.75c-1.56,0-2.4-.22-3-.81-.86-.84-1.14-2.29-1.17-4.73h3.72c.07,1.63.15,2.18.35,2.38s.42.22,1.17.22h2.31c.57,0,.81-.07,1-.24a2.39,2.39,0,0,0,.35-1.52,2.32,2.32,0,0,0-.33-1.54c-.2-.2-.44-.26-1-.26Z" style="fill:#2d2d2d"/><path d="M135.78,46.12V49.2a2.73,2.73,0,0,1-1,2.33l-2.09,1.89-1-.84,1.52-2a1.11,1.11,0,0,0,.29-.79v-.07h-1.25V46.12Z" style="fill:#2d2d2d"/><path d="M147.07,34.35a3.52,3.52,0,0,1,2.79.88,4.12,4.12,0,0,1,1,3.08c0,2.07-.84,3.17-2.24,3.52v0c1.52.33,2.42,1.36,2.42,3.67a4.39,4.39,0,0,1-1.14,3.28,3.79,3.79,0,0,1-2.88.92h-4.69a3.81,3.81,0,0,1-2.9-.92,4.39,4.39,0,0,1-1.12-3.28c0-2.31.9-3.34,2.42-3.67v0c-1.41-.35-2.27-1.45-2.27-3.52a4.13,4.13,0,0,1,1-3.08,3.52,3.52,0,0,1,2.79-.88Zm-1.39,12.54c.59,0,.9,0,1.12-.26s.37-.7.37-1.54-.11-1.34-.35-1.58a1.56,1.56,0,0,0-1.14-.29h-2a1.53,1.53,0,0,0-1.12.29c-.26.24-.37.68-.37,1.58s.11,1.28.4,1.54.53.26,1.1.26Zm0-6.38a1.38,1.38,0,0,0,1-.24c.24-.24.35-.64.35-1.45s-.11-1.14-.35-1.34-.42-.26-1-.26h-2a1.36,1.36,0,0,0-1,.26c-.22.2-.33.59-.33,1.34s.11,1.21.35,1.45a1.38,1.38,0,0,0,1,.24Z" style="fill:#2d2d2d"/><path d="M153.82,42.38l.53-8H165.7v3h-8.19l-.24,3.1.18,0a3.3,3.3,0,0,1,2.71-.88h2.13a3.57,3.57,0,0,1,2.82.84c.79.79,1.06,2,1.06,4,0,2.79-.29,3.7-1.06,4.49a3.49,3.49,0,0,1-2.68.86H157.5a4.19,4.19,0,0,1-2.9-.75c-.7-.73-1-1.76-1-4.27l3.65,0c0,1.21.18,1.67.33,1.85s.48.24,1.19.24h2.31a1.38,1.38,0,0,0,1-.24c.2-.18.37-.59.37-1.91s-.18-1.74-.37-1.91-.42-.24-1-.24h-1.52a4,4,0,0,0-2.51.81Z" style="fill:#2d2d2d"/><path d="M169.16,42.38l.53-8H181v3h-8.19l-.24,3.1.18,0a3.3,3.3,0,0,1,2.71-.88h2.13a3.57,3.57,0,0,1,2.82.84c.79.79,1.06,2,1.06,4,0,2.79-.29,3.7-1.06,4.49a3.49,3.49,0,0,1-2.68.86h-4.93a4.19,4.19,0,0,1-2.9-.75c-.7-.73-1-1.76-1-4.27l3.65,0c0,1.21.18,1.67.33,1.85s.48.24,1.19.24h2.31a1.38,1.38,0,0,0,1-.24c.2-.18.37-.59.37-1.91s-.18-1.74-.37-1.91-.42-.24-1-.24h-1.52a4,4,0,0,0-2.51.81Z" style="fill:#2d2d2d"/></svg>