<svg xmlns="http://www.w3.org/2000/svg" viewBox="0 0 140.53 73.03"><title>icon-locator-logo</title><path d="M0,73V57.34H3.36V73Zm4.48-5v-5.6H15.69V68Z" style="fill:#fff"/><path d="M0,48.38V40.53H3.36v7.85ZM0,55.1V49.5H6.16V41.65H9.53V49.5h6.16v5.6Zm12.33-6.72V40.53h3.36v7.85Z" style="fill:#fff"/><path d="M9,31.59V28.2H5L3.36,29.9H0V26.5l3.92-3.9H15.69v5.6H12.33v3.38ZM5,32.68H15.69v5.6H3.92L0,34.34V31H3.36Z" style="fill:#fff"/><path d="M0,.18H15.69v5.6H2.29L0,3.54ZM3.36,20.36H0V17l6.72-6.72L3.36,6.91h6.72l3.36,3.36Zm12.33,0H4.91l5.56-5.6h5.22Z" style="fill:#fff"/><path d="M21.16,0h26V72.76h-26ZM52.34,57.17H67.93V15.59H52.34V0H83.52L93.92,10.39v52L83.52,72.76H52.34Z" style="fill:#fff"/><polygon points="140.53 10.39 130.14 0 113.42 0 99.06 0 90.46 0 99.06 8.63 99.06 15.59 114.55 15.59 114.55 28.58 99.06 28.58 99.06 44.17 114.65 44.17 114.65 57.17 99.06 57.17 99.06 64.13 90.46 72.76 99.06 72.76 113.42 72.76 130.14 72.76 140.53 62.36 140.53 45.73 131.18 36.38 140.53 27.02 140.53 10.39" style="fill:#fff"/></svg>