<svg xmlns="http://www.w3.org/2000/svg" viewBox="0 0 92.33 51.69"><title>icon-built-in-usa</title><path d="M50,32.91H0V10.82L10.82,0h81.5V4.7H50.07V9.4H92.33v4.7H50.07v4.7H92.33v4.7H50.07v4.7H92.33v4.7H50ZM82.93,47H0v4.7H78.23Zm9.37-9.37H0v4.7H87.6ZM7.46,11.92H10v-7H7.46Zm3,0h3l1-1V9.31l-.9-.9.9-.9V5.89l-1-1h-3V6.39H12V7.65h-1.5V9.16H12v1.26H10.49Zm5.19-7v6l1,1H19V10.41h-.76V4.89Zm3.78,7H21.7l1-1v-6H20.2v5.52h-.74Zm4.44,0h3.52V10.41h-.5v-4h.5V4.89H23.89V6.39h.5v4h-.5Zm4.73,0h2.51v-7H28.62Zm3,0h4V9.16H33.14v1.26H31.64Zm3.75-5.52h7V4.89h-7Zm2.26,5.52h2.51v-5H37.65ZM7.71,15.58h4.22v-.7H7.71Zm7.08,1.29h1.64v-.7h-.23V14.3h.23v-.7H14.79v.7H15v1.87h-.23Zm5.62,0v-.7l-2.58-2.58h-.7v.7l2.58,2.58Zm-2.11,0V15.81l-1.17-1.17v2.23Zm2.11-3.28H19.24v1.06l1.17,1.17Zm2.86.7h3.28v-.7H23.27Zm1.05,2.58H25.5V14.53H24.33Zm2.93,0h1.17V13.59H27.26Zm1.41-1.29h.7v1.29h1.17V13.59H29.37v1.29h-.7Zm2.59,1.29h1.17V15.58h1.64v-.7H32.43V13.59H31.26Zm1.41-2.58h1.64v-.7H32.67Zm0,2.58h1.64v-.7H32.67Zm4.5-1.29h4.22v-.7H37.17ZM7.38,18.45v8.37l1.4,1.39h3.15V26.12H10.87V18.45Zm5.25,9.76h3.12l1.4-1.39V18.45H13.66v7.67h-1Zm12.55,0h3.15l1.4-1.39V23.68l-1.4-1.39H23.45V20.54h1.06V18.45H21.35L20,19.84V23l1.4,1.39h4.88v1.74H25.18Zm-.7-2.09h-1v-.7H20v1.4l1.4,1.39h3.12Zm.73-5.58h1v.7h3.49v-1.4l-1.4-1.39H25.2Zm11.85,0V18.45H35l-2.46,2.44v7.32H36V21.57Zm-.35,5.58h2.11v2.09H42.3V20.89l-2.43-2.44H37.76v2.09l1.06,1V24H36.71ZM6.59,0H0V6.59Z" style="fill:#939598"/></svg>