<svg xmlns="http://www.w3.org/2000/svg" viewBox="0 0 85.34 98.34"><title>icon-lifetime-warranty</title><path d="M24.25,77.86,20,85.28,0,73.75V58.16H8.57V68.81ZM42.58,88.44l-15.6-9L22.7,86.86,42.58,98.34,62.46,86.86l-4.28-7.42Zm-34-58.91,15.6-9L19.88,13.1,0,24.58V40.17H8.57Zm34-19.64,15.68,9.05,4.28-7.42L42.58,0l-20,11.53,4.28,7.42Zm34,19.64V40.17h8.57V24.58L65.28,13.1,61,20.52Zm0,39.27L60.91,77.86l4.28,7.42,20-11.53V58.16H76.59Zm-59.68-33-.71-.71H14.08v1.06h1.06V39H14.08V40H16.2l.71-.71Zm-5-.71v5h1.77v-5ZM19.81,39V36.15h.35V35.09H17.69v1.06H18V39h-.35V40h2.48V39Zm4.86-3.9H23.6v1.06l.54.52v1.25H23.06V39h1.07V40H25.9V36.33Zm-1.43,1.06V35.09h-1l-1.25,1.24V40h1.77V36.67ZM32,35.09l-.71.72V40h1.77v-5Zm-5.31,1.55V40h1.77V38.39Zm1.06-1.55H26.68v1.06l3.19,3.19,1.06-1.06V36.15l-1.06,1.06ZM35.61,39V36.15h.54V35.09h-1.6l-.71.71v3.54l.71.71h1.6V39Zm3.19-3.19-.71-.71H36.5v1.06H37V39H36.5V40h1.59l.71-.71Zm1.84-.71H39.57v1.06l3.9,3.9h1.06V39Zm-1.06,1.59V40h1.77v-1.6Zm3.19,0,1.77,1.77V35.09H42.76Zm2.55-1.6v5h1.77v-5Zm5,.71-.71-.71H47.43v1.06h1.06V39H47.43V40h2.12l.71-.71ZM56,38.2l-.64-.64.64-.64V35.8l-.71-.71H53.17v1.06h1.06V37H53.17V38.1h1.06V39H53.17V40h2.12l.71-.71Zm-5-3.12v5h1.78v-5Zm9.46,0H59.43v1.06l.54.52v1.25H58.9V39H60V40h1.77V36.33Zm-1.43,1.06V35.09H58l-1.25,1.24V40h1.77V36.67Zm6.1-1.06v1.06h.52v1.06h1.77V35.8l-.71-.71Zm2.29,2.83H65.7V39h-.52V40h1.59l.71-.71ZM64.29,39V36.15h.54V35.09h-1.6l-.71.71v3.54l.71.71h1.6V39ZM72,37.82,71,38.88,72.15,40h1.06V39Zm.1-2.73-1.77,1.77V39l2.83-2.83V35.09Zm-3.9-.35V40H70V34.73ZM6.95,50.12V52H4.64v2.31h6.15V50.12ZM0,54.35H3.87V43.58H0ZM12.1,45.89h.77V52H12.1v2.31h5.38V52h-.77V45.89h.77V43.58H12.1Zm11.31,0H28.8V43.58H23.41Zm-.77-2.31H18.79V54.35h3.85V50.12H28V47.81H22.64Zm12.08,2.31H40.1V43.58H34.72Zm4.62,1.92H33.95V43.58H30.1V54.35h3.85V50.12h5.38Zm-4.62,6.54H40.1V52H34.72Zm10.15,0h3.85V46.66H44.87Zm-3.46-8.46H52.18V43.58H41.41Zm12.08,0h.77V52h-.77v2.31h5.38V52H58.1V45.89h.77V43.58H53.49Zm16.69-.74v9.2H74V43.58H71.72Zm-7.69-1.57H60.18v2.31l6.92,6.92,2.31-2.31V45.89L67.1,48.19ZM60.18,54.35H64V50.76l-3.85-3.82Zm24.39-6.54H79.18V43.58H75.33V54.35h3.85V50.12h5.38ZM80,43.58v2.31h5.38V43.58ZM80,52v2.31h5.38V52ZM16.41,64.48l.46.46H18V63.33l-.46-.45V58.49H15.27v4.39l-.46.46v1.61H16Zm4.85-1.15V58.49H19v4.39l-.46.46v1.61h1.14Zm-8.08,1.61h1.16V63.33l-.46-.45V58.49H11.58v4.84Zm11.4-4.39.68-.68V58.49H23.91L22.28,60.1v4.84h2.31Zm1.85,1.62H25v1.38h1.39v1.38h2.31V60.1l-1.61-1.61h-1.4v1.38l.7.68Zm7.47,2.77h2.31V63l-.83-.83.83-.83V59.41l-.92-.92H32.52v1.38h1.38v1.61H32.52v1.38h1.38Zm-1.85-6.46H29.76v6.46h2.31Zm7.47,0H37.23v6.46h2.31Zm1.85,6.46h2.31V63l-.83-.83.83-.83V59.41l-.92-.92H40v1.38h1.38v1.61H40v1.38h1.38Zm7.47-2.77H47.46v1.38h1.39v1.38h2.31V60.1l-1.61-1.61h-1.4v1.38l.7.68ZM47,60.55l.68-.68V58.49H46.33L44.7,60.1v4.84H47Zm11.63,4.39V63.56l-5.07-5.07H52.18v1.38l5.07,5.07Zm0-6.46H56.33v2.09l2.31,2.31Zm-4.15,4.37-2.31-2.31v4.39h2.31Zm11.63-4.37H59.65v1.38h6.46Zm-4.38,6.46H64V60.33H61.73Zm11.86-4.38V58.49H71.28v1.85l-.6.6,1.26,1.26ZM69.2,64.95h2.31V62.41l-2.08-2.08V58.49H67.12v2.08l2.08,2.08Z" style="fill:#939598"/></svg>