<svg xmlns="http://www.w3.org/2000/svg" viewBox="0 0 29.36 34.19"><title>icon-how-03</title><path d="M29.36,33.67a.46.46,0,0,1-.47.52H.47A.47.47,0,0,1,0,33.67L2.55,9a.6.6,0,0,1,.58-.52h23a.6.6,0,0,1,.58.52Z" style="fill:#2d2d2d"/><path d="M18.83,17H10.54A4.35,4.35,0,0,1,6.2,12.63V4.34A4.35,4.35,0,0,1,10.54,0h8.29a4.35,4.35,0,0,1,4.34,4.34v8.29A4.35,4.35,0,0,1,18.83,17ZM10.54,3.16A1.19,1.19,0,0,0,9.35,4.34v8.29a1.19,1.19,0,0,0,1.18,1.18h8.29A1.19,1.19,0,0,0,20,12.63V4.34a1.19,1.19,0,0,0-1.18-1.18Z" style="fill:#2d2d2d"/></svg>