<svg xmlns="http://www.w3.org/2000/svg" viewBox="0 0 32.91 32.81"><title>icon-how-01</title><line x1="25.64" y1="21.44" x2="25.64" style="fill:none;stroke:#2d2d2d;stroke-linejoin:round;stroke-width:2.08869343944073px"/><path d="M32.28,19.83h-9.4c0-.32-.51-.57-1.13-.57s-1.13.26-1.13.57H12.29c0-.32-.51-.57-1.13-.57s-1.13.26-1.13.57H.63a.63.63,0,0,0-.63.63v2.78a.63.63,0,0,0,.5.61l8.44,1.84H9.4a.54.54,0,0,0-.15.37v6.19a.54.54,0,0,0,.54.54H13a.54.54,0,0,0,.54-.54V28.12A2.41,2.41,0,0,1,16,25.71h1a2.41,2.41,0,0,1,2.41,2.41v4.16a.54.54,0,0,0,.54.54h3.24a.54.54,0,0,0,.54-.54V26.08a.54.54,0,0,0-.15-.37h.39l8.51-1.84a.63.63,0,0,0,.5-.61V20.46A.63.63,0,0,0,32.28,19.83Z" style="fill:#2d2d2d"/><line x1="3.36" y1="17.19" x2="8.45" y2="26.31" style="fill:none;stroke:#06b9e4;stroke-linecap:round;stroke-linejoin:round;stroke-width:2.08869343944073px"/><line x1="19.06" y1="17.19" x2="24.14" y2="26.31" style="fill:none;stroke:#06b9e4;stroke-linecap:round;stroke-linejoin:round;stroke-width:2.08869343944073px"/><line x1="11.45" y1="17.19" x2="16.54" y2="26.31" style="fill:none;stroke:#06b9e4;stroke-linecap:round;stroke-linejoin:round;stroke-width:2.08869343944073px"/></svg>