<svg xmlns="http://www.w3.org/2000/svg" viewBox="0 0 35.03 34.82"><title>icon-how-02</title><ellipse cx="17.51" cy="17.41" rx="16.68" ry="16.58" style="fill:#2d2d2d;stroke:#2d2d2d;stroke-linejoin:round;stroke-width:1.67058953544755px"/><path d="M16.57,4.38a13.16,13.16,0,0,1,9.14,2.82" style="fill:none;stroke:#06b9e4;stroke-linejoin:round;stroke-width:1.67058953544755px"/><path d="M4.37,17a13.05,13.05,0,0,1,6.83-11" style="fill:none;stroke:#06b9e4;stroke-linejoin:round;stroke-width:1.67058953544755px"/><path d="M27.59,25.82A13.2,13.2,0,0,1,6.79,25" style="fill:none;stroke:#06b9e4;stroke-linejoin:round;stroke-width:1.67058953544755px"/><path d="M28.91,10.88a13.14,13.14,0,0,1,1.65,4.91" style="fill:none;stroke:#06b9e4;stroke-linejoin:round;stroke-width:1.67058953544755px"/><path d="M24.77,13a8.41,8.41,0,0,1-.45,9.47" style="fill:none;stroke:#06b9e4;stroke-linejoin:round;stroke-width:1.67058953544755px"/><path d="M11.55,23.4A8.43,8.43,0,0,1,17.66,8.94" style="fill:none;stroke:#06b9e4;stroke-linejoin:round;stroke-width:1.67058953544755px"/><path d="M20.3,25.37a8.58,8.58,0,0,1-5.66,0" style="fill:none;stroke:#06b9e4;stroke-linejoin:round;stroke-width:1.67058953544755px"/><ellipse cx="17.51" cy="17.41" rx="3.71" ry="3.69" style="fill:#06b9e4;stroke:#06b9e4;stroke-linejoin:round;stroke-width:0.835294767723772px"/><line x1="17.51" y1="33.99" x2="34.19" y2="33.99" style="fill:none;stroke:#2d2d2d;stroke-linecap:square;stroke-linejoin:round;stroke-width:1.67058953544755px"/></svg>