<?xml version="1.0" encoding="utf-8"?>
<!-- Generator: Adobe Illustrator 21.1.0, SVG Export Plug-In . SVG Version: 6.00 Build 0)  -->
<svg version="1.1" id="Layer_1" xmlns="http://www.w3.org/2000/svg" xmlns:xlink="http://www.w3.org/1999/xlink" x="0px" y="0px"
	 viewBox="0 0 359.5 135.4" style="enable-background:new 0 0 359.5 135.4;" xml:space="preserve">
<style type="text/css">
	.st0{fill:#4F5150;}
	.st1{fill:#FFFFFF;}
</style>
<ellipse class="st0" cx="179.7" cy="67.7" rx="179.7" ry="67.7"/>
<ellipse class="st1" cx="179.7" cy="67.8" rx="172.2" ry="61.9"/>
<ellipse class="st0" cx="179.7" cy="67.7" rx="165.8" ry="56.7"/>
<path class="st1" d="M255,98.5c6.4,1.1,9.3-2.3,12.2-5.1c3-2.9,5.4-6.3,8.3-9.7c2.1,1.8,3,2.6,4.3,3.7c-5.7,6.6-11,13-18.5,17
	c-7.7,4.2-11.7,3-15.8-4.6c-5.4,3.9-10.8,8.5-18.1,4.9c-5.8-2.9-6.1-8.6-6.1-14c-3.9,0.8-7.7,2.1-11.5,2.1c-4.5,0-6.1-3.9-7.3-8.7
	c-4.7,7.2-9,13.8-13.4,20.7h-10.2c1.2-2.1,2.1-3.8,3.1-5.4c4.1-6.7,8.2-13.3,12.2-20.1c0.9-1.6,1.4-3.5,2-5.3
	c-3.2-1.9-5.2-0.4-6.7,1.2c-4.9,5.2-9.5,10.7-14.3,15.9c-3.5,3.8-6.6,8.1-10.7,11c-9.6,6.8-18.4,4.4-24.2-6.2
	c-2.2,1.7-4.4,3.4-6.9,5.4c-1.1-1.2-2-2.2-2.9-3.1c0.3-0.8,0.4-1.4,0.8-1.7c4.5-3.7,7.2-8.5,9.6-13.7c3.7-8.1,9.7-13.9,18.5-16.3
	c1-0.3,1.9-0.5,2.9-0.6s2,0,3.1,0c0.6,1.3,1.1,2.4,1.7,3.7c-0.7,0.5-1.2,1-1.8,1.3c-5.3,2.4-10.2,5.3-12.8,10.6
	c-1.3,2.7-2.2,6-2.3,9c0,4.9,4,7.3,8.7,5.8c7.3-2.3,12.4-11.4,11.6-20.7c-0.2-2.1-0.5-4.3-0.8-6.7c1.7-0.9,3.2-1.8,5.7-3.2
	c1.5,3.7,2.8,6.9,4.7,11.7c1.1-1.8,1.8-3.4,2.9-4.5c2.4-2.3,4.7-4.8,7.5-6.5c7.1-4.4,11.2-2.9,14,5.3c1.8-1.5,3.3-3.4,5.3-4.1
	c2.8-1.1,5.9-2,8.9-1.9c3.4,0.2,5,3.1,5.1,6.4c0.2,3.4-2.4,6.8-5.5,7.6c-3.2,0.8-5.1-0.7-7.3-6.1c-1.1,2-2.4,3.5-2.5,5
	c-0.1,2,0.1,4.7,1.4,5.8c1.2,1.1,4.4,1.7,5.8,0.9c3.9-2.1,7.5-4.9,11-7.6c4-3,7.5-6.7,11.9-9c3.3-1.7,7.7-2.6,11.4-2.1
	c2.9,0.4,5.5,3.4,8.7,5.4c2.3-3.5,5.1-7.6,7.8-11.8c2.6-4,5.2-8.1,8-12.4h10.7c-1.2,2-2,3.5-2.9,5L258,91.2
	C256.9,93.4,256.2,95.7,255,98.5z M232.1,92.4c0,4.7,3,6.6,7.4,4.2c7-3.9,11.6-9.7,11.9-18.1c0.1-1.5-0.2-3.8-1.1-4.4
	c-1.3-0.8-3.5-1-5-0.4C239.2,75.7,232.1,86,232.1,92.4L232.1,92.4z"/>
<path class="st1" d="M96.2,68.4c-1.3,1-2.6,1.8-3.8,2.9c-2,1.8-4.1,3.5-5.6,5.6c-2.4,3.4-2.7,7.1-0.6,10.8c2.1,3.8,5.8,5.4,9.7,4.6
	c4-0.7,8.2-2,11.5-4.3c9.5-6.5,16.1-15.7,22.6-24.9c-0.2-0.4-0.4-0.8-0.5-1.2c-4.2,1.4-8.4,2.8-13,4.3c1.3-5.5,2.1-5.9,19.1-9.9
	c6.3-8.9,13.4-17.7,23.8-23.3c-13.4-5.1-32.9-5.7-42.4-0.9c-4,2-7.6,4.5-8.9,9c-0.6,2.1-0.4,5.1,0.6,6.9c1.5,2.6,4.7,2.8,7.2,1.4
	c3.3-1.8,6.3-4.2,9.3-6.5c1.1-0.8,2-2.1,3.4-3.6c0.6,1.5,1.4,2.3,1.3,3.1c-1,6.9-10.4,16.3-17.5,17.5c-4.8,0.8-9.4,0.5-12.8-3.6
	c-3.7-4.5-3.6-9.5-1.8-14.6c2-5.8,6.4-9.7,11.6-12.6c10.5-5.9,21.9-6.9,33.5-5.6c14.2,1.6,28.3,4,42.5,5.8
	c13.6,1.8,27.2,1.8,40.8-0.8c1.7-0.3,3.5-0.3,5.2-0.5c1.6,3.5-0.1,5.6-2.2,7.4c-4.9,4.1-10.7,6-17,6.5c-9.4,0.8-18.6-0.8-27.6-3.3
	c-6.1-1.7-12.2-3.3-18.3-5c-7.6,6.6-16.1,12-21.2,21.9c4.3-0.3,7.9-0.5,11.3-0.8c0.9-2.6,1.4-5.1,2.7-7.2c2.2-3.8,6.7-4.8,9.4-2.5
	c2.4,2.1,2.3,6.5-0.5,9.4c-1.1,1.2-2.6,2.1-4.1,3.3c0.7,1.2,1.5,2.5,2.4,3.8c-3.1,0.8-3.1,0.8-8.3-3c-5,0.4-10.5,0.9-16.2,1.4
	c-1.6,2.5-3.1,5.1-4.8,7.5c-6.1,8.5-11.8,17.4-18.5,25.4c-6.1,7.4-14.2,12-24.4,11.8c-10.4-0.1-18.3-6.7-19.1-16
	C74,77.3,80.8,67.1,90.8,65C93.6,64.9,93.7,65,96.2,68.4L96.2,68.4z M165.9,47.5c-3.7,1-4.6,2.9-4,6.6
	C164.5,52.5,166.7,51.4,165.9,47.5z"/>
<path class="st0" d="M232.1,92.4c0-6.3,7.1-16.7,13.2-18.8c1.5-0.5,3.8-0.4,5,0.4c0.9,0.6,1.2,2.9,1.1,4.4
	c-0.3,8.4-4.9,14.2-11.9,18.1C235.2,99,232.1,97.1,232.1,92.4L232.1,92.4z M165.9,47.5c0.9,3.9-1.3,5-4,6.6
	C161.3,50.4,162.2,48.4,165.9,47.5z"/>
</svg>
