<svg xmlns="http://www.w3.org/2000/svg" viewBox="0 0 160 57.87"><defs><style>.a{fill:#b8b8b9;}</style></defs><title>logo-diamondback</title><path class="a" d="M0,17.07,79.57,2.78,160,17.16V14.31L80,0,0,14.37Zm0,26L80,57.87l80-14.71V40L79.57,54.81,0,40.11Z"/><path class="a" d="M18.47,19.75a2.45,2.45,0,0,0-1.12-.18V32.46q1.08,0,1.33-.44a6.56,6.56,0,0,0,.25-2.4V22a10.42,10.42,0,0,0-.08-1.71A.81.81,0,0,0,18.47,19.75Z"/><path class="a" d="M120.77,29.61a5.64,5.64,0,0,0-.19,1.67,4.85,4.85,0,0,0,.16,1.61.64.64,0,0,0,.65.36A.61.61,0,0,0,122,33a4.55,4.55,0,0,0,.14-1.49v-3.3A3.62,3.62,0,0,0,120.77,29.61Z"/><path class="a" d="M108.84,19.68a3.76,3.76,0,0,0-1-.11v4.35h.5q.73,0,.93-.37a6.17,6.17,0,0,0,.2-2.11,3.48,3.48,0,0,0-.17-1.29A.8.8,0,0,0,108.84,19.68Z"/><path class="a" d="M107.81,27v5.49a2.09,2.09,0,0,0,1.34-.34,2.42,2.42,0,0,0,.29-1.49V28.8a2.63,2.63,0,0,0-.26-1.53A2.29,2.29,0,0,0,107.81,27Z"/><path class="a" d="M95.16,33.25a.63.63,0,0,0,.64-.34A5.27,5.27,0,0,0,96,31.22V23.8a3,3,0,0,0-.15-1.18.77.77,0,0,0-1.2,0,3,3,0,0,0-.15,1.21v7.85a3.6,3.6,0,0,0,.15,1.29A.57.57,0,0,0,95.16,33.25Z"/><path class="a" d="M109.14,39.64a1.17,1.17,0,0,0-1,.51,1.88,1.88,0,0,0-.3.94h2.56A1.82,1.82,0,0,0,110,40,1.16,1.16,0,0,0,109.14,39.64Z"/><path class="a" d="M93,39.89a1.15,1.15,0,0,0-.93.45,2.11,2.11,0,0,0-.37,1.36,2.15,2.15,0,0,0,.36,1.38,1.17,1.17,0,0,0,1.83,0,2.23,2.23,0,0,0,.36-1.41,2.1,2.1,0,0,0-.36-1.35A1.11,1.11,0,0,0,93,39.89Z"/><path class="a" d="M69.56,22.32a.58.58,0,0,0-.58.32,4.86,4.86,0,0,0-.15,1.55v7.24A4.64,4.64,0,0,0,69,32.9a.67.67,0,0,0,1.15,0,4.06,4.06,0,0,0,.14-1.35V24.19a5.28,5.28,0,0,0-.13-1.55A.55.55,0,0,0,69.56,22.32Z"/><path class="a" d="M37.08,29.61a5.66,5.66,0,0,0-.19,1.67,4.82,4.82,0,0,0,.17,1.61.64.64,0,0,0,.65.36.6.6,0,0,0,.6-.28,4.57,4.57,0,0,0,.14-1.49v-3.3A3.63,3.63,0,0,0,37.08,29.61Z"/><path class="a" d="M154.71,20.27a1.37,1.37,0,1,0,1.37,1.37A1.38,1.38,0,0,0,154.71,20.27Zm.45,2.19-.18-.35a2.11,2.11,0,0,0-.16-.28.31.31,0,0,0-.1-.1.34.34,0,0,0-.14,0h-.21v.74h-.18V20.79h.61a.64.64,0,0,1,.28,0,.35.35,0,0,1,.15.16.53.53,0,0,1,.06.25.46.46,0,0,1-.1.31.45.45,0,0,1-.29.15l.12.09a1.23,1.23,0,0,1,.14.21l.24.46Z"/><path class="a" d="M147,17.06V15.14h-7.09v.65L79.59,5,21.13,15.49a30.51,30.51,0,0,0-5.66-.34H11.14V17.3L0,19.3V37.49l35.58,6.57V46H40v-1.1l2.22.41v.66H45.8l33.8,6.24L113.49,46h4.18v-.77l2.05-.38a2.77,2.77,0,0,0,.68.65,5.75,5.75,0,0,0,3.1.62,6.23,6.23,0,0,0,2.43-.39,2.8,2.8,0,0,0,1.31-1,2.51,2.51,0,0,0,.42-1.31L160,37.4v-18ZM89.58,24a10.13,10.13,0,0,1,.24-2.62,2.6,2.6,0,0,1,1.09-1.36,3.46,3.46,0,0,1,2-.59,4,4,0,0,1,3,1.31V16.23h4.87V35.8H96V34.63a5.08,5.08,0,0,1-1.48,1.1,3.77,3.77,0,0,1-1.62.37,3.3,3.3,0,0,1-2-.6,2.67,2.67,0,0,1-1.07-1.38,9.88,9.88,0,0,1-.24-2.56ZM24,30a15.94,15.94,0,0,1-.25,3.52,2.65,2.65,0,0,1-.86,1.39,3.58,3.58,0,0,1-1.52.7,13.74,13.74,0,0,1-2.73.2H12.25V16.23h3.8a23.67,23.67,0,0,1,5,.34,3.82,3.82,0,0,1,2,1.11,3.52,3.52,0,0,1,.85,1.72A26,26,0,0,1,24,23.13Zm6.76,5.81h-5v-16h5Zm0-17h-5V16.23h5ZM42.2,38H39.25v7.2H36.38V38H33.43V35.59H42.2ZM38.58,34.8v-.44a4,4,0,0,1-.26.44H32.85a5,5,0,0,1-.53-2.58V30.91a3.86,3.86,0,0,1,.57-2.45,8,8,0,0,1,2.82-1.52,8,8,0,0,0,2.58-1.27,3.36,3.36,0,0,0,.17-1.33,4.45,4.45,0,0,0-.19-1.64.65.65,0,0,0-.63-.38q-.5,0-.62.32a6.47,6.47,0,0,0-.12,1.66V26H32.32V24.9A7.6,7.6,0,0,1,32.75,22a4,4,0,0,1,1.72-1.78,6.48,6.48,0,0,1,3.36-.77,6.54,6.54,0,0,1,3.73.88,3.41,3.41,0,0,1,1.51,2.15,33.69,33.69,0,0,1,.25,5.25v8H43v-1Zm9,5.51a2,2,0,0,0-.73-.2.89.89,0,0,0-.79.43,4.48,4.48,0,0,0-.4,2.28v2.33H43V38.22h2.43v1.13a2.69,2.69,0,0,1,.72-1,1.5,1.5,0,0,1,.92-.28,2.68,2.68,0,0,1,1.26.37Zm8.64,4.84H53.78V44a3.59,3.59,0,0,1-1.09,1,2.83,2.83,0,0,1-1.35.29,2.17,2.17,0,0,1-1.67-.66,2.9,2.9,0,0,1-.61-2V38.22h2.61V42a1.44,1.44,0,0,0,.23.93.82.82,0,0,0,.66.27.92.92,0,0,0,.75-.37,2.17,2.17,0,0,0,.29-1.31V38.22H56.2Zm.71-22.84a.64.64,0,0,0-.67.48,12.11,12.11,0,0,0-.15,2.55V35.8H51.36V25.61a18.63,18.63,0,0,0-.11-2.83.58.58,0,0,0-.63-.47.73.73,0,0,0-.56.25,1,1,0,0,0-.25.6q0,.36,0,1.52V35.8H45.05v-16h4.8l-.07,1.53a3.94,3.94,0,0,1,1.35-1.37A3.57,3.57,0,0,1,56,21.3a4.42,4.42,0,0,1,1.39-1.37,3.3,3.3,0,0,1,1.71-.46,3.36,3.36,0,0,1,2.06.6,2.66,2.66,0,0,1,1,1.48,12.51,12.51,0,0,1,.23,2.85V35.8H57.69V25.35a13.2,13.2,0,0,0-.14-2.54A.61.61,0,0,0,56.9,22.32Zm7.7,21.78a3.12,3.12,0,0,1-1.19.9,4.54,4.54,0,0,1-1.84.32,6.63,6.63,0,0,1-1.79-.2,3.13,3.13,0,0,1-1.23-.67,3.35,3.35,0,0,1-.81-1.08,3.88,3.88,0,0,1-.29-1.64,4,4,0,0,1,.36-1.78,3.23,3.23,0,0,1,.71-.94,3.29,3.29,0,0,1,.93-.62,5,5,0,0,1,1.94-.32,4.39,4.39,0,0,1,2.52.61,3.19,3.19,0,0,1,1.22,1.77l-2.44.33a1.15,1.15,0,0,0-.42-.67,1.33,1.33,0,0,0-.81-.23,1.3,1.3,0,0,0-1,.47,2.19,2.19,0,0,0-.4,1.43,1.89,1.89,0,0,0,.39,1.3,1.29,1.29,0,0,0,1,.44,1.37,1.37,0,0,0,.86-.27,1.58,1.58,0,0,0,.52-.82l2.46.28A3.57,3.57,0,0,1,64.6,44.09Zm6.68,1.06-1.37-2.78-1,1v1.8H66.29V35.59h2.64v4.92l1.93-2.29h3.18l-2.42,2.43,2.56,4.5Zm3.86-15.83a16.56,16.56,0,0,1-.22,3.17A4.45,4.45,0,0,1,74,34.38a4.2,4.2,0,0,1-1.83,1.29,7.21,7.21,0,0,1-2.42.42V34.8H65.51V35a3,3,0,0,1-.4-.38,4.25,4.25,0,0,1-.89-1.74A13.07,13.07,0,0,1,64,29.86V25.75a10.05,10.05,0,0,1,.48-3.49,4,4,0,0,1,1.74-2,6.12,6.12,0,0,1,3.21-.76,7.33,7.33,0,0,1,2.82.49,4.43,4.43,0,0,1,2.69,2.89,10.09,10.09,0,0,1,.23,2.54Zm1.63-9.55h4.95l-.07,1.49a3.69,3.69,0,0,1,1.3-1.34,3.45,3.45,0,0,1,1.77-.45,3.35,3.35,0,0,1,2.05.59,2.62,2.62,0,0,1,1,1.49,13.56,13.56,0,0,1,.23,3V35.8h-.56a3.57,3.57,0,0,0-.51-.41,5.47,5.47,0,0,0-3.06-.74c-.26,0-.51,0-.75,0v-10a10.28,10.28,0,0,0-.11-2c-.07-.24-.28-.36-.61-.36a.61.61,0,0,0-.66.42A10.42,10.42,0,0,0,81.64,25V35a4.4,4.4,0,0,0-1.43.8H76.77ZM87.42,43.84a3.48,3.48,0,0,1-1.36,1.1,5,5,0,0,1-2.07.37,5.87,5.87,0,0,1-2.49-.45,4,4,0,0,1-1.66-1.59,5.51,5.51,0,0,1-.7-2.92,5,5,0,0,1,1.23-3.64,5.49,5.49,0,0,1,6.25-.54,4.29,4.29,0,0,1,1.5,2.24L85.59,39a2.26,2.26,0,0,0-.28-.63,1.75,1.75,0,0,0-2.88.11,3.47,3.47,0,0,0-.4,1.88,3.63,3.63,0,0,0,.47,2.18,1.83,1.83,0,0,0,2.57.11,3,3,0,0,0,.61-1.38l2.53.78A4.81,4.81,0,0,1,87.42,43.84Zm8.42.45a3.88,3.88,0,0,1-2.85,1,3.93,3.93,0,0,1-2.63-.85,3.45,3.45,0,0,1-1.23-2.76,3.52,3.52,0,0,1,1-2.62,4.42,4.42,0,0,1,5.87.18,3.86,3.86,0,0,1-.2,5Zm6.31.86H99.85L97,38.22h2.69L101,42.62l1.35-4.39H105ZM113,42.35h-5.19a1.73,1.73,0,0,0,.34,1,1.22,1.22,0,0,0,1,.45,1.45,1.45,0,0,0,.73-.19,1.71,1.71,0,0,0,.45-.43l2.55.24a3.7,3.7,0,0,1-1.41,1.5,5,5,0,0,1-2.37.45,4.74,4.74,0,0,1-2.11-.39,3.14,3.14,0,0,1-1.28-1.23,3.8,3.8,0,0,1-.51-2,3.55,3.55,0,0,1,1-2.63,3.81,3.81,0,0,1,2.8-1,4.88,4.88,0,0,1,2.29.45,3,3,0,0,1,1.28,1.31A4.89,4.89,0,0,1,113,42Zm-.4-6.9a14.77,14.77,0,0,1-4.05.35h-5.88V16.23h5.06a13.31,13.31,0,0,1,3.63.37,3.6,3.6,0,0,1,2,1.51,6.82,6.82,0,0,1,.76,3.68,4,4,0,0,1-.54,2.39,3.75,3.75,0,0,1-2.12,1,3.77,3.77,0,0,1,2.4,1.32,5.09,5.09,0,0,1,.63,2.84V31.2a7.22,7.22,0,0,1-.45,2.94A2.44,2.44,0,0,1,112.64,35.45Zm6.13,4.87a2,2,0,0,0-.73-.2.89.89,0,0,0-.79.43,4.47,4.47,0,0,0-.4,2.28v2.33h-2.6V38.22h2.43v1.13a2.69,2.69,0,0,1,.72-1,1.5,1.5,0,0,1,.92-.28,2.68,2.68,0,0,1,1.26.37Zm7.83,3.76a2.4,2.4,0,0,1-1.11.9,5.2,5.2,0,0,1-2.07.34,4.8,4.8,0,0,1-2.63-.54,2.43,2.43,0,0,1-1-1.54l2.56-.24a1.12,1.12,0,0,0,1.21.87,1.26,1.26,0,0,0,.81-.23.52.52,0,0,0,.22-.42.49.49,0,0,0-.29-.44,5.35,5.35,0,0,0-1.11-.27A11.15,11.15,0,0,1,121.3,42a2,2,0,0,1-.88-.69,1.84,1.84,0,0,1-.36-1.12,1.86,1.86,0,0,1,.39-1.18,2.29,2.29,0,0,1,1.07-.74,5.5,5.5,0,0,1,1.82-.25,6.12,6.12,0,0,1,1.78.19,2.3,2.3,0,0,1,1,.59,3.06,3.06,0,0,1,.64,1.08l-2.45.24a.86.86,0,0,0-.32-.49,1.27,1.27,0,0,0-.73-.21,1,1,0,0,0-.64.16.48.48,0,0,0-.2.39.42.42,0,0,0,.25.39,4,4,0,0,0,1.1.24,7.34,7.34,0,0,1,1.92.42,2.14,2.14,0,0,1,1,.76,1.91,1.91,0,0,1,.33,1.09A2.19,2.19,0,0,1,126.6,44.07ZM127,35.8h-4.75V34.37a3,3,0,0,1-2.84,1.73,4.12,4.12,0,0,1-2.35-.72Q116,34.65,116,32.22V30.91a3.85,3.85,0,0,1,.57-2.45,8,8,0,0,1,2.82-1.52A8.05,8.05,0,0,0,122,25.66a3.37,3.37,0,0,0,.17-1.33,4.42,4.42,0,0,0-.19-1.64.65.65,0,0,0-.63-.38q-.5,0-.62.32a6.43,6.43,0,0,0-.12,1.66V26H116V24.9a7.6,7.6,0,0,1,.43-2.87,4,4,0,0,1,1.72-1.78,8,8,0,0,1,7.09.1,3.42,3.42,0,0,1,1.51,2.15,33.7,33.7,0,0,1,.25,5.25Zm7.75-13.13a.6.6,0,0,0-.59-.35.58.58,0,0,0-.58.3,3.79,3.79,0,0,0-.15,1.35v7.56a2.9,2.9,0,0,0,.22,1.29.7.7,0,0,0,.65.43.67.67,0,0,0,.68-.45,5.27,5.27,0,0,0,.18-1.68v-1.9h4.35a25,25,0,0,1-.14,2.88,4.59,4.59,0,0,1-.81,2,4.32,4.32,0,0,1-1.79,1.52,7.75,7.75,0,0,1-6-.19,3.89,3.89,0,0,1-1.71-2,10.25,10.25,0,0,1-.5-3.62V25.23a8.83,8.83,0,0,1,.41-3.08,4,4,0,0,1,1.76-1.86,6.19,6.19,0,0,1,3.27-.82,6.26,6.26,0,0,1,3.27.81,4,4,0,0,1,1.8,2,10.7,10.7,0,0,1,.45,3.5h-4.6V24A3.55,3.55,0,0,0,134.76,22.66ZM147.38,35.8l-1.53-7v7H141V16.23h4.87v8.23l1.53-4.69h4.09l-2,6.39L152,35.8Zm7.34-12.56a1.59,1.59,0,1,1,1.59-1.59A1.59,1.59,0,0,1,154.71,23.23Z"/><path class="a" d="M155.05,21.4a.3.3,0,0,0,0-.15A.26.26,0,0,0,155,21a.3.3,0,0,0-.22-.07h-.43v.55h.39a.48.48,0,0,0,.2,0A.23.23,0,0,0,155.05,21.4Z"/></svg>