<svg id="Layer_1" xmlns="http://www.w3.org/2000/svg" viewBox="0 0 189.9 31.2"><style>.st0{fill-rule:evenodd;clip-rule:evenodd;fill:#2D2D2D;}</style><path class="st0" d="M22.5 29.7c-2.5-1.6-4.4-7-4.4-13.5v-.7c-7-1.1-12-4.1-12.2-7.7-1.7 2.1-2.7 4.6-2.7 7.2 0 7.8 8.5 14.1 19.3 14.7zM0 15.6C0 7 10.7 0 24 0c13.2 0 24 7 24 15.6S37.3 31.2 24 31.2s-24-7-24-15.6zM24 2.3c2.6 0 4.7 3.9 5.5 9.3C34.5 10.8 38 9 38 7c0-2.8-6.3-5-14-5S10 4.3 10 7c0 2.1 3.5 3.9 8.5 4.6.7-5.5 2.9-9.3 5.5-9.3zm1.5 27.3C36.2 29 44.7 22.7 44.7 15c0-2.6-1-5.1-2.7-7.2-.1 3.6-5.2 6.6-12.2 7.7v.7c.1 6.4-1.8 11.9-4.3 13.4zM24 11.9c1.1 0 2.3 0 3.3-.1-.5-3.5-1.8-5.9-3.3-5.9-1.5 0-2.8 2.4-3.3 5.9 1 .1 2.1.1 3.3.1zm0 12.9c1.9 0 3.5-4 3.6-9-1.2.1-2.4.2-3.6.2-1.2 0-2.4-.1-3.6-.2.1 5 1.7 9 3.6 9zM122.4 15.6c0-6.6 5.3-11.9 11.9-11.9 6.6 0 11.9 5.3 11.9 11.9 0 6.6-5.3 11.9-11.9 11.9-6.6.1-11.9-5.3-11.9-11.9zm11.9 7.6c3.7 0 6.7-3.4 6.7-7.6 0-4.2-3-7.6-6.7-7.6s-6.7 3.4-6.7 7.6c0 4.2 3 7.6 6.7 7.6zM159.8 8.7V27h-5V8.7h-7.1V4.5h19.1v4.2h-7zM172.9 22l-1.9 5h-5.9l9.3-22.5h6.2l9.3 22.5H184l-1.9-5.1h-9.2v.1zm4.6-3.8h3.2l-3.1-8.2-3.1 8.2h3zM67.1 8.7V27H62V8.7h-7V4.5h19.1v4.2h-7zM75.4 15.6c0-6.6 5.3-11.9 11.9-11.9 6.6 0 11.9 5.3 11.9 11.9 0 6.6-5.3 11.9-11.9 11.9-6.6.1-11.9-5.3-11.9-11.9zm11.9 7.6c3.7 0 6.7-3.4 6.7-7.6 0-4.2-3-7.6-6.7-7.6s-6.7 3.4-6.7 7.6c0 4.2 3 7.6 6.7 7.6zM110.8 27h2.6v-8.5l8.7-14h-5.8l-5.5 9.5-5.5-9.5h-5.8l8.8 14V27h2.5z"/></svg>