<svg xmlns="http://www.w3.org/2000/svg" viewBox="0 0 367.48 266.72"><defs><style>.a,.b,.c{fill:none;}.a{stroke:#0391b2;stroke-width:5.72px;}.a,.b{stroke-miterlimit:10;}.b,.c{stroke:#fff;stroke-width:2px;}.c{stroke-linejoin:round;}.d{fill:#fff;}</style></defs><title>map</title><path class="a" d="M337.3,111.08c-5.27,4.87-10.38,9.31-15.11,14.12a15.71,15.71,0,0,0-3.52,6.54c-1.55,5.41-2.43,10.73-8.25,14-1.53.87-1.17,6.46-.42,9.58.9,3.74,3.41,7.06,4.75,10.73,1.65,4.55,0,8.21-3.43,11.62-7.49,7.4-14.93,14.89-21.86,22.81-5.29,6-5.5,13.62-2.93,20.85,1.93,5.43,5.26,10.34,7.64,15.63,2.28,5.08,4.74,10.21,5.91,15.58.49,2.26-2.11,5.19-3.3,7.83-2.28-1.24-5.2-1.94-6.74-3.79-5.84-7-12.4-13.53-12.57-23.85-.08-5-10.26-9.48-14.66-7-3,1.68-5.07,1.31-8.15-.08-7.76-3.5-15.91-1.75-23.82,0-1,.23-2,2.88-2.13,4.49s.82,3.08,1.34,4.77c-10.24-.82-20.15-1.66-30.08-2.39s-25.38,8.32-28.87,17.62c-1.44,3.85-1.24,8.31-1.85,13-6.09-1.44-12.85-1.91-15.6-10.91-1.8-5.89-6-11.27-9.9-16.25-5.84-7.45-10.18-7.16-16.36.47-4.72-3.48-9.68-6.23-12.31-12.33a29.92,29.92,0,0,0-9.31-11.83,13.29,13.29,0,0,0-11-1.36c-8.78,3.55-16.69,1.07-24.51-2-4.49-1.76-8.56-4.73-12.61-7.47a44.87,44.87,0,0,0-20.84-8c-1.46-.15-3.85-1.14-4-2.09-1.82-9.13-9.21-13.31-15.54-18.58a14.13,14.13,0,0,1-4.67-7C9.09,150.85,6,135.74,3,120.61c-.37-1.89.51-4.11,1.08-6.09s2-3.81,2.16-5.77c.52-9,4.61-16.69,7.84-24.87C17.74,74.46,19.09,64.1,21.5,54l10.28,6.26L33.5,50.06c3.69,1.15,7.17,2.3,10.68,3.32C82.63,64.48,122.05,69.25,161.89,69.3c18,0,34.86,4.69,52.69,8.34L203.66,87.81c8.67,2.11,14.37-2.24,20.39-5.44,2.27,4.94,6,7.11,11.5,4.71,6.44-2.79,1.83.18,6.94,3.61-1.65,1,5.92,1.79,5.16,2.27,11.09,8.52,16,19,10.42,34.62,4.72-.94,8.77-.89,11.88-2.58,4.22-2.3,7.72-5.92,11.51-9,.44-.35,1.14-.9,1.08-1.24-1.6-8.75,5.25-6.7,9.75-7.75,3.31-.77,5.84-1.82,5.22-6.41s5.74-10.45,11.84-12c2-.52,4.06-.82,6.09-1.24,7.25-1.48,11.79-5.5,12.48-13.22A29.94,29.94,0,0,1,329,68.57c1-3.51,3-6,7-6.28s3.21,3.35,4.42,5.32c1.87,3,3.38,6.38,5.66,9.07,2.82,3.33,2,5.66-.92,8.09-2,1.68-3.84,3.66-6,5.16C330.79,95.82,330.32,102.66,337.3,111.08Z"/><line class="b" x1="279.15" x2="279.15" y2="133"/><polygon class="c" points="351.15 64 279.15 64 279.15 8.67 366.48 8.67 351.15 64"/><path class="d" d="M299.16,23.55h8.27V46.71h-8.27Zm9.93,18.2h5V28.51h-5v-5H319l3.31,3.31V43.4L319,46.71h-9.93Z"/><polygon class="d" points="337.16 26.86 333.85 23.55 328.52 23.55 323.95 23.55 321.22 23.55 323.95 26.3 323.95 28.51 328.88 28.51 328.88 32.65 323.95 32.65 323.95 37.61 328.92 37.61 328.92 41.75 323.95 41.75 323.95 43.96 321.22 46.71 323.95 46.71 328.52 46.71 333.85 46.71 337.16 43.4 337.16 38.11 334.18 35.13 337.16 32.15 337.16 26.86"/></svg>