<svg xmlns="http://www.w3.org/2000/svg" viewBox="0 0 162.81 22.63"><defs><style>.a{fill:#a7a9ac;}</style></defs><title>pros-02</title><path class="a" d="M3.05,11.92,8.59,2.08A2,2,0,0,0,8.74,0H28.61C33,0,33.85,1.66,32.53,4l-3.36,6c-1.31,2.33-3.91,4-8.43,4H.87A5.64,5.64,0,0,0,3.05,11.92Zm13.64-.23c2.2,0,2.64-.52,3.27-1.64l3.43-6.11C24,2.83,24.17,2.31,22,2.31H17.59l-5.27,9.38Z"/><path class="a" d="M39.46,11.59a11.09,11.09,0,0,0-.77,1.55,1.13,1.13,0,0,0,.09.85H29.36a5.7,5.7,0,0,0,1.9-2.19l.12-.21,2.67-4.75a8.1,8.1,0,0,0,.74-1.55,1.08,1.08,0,0,0-.05-.85h8.75Zm5.16-9.16H36.53L37.9,0H46Z"/><path class="a" d="M53.53,6C55,4.68,56.42,4.43,58.65,4.43h4L60.92,7.6A5.33,5.33,0,0,0,57.86,7H56.22c-1.57,0-3,.49-3.55,1.44l-1.76,3.12A3.25,3.25,0,0,0,50.24,14H40.86a5.7,5.7,0,0,0,1.9-2.19l.12-.21,2.67-4.75a8.11,8.11,0,0,0,.74-1.55,1.08,1.08,0,0,0-.05-.85h8Z"/><path class="a" d="M79.94,6.24H73.13l-2.5,4.44C70,11.86,70,12.17,72.2,12.17h2.17a10.77,10.77,0,0,0,3.52-.5L75.95,14H67.43c-3.77,0-6.52-.35-5-3l.48-.85,2.21-3.94h-2.5l1-1.82h2.5l1.1-2,8.16-.19L74.16,4.41H81Z"/><path class="a" d="M81,11.92l5.4-9.61H82.18a10.92,10.92,0,0,0-3.45.42L80.41,0h24l-1.67,2.73a7.07,7.07,0,0,0-3-.42H95.51l-5.4,9.61A2,2,0,0,0,90,14H78.83A5.4,5.4,0,0,0,81,11.92Z"/><path class="a" d="M103.91,6c1.48-1.32,2.89-1.57,5.12-1.57h4L111.29,7.6A5.33,5.33,0,0,0,108.24,7H106.6c-1.57,0-3,.49-3.55,1.44l-1.76,3.12a3.25,3.25,0,0,0-.68,2.41H91.23a5.71,5.71,0,0,0,1.9-2.19l.12-.21,2.67-4.75a8.1,8.1,0,0,0,.74-1.55,1.07,1.07,0,0,0-.05-.85h8Z"/><path class="a" d="M131.57,4.43l.81,0c2.79,0,4.12,1.11,3.2,2.74l-2.5,4.44c-.34.83-1,1.65-.68,2.41h-7.91a1.45,1.45,0,0,1,.07-1A5.23,5.23,0,0,1,121,14h-6c-3.24,0-4.74-.6-3.59-2.64l.92-1.63c.84-1.49,3-2.19,5.41-2.19H126c.8,0,1.43-.12,1.76-.64s-.53-.66-1.4-.66H118.5a13.48,13.48,0,0,0-3.69.45l1.8-2.25Zm-9.06,4.89c-1.54,0-2.12.39-2.59,1.22l-.24.43c-.46.81-.29,1.22,1.22,1.22h2c1.54,0,2.12-.39,2.59-1.22l.93-1.65Z"/><path class="a" d="M156.14,12.19a6.26,6.26,0,0,0,2,1.8H146.58c.24-1-.9-1.84-1.57-2.62l-4.53,1.77a5.24,5.24,0,0,0-1.55.85h-5.84c1.61-.49,3.17-1.07,4.68-1.67l6-2.37L141,6.53a15.34,15.34,0,0,0-2-2.1h11.25c-.09.87.93,1.67,1.51,2.37,1.5-.58,4.52-1.57,5.47-2.37h5.58c-1.33.41-2.64,1-3.89,1.46l-6,2.39Z"/><path class="a" d="M5.45,22.63H2.79l2.44-4.17H0l.53-.91H13.68l-.53.91H7.89Z"/><path class="a" d="M18,17.55H29.68l-.51.87h-9l-.66,1.13h5.26l-.51.87H19l-.74,1.26h9.13l-.56,1H15Z"/><path class="a" d="M35.78,17.55h2.65L36,21.67h8.55l-.56,1H32.81Z"/><path class="a" d="M52,17.55H63.63l-.51.87h-9l-.66,1.13H58.7l-.51.87H52.94l-.74,1.26h9.13l-.56,1H49Z"/><path class="a" d="M67,17.55h3l2.47,3.67L79,17.55h2.65l-9.25,5.08H70.6Z"/><path class="a" d="M85.86,17.55h2.65l-3,5.08H82.89Z"/><path class="a" d="M97.32,18.43l-.64,1.09h7.12c2.14,0,2.71.25,2.15,1.2l-.41.7c-.56,1-1.41,1.2-3.55,1.2h-7c-2.14,0-2.71-.25-2.15-1.2l.08-.14,2.47-.22-.35.6h8.07l.68-1.16H96.62c-2.14,0-2.68-.25-2.13-1.2l.33-.56c.56-1,1.39-1.2,3.53-1.2h6.48c2,0,2.69.24,2.18,1.11l-.06.11-2.49.25.34-.58Z"/><path class="a" d="M114.4,17.55H117l-3,5.08h-2.65Z"/><path class="a" d="M126.55,17.55h8.4c2.14,0,2.69.25,2.13,1.2l-1.57,2.68c-.56,1-1.39,1.2-3.53,1.2h-8.4c-2.14,0-2.68-.25-2.13-1.2L123,18.75C123.58,17.79,124.41,17.55,126.55,17.55Zm6.16,4.12,1.88-3.22h-8.75L124,21.67Z"/><path class="a" d="M144.43,17.55h1.81l6.27,3a5.41,5.41,0,0,1,1,.55c.18-.42.31-.72.4-.88l1.56-2.67h2.39l-3,5.08h-1.81l-6.54-3.14a5,5,0,0,1-.71-.41,5,5,0,0,1-.36.81l-1.61,2.75h-2.39Z"/></svg>