<svg xmlns="http://www.w3.org/2000/svg" viewBox="0 0 81.87 81.87"><defs><style>.a{fill:#a7a9ac;}</style></defs><title>pros-04</title><path class="a" d="M81.87,40.94A40.94,40.94,0,1,1,40.94,0,40.94,40.94,0,0,1,81.87,40.94m-9.6-12.69A9.18,9.18,0,0,0,71.1,26.7c-.41-.53-.7-1.55-1.46-1.46-.94.51-.3,2.09-.55,3-.17.63-1,1.1-1.55,1.37-.35.17-.82.28-1.27.45s-.67.3-1,.4-.88.23-.91.24c-.38.15-.77.49-.73.91,3.43-.51,6.19.42,6.28,3.55.5-.09,1.15-.5,1.18-1.09s-.48-1-.73-1.46a3.08,3.08,0,0,1-.45-1.73c.17-1.39,1.47-1.63,2.36-2.64M26.79,41a2.84,2.84,0,0,0,2-2,7.7,7.7,0,0,0,0-3.46c-.65-2.24-3.88-2.4-5.09-.82A6.15,6.15,0,0,0,23.24,39a3.09,3.09,0,0,0,3.55,2M16.24,36.07c.81-.65.8-1.81-.27-2.09a21.14,21.14,0,0,0-2.91,0A8.7,8.7,0,0,0,13,36a23.25,23.25,0,0,0,3.28.09M34.89,34a5.85,5.85,0,0,0,0,2.27c1.87-.14,4.53.63,4.28-1.36-.19-1.46-2.59-.74-4.28-.91m9.73,6.64a5.18,5.18,0,0,0,2.8,0,4.82,4.82,0,0,0,.57-.23c.07,0,.3-.36.45-.55.79-.93.8-2.74.46-4.46-.55-1.3-2.17-1.53-4.19-1.36a.25.25,0,0,0-.18.27c0,1.55,0,3.43,0,4.91a3.29,3.29,0,0,0,.09,1.46m22.47-6.55A29.23,29.23,0,0,0,63.45,34c0,.12,0,.11-.07.31,0,.45-.25,1.59.16,1.88.05.25,2.94.25,3.46,0a1.31,1.31,0,0,0,.09-2.09m-54,6.64c1.61-.16,3.9.49,4.18-.82.45-2.08-2.61-1.19-4.28-1.36a10.73,10.73,0,0,0,.09,2.18m41.76,8.64a3,3,0,0,0-2.64,2.09,6.44,6.44,0,0,0,.36,3.82,3,3,0,0,0,5.19-.18,8.3,8.3,0,0,0,.09-3.91,3,3,0,0,0-3-1.82M14,51.9c1.78.11,4.67.57,4.46-1.18a1.18,1.18,0,0,0-.64-1,31.17,31.17,0,0,0-3.73-.09A11.14,11.14,0,0,0,14,51.9m27.84,0c.58-.19,3.81.35,4.19-.27A1.39,1.39,0,0,0,46,50c-.65-.71-2.94-.26-4.09-.36a11.2,11.2,0,0,0-.09,2.27M25,50.81c-.3,1.19-.91,2.12-1.09,3.18h2.46c-.19-1.06-.79-2-1.09-3.18H25m4-3.55h8.46a6.29,6.29,0,0,1,0,2.37h-3c-.21,2.82,0,6-.09,9a5.83,5.83,0,0,1-2.27,0c0-2.57,0-6.34,0-8.91a22.31,22.31,0,0,0-3.18-.09,9.54,9.54,0,0,1-.09-2.09.25.25,0,0,1,.18-.27Zm11.28-15c1.8,1.39,1.68,5.19-.82,6.1.55,1.73,1.7,3.07,1.91,4.64a11.14,11.14,0,0,1-2.27.09c-.77-1.49-1.54-3.18-2-4.37a10.27,10.27,0,0,0-2.18-.09A41.5,41.5,0,0,0,34.8,43a5.82,5.82,0,0,1-2.27,0c-.21-3.52,0-7.43-.09-11.1a.25.25,0,0,1,.18-.27c2.85.28,6-.63,7.64.64M17.33,42.89A34.22,34.22,0,0,1,10.6,43V31.88a.25.25,0,0,1,.18-.27c2.12.2,4.17-.28,5.73,0a3.53,3.53,0,0,1,2.09,5.28c-.13.3.33.55.55.82a1.68,1.68,0,0,1,.45.91c.11,2.06-.43,3.49-1.91,4.18a1.89,1.89,0,0,1-.36.09m3.55-7.46a5,5,0,0,1,4.37-4.09,5.7,5.7,0,0,1,4,.91,7.8,7.8,0,0,1,1.36,1.55c.08.17.42,1,.45,1.09l.09.36c.39,2.1.14,4.87-1.18,6.37a5.3,5.3,0,0,1-4.91,1.73,5.25,5.25,0,0,1-3-1.73C21,40.35,20.48,38,20.88,35.43m30-10.1c0-.44,0-1.83,0-2.27h2.18a6.61,6.61,0,0,1,0,2.37,10.27,10.27,0,0,1-2.18-.09M40.53,23.06a11.08,11.08,0,0,1,.09,2.27,5.36,5.36,0,0,1-2.18,0,5.83,5.83,0,0,1,0-2.27ZM28.88,14.14a.25.25,0,0,1,.18-.27,9.47,9.47,0,0,1,2.09.09v4.18A14.7,14.7,0,0,0,31.25,22c.61,1.72,3.25,1.87,3.82.09.34-1.06.09-2.73.09-4.09a31.09,31.09,0,0,1,.09-4,5.86,5.86,0,0,1,2.27,0c-.37,3.27.65,7-.36,9.28a4.41,4.41,0,0,1-4.82,2.46,4.31,4.31,0,0,1-3.46-3.55c-.4-2.64.3-5.2,0-8m17.19-.55a4.31,4.31,0,0,1,3.46,2.46,3,3,0,0,1-1.82,1c-.47-.05-.72-.79-1.27-1-.76-.29-2.49-.22-2.46,1,0,.84,1.08.92,1.91,1.18a23.26,23.26,0,0,1,2.46.73,3.45,3.45,0,0,1,.73.55,4,4,0,0,1,.27,4.64,4.9,4.9,0,0,1-4.28,1.55,4.75,4.75,0,0,1-3.55-2.46c.32-.4,1.14-1.15,1.82-1.09.44,0,.88.78,1.36,1,1,.48,3.09.19,3-1.27-.06-1-1.76-1.24-2.55-1.46-1.78-.48-3.58-1.09-3.55-3.46,0-2.14,2-3.58,4.46-3.37M13.42,24.52c-.2.64.39,2.78-.18,3.09-1.25.13-1.69-.55-2.55-.82a12.55,12.55,0,0,0-.09,2.37C10.42,31.66,9.37,33,9,35.34a13,13,0,0,0,.09,4.73c.21,1.18.46,2.38.55,3.46,0,.49-.11.94-.09,1.37a7.93,7.93,0,0,0,.64,2.37,5.49,5.49,0,0,0,1.27,2.37c.27-.55-.08-1.72.18-2.27a55,55,0,0,1,5.91-.09,4.14,4.14,0,0,1,2.55,1.27c1.39,1.71.7,4.86-1.36,5.55a3.06,3.06,0,0,0,2.18,1,6.38,6.38,0,0,0,.91-1.91c.72-1.95,1.44-4,2.18-5.91h2.28c1.62,4.29,3.11,8.14,4.37,11.64.75.71,2.31.15,3.18.36.69.17,1.62,1.42,2,2.18s.37,1.33.73,1.91a4.19,4.19,0,0,0,4,2.09c.15-1.05-.71-2-.27-3.18.31-.85,1.38-1.52,2.18-2.46a13.93,13.93,0,0,0,1.18-1.73A4.74,4.74,0,0,1,45,56.45c-.38-.65-.62-1.44-1-2.09a9.41,9.41,0,0,1-2.09-.09c-.26,1.28.08,3.17-.18,4.46H39.44c0-3.43,0-7.64,0-11.37,2.67.09,6.38-.78,8.1.82a4,4,0,0,1,1.09,2.64,3.88,3.88,0,0,1-2.09,3.28c.5,1.56,1.31,2.81,1.91,4.28.94-.3,1.39-1.09,2.36-1.37a8.62,8.62,0,0,1-1-2.27c-.43-3.21.41-5.77,2.36-7a5.87,5.87,0,0,1,6.37.45,6.12,6.12,0,0,1,1.82,4.73,10.41,10.41,0,0,1-.18,2.36c-.1.44-.52.79-.55,1.27A6.53,6.53,0,0,0,60.54,59a22.71,22.71,0,0,0,1.27,2,17.37,17.37,0,0,0,2.73,3.91.56.56,0,0,0,.91-.36c.54-2.93-1.53-4-2.36-5.82-.47,0-1.13.1-1.46-.09V47.35a6.34,6.34,0,0,1,2.36,0v1.73c.45.18.82-.44,1.09-.73.4-2-.51-4.4-.18-6.37.14-.88.79-1.37,1.09-2.09a2.94,2.94,0,0,0-.55-1.18,4.56,4.56,0,0,0-2,0A39.22,39.22,0,0,0,63.36,43a5,5,0,0,1-2.09,0c-.21-3.52,0-7.43-.09-11.1,0-.4.6-.24.73-.55.43-.78.63-1.41,1.36-1.73,1.21-.53,3.82-.91,4.28-1.91.36-.79.08-2.21.55-3,.35-.6,1.35-1.46,1.91-1.46.81,0,1.34,1.35,1.82,2a11.39,11.39,0,0,1,1.64,2.18A2.55,2.55,0,0,1,73.55,29c-.39.87-2.17,1.44-2.27,2.18-.13.91,1.29,1.7,1.36,2.73.09,1.25-1.38,2.1-2.27,2.64a18.62,18.62,0,0,0-2.55,1.91c.64,1.51,1.37,2.93,1.91,4.55a5.42,5.42,0,0,1-2.18,0c-.55-.18-.4-1.05-.82-1.36-.5.25-.24.58-.55.91,0,1.8.55,3.48.45,5.09-.11,2-1.5,2.6-2.64,3.64.06,1.67-.12,3.58.09,5.09,1.22.14,3.59-.1,5.19.09a5.82,5.82,0,0,1,0,2.27,41.24,41.24,0,0,0-4.37.09,2.44,2.44,0,0,0,.54,1,11.34,11.34,0,0,1,.64,1,8.59,8.59,0,0,1,.82,1.82,6.57,6.57,0,0,1-.09,2.27,2.39,2.39,0,0,1-2.91,1.18c-1.22-.43-2.29-2.69-3-3.82A19,19,0,0,1,58.54,58c-.7.1-.57.33-1.44.7a6.09,6.09,0,0,1-.85.27,5.23,5.23,0,0,1-3.72-.51c-.1-.06-.41-.36-.45-.36a5.88,5.88,0,0,0-.91.36,5.79,5.79,0,0,0-.91.55c-.59.39-1.34,1.08-1.82,1.09-1.15,0-1.27-1.54-2.46-1.36-.15-.27-.17-.68-.46-.82a4.69,4.69,0,0,0-1,1.37c-.32.47-.64.92-1,1.36a13.93,13.93,0,0,0-2,2.46,10,10,0,0,1,.55,3.82,7.1,7.1,0,0,1-5.46-1.27,6.6,6.6,0,0,1-1.55-1.91c-.33-.66-.44-1.39-.82-2a2,2,0,0,1-.18-.27c-.14-.33,0-.1-.36-.45-.15-.15-.18-.3-.36-.36-2.38.26-3.87-.37-4.46-1.91h-.73a10.29,10.29,0,0,0-1-2.55h-4c-.7.68-.6,1.69-1.18,2.55a10.31,10.31,0,0,1-2.18-.09c.08-.83.54-1.28.64-2.09a6.83,6.83,0,0,1-3.55-2.09H14a38,38,0,0,0-.09,4.18,6.31,6.31,0,0,1-2.37,0V52.17C11,51.61,10.5,51,10,50.44c-.64-1.64-1.65-3.37-1.82-5.64,0-.48,0-1,0-1.46-.1-2-.86-3.95-.82-6.1a14.29,14.29,0,0,1,.55-3.37A24.86,24.86,0,0,0,9.23,28c.05-1.18-.18-2.66.64-2.91,1-.32,1.4.68,2.09.82.14-.74-.45-2.51.18-3.18a7.26,7.26,0,0,1,2.55.73A79.36,79.36,0,0,0,34.16,26.7c2.49.11,5.63.22,8.46.09a8.25,8.25,0,0,1,2.82,0,3.26,3.26,0,0,1,1.37,2.46c0,.94-.92,1.44-1,2.18.57.4,1.94,0,2.46.45a4.11,4.11,0,0,1,1.64-.45c1,.08,1.5,1.26,2.37,1.46.36-.13.11-.86.18-1.27H59.9a5.82,5.82,0,0,1,0,2.27h-5A9.52,9.52,0,0,0,54.81,36a28.71,28.71,0,0,0,3.64.09,6.31,6.31,0,0,1,0,2.36H54.9a10.35,10.35,0,0,0-.09,2.18c1.52.21,3.42,0,5.09.09a6.29,6.29,0,0,1,0,2.37H52.54c-.21-2.61,0-5.61-.09-8.37a11.44,11.44,0,0,0-1.73-1c.1.7.55,1.41.64,2.27a11.21,11.21,0,0,1-.09,3.27A4.91,4.91,0,0,1,47,43.07,38.48,38.48,0,0,1,42.26,43c.06-3.76-.12-7.76.09-11.37h1.91a12.16,12.16,0,0,1,1.09-2.46,7.15,7.15,0,0,0-.55-1,97.57,97.57,0,0,1-31.39-3.64m.18-10.19a50.55,50.55,0,0,0-4.37,5.46A36.5,36.5,0,0,0,5.87,26a38.59,38.59,0,0,0-3,16A35.25,35.25,0,0,0,4,50.35a34.86,34.86,0,0,0,2.55,7c4.33,8.42,10.64,14.82,19.29,18.56A38.74,38.74,0,0,0,41.71,79a37,37,0,0,0,15.47-3.55A39.22,39.22,0,0,0,72.46,62.18a37.7,37.7,0,0,0,6.55-22,36.93,36.93,0,0,0-3.55-15.28A37.12,37.12,0,0,0,56.18,6,38.28,38.28,0,0,0,40.35,2.86,35.59,35.59,0,0,0,24.88,6.41a39.4,39.4,0,0,0-11.19,7.91s-.08,0-.09,0"/></svg>