<svg xmlns="http://www.w3.org/2000/svg" viewBox="0 0 86.92 52.33"><defs><style>.a{fill:#a7a9ac;fill-rule:evenodd;}</style></defs><title>pros-06</title><path class="a" d="M86.5,2C84-2.3,70.58.53,53.9,8.16a17.38,17.38,0,0,1,2.36,2.17C69.07,4.87,79,3.17,81,6.75c2.36,4.05-7,14.13-22,24.12l.19.19C77.55,19.19,89.33,6.94,86.5,2Z"/><path class="a" d="M7.54,49.15c-1.41-2.54,1.6-7.35,7.63-13.1h0a8.32,8.32,0,0,1-1.41-.47.09.09,0,0,1-.09-.09l-1.41-.57C5,41.61,1.32,47.27,3,50.28c2.07,3.49,11,2.36,23-2.07L25.91,48c-9.61,3.3-16.68,4-18.37,1.13Z"/><path class="a" d="M0,19.85C0,9.58,13.57,1.19,30.25,1.19S60.59,9.58,60.59,19.85,47,38.6,30.25,38.6,0,30.21,0,19.85ZM17.15,5.34l5.75,19.5h0l6-22A33.67,33.67,0,0,0,17.15,5.34Zm11.5,8.1-3.11,11.4h6.31l-3.2-11.4Zm9,11.4L43.06,5.15A34.58,34.58,0,0,0,31.19,2.79l6.41,22Zm-20.54,0-3.11-11.4-3.11,11.4ZM53,27.1a12.58,12.58,0,0,0,2.36-7.26c0-5-3.11-9.42-8.2-12.63L53,27.1Zm-6.41-2.26-3.2-11.4-3.11,11.4Zm.66,2.26H39.57l-.66,2.45,1.79,5.84a24.6,24.6,0,0,0,7.73-3.77L47.21,27.1ZM20,35.39,17.71,27.1H10.18l-.66,2.36a25.32,25.32,0,0,0,10.46,6v-.09ZM32.51,27.1H24.88l-2.45,9a34.92,34.92,0,0,0,7.82.85,27.9,27.9,0,0,0,4.9-.38L32.51,27.1ZM12.91,7.6C8.2,10.71,5.28,15,5.28,19.85A12.9,12.9,0,0,0,7.54,27L12.91,7.6Z"/></svg>