<svg xmlns="http://www.w3.org/2000/svg" viewBox="0 0 126.32 53.06"><defs><style>.a{fill:#a7a9ac;}</style></defs><title>pros-03</title><path class="a" d="M5.28,42.05a19.54,19.54,0,0,1-4.76-.56l.21-3.6a15.09,15.09,0,0,0,4.9.87c2.59,0,4.69-1.08,4.69-3.64,0-5-10.32-2.87-10.32-10.5,0-4.06,3.18-6.89,8.67-6.89a25.64,25.64,0,0,1,4.27.42l-.21,3.39a14.89,14.89,0,0,0-4.27-.66C5.53,20.89,4,22.26,4,24.21c0,4.72,10.32,3,10.32,10.35,0,4.34-3.43,7.49-9.06,7.49"/><path class="a" d="M23.53,41.94a12.84,12.84,0,0,1-2.62-.21V49.3H17.17v-25H20.7a20.56,20.56,0,0,1-.21,3.25h.07A5.91,5.91,0,0,1,26.19,24c4.13,0,6.4,2.94,6.4,8.18,0,6.12-3.25,9.79-9.06,9.79M25.21,27c-2.8,0-4.3,3.29-4.3,6.26v5.35a9.23,9.23,0,0,0,2.73.35c3,0,5-1.82,5-6.51C28.64,29,27.56,27,25.21,27Z"/><path class="a" d="M44.59,27.64c-3.46-.63-5.14,1.79-5.14,7V41.7H35.71V24.32h3.57a23.44,23.44,0,0,1-.35,3.85H39c.77-2.34,2.52-4.51,5.77-4.2l-.18,3.67"/><path class="a" d="M49.94,21.73a2.34,2.34,0,1,1,0-4.69,2.34,2.34,0,1,1,0,4.69m1.85,20H48V24.32h3.74Z"/><path class="a" d="M67.18,41.7V30.51c0-2.17-.6-3.43-2.59-3.43C62,27.08,60,29.84,60,33.31v8.4H56.3V24.32h3.57a22.76,22.76,0,0,1-.25,3.39l0,0A6.35,6.35,0,0,1,65.71,24c4,0,5.18,2.48,5.18,5.56V41.7H67.18"/><path class="a" d="M81.2,42c-3.71,0-4.83-1.43-4.83-5.31V27.22H73.05v-2.9h3.32V18.79l3.71-1v6.54h4.58v2.9H80.11v8.32c0,2.59.52,3.29,2.27,3.29a9.4,9.4,0,0,0,2.27-.28v3.08A17.93,17.93,0,0,1,81.2,42"/><path class="a" d="M99.92,36.89C105,30.32,109,22.62,109,17.08c0-2.89-2.07-4.91-4.78-6.45.05,6-2,20.12-4.33,26.26"/><path class="a" d="M83.2,53.06c11.95-4,29.27-13.31,41.32-21.63,1-.7,1.8-1.34,1.8-2.47,0-2-3.6-4.6-5.35-5.65-9.48,9.85-28.34,24.62-37.77,29.75"/><path class="a" d="M94.28,44.69C101.65,39.59,112.36,30,116,24.8c.85-1.23,1.49-1.94,1.49-3.22,0-2.1-2.45-3.65-4.22-4.72-4.23,10-13.74,22.39-19,27.83"/><path class="a" d="M101,30.56a52.32,52.32,0,0,0-.82-18.67A10.63,10.63,0,0,0,95,5.45a148.32,148.32,0,0,1,6,25.11"/><path class="a" d="M98.9,21.72c-2.23-6-7.8-18.61-16-21.72,5.33,5.88,13.23,17.55,16,21.72"/></svg>