<svg xmlns="http://www.w3.org/2000/svg" viewBox="0 0 142.6 24.96"><title>Asset 4</title><polygon points="4.11 0.1 19.84 0.1 18.14 5.21 14.03 5.21 7.42 24.85 0 24.85 6.61 5.11 2.4 5.11 4.11 0.1 4.11 0.1" style="fill:#a7a9ac;fill-rule:evenodd"/><polygon points="21.25 0.1 34.67 0.1 32.97 5.01 26.86 5.01 25.25 9.62 31.47 9.62 29.56 14.83 23.35 14.83 21.75 19.74 27.86 19.74 25.95 24.95 12.43 24.95 21.25 0.1 21.25 0.1" style="fill:#a7a9ac;fill-rule:evenodd"/><path d="M36.68.1h11s2.71.1,3.71,1a3.92,3.92,0,0,1,1.1,4.21c-.5,1.8-1,3.11-1.3,3.91a5.71,5.71,0,0,1-3.31,2.91,7.22,7.22,0,0,1-3.11.5c-.3,0,0,.2.1.2a4.9,4.9,0,0,1,2.61.7,2.69,2.69,0,0,1,1.1,3.11c-.5,1.4-2.1,6-2.41,6.61a2.1,2.1,0,0,0,.2,1.7H39s-.3.1-.4-.5a3.44,3.44,0,0,1,.3-1.9c.3-1,2.21-6.31,2.21-6.31a.71.71,0,0,0-.2-.8,1.73,1.73,0,0,0-.7-.2h-.8a.53.53,0,0,0-.5.4c-.1.4-3.21,9.32-3.21,9.32H28L36.68.1Zm4.21,10H42c1.2-.1,1.6-.8,1.6-1.1s.7-1.8,1-2.81c.4-1.4-.7-1.5-.7-1.5h-1.1l-1.9,5.41Z" style="fill:#a7a9ac;fill-rule:evenodd"/><polygon points="56.02 0.1 66.44 0.1 64.33 13.33 71.95 0 81.57 0 73.25 24.95 66.14 24.85 71.55 10.02 62.73 24.85 58.02 24.85 60.13 8.72 54.92 24.85 47.9 24.85 56.02 0.1 56.02 0.1" style="fill:#a7a9ac;fill-rule:evenodd"/><polygon points="83.88 0 91.29 0 82.67 24.85 75.26 24.95 83.88 0 83.88 0" style="fill:#a7a9ac;fill-rule:evenodd"/><path d="M93.4.1h8.22l-.7,12.13L105.12.1h6.81s-8.22,23.45-8.72,24.75H95.5l.9-14.53L91.49,25l-6.92-.1L93.4.1Z" style="fill:#a7a9ac;fill-rule:evenodd"/><polygon points="114.04 0.1 121.46 0.1 112.84 24.95 105.42 24.95 114.04 0.1 114.04 0.1" style="fill:#a7a9ac;fill-rule:evenodd"/><polygon points="122.76 0.1 130.57 0.1 129.87 7.21 134.58 0.1 142.6 0.1 132.98 12.13 133.98 24.95 126.37 24.95 126.77 16.74 122.26 24.85 113.84 24.85 123.26 12.03 122.76 0.1 122.76 0.1" style="fill:#a7a9ac;fill-rule:evenodd"/></svg>