<?xml version="1.0" standalone="no"?>
<!DOCTYPE svg PUBLIC "-//W3C//DTD SVG 1.1//EN" "http://www.w3.org/Graphics/SVG/1.1/DTD/svg11.dtd" >
<svg xmlns="http://www.w3.org/2000/svg" xmlns:xlink="http://www.w3.org/1999/xlink" version="1.1">
<metadata>
Created by FontForge 20161003 at Mon Apr 17 01:23:51 2017
 By www-data
Copyright (C) 2004, 2009 Hoefler &#38; Co. http://www.typography.com
</metadata>
<defs>
<font id="SentinelBookItal" horiz-adv-x="520" >
  <font-face 
    font-family="SentinelBookItal"
    font-weight="325"
    font-style="italic"
    font-stretch="normal"
    units-per-em="1000"
    panose-1="2 0 0 0 0 0 0 0 0 0"
    ascent="800"
    descent="-200"
    x-height="458"
    cap-height="653"
    bbox="-139 -294 1066 1085"
    underline-thickness="50"
    underline-position="-150"
    slope="-12"
    unicode-range="U+0020-FB04"
  />
<missing-glyph horiz-adv-x="500" 
d="M0 -200v1000h500v-1000h-500zM71 750l179 -390l179 390h-358zM50 -76l172 376l-172 376v-752zM450 676l-172 -376l172 -376v752zM250 240l-179 -390h358z" />
    <glyph glyph-name="f_f" unicode="ff" horiz-adv-x="582" 
d="M236 -163q-34 0 -51 15.5t-17 39.5q0 23 14.5 39.5t36.5 16.5q19 0 29 -11.5t10 -27.5q0 -24 -13 -37q19 0 30.5 13t24.5 52t30 120l71 341h-183l-67 -323q-51 -238 -175 -238q-33 0 -50.5 16t-17.5 39t14.5 39.5t36.5 16.5q19 0 29.5 -11.5t10.5 -27.5q0 -24 -13 -37
q27 0 43.5 33t38.5 142l74 351h-98l12 44h95l2 9q25 121 83 181t135 60q50 0 79.5 -19t37.5 -46q53 64 130 65q47 1 73 -21t26 -53q0 -29 -16 -50t-40 -21q-18 0 -30 11.5t-12 31.5q0 34 25 55q-10 8 -30 8q-49 0 -75 -44t-47 -143l-5 -24h127l-12 -44h-125l-67 -323
q-50 -238 -174 -238zM231 457l-3 -15h182l1 4q12 57 30 101h-3q-19 0 -30.5 11.5t-11.5 31.5q0 27 20 49q-18 14 -47 14q-54 0 -85.5 -45.5t-52.5 -150.5z" />
    <glyph glyph-name="fi" unicode="fi" horiz-adv-x="543" 
d="M387 398h-169l-67 -323q-51 -238 -175 -238q-33 0 -50.5 16t-17.5 39t14.5 39.5t36.5 16.5q19 0 29.5 -11.5t10.5 -27.5q0 -24 -13 -37q27 0 43.5 33t38.5 142l73 351h-97l12 44h94l2 7q25 116 84 179.5t143 63.5q61 0 96.5 -27.5t35.5 -66.5q0 -26 -16 -47t-41 -21
q-19 0 -31.5 12.5t-12.5 33.5q0 35 26 58q-17 19 -60 19q-56 0 -89.5 -44.5t-54.5 -145.5l-5 -21h247l-76 -280q-15 -53 -15 -82q0 -30 24 -30q35 0 76 111l35 -11q-31 -89 -62.5 -124t-70.5 -35q-36 0 -56 22.5t-20 62.5q0 37 24 127z" />
    <glyph glyph-name="fl" unicode="fl" horiz-adv-x="542" 
d="M370 692q42 0 73 -17l103 17l-143 -530q-16 -57 -16 -81q0 -31 25 -31q35 0 76 111l34 -11q-31 -89 -62 -124t-70 -35q-37 0 -57 22.5t-20 62.5q0 33 25 127l52 195h-172l-67 -323q-51 -238 -175 -238q-33 0 -50.5 16t-17.5 39t14.5 39.5t36.5 16.5q19 0 29.5 -11.5
t10.5 -27.5q0 -24 -13 -37q27 0 43.5 33t38.5 142l73 351h-97l12 44h94l3 11q24 112 80.5 175.5t136.5 63.5zM231 458l-4 -16h175l28 105q-18 0 -29 11.5t-11 31.5q0 27 20 49q-18 14 -45 14q-51 0 -81.5 -45t-52.5 -150z" />
    <glyph glyph-name="f_f_i" unicode="ffi" horiz-adv-x="802" 
d="M371 692q51 0 81.5 -21.5t36.5 -49.5q60 71 149 71q62 0 97.5 -27.5t35.5 -66.5q0 -26 -16 -47t-42 -21q-19 0 -31.5 12.5t-12.5 33.5q0 35 26 58q-17 19 -60 19q-56 0 -89.5 -44.5t-54.5 -145.5l-5 -21h247l-76 -280q-15 -53 -15 -82q0 -30 24 -30q35 0 76 111l35 -11
q-30 -89 -62 -124t-70 -35q-37 0 -57 22.5t-20 62.5q0 39 25 127l53 195h-169l-67 -323q-51 -238 -175 -238q-33 0 -50.5 16t-17.5 39q0 22 14.5 39t36.5 17q19 0 29.5 -11.5t10.5 -27.5q0 -24 -13 -37q27 0 43 32.5t39 142.5l74 351h-183l-67 -323q-51 -238 -175 -238
q-33 0 -50.5 16t-17.5 39t14.5 39.5t36.5 16.5q19 0 29.5 -11.5t10.5 -27.5q0 -24 -13 -37q27 0 43.5 33t38.5 142l74 351h-98l12 44h95l2 9q25 121 83 181t135 60zM231 457l-3 -15h182l2 7q10 51 31 98h-5q-19 0 -30.5 11.5t-11.5 31.5q0 27 20 49q-18 14 -47 14
q-54 0 -85.5 -45.5t-52.5 -150.5z" />
    <glyph glyph-name="f_f_l" unicode="ffl" horiz-adv-x="802" 
d="M236 -163q-34 0 -51 15.5t-17 39.5q0 23 14.5 39.5t36.5 16.5q19 0 29 -11.5t10 -27.5q0 -24 -13 -37q27 0 43.5 32.5t39.5 142.5l73 351h-183l-67 -323q-51 -238 -175 -238q-33 0 -50.5 16t-17.5 39t14.5 39.5t36.5 16.5q19 0 29.5 -11.5t10.5 -27.5q0 -24 -13 -37
q27 0 43.5 33t38.5 142l74 351h-98l12 44h95l2 9q25 121 83 181t135 60q53 0 82.5 -20.5t35.5 -48.5q58 69 140 69q43 0 74 -17l102 17l-143 -530q-15 -58 -15 -81q0 -31 24 -31q35 0 76 111l35 -11q-30 -89 -62 -124t-70 -35q-37 0 -57 22.5t-20 62.5q0 39 25 127l52 195
h-173l-67 -323q-50 -238 -174 -238zM231 457l-3 -15h182l3 11q10 51 29 94h-4q-19 0 -30.5 11.5t-11.5 31.5q0 27 20 49q-18 14 -47 14q-54 0 -85.5 -45.5t-52.5 -150.5zM490 458l-4 -16h176l28 105q-18 1 -29.5 12.5t-11.5 30.5q0 26 21 49q-18 14 -46 14q-51 0 -81.5 -45
t-52.5 -150z" />
    <glyph glyph-name="f_f_b" unicode="ffb" horiz-adv-x="1013" 
d="M236 -163q-34 0 -51 15.5t-17 39.5q0 23 14.5 39.5t36.5 16.5q19 0 29 -11.5t10 -27.5q0 -24 -13 -37q27 0 43.5 32.5t39.5 142.5l73 351h-183l-67 -323q-51 -238 -175 -238q-33 0 -50.5 16t-17.5 39t14.5 39.5t36.5 16.5q19 0 29.5 -11.5t10.5 -27.5q0 -24 -13 -37
q27 0 43.5 33t38.5 142l74 351h-98l12 44h95l2 9q25 121 83 181t135 60q52 0 81.5 -20t35.5 -48q59 68 140 68q43 0 74 -17l101 17l-97 -341l7 -3q66 110 149 110q54 0 87 -42.5t33 -111.5q0 -123 -80 -218t-173 -95q-65 0 -103 38.5t-38 105.5q0 53 28 153l30 110h-169
l-67 -323q-50 -238 -174 -238zM837 402q-42 0 -83 -45.5t-65 -107t-24 -111.5q0 -100 75 -100q46 0 84.5 47t58 108t19.5 113q0 96 -65 96zM231 457l-3 -15h182l3 11q10 51 29 94h-4q-19 0 -30.5 11.5t-11.5 31.5q0 27 20 49q-18 14 -47 14q-54 0 -85.5 -45.5t-52.5 -150.5z
M490 458l-4 -16h172l30 105q-18 0 -29.5 11.5t-11.5 31.5q0 25 20 49q-18 14 -44 14q-51 0 -81 -45t-52 -150z" />
    <glyph glyph-name="f_f_h" unicode="ffh" horiz-adv-x="1061" 
d="M236 -163q-34 0 -51 15.5t-17 39.5q0 23 14.5 39.5t36.5 16.5q19 0 29 -11.5t10 -27.5q0 -24 -13 -37q27 0 43.5 32.5t39.5 142.5l73 351h-183l-67 -323q-51 -238 -175 -238q-33 0 -50.5 16t-17.5 39t14.5 39.5t36.5 16.5q19 0 29.5 -11.5t10.5 -27.5q0 -24 -13 -37
q27 0 43.5 33t38.5 142l74 351h-98l12 44h95l2 9q25 121 83 181t135 60q53 0 82.5 -20.5t35.5 -48.5q58 69 141 69q46 0 77 -18l106 18l-124 -439l7 -3q48 100 103 154t106 54q37 0 60 -27.5t23 -72.5q0 -44 -37.5 -147t-37.5 -136q0 -25 20 -25q35 0 75 111l35 -11
q-30 -88 -62.5 -123.5t-68.5 -35.5q-32 0 -53 23t-20 65q1 48 36 142.5t35 133.5q0 40 -35 40q-51 0 -119 -98.5t-122 -296.5h-81l105 398h-181l-67 -323q-50 -238 -174 -238zM231 457l-3 -15h182l3 11q10 51 29 94h-4q-19 0 -30.5 11.5t-11.5 31.5q0 27 20 49
q-18 14 -47 14q-54 0 -85.5 -45.5t-52.5 -150.5zM490 458l-4 -16h184l28 105h-4q-18 0 -30 11.5t-12 31.5q0 25 20 49q-18 14 -46 14q-52 0 -83 -45t-53 -150z" />
    <glyph glyph-name="f_f_j" unicode="ffj" horiz-adv-x="767" 
d="M371 692q51 0 81.5 -21.5t36.5 -49.5q60 71 149 71q62 0 97.5 -27.5t35.5 -66.5q0 -26 -16 -47t-42 -21q-19 0 -31.5 12.5t-12.5 33.5q0 35 26 58q-17 19 -60 19q-56 0 -89.5 -44.5t-54.5 -145.5l-5 -21h269l-102 -387q-58 -218 -175 -218q-34 0 -51 16t-17 39
q0 22 14 38.5t35 16.5q19 0 29.5 -11.5t10.5 -28.5q0 -21 -15 -38q16 0 26.5 7.5t26.5 43t34 104.5l96 374h-190l-67 -323q-51 -238 -175 -238q-33 0 -50.5 16t-17.5 39q0 22 14.5 39t36.5 17q19 0 29.5 -11.5t10.5 -27.5q0 -24 -13 -37q27 0 43 32.5t39 142.5l74 351h-183
l-67 -323q-51 -238 -175 -238q-33 0 -50.5 16t-17.5 39t14.5 39.5t36.5 16.5q19 0 29.5 -11.5t10.5 -27.5q0 -24 -13 -37q27 0 43.5 33t38.5 142l74 351h-98l12 44h95l2 9q25 121 83 181t135 60zM231 457l-3 -15h182l2 7q10 51 31 98h-5q-19 0 -30.5 11.5t-11.5 31.5
q0 27 20 49q-18 14 -47 14q-54 0 -85.5 -45.5t-52.5 -150.5z" />
    <glyph glyph-name="f_f_k" unicode="ffk" horiz-adv-x="1021" 
d="M236 -163q-34 0 -51 15.5t-17 39.5q0 23 14.5 39.5t36.5 16.5q19 0 29 -11.5t10 -27.5q0 -24 -13 -37q27 0 43.5 32.5t39.5 142.5l73 351h-183l-67 -323q-51 -238 -175 -238q-33 0 -50.5 16t-17.5 39t14.5 39.5t36.5 16.5q19 0 29.5 -11.5t10.5 -27.5q0 -24 -13 -37
q27 0 43.5 33t38.5 142l74 351h-98l12 44h95l2 9q25 121 83 181t135 60q53 0 82.5 -20.5t35.5 -48.5q58 69 141 69q46 0 77 -18l105 18l-116 -431h16q36 0 60.5 21.5t57.5 75.5q30 52 56 76t62 24q30 0 46.5 -16t16.5 -43q0 -28 -16 -47.5t-38 -19.5q-26 0 -36.5 21.5
t2.5 49.5q-26 -2 -65 -70q-37 -64 -80 -83q93 -7 93 -80q0 -16 -4 -45.5t-4 -41.5q0 -33 21 -33q34 0 74 111l35 -11q-53 -159 -130 -159q-32 0 -53.5 24t-20.5 69q1 15 5 48t4 43q0 30 -17 41t-69 11h-25l-60 -227h-74l105 398h-181l-67 -323q-50 -238 -174 -238zM231 457
l-3 -15h182l3 11q10 51 29 94h-4q-19 0 -30.5 11.5t-11.5 31.5q0 27 20 49q-18 14 -47 14q-54 0 -85.5 -45.5t-52.5 -150.5zM490 458l-4 -16h184l28 105h-4q-18 0 -30 11.5t-12 31.5q0 25 20 49q-18 14 -46 14q-52 0 -83 -45t-53 -150z" />
    <glyph glyph-name="f_b" unicode="fb" horiz-adv-x="754" 
d="M543 692l-97 -341l7 -3q66 110 149 110q55 0 87.5 -42.5t32.5 -111.5q0 -123 -79.5 -218t-172.5 -95q-65 0 -103.5 39t-38.5 105q0 53 28 153l30 110h-168l-67 -323q-51 -238 -175 -238q-33 0 -50.5 16t-17.5 39t14.5 39.5t36.5 16.5q19 0 29.5 -11.5t10.5 -27.5
q0 -24 -13 -37q27 0 43.5 33t38.5 142l73 351h-97l12 44h94l3 11q24 112 80 175.5t135 63.5q43 0 74 -17zM577 402q-62 0 -116.5 -92t-54.5 -172q0 -100 75 -100q45 0 84 47t58.5 108t19.5 113q0 96 -66 96zM231 458l-4 -16h171l30 105q-40 2 -40 43q0 27 20 49
q-17 14 -44 14q-51 0 -81 -44.5t-52 -150.5z" />
    <glyph glyph-name="f_h" unicode="fh" horiz-adv-x="802" 
d="M553 692l-123 -439l6 -3q47 99 102.5 153.5t107.5 54.5q37 0 59.5 -27.5t22.5 -72.5q0 -44 -37 -147t-37 -136q0 -25 20 -25q34 0 74 111l35 -11q-30 -88 -62.5 -123.5t-68.5 -35.5q-32 0 -52.5 23t-20.5 65q1 48 36 142.5t35 133.5q0 40 -34 40q-52 0 -120 -98.5
t-121 -296.5h-82l105 398h-180l-67 -323q-51 -238 -175 -238q-33 0 -50.5 16t-17.5 39t14.5 39.5t36.5 16.5q19 0 29.5 -11.5t10.5 -27.5q0 -24 -13 -37q27 0 43.5 33t38.5 142l73 351h-97l12 44h94l3 11q24 112 80.5 175.5t137.5 63.5q45 0 76 -18zM231 458l-4 -16h183
l28 105h-3q-19 0 -30.5 11.5t-11.5 31.5q0 27 20 49q-17 14 -46 14q-53 0 -83.5 -45t-52.5 -150z" />
    <glyph glyph-name="f_j" unicode="fj" horiz-adv-x="532" 
d="M404 398h-186l-67 -323q-51 -238 -175 -238q-33 0 -50.5 16t-17.5 39t14.5 39.5t36.5 16.5q19 0 29.5 -11.5t10.5 -27.5q0 -24 -13 -37q27 0 43.5 33t38.5 142l73 351h-97l12 44h94l2 7q25 116 84 179.5t143 63.5q61 0 96.5 -27.5t35.5 -66.5q0 -26 -16 -47t-41 -21
q-19 0 -31.5 12.5t-12.5 33.5q0 35 26 58q-17 19 -60 19q-56 0 -89.5 -44.5t-54.5 -145.5l-5 -21h265l-103 -387q-58 -218 -175 -218q-33 0 -50 16t-17 39t13.5 39t34.5 16q20 0 30.5 -11.5t10.5 -28.5q0 -21 -15 -38q16 0 26.5 7.5t26.5 43t33 104.5z" />
    <glyph glyph-name="f_k" unicode="fk" horiz-adv-x="761" 
d="M518 250q93 -7 93 -80q0 -16 -4 -45.5t-4 -41.5q0 -33 22 -33q34 0 74 111l34 -11q-52 -159 -129 -159q-32 0 -53.5 24t-21.5 69q1 15 5.5 48t4.5 43q0 30 -17.5 41t-69.5 11h-24l-61 -227h-74l105 398h-180l-67 -323q-51 -238 -175 -238q-33 0 -50.5 16t-17.5 39
t14.5 39.5t36.5 16.5q19 0 29.5 -11.5t10.5 -27.5q0 -24 -13 -37q27 0 43.5 33t38.5 142l73 351h-97l12 44h94l3 11q24 112 80.5 175.5t137.5 63.5q45 0 76 -18l106 18l-116 -431h15q37 0 61.5 21.5t56.5 75.5q31 52 57 76t62 24q30 0 46 -16t16 -43q0 -28 -16 -47.5
t-38 -19.5q-25 0 -35.5 21.5t2.5 49.5q-27 -2 -66 -70q-36 -64 -80 -83zM231 458l-4 -16h183l28 105h-3q-19 0 -30.5 11.5t-11.5 31.5q0 27 20 49q-17 14 -46 14q-53 0 -83.5 -45t-52.5 -150z" />
    <glyph glyph-name=".notdef" horiz-adv-x="500" 
d="M0 -200v1000h500v-1000h-500zM71 750l179 -390l179 390h-358zM50 -76l172 376l-172 376v-752zM450 676l-172 -376l172 -376v752zM250 240l-179 -390h358z" />
    <glyph glyph-name=".null" horiz-adv-x="0" 
 />
    <glyph glyph-name="nonmarkingreturn" horiz-adv-x="333" 
 />
    <glyph glyph-name="space" unicode=" " horiz-adv-x="174" 
 />
    <glyph glyph-name="exclam" unicode="!" horiz-adv-x="266" 
d="M108 189q19 93 42 247t33 191q12 52 54 52q23 0 35.5 -13t12.5 -34q0 -6 -1.5 -14t-4.5 -20t-6.5 -22.5l-10 -30t-12 -35t-15.5 -43.5t-18 -50q-42 -122 -77 -235zM86 -15q-21 0 -35.5 15.5t-14.5 39.5t16 43.5t40 19.5q22 0 36.5 -15.5t14.5 -39.5t-16 -43.5t-41 -19.5z
" />
    <glyph glyph-name="quotedbl" unicode="&#x22;" horiz-adv-x="381" 
d="M132 412l-24 13l71 143q17 34 25.5 49t21 27.5t25.5 12.5q18 0 31.5 -12t13.5 -28q0 -4 -1 -9t-4 -10.5t-5.5 -10t-8 -11.5t-9 -12t-11.5 -14t-13 -14.5t-14.5 -16t-15.5 -17.5zM291 412l-24 13l71 143q17 34 25.5 49t21 27.5t25.5 12.5q18 0 31.5 -12t13.5 -28
q0 -4 -1 -9t-4 -10.5t-5.5 -10t-8 -11.5t-9 -12t-11.5 -14t-13 -14.5t-14.5 -16t-15.5 -17.5z" />
    <glyph glyph-name="numbersign" unicode="#" horiz-adv-x="653" 
d="M96 414l13 50h146l55 197l57 -7l-53 -190h156l55 197l57 -7l-53 -190h133l-13 -50h-134l-57 -203h146l-12 -51h-148l-56 -203l-57 6l55 197h-157l-56 -203l-57 6l55 197h-132l12 51h134l56 203h-145zM300 414l-57 -203h157l56 203h-156z" />
    <glyph glyph-name="dollar" unicode="$" horiz-adv-x="526" 
d="M363 700l47 -8l-17 -68q65 -13 104.5 -50t39.5 -76q0 -31 -17 -52.5t-43 -21.5q-22 0 -34.5 13t-12.5 31q0 20 12 36t29 22q-23 40 -89 55l-57 -232q73 -36 106.5 -71t33.5 -88q0 -76 -58.5 -133t-157.5 -57h-11l-21 -85l-47 8l20 82q-71 14 -117.5 52t-46.5 84
q0 31 18.5 53.5t46.5 22.5q22 0 36 -14.5t14 -34.5q0 -21 -13 -38t-32 -24q9 -18 38 -35t67 -24l60 240q-73 36 -107 69.5t-34 85.5q0 77 62 132t156 55h7zM392 161q0 32 -21.5 56t-65.5 48l-56 -223h4q62 0 100.5 34t38.5 85zM196 469q0 -30 21 -52t64 -46l54 216
q-64 -1 -101.5 -37t-37.5 -81z" />
    <glyph glyph-name="percent" unicode="%" horiz-adv-x="770" 
d="M177 267q-57 0 -89 33.5t-32 90.5q0 87 63 157.5t140 70.5q64 0 91 -45q43 -20 99 -20q117 0 216 83l29 -26l-554 -637l-41 30l493 547l-3 3q-27 -17 -70 -29.5t-80 -12.5q-41 0 -74 8q0 -2 0.5 -5.5t0.5 -5.5q0 -79 -56 -160.5t-133 -81.5zM553 -14q-57 0 -89 33.5
t-32 91.5q0 87 63 157.5t140 70.5q49 0 78 -28.5t29 -81.5q0 -49 -23.5 -104.5t-68.5 -97t-97 -41.5zM559 29q50 0 93.5 65.5t43.5 132.5q0 66 -55 66q-51 0 -94.5 -65.5t-43.5 -129.5q0 -69 56 -69zM184 310q49 0 92.5 65.5t43.5 132.5q0 16 -5 31q-29 15 -50 35
q-51 -1 -94 -66t-43 -130q0 -68 56 -68z" />
    <glyph glyph-name="ampersand" unicode="&#x26;" horiz-adv-x="672" 
d="M593 384q30 0 46.5 -16.5t16.5 -42.5q0 -29 -15.5 -50.5t-38.5 -21.5q-28 0 -38 23t4 51q-17 -8 -35.5 -28t-31.5 -39t-35 -54t-34 -53q24 -60 39.5 -84.5t33.5 -24.5q17 0 34 17t42 70l34 -17q-30 -73 -61 -100.5t-67 -27.5q-40 0 -63.5 22.5t-48.5 81.5
q-45 -52 -89 -79t-99 -27q-73 0 -118 40.5t-45 105.5q0 144 211 209q-46 66 -46 124q0 74 50.5 118t118.5 44q60 0 98.5 -34.5t38.5 -88.5q0 -110 -161 -169q57 -87 79 -139q11 17 32 51.5t34 53.5t32.5 41.5t39.5 33t42 10.5zM207 45q80 0 149 83q-32 84 -99 180
q-145 -53 -145 -164q0 -46 26 -72.5t69 -26.5zM264 485q0 -46 49 -121q113 48 113 138q0 33 -19.5 55.5t-55.5 22.5q-37 0 -62 -25t-25 -70z" />
    <glyph glyph-name="quotesingle" unicode="'" horiz-adv-x="224" 
d="M132 412l-24 13l71 143q17 34 25.5 49t21 27.5t25.5 12.5q18 0 31.5 -12t13.5 -28q0 -4 -1 -9t-4 -10.5t-5.5 -10t-8 -11.5t-9 -12t-11.5 -14t-13 -14.5t-14.5 -16t-15.5 -17.5z" />
    <glyph glyph-name="parenleft" unicode="(" horiz-adv-x="361" 
d="M248 -157q-176 132 -176 343q0 176 103.5 325.5t288.5 212.5l15 -39q-156 -65 -241.5 -208.5t-85.5 -299.5q0 -186 128 -300z" />
    <glyph glyph-name="parenright" unicode=")" horiz-adv-x="361" 
d="M143 724q176 -132 176 -343q0 -176 -103.5 -325.5t-288.5 -212.5l-15 39q156 65 241.5 208.5t85.5 299.5q0 186 -128 300z" />
    <glyph glyph-name="asterisk" unicode="*" horiz-adv-x="408" 
d="M321 393q-4 11 -7 31.5t-5.5 46.5t-4.5 37l-12 2q-5 -7 -21 -30t-28 -39t-20 -23q-30 -26 -53 0q-24 27 9 52q8 7 25.5 16t44.5 21t33 15l-1 11q-11 4 -36 11t-44.5 13.5t-28.5 12.5q-32 24 -16 51q19 30 53 7q8 -6 22 -20t32.5 -34.5t24.5 -26.5l12 4q0 12 -0.5 38
t0 46.5t2.5 30.5q10 39 44 30q32 -9 21 -47q-2 -10 -11 -27.5t-23.5 -42.5t-17.5 -31l8 -10q6 2 34 12t46.5 16t29.5 6q39 3 42 -31q1 -17 -8 -26t-30 -11q-10 0 -30.5 3.5t-46.5 8.5t-36 7l-7 -11q4 -5 16.5 -21t21 -27t17.5 -24.5t12 -21.5q14 -36 -17 -49q-31 -14 -46 24
z" />
    <glyph glyph-name="plus" unicode="+" horiz-adv-x="524" 
d="M198 67l46 186h-182l12 49h182l46 186h53l-46 -186h181l-12 -49h-181l-47 -186h-52z" />
    <glyph glyph-name="comma" unicode="," horiz-adv-x="214" 
d="M-48 -136l-10 33q104 37 125 98l-3 3q-7 -5 -17 -5q-17 0 -29 11.5t-12 33.5q0 24 16.5 43.5t41.5 19.5q28 0 43 -19t15 -48q0 -50 -41 -96.5t-129 -73.5z" />
    <glyph glyph-name="hyphen" unicode="-" horiz-adv-x="364" 
d="M52 210l16 65h254l-17 -65h-253z" />
    <glyph glyph-name="period" unicode="." horiz-adv-x="214" 
d="M61 -15q-21 0 -35.5 15.5t-14.5 39.5t16 43.5t40 19.5q22 0 36.5 -15.5t14.5 -39.5t-16 -43.5t-41 -19.5z" />
    <glyph glyph-name="slash" unicode="/" horiz-adv-x="418" 
d="M-139 -190l602 902l48 -24l-602 -902z" />
    <glyph glyph-name="zero" unicode="0" horiz-adv-x="552" 
d="M243 -16q-87 0 -136.5 64.5t-49.5 177.5q0 107 38 203t106 155t147 59q87 0 136 -64t49 -178q0 -107 -38 -202.5t-105.5 -155t-146.5 -59.5zM347 594q-47 0 -87.5 -40.5t-64.5 -102t-38 -127.5t-14 -123q-1 -168 101 -168q47 0 87.5 40.5t64.5 102.5t38 128t14 123
q0 167 -101 167z" />
    <glyph glyph-name="one" unicode="1" horiz-adv-x="447" 
d="M-1 0l12 52h145l117 469q-36 -16 -91 -16q-37 0 -61 8l11 42q59 -1 113 20.5t86 60.5h53l-146 -584h141l-10 -52h-370z" />
    <glyph glyph-name="two" unicode="2" horiz-adv-x="542" 
d="M199 541q35 -18 35 -59q0 -23 -15 -41.5t-43 -19.5q-27 0 -44 18.5t-17 48.5q0 59 61.5 107t152.5 48q89 0 142.5 -47t53.5 -120q0 -81 -55.5 -130.5t-151.5 -81.5q-63 -22 -106 -44t-66.5 -44.5t-34.5 -39.5t-20 -41l2 -2q43 23 85 23q40 0 90 -27t71 -27q35 0 61.5 31
t55.5 107l36 -7q-26 -111 -68 -159.5t-102 -48.5q-29 0 -55 13.5t-43 29t-38.5 29t-41.5 13.5q-18 0 -33 -6q7 -11 7 -26q0 -24 -12.5 -38.5t-33.5 -14.5q-23 0 -36.5 18.5t-13.5 50.5q0 69 63 131t174 111q94 43 139 86.5t45 102.5q0 52 -34 80.5t-88 28.5q-82 0 -122 -53z
" />
    <glyph glyph-name="three" unicode="3" horiz-adv-x="512" 
d="M97 88q11 -21 42.5 -38t77.5 -17q68 0 108.5 45t40.5 110q0 50 -35.5 80t-110.5 30h-18l12 49h21q99 0 146 47q41 41 41 104q0 47 -28.5 72t-80.5 25q-73 0 -106 -38q24 -19 24 -49q0 -25 -15.5 -42.5t-40.5 -17.5t-39.5 15.5t-14.5 40.5q0 57 61.5 98t139.5 41
q88 0 137 -42t49 -104q0 -70 -51.5 -117t-141.5 -59v-2q67 -14 102 -51.5t35 -88.5q0 -81 -64.5 -138t-162.5 -57q-85 0 -144.5 42t-59.5 103q0 32 19.5 54.5t47.5 22.5q23 0 37.5 -15.5t14.5 -36.5q0 -45 -43 -66z" />
    <glyph glyph-name="four" unicode="4" horiz-adv-x="548" 
d="M324 233l79 315h-3l-302 -315h226zM358 51h98l-13 -51h-277l13 51h99l32 129h-293l13 55l391 403h84l-102 -405h129l-12 -53h-130z" />
    <glyph glyph-name="five" unicode="5" horiz-adv-x="509" 
d="M222 549l-57 -186q52 30 120 30q80 0 127 -43t47 -116q0 -96 -67 -173t-181 -77q-77 0 -131.5 42.5t-54.5 100.5q0 37 20.5 62.5t49.5 25.5q24 0 38.5 -15t14.5 -37q0 -25 -15.5 -43t-40.5 -23q10 -27 41 -46t72 -19q80 0 124 62.5t44 144.5q0 56 -30 82t-80 26
q-69 0 -127 -44l-37 17l95 308l15 10q75 -36 162 -36q78 0 151 33l12 -25q-73 -87 -178 -87q-69 0 -134 26z" />
    <glyph glyph-name="six" unicode="6" horiz-adv-x="521" 
d="M247 33q63 0 101 61t38 135q0 54 -29 85t-78 31q-61 0 -102 -52t-41 -129q0 -58 29 -94.5t82 -36.5zM526 529q0 -33 -19 -56.5t-48 -23.5q-25 0 -39 14.5t-14 35.5q0 45 46 62q-6 14 -27 23.5t-49 9.5q-79 0 -135.5 -70t-85.5 -201q60 72 150 72q75 0 121 -47t46 -123
q0 -58 -25.5 -112.5t-78 -91.5t-118.5 -37q-89 0 -141 60.5t-52 166.5q0 107 38 205t112 162.5t167 64.5q67 0 109.5 -32.5t42.5 -81.5z" />
    <glyph glyph-name="seven" unicode="7" horiz-adv-x="519" 
d="M215 45q-11 -35 -22.5 -49t-30.5 -14q-18 -1 -32 13t-14 35q0 64 93 198t205 226q72 61 95 86l-3 3q-50 -30 -96 -30q-38 0 -86 21.5t-68 21.5q-33 0 -59.5 -33.5t-56.5 -121.5h-49l56 229h53l-16 -79h3q28 44 53 64t59 20q31 0 57 -20.5t50.5 -41t51.5 -20.5q21 0 37 11
q-5 12 -5 28q0 22 13.5 37.5t34.5 15.5t33.5 -14t12.5 -32q0 -30 -22.5 -58t-82.5 -78q-95 -79 -157.5 -177t-106.5 -241z" />
    <glyph glyph-name="eight" unicode="8" horiz-adv-x="524" 
d="M516 491q0 -58 -38 -102t-107 -66q98 -58 98 -145q0 -81 -64.5 -137.5t-163.5 -56.5q-93 0 -148.5 47t-55.5 117q0 58 41 105t124 68q-82 57 -82 137q0 74 58.5 129.5t152.5 55.5q83 0 134 -43t51 -109zM250 294q-6 2 -9 4q-62 -16 -96 -55t-34 -93q0 -50 36 -84t99 -34
q64 0 103.5 35.5t39.5 89.5q0 42 -33 71.5t-106 65.5zM199 481q0 -42 33.5 -74t97.5 -62q0 -1 1 -1q58 22 87 61t29 85q0 47 -31 76.5t-87 29.5q-57 0 -93.5 -33.5t-36.5 -81.5z" />
    <glyph glyph-name="nine" unicode="9" horiz-adv-x="522" 
d="M317 594q-65 0 -103 -60.5t-38 -140.5q0 -56 28.5 -87.5t77.5 -31.5q62 0 103.5 53t41.5 132q0 61 -29 98t-81 37zM30 105q0 32 19 55t48 23q24 0 38.5 -14.5t14.5 -35.5q0 -44 -47 -63q26 -37 87 -37q158 0 217 263q-61 -71 -151 -71q-75 0 -120.5 48t-45.5 126
q0 94 62 169t161 75q89 0 141 -60.5t52 -166.5q0 -109 -36 -206.5t-109 -161.5t-166 -64q-76 0 -120.5 36t-44.5 85z" />
    <glyph glyph-name="colon" unicode=":" horiz-adv-x="218" 
d="M63 -15q-21 0 -35.5 15.5t-14.5 39.5t16 43.5t40 19.5q22 0 36.5 -15.5t14.5 -39.5t-16 -43.5t-41 -19.5zM139 279q-21 0 -35.5 15.5t-14.5 39.5t16 43.5t40 19.5q22 0 36.5 -15.5t14.5 -39.5t-16 -43.5t-41 -19.5z" />
    <glyph glyph-name="semicolon" unicode=";" horiz-adv-x="218" 
d="M-46 -136l-10 33q104 37 125 98l-3 3q-7 -5 -17 -5q-17 0 -29 11.5t-12 33.5q0 24 16.5 43.5t41.5 19.5q28 0 43 -19t15 -48q0 -50 -41 -96.5t-129 -73.5zM139 279q-21 0 -35.5 15.5t-14.5 39.5t16 43.5t40 19.5q22 0 36.5 -15.5t14.5 -39.5t-16 -43.5t-41 -19.5z" />
    <glyph glyph-name="less" unicode="&#x3c;" horiz-adv-x="523" 
d="M394 76l-309 183l10 44l393 179l1 -51l-343 -155l265 -151z" />
    <glyph glyph-name="equal" unicode="=" horiz-adv-x="526" 
d="M87 344l12 49h411l-12 -49h-411zM42 163l12 49h411l-12 -49h-411z" />
    <glyph glyph-name="greater" unicode="&#x3e;" horiz-adv-x="523" 
d="M150 482l309 -184l-10 -44l-393 -178l-2 49l344 155l-265 151z" />
    <glyph glyph-name="question" unicode="?" horiz-adv-x="419" 
d="M340 254q-52 -77 -130 -77q-44 0 -72 25t-28 66q0 43 31.5 73t102.5 64q78 38 110 67t32 76q0 36 -24.5 61t-77.5 25q-59 0 -93 -32q23 -20 23 -48q0 -26 -16 -44.5t-41 -18.5q-23 0 -38.5 16t-15.5 42q0 51 53.5 90.5t133.5 39.5q87 0 133.5 -43.5t46.5 -102.5
q0 -62 -42.5 -100.5t-133.5 -79.5q-64 -29 -89 -46.5t-24 -45.5q0 -18 12 -29t31 -11q44 0 88 53zM155 -15q-22 0 -36.5 15.5t-14.5 39.5t16.5 43.5t40.5 19.5q22 0 36.5 -15.5t14.5 -39.5t-16.5 -43.5t-40.5 -19.5z" />
    <glyph glyph-name="at" unicode="@" horiz-adv-x="896" 
d="M634 -50l16 -33q-106 -63 -237 -63q-158 0 -258 92.5t-100 249.5q0 200 140 341.5t333 141.5q142 0 234.5 -82.5t92.5 -221.5q0 -135 -68 -227t-164 -92q-53 0 -80.5 30t-20.5 83l-5 1q-60 -99 -139 -99q-51 0 -84.5 36.5t-33.5 101.5q0 100 68 182t154 82q36 0 62 -21
t32 -61l24 77h65l-78 -249q-38 -122 49 -122q65 0 119 78t54 198q0 122 -78.5 194t-206.5 72q-114 0 -212 -60.5t-154.5 -162.5t-56.5 -220q0 -137 86.5 -219.5t230.5 -82.5q115 0 216 56zM396 120q41 0 78 39.5t56.5 90.5t19.5 94q0 37 -15.5 63t-50.5 26q-62 0 -106.5 -76
t-44.5 -155q0 -38 16.5 -60t46.5 -22z" />
    <glyph glyph-name="A" unicode="A" horiz-adv-x="664" 
d="M358 52h103l-20 183h-235l-109 -183h88l-13 -52h-226l13 52h70l374 605h73l70 -605h85l-13 -52h-273zM234 282h202l-29 284h-3z" />
    <glyph glyph-name="B" unicode="B" horiz-adv-x="618" 
d="M-22 0l12 52h110l136 549h-111l13 52h266q116 0 166.5 -39t50.5 -99q0 -26 -9 -52t-30.5 -52t-64 -44.5t-101.5 -23.5v-4q157 -29 157 -141q0 -73 -48 -121q-77 -77 -267 -77h-280zM263 367h88q85 0 132.5 42.5t47.5 104.5q0 43 -29.5 65t-97.5 22h-83zM185 52h84
q215 0 215 158q0 50 -39 79.5t-116 29.5h-77z" />
    <glyph glyph-name="C" unicode="C" horiz-adv-x="659" 
d="M322 -15q-124 0 -188.5 74.5t-64.5 190.5q0 166 106.5 292t255.5 126q121 0 178 -81l38 78h53l-60 -244h-46q-9 193 -166 193q-83 0 -146.5 -58.5t-93 -140t-29.5 -166.5q0 -99 46 -153.5t128 -54.5q81 0 136 56t100 154l48 -20q-98 -246 -295 -246z" />
    <glyph glyph-name="D" unicode="D" horiz-adv-x="690" 
d="M-22 0l12 52h110l136 549h-111l13 52h248q146 0 222 -68.5t76 -181.5q0 -76 -31 -152t-89 -133q-118 -118 -331 -118h-255zM184 52h48q167 0 248 81q51 51 81 129.5t30 158.5q0 180 -212 180h-58z" />
    <glyph glyph-name="E" unicode="E" horiz-adv-x="645" 
d="M138 653h547l-50 -205h-40q5 102 -5.5 127.5t-59.5 25.5h-209l-60 -243h86q45 0 62.5 16.5t45.5 83.5h41l-62 -249h-40q8 70 -0.5 87t-52.5 17h-91l-65 -261h206q55 0 80 29t75 143h41l-55 -224h-554l12 52h110l136 549h-111z" />
    <glyph glyph-name="F" unicode="F" horiz-adv-x="622" 
d="M258 346h79q46 0 64.5 17.5t44.5 84.5h41l-63 -255h-41q9 74 0.5 91t-53.5 17h-83l-62 -249h121l-12 -52h-316l12 52h110l136 549h-111l13 52h548l-52 -209h-40q2 73 -3 104.5t-19.5 42t-48.5 10.5h-202z" />
    <glyph glyph-name="G" unicode="G" horiz-adv-x="697" 
d="M318 41q73 0 125 55.5t75 144.5l7 28h-123l14 52h296l-13 -52h-89l-70 -276h-49l-2 92q-75 -101 -189 -101q-109 0 -170 76t-61 190q0 109 47.5 205t131.5 154.5t183 58.5q121 0 178 -81l38 78h53l-60 -244h-46q-9 193 -166 193q-83 0 -146.5 -58t-93 -141t-29.5 -171
q0 -99 43 -151t116 -52z" />
    <glyph glyph-name="H" unicode="H" horiz-adv-x="761" 
d="M-22 0l12 52h110l136 549h-111l13 52h290l-13 -52h-94l-59 -240h305l59 240h-96l13 52h290l-12 -52h-110l-136 -549h111l-12 -52h-290l12 52h94l66 262h-305l-66 -262h96l-13 -52h-290z" />
    <glyph glyph-name="I" unicode="I" horiz-adv-x="384" 
d="M-15 0l12 52h110l136 549h-111l12 52h306l-13 -52h-109l-137 -549h112l-12 -52h-306z" />
    <glyph glyph-name="J" unicode="J" horiz-adv-x="526" 
d="M502 601l-107 -430q-22 -90 -77 -138.5t-140 -48.5q-80 0 -126 41t-46 96q0 39 22 66t58 27q27 0 42 -16.5t15 -40.5q0 -25 -16.5 -43t-46.5 -25q7 -24 34.5 -39.5t63.5 -15.5q53 0 84.5 36t50.5 111l104 420h-107l13 52h290l-12 -52h-99z" />
    <glyph glyph-name="K" unicode="K" horiz-adv-x="704" 
d="M690 601l-277 -224l155 -325h86l-12 -52h-274l13 52h91l-124 273l-119 -98l-44 -175h96l-13 -52h-290l12 52h110l136 549h-111l13 52h290l-13 -52h-94l-74 -300l360 300h-88l13 52h250l-12 -52h-80z" />
    <glyph glyph-name="L" unicode="L" horiz-adv-x="592" 
d="M138 653h298l-12 -52h-103l-136 -549h178q54 0 78.5 30t73.5 144h42l-57 -226h-522l12 52h110l136 549h-111z" />
    <glyph glyph-name="M" unicode="M" horiz-adv-x="913" 
d="M-19 0l12 52h102l137 549h-104l12 52h235l54 -512h3l310 512h242l-12 -52h-108l-136 -549h109l-12 -52h-278l12 52h84l136 545h-8l-370 -598h-36l-70 598h-6l-135 -545h92l-13 -52h-252z" />
    <glyph glyph-name="N" unicode="N" horiz-adv-x="751" 
d="M522 -16l-239 568h-5l-124 -500h96l-12 -52h-257l12 52h102l136 549h-103l12 52h190l217 -510h5l113 458h-98l13 52h255l-13 -52h-98l-154 -617h-48z" />
    <glyph glyph-name="O" unicode="O" horiz-adv-x="696" 
d="M70 263q0 103 45.5 195.5t127.5 150.5t179 58q114 0 185 -77t71 -201q0 -103 -45.5 -196t-127 -151t-178.5 -58q-114 0 -185.5 77.5t-71.5 201.5zM417 615q-64 0 -115.5 -38t-81 -96t-45 -120.5t-15.5 -119.5q0 -102 46 -153t125 -51q64 0 116 37.5t81.5 96t45 120.5
t15.5 119q0 103 -46.5 154t-125.5 51z" />
    <glyph glyph-name="P" unicode="P" horiz-adv-x="598" 
d="M239 270l-54 -218h121l-12 -52h-316l12 52h110l136 549h-111l13 52h263q118 0 173 -44t55 -114q0 -97 -77.5 -161t-227.5 -64h-85zM251 319h83q101 0 151 50t50 129q0 49 -32.5 76t-111.5 27h-70z" />
    <glyph glyph-name="Q" unicode="Q" horiz-adv-x="696" 
d="M327 -16q-114 0 -185.5 77.5t-71.5 201.5q0 103 45.5 195.5t127.5 150.5t179 58q114 0 185 -77t71 -201q0 -107 -50 -203.5t-133 -150.5q14 -39 28 -56.5t38 -17.5q26 0 43.5 20.5t40.5 72.5l42 -16q-50 -144 -138 -144q-47 0 -73.5 27.5t-44.5 80.5q-54 -18 -104 -18z
M192 111q4 54 38 89t91 35q64 0 98.5 -37t55.5 -102q54 56 84 145t30 169q0 103 -46.5 154t-125.5 51q-64 0 -115.5 -38t-81 -96t-45 -120.5t-15.5 -119.5q0 -87 32 -130zM337 35q43 0 79 18q-17 64 -40.5 97t-66.5 33q-31 0 -52 -21.5t-21 -52.5t27 -52.5t74 -21.5z" />
    <glyph glyph-name="R" unicode="R" horiz-adv-x="667" 
d="M-22 0l12 52h110l136 549h-111l13 52h294q114 0 162 -41.5t48 -105.5q0 -71 -49.5 -124t-149.5 -64l-2 -5q57 -15 78.5 -41.5t21.5 -71.5q0 -19 -6 -60t-6 -56q0 -42 42 -42q27 0 62 16l13 -32q-54 -37 -115 -37q-42 0 -67 21t-25 64q0 23 10 77.5t10 79.5q0 31 -21 46.5
t-76 15.5h-117l-60 -241h109l-12 -52h-304zM256 341h105q97 0 143 46q21 21 33.5 55.5t12.5 68.5q0 90 -123 90h-106z" />
    <glyph glyph-name="S" unicode="S" horiz-adv-x="561" 
d="M-4 -13l57 233h44q18 -97 68.5 -142.5t122.5 -45.5q61 0 100.5 36.5t39.5 88.5q0 45 -33.5 73t-107.5 63q-39 18 -62.5 32t-50 35.5t-39 49t-12.5 61.5q0 79 62.5 137.5t156.5 58.5q55 0 100 -21.5t70 -55.5l40 74h49l-55 -221h-43q-18 99 -59.5 138t-107.5 39
q-54 0 -92 -34.5t-38 -85.5q0 -17 4 -31t15.5 -26.5t19.5 -20.5t29.5 -20t31 -17t36.5 -18q42 -20 66 -33.5t52 -35.5t40.5 -49.5t12.5 -62.5q0 -84 -67 -143t-163 -59q-126 0 -193 86l-45 -83h-49z" />
    <glyph glyph-name="T" unicode="T" horiz-adv-x="656" 
d="M115 0l12 52h113l139 553h-83q-53 0 -79 -30t-83 -149h-40l57 227h564l-57 -227h-37q4 116 -8 147.5t-66 31.5h-83l-139 -553h115l-12 -52h-313z" />
    <glyph glyph-name="U" unicode="U" horiz-adv-x="722" 
d="M336 -16q-108 0 -166.5 48t-58.5 124q0 38 13 93l87 352h-96l13 52h278l-12 -52h-98l-84 -339q-15 -59 -15 -101q0 -57 40 -88t113 -31q83 0 135 51q42 43 64 126l94 382h-99l12 52h249l-13 -52h-90l-101 -405q-22 -88 -75 -140q-70 -72 -190 -72z" />
    <glyph glyph-name="V" unicode="V" horiz-adv-x="665" 
d="M254 601l58 -507h3l307 507h-88l12 52h226l-12 -52h-70l-379 -605h-66l-76 605h-85l13 52h272l-12 -52h-103z" />
    <glyph glyph-name="W" unicode="W" horiz-adv-x="959" 
d="M568 -4l-27 462l-263 -462h-69l-43 605h-82l13 52h269l-13 -52h-102l28 -499h3l254 446l-2 53h-83l13 52h270l-13 -52h-105l23 -499h3l275 499h-88l13 52h224l-13 -52h-69l-347 -605h-69z" />
    <glyph glyph-name="X" unicode="X" horiz-adv-x="656" 
d="M383 601h-92l85 -220l203 220h-87l12 52h238l-13 -52h-77l-250 -266l116 -283h87l-13 -52h-269l13 52h93l-92 234l-218 -234h86l-13 -52h-236l12 52h78l266 281l-111 268h-87l13 52h269z" />
    <glyph glyph-name="Y" unicode="Y" horiz-adv-x="638" 
d="M364 327l221 274h-81l12 52h221l-12 -52h-75l-276 -332l-56 -217h103l-13 -52h-286l12 52h99l59 230l-96 319h-81l13 52h263l-13 -52h-91z" />
    <glyph glyph-name="Z" unicode="Z" horiz-adv-x="586" 
d="M-17 0l10 37l532 564h-228q-32 0 -49 -10t-39 -44.5t-60 -117.5h-38l55 224h484l-9 -37l-529 -564h247q44 0 68 29t81 150h37l-57 -231h-505z" />
    <glyph glyph-name="bracketleft" unicode="[" horiz-adv-x="338" 
d="M-4 -152l217 872h249l-12 -49h-171l-193 -774h171l-12 -49h-249z" />
    <glyph glyph-name="backslash" unicode="\" horiz-adv-x="418" 
d="M352 -198l-51 -9l-161 901l52 9z" />
    <glyph glyph-name="bracketright" unicode="]" horiz-adv-x="338" 
d="M371 719l-217 -872h-249l12 49h171l193 774h-171l12 49h249z" />
    <glyph glyph-name="asciicircum" unicode="^" horiz-adv-x="333" 
d="M100 512l165 197h40l68 -197h-38l-64 116l-128 -116h-43z" />
    <glyph glyph-name="underscore" unicode="_" horiz-adv-x="440" 
d="M-55 0l13 54h444l-13 -54h-444z" />
    <glyph glyph-name="grave" unicode="`" horiz-adv-x="238" 
d="M231 641l18 -113h-35l-40 80q-29 60 -29 77q0 16 10.5 27t25.5 11q23 0 33 -19.5t17 -62.5z" />
    <glyph glyph-name="a" unicode="a" 
d="M465 452l-79 -290q-15 -56 -15 -82q0 -30 24 -30q36 0 76 111l34 -11q-30 -88 -61.5 -123.5t-69.5 -35.5q-30 0 -49.5 21t-19.5 60q0 4 3 25l-7 3q-65 -109 -148 -109q-54 0 -87 41t-33 110q0 71 27 136t71 109q71 71 143 71q77 0 93 -87l22 81h76zM180 49q41 0 81 47
t62.5 108.5t22.5 109.5q0 40 -17 69.5t-52 29.5q-43 0 -82 -44.5t-61 -105.5t-22 -115q0 -48 18 -73.5t50 -25.5z" />
    <glyph glyph-name="b" unicode="b" horiz-adv-x="475" 
d="M299 402q-42 0 -83 -45.5t-65 -107t-24 -111.5q0 -100 75 -100q46 0 84.5 47t58 108t19.5 113q0 96 -65 96zM264 687l-96 -336l7 -3q66 110 148 110q55 0 88 -42.5t33 -111.5q0 -123 -80 -218t-173 -95q-65 0 -103 38.5t-38 105.5q0 53 28 153l96 345h-93l14 54h169z" />
    <glyph glyph-name="c" unicode="c" horiz-adv-x="433" 
d="M287 458q54 0 90 -28t36 -71q0 -27 -15 -48.5t-39 -21.5q-20 0 -33 12.5t-13 31.5q0 34 33 61q-21 24 -61 24q-51 0 -92.5 -43.5t-61.5 -99.5t-20 -106q0 -63 27 -95.5t70 -32.5q75 0 134 105l32 -19q-72 -136 -181 -136q-73 0 -117.5 50t-44.5 129q0 108 78 198t178 90z
" />
    <glyph glyph-name="d" unicode="d" 
d="M180 49q41 0 81.5 48t63.5 111t23 113q0 92 -71 92q-46 0 -85 -45t-59.5 -105.5t-20.5 -114.5q0 -48 18 -73.5t50 -25.5zM471 161l34 -11q-30 -88 -61.5 -123.5t-69.5 -35.5q-30 0 -49.5 21t-19.5 60q0 4 3 25l-7 3q-65 -109 -148 -109q-54 0 -87 41t-33 110
q0 72 26.5 136.5t70.5 108.5q71 71 144 71q77 0 95 -79l69 254h-94l15 54h169l-142 -525q-15 -56 -15 -82q0 -30 24 -30q36 0 76 111z" />
    <glyph glyph-name="e" unicode="e" horiz-adv-x="435" 
d="M414 366q0 -69 -76 -117.5t-225 -64.5q-2 -10 -2 -29q0 -59 25.5 -88t68.5 -29q79 0 148 101l31 -20q-84 -128 -200 -128q-68 0 -110.5 45.5t-42.5 122.5q0 113 86 206t186 93q52 0 81.5 -26t29.5 -66zM288 418q-56 0 -102.5 -60t-65.5 -137q222 30 222 143
q0 24 -14.5 39t-39.5 15z" />
    <glyph glyph-name="f" unicode="f" horiz-adv-x="323" 
d="M-24 -163q-33 0 -50.5 16t-17.5 39t14.5 39.5t36.5 16.5q19 0 29.5 -11.5t10.5 -27.5q0 -24 -13 -37q27 0 43 32.5t39 142.5l74 351h-98l12 44h95q25 124 79.5 186.5t127.5 63.5q47 1 73.5 -21t26.5 -53q0 -29 -16 -50t-40 -21q-19 0 -30.5 11.5t-11.5 31.5q0 34 24 55
q-10 8 -29 8q-49 0 -74.5 -42.5t-45.5 -134.5l-8 -34h127l-12 -44h-123l-68 -323q-50 -238 -175 -238z" />
    <glyph glyph-name="g" unicode="g" horiz-adv-x="481" 
d="M66 -106q21 -15 67 -15q58 0 97 39q44 46 73 174l-7 3q-57 -74 -133 -74q-57 0 -92 41t-35 104q0 64 25 125t69 104q61 63 135 63q38 0 65.5 -22t37.5 -62l20 78h76l-87 -363q-30 -130 -89 -191t-155 -61q-57 0 -100.5 20.5t-43.5 65.5q0 25 15.5 45t40.5 20q21 0 33 -13
t12 -32q0 -30 -24 -49zM193 75q62 0 109 75t47 164q0 41 -22.5 70t-57.5 29q-63 0 -108 -78.5t-45 -159.5q0 -100 77 -100z" />
    <glyph glyph-name="h" unicode="h" horiz-adv-x="527" 
d="M377 -9q-32 0 -52.5 23t-19.5 65q0 48 35.5 143t35.5 133q0 40 -35 40q-51 0 -119 -98.5t-122 -296.5h-81l167 633h-93l14 54h170l-122 -434l6 -3q48 100 103.5 154t106.5 54q37 0 60 -27.5t23 -72.5q0 -44 -37.5 -147t-37.5 -136q0 -25 20 -25q33 0 75 111l34 -11
q-53 -159 -131 -159z" />
    <glyph glyph-name="i" unicode="i" horiz-adv-x="318" 
d="M293 609q0 -25 -17.5 -47t-45.5 -22q-19 0 -32 13t-13 35q0 26 17 48t44 22q21 0 34 -13.5t13 -35.5zM240 362q0 -44 -42 -149.5t-42 -136.5q0 -26 23 -26q34 0 77 111l34 -11q-54 -159 -134 -159q-34 0 -54.5 22.5t-20.5 63.5q1 48 44 155.5t43 146.5q0 28 -19 28
q-22 0 -43 -28.5t-50 -84.5l-34 16q34 73 68 110.5t75 37.5q34 0 54.5 -25.5t20.5 -70.5z" />
    <glyph glyph-name="j" unicode="j" horiz-adv-x="278" 
d="M293 609q0 -25 -18 -47t-45 -22q-19 0 -32 13t-13 35q0 26 17 48t44 22q21 0 34 -13.5t13 -35.5zM239 371q0 -28 -13 -82l-61 -230q-59 -222 -179 -222q-37 0 -55 15.5t-18 39.5q0 23 14.5 39.5t36.5 16.5q20 0 30 -11.5t10 -27.5q0 -22 -13 -40q26 0 45.5 30.5
t45.5 131.5l74 282q11 42 11 64q0 30 -20 30q-34 0 -91 -113l-34 16q34 73 68.5 110.5t75.5 37.5q32 0 52.5 -24t20.5 -63z" />
    <glyph glyph-name="k" unicode="k" horiz-adv-x="486" 
d="M328 83q0 -33 22 -33q34 0 74 111l34 -11q-52 -159 -129 -159q-32 0 -53.5 24t-20.5 69q0 16 4.5 49t4.5 42q0 30 -17.5 41t-69.5 11h-23l-61 -227h-74l167 633h-93l14 54h170l-114 -426h14q37 0 61.5 21.5t57.5 75.5q30 52 56 76t62 24q30 0 46 -15.5t16 -43.5
t-15.5 -47.5t-37.5 -19.5q-26 0 -36.5 21.5t2.5 49.5q-26 -2 -65 -70q-37 -64 -80 -83q92 -6 92 -80q0 -16 -4 -45.5t-4 -41.5z" />
    <glyph glyph-name="l" unicode="l" horiz-adv-x="268" 
d="M40 76q0 37 24 127l117 430h-94l15 54h169l-142 -525q-15 -56 -15 -82q0 -30 23 -30q37 0 77 111l34 -11q-30 -89 -61.5 -124t-70.5 -35q-36 0 -56 22.5t-20 62.5z" />
    <glyph glyph-name="m" unicode="m" horiz-adv-x="822" 
d="M672 -9q-32 0 -52.5 23t-19.5 65q0 48 35.5 143t35.5 133q0 40 -35 40q-50 0 -114 -97.5t-118 -297.5h-80l44 163q42 155 42 183q0 49 -37 49q-50 0 -113.5 -97.5t-118.5 -297.5h-81l84 315q10 37 11 58t-4 27.5t-15 6.5q-19 0 -38.5 -28t-47.5 -85l-34 16
q33 73 65.5 109.5t71.5 36.5q63 0 63 -82q0 -49 -22 -117l7 -3q97 204 201 204q37 0 58 -25t21 -67t-24 -109l7 -3q97 204 202 204q37 0 60 -27.5t23 -72.5q0 -44 -37.5 -147t-37.5 -136q0 -25 20 -25q33 0 75 111l34 -11q-30 -88 -62.5 -123.5t-68.5 -35.5z" />
    <glyph glyph-name="n" unicode="n" horiz-adv-x="559" 
d="M411 75q0 -25 20 -25q34 0 74 111l35 -11q-30 -88 -62.5 -123.5t-68.5 -35.5q-32 0 -52.5 23t-20.5 65q1 48 36 142.5t35 133.5q0 40 -34 40q-50 0 -113.5 -97.5t-118.5 -297.5h-81l84 315q10 37 11 58t-4 27.5t-15 6.5q-19 0 -38.5 -28t-47.5 -85l-34 16
q33 73 65.5 109.5t71.5 36.5q63 0 63 -82q0 -49 -22 -117l7 -3q97 204 201 204q37 0 60 -27.5t23 -72.5q0 -44 -37 -147t-37 -136z" />
    <glyph glyph-name="o" unicode="o" horiz-adv-x="473" 
d="M274 458q77 0 121.5 -51.5t44.5 -133.5q0 -113 -71.5 -197.5t-168.5 -84.5q-78 0 -122 51.5t-44 133.5q0 113 71.5 197.5t168.5 84.5zM361 306q0 56 -23.5 84t-63.5 28q-48 0 -86.5 -46.5t-56.5 -108t-18 -119.5q0 -56 23.5 -84t62.5 -28q48 0 86.5 46.5t57 108
t18.5 119.5z" />
    <glyph glyph-name="p" unicode="p" horiz-adv-x="524" 
d="M346 402q-62 0 -117 -93.5t-55 -170.5q0 -40 20 -67t59 -27q45 0 82.5 45.5t56.5 105.5t19 112q0 95 -65 95zM143 311q24 87 -10 87q-19 0 -36 -22.5t-47 -81.5l-34 16q34 76 66.5 111t71.5 35q31 0 47 -21t16 -56q0 -16 -2 -28l7 -3q66 110 148 110q54 0 87.5 -42
t33.5 -111q0 -120 -72 -213t-159 -93q-37 0 -66.5 19t-39.5 51l-45 -167h100l-15 -52h-248l14 52h74z" />
    <glyph glyph-name="q" unicode="q" horiz-adv-x="479" 
d="M467 452l-148 -550h89l-14 -52h-248l14 52h84l53 190l-7 3q-58 -95 -137 -95q-55 0 -87.5 42.5t-32.5 111.5q0 67 26 128t70 105q71 71 146 71q37 0 62.5 -22t32.5 -61l21 77h76zM178 56q42 0 82.5 45.5t64.5 106.5t24 110q0 43 -18 69t-54 26q-67 0 -116 -88t-49 -172
q0 -97 66 -97z" />
    <glyph glyph-name="r" unicode="r" horiz-adv-x="423" 
d="M60 0l84 315q10 37 11 58t-4 27.5t-15 6.5q-19 0 -38.5 -28t-47.5 -85l-34 16q33 73 65.5 109.5t71.5 36.5q63 0 63 -82q0 -49 -22 -117l8 -3q50 105 89 154.5t81 49.5q26 0 41.5 -15.5t15.5 -42.5q0 -29 -16 -50t-39 -21q-21 0 -32.5 15.5t-9.5 41.5q-36 -17 -91 -118.5
t-100 -267.5h-81z" />
    <glyph glyph-name="s" unicode="s" horiz-adv-x="414" 
d="M353 137q0 -68 -49.5 -107t-119.5 -39q-63 0 -115 29t-52 77q0 25 15 44t39 19q20 0 31.5 -13t11.5 -32q0 -34 -25 -51q29 -34 95 -34q43 0 69.5 22t26.5 60q0 27 -20.5 44.5t-74.5 42.5q-25 11 -39 19t-32 22t-26.5 33t-8.5 42q0 67 50 105t117 38q62 0 105.5 -26
t43.5 -68q0 -25 -13.5 -43t-36.5 -18q-20 0 -32 12t-12 31q0 31 25 49q-9 10 -32 17.5t-48 7.5q-42 0 -68 -21t-26 -56q0 -27 20.5 -46t70.5 -41q55 -24 82.5 -49.5t27.5 -69.5z" />
    <glyph glyph-name="t" unicode="t" horiz-adv-x="352" 
d="M351 398h-136l-65 -236q-13 -51 -13 -71q0 -39 37 -39q49 0 103 117l35 -11q-63 -167 -160 -167q-45 0 -69 24t-24 63q0 26 18 98l61 222h-91l11 44h91l34 125l80 10l-37 -135h137z" />
    <glyph glyph-name="u" unicode="u" horiz-adv-x="555" 
d="M414 -9q-70 0 -70 85q0 45 22 115l-7 3q-97 -203 -199 -203q-38 0 -60.5 27t-22.5 73q0 44 36.5 148t36.5 135q0 25 -19 25q-18 0 -35 -23.5t-45 -80.5l-34 16q35 75 66 111t72 36q32 0 51.5 -22.5t18.5 -64.5q0 -47 -35 -142t-35 -132q0 -43 35 -43q49 0 112 97.5
t118 300.5h82l-78 -290q-15 -57 -15 -82q0 -30 24 -30q20 0 37.5 27.5t38.5 83.5l34 -11q-53 -159 -129 -159z" />
    <glyph glyph-name="v" unicode="v" horiz-adv-x="469" 
d="M157 458q34 0 53.5 -22.5t18.5 -63.5q0 -47 -39 -144t-39 -124q0 -28 18.5 -41.5t45.5 -13.5q50 0 93.5 51.5t67 119.5t25.5 130q-12 -6 -22 -6q-22 0 -35 13.5t-13 36.5q0 27 16 47t41 20q59 0 59 -92q0 -53 -19 -118t-51 -124t-82 -99t-105 -40q-54 0 -85.5 29.5
t-31.5 76.5q0 41 40.5 145t40.5 134q0 26 -20 26q-19 0 -35.5 -23.5t-45.5 -81.5l-34 16q35 76 66 112t72 36z" />
    <glyph glyph-name="w" unicode="w" horiz-adv-x="693" 
d="M159 458q34 0 53.5 -22.5t18.5 -63.5q-1 -49 -42.5 -145.5t-41.5 -130.5q0 -47 41 -47q105 0 205 403h73l-51 -212q-19 -76 -19 -121q0 -70 52 -70q44 0 84.5 50t63.5 118.5t25 131.5q-15 -5 -21 -5q-22 0 -34.5 13.5t-12.5 36.5q0 26 16 46.5t40 20.5q28 0 43.5 -22.5
t15.5 -64.5q0 -74 -29 -161.5t-86.5 -156t-125.5 -68.5q-51 0 -75 33t-23 87q0 25 3 46l-7 2q-61 -168 -159 -168q-44 0 -71 28t-27 74q0 45 44 147.5t44 136.5q0 25 -21 25q-18 0 -34.5 -23.5t-45.5 -81.5l-34 16q35 76 66 112t72 36z" />
    <glyph glyph-name="x" unicode="x" horiz-adv-x="515" 
d="M290 148q0 -102 50 -102q26 0 47 27.5t44 84.5l34 -15q-53 -153 -141 -153q-98 0 -95 155h-6q-32 -78 -72.5 -117.5t-83.5 -39.5q-29 0 -45.5 16.5t-16.5 43.5t14.5 46t35.5 19q22 0 33 -17.5t7 -48.5q50 16 88.5 99t38.5 155q0 101 -50 101q-26 0 -47 -27.5t-43 -84.5
l-35 15q53 153 141 153q98 0 95 -155h6q32 78 72.5 117.5t83.5 39.5q29 0 46 -16.5t17 -43.5t-15 -46t-36 -19q-22 0 -33 17.5t-7 48.5q-50 -16 -88.5 -98.5t-38.5 -154.5z" />
    <glyph glyph-name="y" unicode="y" 
d="M156 458q32 0 51.5 -23t18.5 -63q0 -47 -31.5 -130.5t-31.5 -114.5q0 -43 40 -43q54 0 115 86.5t107 281.5h76l-81 -344q-34 -143 -97.5 -207t-158.5 -64q-52 0 -90.5 19.5t-38.5 61.5q0 23 16 42.5t40 19.5q22 0 34 -13.5t11 -33.5q-2 -27 -22 -42q22 -12 52 -12
q69 0 114.5 60.5t75.5 196.5l8 38l-6 3q-90 -156 -183 -156q-41 0 -65.5 26.5t-24.5 71.5q0 39 33 131.5t33 123.5q0 25 -18 25q-19 0 -37.5 -26t-43.5 -79l-34 16q34 75 66 111.5t72 36.5z" />
    <glyph glyph-name="z" unicode="z" horiz-adv-x="428" 
d="M101 113q29 -5 79 -25.5t75 -20.5q36 0 55.5 22.5t51.5 91.5l34 -16q-33 -90 -68.5 -132t-94.5 -42q-64 0 -123 72l-26 32l-9 -2q-9 -102 -58 -102q-16 0 -27.5 10t-11.5 26q0 51 76 78q50 65 127.5 129t143.5 102q-29 5 -78.5 25.5t-73.5 20.5q-35 0 -54 -22t-51 -92
l-35 16q34 91 69 132.5t93 41.5q64 0 121 -73l26 -31l9 2q10 102 58 102q17 0 28 -10t11 -26q0 -52 -76 -78q-50 -65 -127 -129t-144 -102z" />
    <glyph glyph-name="braceleft" unicode="{" horiz-adv-x="388" 
d="M289 -153q-169 29 -169 138q0 40 25.5 116t25.5 98q0 61 -110 61h-35l12 48h30q84 0 125 40q24 25 35 69t12 85t14.5 88t42.5 76q64 64 203 55l-12 -45q-88 0 -124 -36q-22 -22 -33.5 -65t-14.5 -84t-16.5 -86t-39.5 -70q-41 -41 -117 -50l-1 -3q99 -18 99 -94
q0 -29 -22.5 -101.5t-22.5 -102.5q0 -70 105 -91z" />
    <glyph glyph-name="bar" unicode="|" horiz-adv-x="277" 
d="M5 -199l226 902l53 -8l-226 -901z" />
    <glyph glyph-name="braceright" unicode="}" horiz-adv-x="388" 
d="M111 721q169 -29 169 -138q0 -40 -25.5 -116t-25.5 -98q0 -61 110 -61h35l-12 -48h-30q-84 0 -125 -40q-24 -25 -35 -69t-12 -85t-14.5 -88t-42.5 -76q-64 -64 -203 -55l12 45q88 0 124 36q22 22 33.5 65t14.5 84t16.5 86t39.5 70q41 41 117 50l1 3q-99 18 -99 94
q0 29 22.5 101.5t22.5 102.5q0 70 -105 91z" />
    <glyph glyph-name="asciitilde" unicode="~" horiz-adv-x="371" 
d="M144 317q-17 0 -29.5 -15.5t-29.5 -49.5h-40q24 65 50 94t61 29q33 0 69 -30t50 -30q17 0 30.5 15.5t29.5 49.5h39q-24 -65 -50 -94t-62 -29q-32 0 -68 30t-50 30z" />
    <glyph glyph-name="uni00A0" unicode="&#xa0;" horiz-adv-x="174" 
 />
    <glyph glyph-name="exclamdown" unicode="&#xa1;" horiz-adv-x="266" 
d="M213 474q-19 -93 -42 -247t-33 -191q-12 -52 -54 -52q-23 0 -35.5 13t-12.5 34q0 6 1.5 14t4.5 20t6.5 22.5l10 30t12 35t15.5 43.5t18 50q42 122 77 235zM235 678q21 0 35.5 -15.5t14.5 -39.5t-16 -43.5t-40 -19.5q-22 0 -36.5 15.5t-14.5 39.5t16 43.5t41 19.5z" />
    <glyph glyph-name="cent" unicode="&#xa2;" horiz-adv-x="454" 
d="M298 543l43 -8l-18 -79q55 -6 87.5 -34.5t32.5 -68.5q0 -27 -15 -48.5t-39 -21.5q-20 0 -33 12.5t-13 31.5q0 34 33 61q-20 26 -65 29l-95 -376h6q84 0 144 105l32 -19q-36 -66 -80 -101t-111 -35h-4l-23 -95l-43 8l23 92q-59 13 -91.5 59t-32.5 115q0 105 70.5 191
t171.5 96zM116 169q0 -96 60 -120l91 365q-47 -12 -83 -55.5t-52 -93.5t-16 -96z" />
    <glyph glyph-name="sterling" unicode="&#xa3;" horiz-adv-x="583" 
d="M470 285h-175q0 -79 -54 -152q18 -7 64 -30q76 -40 102 -40q29 0 48 22.5t40 77.5l38 -9q-25 -92 -57.5 -130.5t-83.5 -38.5q-29 0 -58.5 11.5t-45.5 21.5t-45 32q-6 4 -18 13t-18 13q-28 -48 -53.5 -69t-60.5 -21t-58 20.5t-23 55.5q0 38 32 66t86 28q35 0 72 -10
q19 45 19 88q0 26 -6 51h-147l13 51h123q-8 34 -8 70q0 105 68.5 171t161.5 66q81 0 125 -37.5t44 -88.5q0 -34 -19 -59t-50 -25q-24 0 -39 14.5t-15 39.5q0 21 13 38t36 25q-23 45 -94 45q-66 0 -105 -45.5t-39 -128.5q0 -35 8 -85h191zM99 30q38 0 76 64q-30 15 -58 15
q-26 0 -40.5 -13.5t-14.5 -31.5q0 -34 37 -34z" />
    <glyph glyph-name="yen" unicode="&#xa5;" horiz-adv-x="655" 
d="M120 312h161l-82 266h-81l13 51h262l-13 -51h-88l74 -257l207 257h-82l13 51h218l-13 -51h-73l-221 -266h154l-12 -50h-183l-17 -67h185l-12 -50h-185l-23 -93h120l-13 -52h-319l13 52h120l23 93h-185l12 50h185l17 67h-187z" />
    <glyph glyph-name="section" unicode="&#xa7;" horiz-adv-x="496" 
d="M457 271q0 -53 -39.5 -89.5t-107.5 -48.5q73 -49 74 -108q1 -60 -51 -101.5t-126 -41.5q-72 0 -130 33t-58 87q0 29 17 49.5t42 20.5q22 0 34.5 -13t12.5 -31q0 -41 -33 -60q37 -43 116 -43q48 0 74.5 23.5t25.5 58.5q-1 28 -25 51.5t-80 56.5q-69 40 -97.5 70t-28.5 73
q0 52 40 88.5t108 47.5q-65 46 -65 107t51.5 102t124.5 41q70 0 119.5 -30.5t49.5 -80.5q0 -28 -17 -48.5t-41 -20.5q-21 0 -33.5 14t-12.5 32q0 33 32 56q-28 35 -99 35q-45 0 -71.5 -23t-26.5 -58q0 -29 23.5 -54t75.5 -56q66 -39 94 -68.5t28 -70.5zM299 348l-37 21
q-51 -8 -78.5 -34t-27.5 -63q0 -48 79 -93l37 -21q52 8 79 34t27 63q0 47 -79 93z" />
    <glyph glyph-name="dieresis" unicode="&#xa8;" horiz-adv-x="322" 
d="M222 615q0 -25 -16.5 -44.5t-40.5 -19.5q-19 0 -30.5 13t-11.5 34q0 25 16 44.5t40 19.5q19 0 31 -13t12 -34zM396 615q0 -25 -16.5 -44.5t-41.5 -19.5q-19 0 -30.5 13t-11.5 34q0 25 16 44.5t40 19.5q20 0 32 -13t12 -34z" />
    <glyph glyph-name="copyright" unicode="&#xa9;" horiz-adv-x="787" 
d="M426 -32q-151 0 -255 104.5t-104 257.5q0 152 104 256t255 104q152 0 256 -104t104 -256q0 -153 -104 -257.5t-256 -104.5zM426 2q136 0 228.5 95t92.5 233q0 137 -93 231.5t-228 94.5q-134 0 -227 -94.5t-93 -231.5q0 -138 93 -233t227 -95zM428 143q-75 0 -123 54
t-48 137q0 80 50.5 134t122.5 54q65 0 102 -44l11 43h35v-136h-31q-36 102 -114 102q-53 0 -83.5 -39t-30.5 -111q0 -76 31 -116.5t87 -40.5q48 0 76 30.5t35 83.5h36q-8 -72 -49.5 -111.5t-106.5 -39.5z" />
    <glyph glyph-name="ordfeminine" unicode="&#xaa;" horiz-adv-x="400" 
d="M351 642h57l-58 -211q-10 -36 -10 -58q0 -23 16 -23q26 0 56 82l28 -9q-23 -64 -46.5 -89.5t-52.5 -25.5q-23 0 -37.5 15t-14.5 43q0 3 0.5 8t0.5 7l-5 2q-45 -75 -109 -75q-40 0 -64.5 30t-24.5 79q0 103 72 175q54 54 109 54q56 0 67 -62zM197 352q46 0 84 67.5
t38 126.5q0 26 -12 45t-38 19q-47 0 -84.5 -63t-37.5 -124q0 -71 50 -71z" />
    <glyph glyph-name="guillemotleft" unicode="&#xab;" horiz-adv-x="492" 
d="M171 32l-112 157q-17 24 -17 36q0 14 37 44l187 148l25 -25l-169 -172l84 -168zM365 32l-112 157q-17 24 -17 36q0 14 37 44l187 148l25 -25l-169 -172l84 -168z" />
    <glyph glyph-name="registered" unicode="&#xae;" horiz-adv-x="517" 
d="M322 248q-94 0 -157.5 63.5t-63.5 158.5t63.5 157.5t157.5 62.5q95 0 158.5 -62.5t63.5 -157.5t-63.5 -158.5t-158.5 -63.5zM322 276q86 0 138 53.5t52 140.5q0 86 -52 139t-138 53q-85 0 -136.5 -53t-51.5 -139q0 -87 52 -140.5t136 -53.5zM292 459v-77h36v-23h-111v23
h36v181h-36v24h115q47 0 68 -17.5t21 -42.5q0 -20 -15.5 -35.5t-48.5 -19.5v-3q48 -8 53 -49l2 -23q1 -17 11 -17q9 0 15 18l16 -6q-12 -38 -42 -38q-39 0 -42 47l-1 22q-1 36 -40 36h-37zM292 481h36q49 0 49 43q0 39 -46 39h-39v-82z" />
    <glyph glyph-name="macron" unicode="&#xaf;" horiz-adv-x="321" 
d="M118 546l16 63h251l-16 -63h-251z" />
    <glyph glyph-name="degree" unicode="&#xb0;" horiz-adv-x="388" 
d="M247 394q49 0 80.5 42.5t31.5 99.5q0 41 -21.5 63.5t-58.5 22.5q-49 0 -80.5 -42.5t-31.5 -99.5q0 -41 21.5 -63.5t58.5 -22.5zM420 533q0 -74 -50 -129t-125 -55q-65 0 -102 39t-37 95q0 74 50 129t125 55q65 0 102 -39t37 -95z" />
    <glyph glyph-name="plusminus" unicode="&#xb1;" horiz-adv-x="539" 
d="M230 159l41 165h-160l11 44h160l40 164h50l-41 -164h159l-11 -44h-159l-41 -165h-49zM407 29h-371l11 46h371z" />
    <glyph glyph-name="acute" unicode="&#xb4;" horiz-adv-x="238" 
d="M265 611l-92 -83h-40l81 125q27 41 41 55.5t32 14.5q15 0 25 -10.5t10 -25.5q0 -17 -11 -30t-46 -46z" />
    <glyph glyph-name="paragraph" unicode="&#xb6;" horiz-adv-x="637" 
d="M236 -104l68 274q-105 9 -158 57.5t-53 121.5q0 108 80.5 182.5t244.5 74.5h276l-12 -51h-93l-165 -659h-55l165 659h-78l-165 -659h-55z" />
    <glyph glyph-name="periodcentered" unicode="&#xb7;" horiz-adv-x="214" 
d="M127 263q-21 0 -35.5 15.5t-14.5 39.5t16 43.5t40 19.5q22 0 36.5 -15.5t14.5 -39.5t-16 -43.5t-41 -19.5z" />
    <glyph glyph-name="cedilla" unicode="&#xb8;" horiz-adv-x="282" 
d="M-63 -166q41 -31 80 -31q23 0 38.5 12.5t15.5 34.5q0 27 -28.5 36t-64.5 5l-10 20l115 96h53l-92 -75v-3q38 -5 61 -24t23 -50q0 -39 -30 -66t-78 -27q-62 0 -107 42z" />
    <glyph glyph-name="ordmasculine" unicode="&#xba;" horiz-adv-x="381" 
d="M272 646q58 0 92 -37.5t34 -97.5q0 -82 -51 -142.5t-124 -60.5q-58 0 -92 37.5t-34 97.5q0 82 51 142.5t124 60.5zM339 532q0 82 -64 82q-54 0 -86.5 -63t-32.5 -129q0 -82 64 -82q54 0 86.5 63t32.5 129z" />
    <glyph glyph-name="guillemotright" unicode="&#xbb;" horiz-adv-x="492" 
d="M320 416l112 -157q17 -24 17 -36q0 -14 -37 -44l-187 -148l-25 25l169 172l-84 168zM126 416l112 -157q17 -24 17 -36q0 -14 -37 -44l-187 -148l-25 25l169 172l-84 168z" />
    <glyph glyph-name="questiondown" unicode="&#xbf;" horiz-adv-x="419" 
d="M134 409q52 77 130 77q44 0 72 -25t28 -66q0 -43 -31.5 -73t-102.5 -64q-78 -38 -110 -67t-32 -76q0 -36 24.5 -61t77.5 -25q59 0 93 32q-23 20 -23 48q0 26 16 44.5t41 18.5q23 0 38.5 -16t15.5 -42q0 -51 -53.5 -90.5t-133.5 -39.5q-87 0 -133.5 43.5t-46.5 102.5
q0 62 42.5 100.5t133.5 79.5q64 29 89 46.5t24 45.5q0 18 -12 29t-31 11q-44 0 -88 -53zM319 678q22 0 36.5 -15.5t14.5 -39.5t-16.5 -43.5t-40.5 -19.5q-22 0 -36.5 15.5t-14.5 39.5t16.5 43.5t40.5 19.5z" />
    <glyph glyph-name="Agrave" unicode="&#xc0;" horiz-adv-x="664" 
d="M358 52h103l-20 183h-235l-109 -183h88l-13 -52h-226l13 52h70l374 605h73l70 -605h85l-13 -52h-273zM234 282h202l-29 284h-3zM447 851l18 -113h-35l-40 80q-29 60 -29 77q0 16 10.5 27t25.5 11q23 0 33 -19.5t17 -62.5z" />
    <glyph glyph-name="Aacute" unicode="&#xc1;" horiz-adv-x="664" 
d="M358 52h103l-20 183h-235l-109 -183h88l-13 -52h-226l13 52h70l374 605h73l70 -605h85l-13 -52h-273zM234 282h202l-29 284h-3zM554 821l-92 -83h-40l81 125q27 41 41 55.5t32 14.5q15 0 25 -10.5t10 -25.5q0 -17 -11 -30t-46 -46z" />
    <glyph glyph-name="Acircumflex" unicode="&#xc2;" horiz-adv-x="664" 
d="M358 52h103l-20 183h-235l-109 -183h88l-13 -52h-226l13 52h70l374 605h73l70 -605h85l-13 -52h-273zM234 282h202l-29 284h-3zM323 739l154 180h37l63 -180h-37l-59 101l-116 -101h-42z" />
    <glyph glyph-name="Atilde" unicode="&#xc3;" horiz-adv-x="664" 
d="M358 52h103l-20 183h-235l-109 -183h88l-13 -52h-226l13 52h70l374 605h73l70 -605h85l-13 -52h-273zM234 282h202l-29 284h-3zM410 808q-17 0 -29 -15t-28 -50h-39q21 64 46.5 94t61.5 30q33 0 69.5 -30.5t50.5 -30.5q17 0 30 15.5t27 49.5h39q-21 -64 -46.5 -94
t-61.5 -30q-32 0 -68.5 30.5t-51.5 30.5z" />
    <glyph glyph-name="Adieresis" unicode="&#xc4;" horiz-adv-x="664" 
d="M358 52h103l-20 183h-235l-109 -183h88l-13 -52h-226l13 52h70l374 605h73l70 -605h85l-13 -52h-273zM234 282h202l-29 284h-3zM436 825q0 -25 -16.5 -44.5t-40.5 -19.5q-19 0 -30.5 13t-11.5 34q0 25 16 44.5t40 19.5q19 0 31 -13t12 -34zM610 825q0 -25 -16.5 -44.5
t-41.5 -19.5q-19 0 -30.5 13t-11.5 34q0 25 16 44.5t40 19.5q20 0 32 -13t12 -34z" />
    <glyph glyph-name="Aring" unicode="&#xc5;" horiz-adv-x="664" 
d="M563 762q0 -39 -23.5 -70.5t-63.5 -40.5l70 -599h85l-13 -52h-273l13 52h103l-20 183h-235l-109 -183h88l-13 -52h-226l13 52h70l373 604q-46 23 -46 77q0 46 32 80.5t83 34.5q41 0 66.5 -23.5t25.5 -62.5zM234 282h202l-29 284h-3zM401 731q0 -24 13.5 -38t36.5 -14
q30 0 48.5 26.5t18.5 58.5q0 24 -13 38t-37 14q-30 0 -48.5 -26.5t-18.5 -58.5z" />
    <glyph glyph-name="AE" unicode="&#xc6;" horiz-adv-x="953" 
d="M298 52h110l48 193h-210l-158 -193h90l-12 -52h-239l12 52h76l455 549h-100l12 52h611l-50 -205h-40q5 102 -5.5 127.5t-59.5 25.5h-209l-60 -243h86q45 0 62.5 16.5t45.5 83.5h41l-62 -249h-40q7 70 -1.5 87t-51.5 17h-91l-65 -261h206q55 0 80 29t75 143h41l-56 -224
h-553zM284 292h183l78 312h-6z" />
    <glyph glyph-name="Ccedilla" unicode="&#xc7;" horiz-adv-x="659" 
d="M172 -166q41 -31 80 -31q23 0 38.5 12.5t15.5 34.5q0 27 -28.5 36t-64.5 5l-10 20l90 76q-110 9 -167 81.5t-57 181.5q0 166 106.5 292t255.5 126q121 0 178 -81l38 78h53l-60 -244h-46q-9 193 -166 193q-83 0 -146.5 -58.5t-93 -140t-29.5 -166.5q0 -99 46 -153.5
t128 -54.5q81 0 136 56t100 154l48 -20q-92 -231 -272 -245l-66 -54v-3q38 -5 61 -24t23 -50q0 -39 -30 -66t-78 -27q-62 0 -107 42z" />
    <glyph glyph-name="Egrave" unicode="&#xc8;" horiz-adv-x="645" 
d="M138 653h547l-50 -205h-40q5 102 -5.5 127.5t-59.5 25.5h-209l-60 -243h86q45 0 62.5 16.5t45.5 83.5h41l-62 -249h-40q8 70 -0.5 87t-52.5 17h-91l-65 -261h206q55 0 80 29t75 143h41l-55 -224h-554l12 52h110l136 549h-111zM453 851l18 -113h-35l-40 80q-29 60 -29 77
q0 16 10.5 27t25.5 11q23 0 33 -19.5t17 -62.5z" />
    <glyph glyph-name="Eacute" unicode="&#xc9;" horiz-adv-x="645" 
d="M560 821l-92 -83h-40l81 125q27 41 41 55.5t32 14.5q15 0 25 -10.5t10 -25.5q0 -17 -11 -30t-46 -46zM138 653h547l-50 -205h-40q5 102 -5.5 127.5t-59.5 25.5h-209l-60 -243h86q45 0 62.5 16.5t45.5 83.5h41l-62 -249h-40q8 70 -0.5 87t-52.5 17h-91l-65 -261h206
q55 0 80 29t75 143h41l-55 -224h-554l12 52h110l136 549h-111z" />
    <glyph glyph-name="Ecircumflex" unicode="&#xca;" horiz-adv-x="645" 
d="M328 739l154 180h37l63 -180h-37l-59 101l-116 -101h-42zM138 653h547l-50 -205h-40q5 102 -5.5 127.5t-59.5 25.5h-209l-60 -243h86q45 0 62.5 16.5t45.5 83.5h41l-62 -249h-40q8 70 -0.5 87t-52.5 17h-91l-65 -261h206q55 0 80 29t75 143h41l-55 -224h-554l12 52h110
l136 549h-111z" />
    <glyph glyph-name="Edieresis" unicode="&#xcb;" horiz-adv-x="645" 
d="M441 825q0 -25 -16.5 -44.5t-40.5 -19.5q-19 0 -30.5 13t-11.5 34q0 25 16 44.5t40 19.5q19 0 31 -13t12 -34zM615 825q0 -25 -16.5 -44.5t-41.5 -19.5q-19 0 -30.5 13t-11.5 34q0 25 16 44.5t40 19.5q20 0 32 -13t12 -34zM138 653h547l-50 -205h-40q5 102 -5.5 127.5
t-59.5 25.5h-209l-60 -243h86q45 0 62.5 16.5t45.5 83.5h41l-62 -249h-40q8 70 -0.5 87t-52.5 17h-91l-65 -261h206q55 0 80 29t75 143h41l-55 -224h-554l12 52h110l136 549h-111z" />
    <glyph glyph-name="Igrave" unicode="&#xcc;" horiz-adv-x="384" 
d="M-15 0l12 52h110l136 549h-111l12 52h306l-13 -52h-109l-137 -549h112l-12 -52h-306zM307 851l18 -113h-35l-40 80q-29 60 -29 77q0 16 10.5 27t25.5 11q23 0 33 -19.5t17 -62.5z" />
    <glyph glyph-name="Iacute" unicode="&#xcd;" horiz-adv-x="384" 
d="M-15 0l12 52h110l136 549h-111l12 52h306l-13 -52h-109l-137 -549h112l-12 -52h-306zM415 821l-92 -83h-40l81 125q27 41 41 55.5t32 14.5q15 0 25 -10.5t10 -25.5q0 -17 -11 -30t-46 -46z" />
    <glyph glyph-name="Icircumflex" unicode="&#xce;" horiz-adv-x="384" 
d="M-15 0l12 52h110l136 549h-111l12 52h306l-13 -52h-109l-137 -549h112l-12 -52h-306zM183 739l154 180h37l63 -180h-37l-59 101l-116 -101h-42z" />
    <glyph glyph-name="Idieresis" unicode="&#xcf;" horiz-adv-x="384" 
d="M-15 0l12 52h110l136 549h-111l12 52h306l-13 -52h-109l-137 -549h112l-12 -52h-306zM296 825q0 -25 -16.5 -44.5t-40.5 -19.5q-19 0 -30.5 13t-11.5 34q0 25 16 44.5t40 19.5q19 0 31 -13t12 -34zM470 825q0 -25 -16.5 -44.5t-41.5 -19.5q-19 0 -30.5 13t-11.5 34
q0 25 16 44.5t40 19.5q20 0 32 -13t12 -34z" />
    <glyph glyph-name="Eth" unicode="&#xd0;" horiz-adv-x="690" 
d="M-22 0l12 52h110l65 263h-110l14 52h109l58 234h-111l13 52h248q146 0 222 -68.5t76 -181.5q0 -76 -31 -152t-89 -133q-118 -118 -331 -118h-255zM184 52h48q167 0 248 81q51 51 81 129.5t30 158.5q0 180 -212 180h-58l-59 -234h141l-13 -52h-141z" />
    <glyph glyph-name="Ntilde" unicode="&#xd1;" horiz-adv-x="751" 
d="M522 -16l-239 568h-5l-124 -500h96l-12 -52h-257l12 52h102l136 549h-103l12 52h190l217 -510h5l113 458h-98l13 52h255l-13 -52h-98l-154 -617h-48zM447 808q-17 0 -29 -15t-28 -50h-39q21 64 46.5 94t61.5 30q33 0 69.5 -30.5t50.5 -30.5q17 0 30 15.5t27 49.5h39
q-21 -64 -46.5 -94t-61.5 -30q-32 0 -68.5 30.5t-51.5 30.5z" />
    <glyph glyph-name="Ograve" unicode="&#xd2;" horiz-adv-x="696" 
d="M70 263q0 103 45.5 195.5t127.5 150.5t179 58q114 0 185 -77t71 -201q0 -103 -45.5 -196t-127 -151t-178.5 -58q-114 0 -185.5 77.5t-71.5 201.5zM417 615q-64 0 -115.5 -38t-81 -96t-45 -120.5t-15.5 -119.5q0 -102 46 -153t125 -51q64 0 116 37.5t81.5 96t45 120.5
t15.5 119q0 103 -46.5 154t-125.5 51zM454 851l18 -113h-35l-40 80q-29 60 -29 77q0 16 10.5 27t25.5 11q23 0 33 -19.5t17 -62.5z" />
    <glyph glyph-name="Oacute" unicode="&#xd3;" horiz-adv-x="696" 
d="M562 821l-92 -83h-40l81 125q27 41 41 55.5t32 14.5q15 0 25 -10.5t10 -25.5q0 -17 -11 -30t-46 -46zM70 263q0 103 45.5 195.5t127.5 150.5t179 58q114 0 185 -77t71 -201q0 -103 -45.5 -196t-127 -151t-178.5 -58q-114 0 -185.5 77.5t-71.5 201.5zM417 615
q-64 0 -115.5 -38t-81 -96t-45 -120.5t-15.5 -119.5q0 -102 46 -153t125 -51q64 0 116 37.5t81.5 96t45 120.5t15.5 119q0 103 -46.5 154t-125.5 51z" />
    <glyph glyph-name="Ocircumflex" unicode="&#xd4;" horiz-adv-x="696" 
d="M330 739l154 180h37l63 -180h-37l-59 101l-116 -101h-42zM70 263q0 103 45.5 195.5t127.5 150.5t179 58q114 0 185 -77t71 -201q0 -103 -45.5 -196t-127 -151t-178.5 -58q-114 0 -185.5 77.5t-71.5 201.5zM417 615q-64 0 -115.5 -38t-81 -96t-45 -120.5t-15.5 -119.5
q0 -102 46 -153t125 -51q64 0 116 37.5t81.5 96t45 120.5t15.5 119q0 103 -46.5 154t-125.5 51z" />
    <glyph glyph-name="Otilde" unicode="&#xd5;" horiz-adv-x="696" 
d="M70 263q0 103 45.5 195.5t127.5 150.5t179 58q114 0 185 -77t71 -201q0 -103 -45.5 -196t-127 -151t-178.5 -58q-114 0 -185.5 77.5t-71.5 201.5zM417 615q-64 0 -115.5 -38t-81 -96t-45 -120.5t-15.5 -119.5q0 -102 46 -153t125 -51q64 0 116 37.5t81.5 96t45 120.5
t15.5 119q0 103 -46.5 154t-125.5 51zM417 808q-17 0 -29 -15t-28 -50h-39q21 64 46.5 94t61.5 30q33 0 69.5 -30.5t50.5 -30.5q17 0 30 15.5t27 49.5h39q-21 -64 -46.5 -94t-61.5 -30q-32 0 -68.5 30.5t-51.5 30.5z" />
    <glyph glyph-name="Odieresis" unicode="&#xd6;" horiz-adv-x="696" 
d="M443 825q0 -25 -16.5 -44.5t-40.5 -19.5q-19 0 -30.5 13t-11.5 34q0 25 16 44.5t40 19.5q19 0 31 -13t12 -34zM617 825q0 -25 -16.5 -44.5t-41.5 -19.5q-19 0 -30.5 13t-11.5 34q0 25 16 44.5t40 19.5q20 0 32 -13t12 -34zM70 263q0 103 45.5 195.5t127.5 150.5t179 58
q114 0 185 -77t71 -201q0 -103 -45.5 -196t-127 -151t-178.5 -58q-114 0 -185.5 77.5t-71.5 201.5zM417 615q-64 0 -115.5 -38t-81 -96t-45 -120.5t-15.5 -119.5q0 -102 46 -153t125 -51q64 0 116 37.5t81.5 96t45 120.5t15.5 119q0 103 -46.5 154t-125.5 51z" />
    <glyph glyph-name="multiply" unicode="&#xd7;" horiz-adv-x="512" 
d="M307 275l108 -149l-41 -32l-107 148l-179 -147l-29 38l179 148l-107 148l41 33l107 -149l179 148l29 -38z" />
    <glyph glyph-name="Oslash" unicode="&#xd8;" horiz-adv-x="696" 
d="M70 263q0 103 45.5 195.5t127.5 150.5t179 58q110 0 180 -72l97 102l36 -32l-103 -107q46 -73 46 -169q0 -103 -45.5 -196t-127 -151t-178.5 -58q-112 0 -182 73l-96 -102l-36 31l103 108q-46 69 -46 169zM417 615q-64 0 -115.5 -38t-81 -96t-45 -120.5t-15.5 -119.5
q0 -56 13 -95l382 401q-44 68 -138 68zM589 410q0 54 -14 94l-382 -400q44 -67 138 -67q64 0 116 37.5t81.5 96t45 120.5t15.5 119z" />
    <glyph glyph-name="Ugrave" unicode="&#xd9;" horiz-adv-x="722" 
d="M336 -16q-108 0 -166.5 48t-58.5 124q0 38 13 93l87 352h-96l13 52h278l-12 -52h-98l-84 -339q-15 -59 -15 -101q0 -57 40 -88t113 -31q83 0 135 51q42 43 64 126l94 382h-99l12 52h249l-13 -52h-90l-101 -405q-22 -88 -75 -140q-70 -72 -190 -72zM472 851l18 -113h-35
l-40 80q-29 60 -29 77q0 16 10.5 27t25.5 11q23 0 33 -19.5t17 -62.5z" />
    <glyph glyph-name="Uacute" unicode="&#xda;" horiz-adv-x="722" 
d="M579 821l-92 -83h-40l81 125q27 41 41 55.5t32 14.5q15 0 25 -10.5t10 -25.5q0 -17 -11 -30t-46 -46zM336 -16q-108 0 -166.5 48t-58.5 124q0 38 13 93l87 352h-96l13 52h278l-12 -52h-98l-84 -339q-15 -59 -15 -101q0 -57 40 -88t113 -31q83 0 135 51q42 43 64 126
l94 382h-99l12 52h249l-13 -52h-90l-101 -405q-22 -88 -75 -140q-70 -72 -190 -72z" />
    <glyph glyph-name="Ucircumflex" unicode="&#xdb;" horiz-adv-x="722" 
d="M348 739l154 180h37l63 -180h-37l-59 101l-116 -101h-42zM336 -16q-108 0 -166.5 48t-58.5 124q0 38 13 93l87 352h-96l13 52h278l-12 -52h-98l-84 -339q-15 -59 -15 -101q0 -57 40 -88t113 -31q83 0 135 51q42 43 64 126l94 382h-99l12 52h249l-13 -52h-90l-101 -405
q-22 -88 -75 -140q-70 -72 -190 -72z" />
    <glyph glyph-name="Udieresis" unicode="&#xdc;" horiz-adv-x="722" 
d="M460 825q0 -25 -16.5 -44.5t-40.5 -19.5q-19 0 -30.5 13t-11.5 34q0 25 16 44.5t40 19.5q19 0 31 -13t12 -34zM634 825q0 -25 -16.5 -44.5t-41.5 -19.5q-19 0 -30.5 13t-11.5 34q0 25 16 44.5t40 19.5q20 0 32 -13t12 -34zM336 -16q-108 0 -166.5 48t-58.5 124
q0 38 13 93l87 352h-96l13 52h278l-12 -52h-98l-84 -339q-15 -59 -15 -101q0 -57 40 -88t113 -31q83 0 135 51q42 43 64 126l94 382h-99l12 52h249l-13 -52h-90l-101 -405q-22 -88 -75 -140q-70 -72 -190 -72z" />
    <glyph glyph-name="Yacute" unicode="&#xdd;" horiz-adv-x="638" 
d="M364 327l221 274h-81l12 52h221l-12 -52h-75l-276 -332l-56 -217h103l-13 -52h-286l12 52h99l59 230l-96 319h-81l13 52h263l-13 -52h-91zM551 821l-92 -83h-40l81 125q27 41 41 55.5t32 14.5q15 0 25 -10.5t10 -25.5q0 -17 -11 -30t-46 -46z" />
    <glyph glyph-name="Thorn" unicode="&#xde;" horiz-adv-x="598" 
d="M-22 0l12 52h110l136 549h-111l13 52h303l-13 -52h-107l-18 -75h71q117 0 171 -42t54 -114q0 -92 -76.5 -153t-224.5 -61h-87l-26 -104h109l-13 -52h-303zM363 476h-73l-67 -270h86q100 0 148 47.5t48 121.5q0 49 -31.5 75t-110.5 26z" />
    <glyph glyph-name="germandbls" unicode="&#xdf;" horiz-adv-x="542" 
d="M354 347q0 -18 12.5 -32.5t57.5 -51.5q40 -33 59.5 -62t19.5 -67q0 -61 -45.5 -102t-113.5 -41q-56 0 -95 23.5t-39 64.5q0 25 15.5 44.5t40.5 19.5q19 0 31 -13t12 -32q0 -28 -25 -48q22 -17 61 -17q40 0 63 21.5t23 55.5q0 41 -64 97q-33 28 -46.5 40.5t-25.5 32.5
t-12 41q0 34 18.5 57t69.5 62q45 34 64 63.5t19 69.5q0 36 -22.5 58t-58.5 22q-56 0 -88 -44t-50 -133l-84 -401q-51 -238 -175 -238q-33 0 -50.5 16t-17.5 39t14.5 39.5t36.5 16.5q19 0 29.5 -11.5t10.5 -27.5q0 -24 -13 -37q27 0 43 32.5t39 142.5l75 351h-99l12 44h95
q27 126 87.5 188.5t140.5 62.5q65 0 108 -33.5t43 -87.5q0 -83 -100 -143q-43 -26 -59.5 -44t-16.5 -38z" />
    <glyph glyph-name="agrave" unicode="&#xe0;" 
d="M465 452l-79 -290q-15 -56 -15 -82q0 -30 24 -30q36 0 76 111l34 -11q-30 -88 -61.5 -123.5t-69.5 -35.5q-30 0 -49.5 21t-19.5 60q0 4 3 25l-7 3q-65 -109 -148 -109q-54 0 -87 41t-33 110q0 71 27 136t71 109q71 71 143 71q77 0 93 -87l22 81h76zM180 49q41 0 81 47
t62.5 108.5t22.5 109.5q0 40 -17 69.5t-52 29.5q-43 0 -82 -44.5t-61 -105.5t-22 -115q0 -48 18 -73.5t50 -25.5zM309 641l18 -113h-35l-40 80q-29 60 -29 77q0 16 10.5 27t25.5 11q23 0 33 -19.5t17 -62.5z" />
    <glyph glyph-name="aacute" unicode="&#xe1;" 
d="M465 452l-79 -290q-15 -56 -15 -82q0 -30 24 -30q36 0 76 111l34 -11q-30 -88 -61.5 -123.5t-69.5 -35.5q-30 0 -49.5 21t-19.5 60q0 4 3 25l-7 3q-65 -109 -148 -109q-54 0 -87 41t-33 110q0 71 27 136t71 109q71 71 143 71q77 0 93 -87l22 81h76zM180 49q41 0 81 47
t62.5 108.5t22.5 109.5q0 40 -17 69.5t-52 29.5q-43 0 -82 -44.5t-61 -105.5t-22 -115q0 -48 18 -73.5t50 -25.5zM416 611l-92 -83h-40l81 125q27 41 41 55.5t32 14.5q15 0 25 -10.5t10 -25.5q0 -17 -11 -30t-46 -46z" />
    <glyph glyph-name="acircumflex" unicode="&#xe2;" 
d="M465 452l-79 -290q-15 -56 -15 -82q0 -30 24 -30q36 0 76 111l34 -11q-30 -88 -61.5 -123.5t-69.5 -35.5q-30 0 -49.5 21t-19.5 60q0 4 3 25l-7 3q-65 -109 -148 -109q-54 0 -87 41t-33 110q0 71 27 136t71 109q71 71 143 71q77 0 93 -87l22 81h76zM180 49q41 0 81 47
t62.5 108.5t22.5 109.5q0 40 -17 69.5t-52 29.5q-43 0 -82 -44.5t-61 -105.5t-22 -115q0 -48 18 -73.5t50 -25.5zM184 529l154 180h37l63 -180h-37l-59 101l-116 -101h-42z" />
    <glyph glyph-name="atilde" unicode="&#xe3;" 
d="M465 452l-79 -290q-15 -56 -15 -82q0 -30 24 -30q36 0 76 111l34 -11q-30 -88 -61.5 -123.5t-69.5 -35.5q-30 0 -49.5 21t-19.5 60q0 4 3 25l-7 3q-65 -109 -148 -109q-54 0 -87 41t-33 110q0 71 27 136t71 109q71 71 143 71q77 0 93 -87l22 81h76zM180 49q41 0 81 47
t62.5 108.5t22.5 109.5q0 40 -17 69.5t-52 29.5q-43 0 -82 -44.5t-61 -105.5t-22 -115q0 -48 18 -73.5t50 -25.5zM272 598q-17 0 -29 -15t-28 -50h-39q21 64 46.5 94t61.5 30q33 0 69.5 -30.5t50.5 -30.5q17 0 30 15.5t27 49.5h39q-21 -64 -46.5 -94t-61.5 -30
q-32 0 -68.5 30.5t-51.5 30.5z" />
    <glyph glyph-name="adieresis" unicode="&#xe4;" 
d="M465 452l-79 -290q-15 -56 -15 -82q0 -30 24 -30q36 0 76 111l34 -11q-30 -88 -61.5 -123.5t-69.5 -35.5q-30 0 -49.5 21t-19.5 60q0 4 3 25l-7 3q-65 -109 -148 -109q-54 0 -87 41t-33 110q0 71 27 136t71 109q71 71 143 71q77 0 93 -87l22 81h76zM180 49q41 0 81 47
t62.5 108.5t22.5 109.5q0 40 -17 69.5t-52 29.5q-43 0 -82 -44.5t-61 -105.5t-22 -115q0 -48 18 -73.5t50 -25.5zM297 615q0 -25 -16.5 -44.5t-40.5 -19.5q-19 0 -30.5 13t-11.5 34q0 25 16 44.5t40 19.5q19 0 31 -13t12 -34zM471 615q0 -25 -16.5 -44.5t-41.5 -19.5
q-19 0 -30.5 13t-11.5 34q0 25 16 44.5t40 19.5q20 0 32 -13t12 -34z" />
    <glyph glyph-name="aring" unicode="&#xe5;" 
d="M465 452l-79 -290q-15 -56 -15 -82q0 -30 24 -30q36 0 76 111l34 -11q-30 -88 -61.5 -123.5t-69.5 -35.5q-30 0 -49.5 21t-19.5 60q0 4 3 25l-7 3q-65 -109 -148 -109q-54 0 -87 41t-33 110q0 71 27 136t71 109q71 71 143 71q77 0 93 -87l22 81h76zM180 49q41 0 81 47
t62.5 108.5t22.5 109.5q0 40 -17 69.5t-52 29.5q-43 0 -82 -44.5t-61 -105.5t-22 -115q0 -48 18 -73.5t50 -25.5zM449 637q0 -46 -32 -80.5t-83 -34.5q-41 0 -67 23.5t-26 62.5q0 46 32 80.5t83 34.5q41 0 67 -23.5t26 -62.5zM286 606q0 -24 13.5 -38t36.5 -14
q30 0 48.5 26.5t18.5 58.5q0 24 -13 38t-37 14q-30 0 -48.5 -26.5t-18.5 -58.5z" />
    <glyph glyph-name="ae" unicode="&#xe6;" horiz-adv-x="687" 
d="M556 458q52 0 81.5 -26t29.5 -66q0 -69 -76 -117.5t-226 -64.5q-2 -10 -2 -29q0 -59 25.5 -88t68.5 -29q80 0 148 101l32 -20q-86 -128 -195 -128t-138 98q-67 -95 -174 -95q-56 0 -87.5 28t-31.5 74q0 74 80.5 115.5t223.5 47.5q18 62 18 80q0 36 -26.5 57.5t-70.5 21.5
q-35 0 -65 -14q16 -14 16 -40q0 -23 -14.5 -40t-42.5 -17q-19 0 -32 13t-13 35q0 43 44.5 72.5t118.5 29.5q52 0 89.5 -20.5t50.5 -57.5q76 79 168 79zM295 152q0 36 8 73q-208 -19 -208 -120q0 -27 17 -45t48 -18q71 0 136 84q-1 8 -1 26zM541 418q-56 0 -103 -60t-66 -137
q223 30 223 143q0 24 -14.5 39t-39.5 15z" />
    <glyph glyph-name="ccedilla" unicode="&#xe7;" horiz-adv-x="433" 
d="M51 -166q41 -31 80 -31q23 0 38.5 12.5t15.5 34.5q0 27 -28.5 36t-64.5 5l-10 20l96 81q-67 5 -107 54t-40 124q0 108 78 198t178 90q54 0 90 -28t36 -71q0 -27 -15 -48.5t-39 -21.5q-20 0 -33 12.5t-13 31.5q0 34 33 61q-21 24 -61 24q-51 0 -92.5 -43.5t-61.5 -99.5
t-20 -106q0 -63 27 -95.5t70 -32.5q75 0 134 105l32 -19q-57 -109 -137 -130l-79 -65v-3q38 -5 61 -24t23 -50q0 -39 -30 -66t-78 -27q-62 0 -107 42z" />
    <glyph glyph-name="egrave" unicode="&#xe8;" horiz-adv-x="435" 
d="M414 366q0 -69 -76 -117.5t-225 -64.5q-2 -10 -2 -29q0 -59 25.5 -88t68.5 -29q79 0 148 101l31 -20q-84 -128 -200 -128q-68 0 -110.5 45.5t-42.5 122.5q0 113 86 206t186 93q52 0 81.5 -26t29.5 -66zM288 418q-56 0 -102.5 -60t-65.5 -137q222 30 222 143
q0 24 -14.5 39t-39.5 15zM295 641l18 -113h-35l-40 80q-29 60 -29 77q0 16 10.5 27t25.5 11q23 0 33 -19.5t17 -62.5z" />
    <glyph glyph-name="eacute" unicode="&#xe9;" horiz-adv-x="435" 
d="M414 366q0 -69 -76 -117.5t-225 -64.5q-2 -10 -2 -29q0 -59 25.5 -88t68.5 -29q79 0 148 101l31 -20q-84 -128 -200 -128q-68 0 -110.5 45.5t-42.5 122.5q0 113 86 206t186 93q52 0 81.5 -26t29.5 -66zM288 418q-56 0 -102.5 -60t-65.5 -137q222 30 222 143
q0 24 -14.5 39t-39.5 15zM402 611l-92 -83h-40l81 125q27 41 41 55.5t32 14.5q15 0 25 -10.5t10 -25.5q0 -17 -11 -30t-46 -46z" />
    <glyph glyph-name="ecircumflex" unicode="&#xea;" horiz-adv-x="435" 
d="M414 366q0 -69 -76 -117.5t-225 -64.5q-2 -10 -2 -29q0 -59 25.5 -88t68.5 -29q79 0 148 101l31 -20q-84 -128 -200 -128q-68 0 -110.5 45.5t-42.5 122.5q0 113 86 206t186 93q52 0 81.5 -26t29.5 -66zM288 418q-56 0 -102.5 -60t-65.5 -137q222 30 222 143
q0 24 -14.5 39t-39.5 15zM171 529l154 180h37l63 -180h-37l-59 101l-116 -101h-42z" />
    <glyph glyph-name="edieresis" unicode="&#xeb;" horiz-adv-x="435" 
d="M414 366q0 -69 -76 -117.5t-225 -64.5q-2 -10 -2 -29q0 -59 25.5 -88t68.5 -29q79 0 148 101l31 -20q-84 -128 -200 -128q-68 0 -110.5 45.5t-42.5 122.5q0 113 86 206t186 93q52 0 81.5 -26t29.5 -66zM288 418q-56 0 -102.5 -60t-65.5 -137q222 30 222 143
q0 24 -14.5 39t-39.5 15zM458 615q0 -25 -16.5 -44.5t-41.5 -19.5q-19 0 -30.5 13t-11.5 34q0 25 16 44.5t40 19.5q20 0 32 -13t12 -34zM284 615q0 -25 -16.5 -44.5t-40.5 -19.5q-19 0 -30.5 13t-11.5 34q0 25 16 44.5t40 19.5q19 0 31 -13t12 -34z" />
    <glyph glyph-name="igrave" unicode="&#xec;" horiz-adv-x="318" 
d="M240 362q0 -44 -42 -149.5t-42 -136.5q0 -26 23 -26q34 0 77 111l34 -11q-54 -159 -134 -159q-34 0 -54.5 22.5t-20.5 63.5q1 48 44 155.5t43 146.5q0 28 -19 28q-22 0 -43 -28.5t-50 -84.5l-34 16q34 73 68 110.5t75 37.5q34 0 54.5 -25.5t20.5 -70.5zM184 641l18 -113
h-35l-40 80q-29 60 -29 77q0 16 10.5 27t25.5 11q23 0 33 -19.5t17 -62.5z" />
    <glyph glyph-name="iacute" unicode="&#xed;" horiz-adv-x="318" 
d="M290 611l-92 -83h-40l81 125q27 41 41 55.5t32 14.5q15 0 25 -10.5t10 -25.5q0 -17 -11 -30t-46 -46zM240 362q0 -44 -42 -149.5t-42 -136.5q0 -26 23 -26q34 0 77 111l34 -11q-54 -159 -134 -159q-34 0 -54.5 22.5t-20.5 63.5q1 48 44 155.5t43 146.5q0 28 -19 28
q-22 0 -43 -28.5t-50 -84.5l-34 16q34 73 68 110.5t75 37.5q34 0 54.5 -25.5t20.5 -70.5z" />
    <glyph glyph-name="icircumflex" unicode="&#xee;" horiz-adv-x="318" 
d="M60 529l154 180h37l63 -180h-37l-59 101l-116 -101h-42zM240 362q0 -44 -42 -149.5t-42 -136.5q0 -26 23 -26q34 0 77 111l34 -11q-54 -159 -134 -159q-34 0 -54.5 22.5t-20.5 63.5q1 48 44 155.5t43 146.5q0 28 -19 28q-22 0 -43 -28.5t-50 -84.5l-34 16q34 73 68 110.5
t75 37.5q34 0 54.5 -25.5t20.5 -70.5z" />
    <glyph glyph-name="idieresis" unicode="&#xef;" horiz-adv-x="318" 
d="M172 615q0 -25 -16.5 -44.5t-40.5 -19.5q-19 0 -30.5 13t-11.5 34q0 25 16 44.5t40 19.5q19 0 31 -13t12 -34zM346 615q0 -25 -16.5 -44.5t-41.5 -19.5q-19 0 -30.5 13t-11.5 34q0 25 16 44.5t40 19.5q20 0 32 -13t12 -34zM240 362q0 -44 -42 -149.5t-42 -136.5
q0 -26 23 -26q34 0 77 111l34 -11q-54 -159 -134 -159q-34 0 -54.5 22.5t-20.5 63.5q1 48 44 155.5t43 146.5q0 28 -19 28q-22 0 -43 -28.5t-50 -84.5l-34 16q34 73 68 110.5t75 37.5q34 0 54.5 -25.5t20.5 -70.5z" />
    <glyph glyph-name="eth" unicode="&#xf0;" horiz-adv-x="487" 
d="M501 610l-100 -35q53 -109 53 -237q0 -146 -70.5 -246.5t-183.5 -100.5q-77 0 -122 51t-45 134q0 113 72 195t163 82q86 0 115 -74q-5 92 -40 175l-122 -42l-13 39l118 41q-14 28 -41 73l54 13q23 -33 42 -66l106 37zM365 293q0 59 -24.5 87.5t-66.5 28.5
q-48 0 -86.5 -42.5t-57 -102.5t-18.5 -120q0 -56 23.5 -84t63.5 -28q50 0 89.5 44t58 102.5t18.5 114.5z" />
    <glyph glyph-name="ntilde" unicode="&#xf1;" horiz-adv-x="559" 
d="M411 75q0 -25 20 -25q34 0 74 111l35 -11q-30 -88 -62.5 -123.5t-68.5 -35.5q-32 0 -52.5 23t-20.5 65q1 48 36 142.5t35 133.5q0 40 -34 40q-50 0 -113.5 -97.5t-118.5 -297.5h-81l84 315q10 37 11 58t-4 27.5t-15 6.5q-19 0 -38.5 -28t-47.5 -85l-34 16
q33 73 65.5 109.5t71.5 36.5q63 0 63 -82q0 -49 -22 -117l7 -3q97 204 201 204q37 0 60 -27.5t23 -72.5q0 -44 -37 -147t-37 -136zM298 598q-17 0 -29 -15t-28 -50h-39q21 64 46.5 94t61.5 30q33 0 69.5 -30.5t50.5 -30.5q17 0 30 15.5t27 49.5h39q-21 -64 -46.5 -94
t-61.5 -30q-32 0 -68.5 30.5t-51.5 30.5z" />
    <glyph glyph-name="ograve" unicode="&#xf2;" horiz-adv-x="473" 
d="M274 458q77 0 121.5 -51.5t44.5 -133.5q0 -113 -71.5 -197.5t-168.5 -84.5q-78 0 -122 51.5t-44 133.5q0 113 71.5 197.5t168.5 84.5zM361 306q0 56 -23.5 84t-63.5 28q-48 0 -86.5 -46.5t-56.5 -108t-18 -119.5q0 -56 23.5 -84t62.5 -28q48 0 86.5 46.5t57 108
t18.5 119.5zM296 641l18 -113h-35l-40 80q-29 60 -29 77q0 16 10.5 27t25.5 11q23 0 33 -19.5t17 -62.5z" />
    <glyph glyph-name="oacute" unicode="&#xf3;" horiz-adv-x="473" 
d="M404 611l-92 -83h-40l81 125q27 41 41 55.5t32 14.5q15 0 25 -10.5t10 -25.5q0 -17 -11 -30t-46 -46zM274 458q77 0 121.5 -51.5t44.5 -133.5q0 -113 -71.5 -197.5t-168.5 -84.5q-78 0 -122 51.5t-44 133.5q0 113 71.5 197.5t168.5 84.5zM361 306q0 56 -23.5 84t-63.5 28
q-48 0 -86.5 -46.5t-56.5 -108t-18 -119.5q0 -56 23.5 -84t62.5 -28q48 0 86.5 46.5t57 108t18.5 119.5z" />
    <glyph glyph-name="ocircumflex" unicode="&#xf4;" horiz-adv-x="473" 
d="M172 529l154 180h37l63 -180h-37l-59 101l-116 -101h-42zM274 458q77 0 121.5 -51.5t44.5 -133.5q0 -113 -71.5 -197.5t-168.5 -84.5q-78 0 -122 51.5t-44 133.5q0 113 71.5 197.5t168.5 84.5zM361 306q0 56 -23.5 84t-63.5 28q-48 0 -86.5 -46.5t-56.5 -108t-18 -119.5
q0 -56 23.5 -84t62.5 -28q48 0 86.5 46.5t57 108t18.5 119.5z" />
    <glyph glyph-name="otilde" unicode="&#xf5;" horiz-adv-x="473" 
d="M274 458q77 0 121.5 -51.5t44.5 -133.5q0 -113 -71.5 -197.5t-168.5 -84.5q-78 0 -122 51.5t-44 133.5q0 113 71.5 197.5t168.5 84.5zM361 306q0 56 -23.5 84t-63.5 28q-48 0 -86.5 -46.5t-56.5 -108t-18 -119.5q0 -56 23.5 -84t62.5 -28q48 0 86.5 46.5t57 108
t18.5 119.5zM259 598q-17 0 -29 -15t-28 -50h-39q21 64 46.5 94t61.5 30q33 0 69.5 -30.5t50.5 -30.5q17 0 30 15.5t27 49.5h39q-21 -64 -46.5 -94t-61.5 -30q-32 0 -68.5 30.5t-51.5 30.5z" />
    <glyph glyph-name="odieresis" unicode="&#xf6;" horiz-adv-x="473" 
d="M285 615q0 -25 -16.5 -44.5t-40.5 -19.5q-19 0 -30.5 13t-11.5 34q0 25 16 44.5t40 19.5q19 0 31 -13t12 -34zM459 615q0 -25 -16.5 -44.5t-41.5 -19.5q-19 0 -30.5 13t-11.5 34q0 25 16 44.5t40 19.5q20 0 32 -13t12 -34zM274 458q77 0 121.5 -51.5t44.5 -133.5
q0 -113 -71.5 -197.5t-168.5 -84.5q-78 0 -122 51.5t-44 133.5q0 113 71.5 197.5t168.5 84.5zM361 306q0 56 -23.5 84t-63.5 28q-48 0 -86.5 -46.5t-56.5 -108t-18 -119.5q0 -56 23.5 -84t62.5 -28q48 0 86.5 46.5t57 108t18.5 119.5z" />
    <glyph glyph-name="divide" unicode="&#xf7;" horiz-adv-x="512" 
d="M473 253h-417l12 49h416zM229 68q-21 0 -34.5 14t-13.5 38q0 23 15 42t39 19q21 0 34.5 -14.5t13.5 -38.5q0 -23 -15.5 -41.5t-38.5 -18.5zM305 375q-21 0 -34.5 14t-13.5 38q0 23 15.5 41.5t38.5 18.5q21 0 34.5 -14t13.5 -38q0 -23 -15 -41.5t-39 -18.5z" />
    <glyph glyph-name="oslash" unicode="&#xf8;" horiz-adv-x="473" 
d="M21 -42l-29 28l70 77q-28 48 -28 113q0 113 71.5 197.5t168.5 84.5q67 0 111 -41l68 74l29 -28l-71 -78q29 -46 29 -112q0 -113 -71.5 -197.5t-168.5 -84.5q-69 0 -112 41zM362 316q0 8 -2 20l-236 -264q21 -40 76 -40q50 0 89 49t57 113t16 122zM111 133q0 -14 1 -20
l236 264q-21 41 -74 41q-50 0 -89.5 -49t-57.5 -113t-16 -123z" />
    <glyph glyph-name="ugrave" unicode="&#xf9;" horiz-adv-x="555" 
d="M414 -9q-70 0 -70 85q0 45 22 115l-7 3q-97 -203 -199 -203q-38 0 -60.5 27t-22.5 73q0 44 36.5 148t36.5 135q0 25 -19 25q-18 0 -35 -23.5t-45 -80.5l-34 16q35 75 66 111t72 36q32 0 51.5 -22.5t18.5 -64.5q0 -47 -35 -142t-35 -132q0 -43 35 -43q49 0 112 97.5
t118 300.5h82l-78 -290q-15 -57 -15 -82q0 -30 24 -30q20 0 37.5 27.5t38.5 83.5l34 -11q-53 -159 -129 -159zM315 641l18 -113h-35l-40 80q-29 60 -29 77q0 16 10.5 27t25.5 11q23 0 33 -19.5t17 -62.5z" />
    <glyph glyph-name="uacute" unicode="&#xfa;" horiz-adv-x="555" 
d="M422 611l-92 -83h-40l81 125q27 41 41 55.5t32 14.5q15 0 25 -10.5t10 -25.5q0 -17 -11 -30t-46 -46zM414 -9q-70 0 -70 85q0 45 22 115l-7 3q-97 -203 -199 -203q-38 0 -60.5 27t-22.5 73q0 44 36.5 148t36.5 135q0 25 -19 25q-18 0 -35 -23.5t-45 -80.5l-34 16
q35 75 66 111t72 36q32 0 51.5 -22.5t18.5 -64.5q0 -47 -35 -142t-35 -132q0 -43 35 -43q49 0 112 97.5t118 300.5h82l-78 -290q-15 -57 -15 -82q0 -30 24 -30q20 0 37.5 27.5t38.5 83.5l34 -11q-53 -159 -129 -159z" />
    <glyph glyph-name="ucircumflex" unicode="&#xfb;" horiz-adv-x="555" 
d="M191 529l154 180h37l63 -180h-37l-59 101l-116 -101h-42zM414 -9q-70 0 -70 85q0 45 22 115l-7 3q-97 -203 -199 -203q-38 0 -60.5 27t-22.5 73q0 44 36.5 148t36.5 135q0 25 -19 25q-18 0 -35 -23.5t-45 -80.5l-34 16q35 75 66 111t72 36q32 0 51.5 -22.5t18.5 -64.5
q0 -47 -35 -142t-35 -132q0 -43 35 -43q49 0 112 97.5t118 300.5h82l-78 -290q-15 -57 -15 -82q0 -30 24 -30q20 0 37.5 27.5t38.5 83.5l34 -11q-53 -159 -129 -159z" />
    <glyph glyph-name="udieresis" unicode="&#xfc;" horiz-adv-x="555" 
d="M303 615q0 -25 -16.5 -44.5t-40.5 -19.5q-19 0 -30.5 13t-11.5 34q0 25 16 44.5t40 19.5q19 0 31 -13t12 -34zM477 615q0 -25 -16.5 -44.5t-41.5 -19.5q-19 0 -30.5 13t-11.5 34q0 25 16 44.5t40 19.5q20 0 32 -13t12 -34zM414 -9q-70 0 -70 85q0 45 22 115l-7 3
q-97 -203 -199 -203q-38 0 -60.5 27t-22.5 73q0 44 36.5 148t36.5 135q0 25 -19 25q-18 0 -35 -23.5t-45 -80.5l-34 16q35 75 66 111t72 36q32 0 51.5 -22.5t18.5 -64.5q0 -47 -35 -142t-35 -132q0 -43 35 -43q49 0 112 97.5t118 300.5h82l-78 -290q-15 -57 -15 -82
q0 -30 24 -30q20 0 37.5 27.5t38.5 83.5l34 -11q-53 -159 -129 -159z" />
    <glyph glyph-name="yacute" unicode="&#xfd;" 
d="M156 458q32 0 51.5 -23t18.5 -63q0 -47 -31.5 -130.5t-31.5 -114.5q0 -43 40 -43q54 0 115 86.5t107 281.5h76l-81 -344q-34 -143 -97.5 -207t-158.5 -64q-52 0 -90.5 19.5t-38.5 61.5q0 23 16 42.5t40 19.5q22 0 34 -13.5t11 -33.5q-2 -27 -22 -42q22 -12 52 -12
q69 0 114.5 60.5t75.5 196.5l8 38l-6 3q-90 -156 -183 -156q-41 0 -65.5 26.5t-24.5 71.5q0 39 33 131.5t33 123.5q0 25 -18 25q-19 0 -37.5 -26t-43.5 -79l-34 16q34 75 66 111.5t72 36.5zM428 611l-92 -83h-40l81 125q27 41 41 55.5t32 14.5q15 0 25 -10.5t10 -25.5
q0 -17 -11 -30t-46 -46z" />
    <glyph glyph-name="thorn" unicode="&#xfe;" horiz-adv-x="483" 
d="M272 687l-91 -326l7 -3q66 100 142 100q54 0 87 -41.5t33 -110.5q0 -120 -72 -213.5t-159 -93.5q-40 1 -68 20.5t-37 50.5l-42 -168h99l-14 -52h-248l14 52h73l186 731h-93l14 54h169zM305 402q-62 0 -116.5 -92.5t-54.5 -171.5q0 -41 19.5 -67.5t59.5 -26.5
q45 0 82.5 46t56.5 105.5t19 111.5q0 95 -66 95z" />
    <glyph glyph-name="ydieresis" unicode="&#xff;" 
d="M156 458q32 0 51.5 -23t18.5 -63q0 -47 -31.5 -130.5t-31.5 -114.5q0 -43 40 -43q54 0 115 86.5t107 281.5h76l-81 -344q-34 -143 -97.5 -207t-158.5 -64q-52 0 -90.5 19.5t-38.5 61.5q0 23 16 42.5t40 19.5q22 0 34 -13.5t11 -33.5q-2 -27 -22 -42q22 -12 52 -12
q69 0 114.5 60.5t75.5 196.5l8 38l-6 3q-90 -156 -183 -156q-41 0 -65.5 26.5t-24.5 71.5q0 39 33 131.5t33 123.5q0 25 -18 25q-19 0 -37.5 -26t-43.5 -79l-34 16q34 75 66 111.5t72 36.5zM309 615q0 -25 -16.5 -44.5t-40.5 -19.5q-19 0 -30.5 13t-11.5 34q0 25 16 44.5
t40 19.5q19 0 31 -13t12 -34zM483 615q0 -25 -16.5 -44.5t-41.5 -19.5q-19 0 -30.5 13t-11.5 34q0 25 16 44.5t40 19.5q20 0 32 -13t12 -34z" />
    <glyph glyph-name="Amacron" unicode="&#x100;" horiz-adv-x="664" 
d="M358 52h103l-20 183h-235l-109 -183h88l-13 -52h-226l13 52h70l374 605h73l70 -605h85l-13 -52h-273zM234 282h202l-29 284h-3zM338 756l16 63h251l-16 -63h-251z" />
    <glyph glyph-name="amacron" unicode="&#x101;" 
d="M465 452l-79 -290q-15 -56 -15 -82q0 -30 24 -30q36 0 76 111l34 -11q-30 -88 -61.5 -123.5t-69.5 -35.5q-30 0 -49.5 21t-19.5 60q0 4 3 25l-7 3q-65 -109 -148 -109q-54 0 -87 41t-33 110q0 71 27 136t71 109q71 71 143 71q77 0 93 -87l22 81h76zM180 49q41 0 81 47
t62.5 108.5t22.5 109.5q0 40 -17 69.5t-52 29.5q-43 0 -82 -44.5t-61 -105.5t-22 -115q0 -48 18 -73.5t50 -25.5zM200 546l16 63h251l-16 -63h-251z" />
    <glyph glyph-name="Abreve" unicode="&#x102;" horiz-adv-x="664" 
d="M358 52h103l-20 183h-235l-109 -183h88l-13 -52h-226l13 52h70l374 605h73l70 -605h85l-13 -52h-273zM234 282h202l-29 284h-3zM460 745q-58 0 -86.5 40t-14.5 109h31q3 -88 79 -88q68 0 116 88h32q-20 -70 -61.5 -109.5t-95.5 -39.5z" />
    <glyph glyph-name="abreve" unicode="&#x103;" 
d="M465 452l-79 -290q-15 -56 -15 -82q0 -30 24 -30q36 0 76 111l34 -11q-30 -88 -61.5 -123.5t-69.5 -35.5q-30 0 -49.5 21t-19.5 60q0 4 3 25l-7 3q-65 -109 -148 -109q-54 0 -87 41t-33 110q0 71 27 136t71 109q71 71 143 71q77 0 93 -87l22 81h76zM180 49q41 0 81 47
t62.5 108.5t22.5 109.5q0 40 -17 69.5t-52 29.5q-43 0 -82 -44.5t-61 -105.5t-22 -115q0 -48 18 -73.5t50 -25.5zM322 535q-58 0 -86.5 40t-14.5 109h31q3 -88 79 -88q68 0 116 88h32q-20 -70 -61.5 -109.5t-95.5 -39.5z" />
    <glyph glyph-name="Aogonek" unicode="&#x104;" horiz-adv-x="664" 
d="M527 -203q-43 -35 -93 -35q-39 0 -65.5 21.5t-26.5 59.5q0 37 29 71.5t99 80.5l7 5h-132l13 52h103l-20 183h-235l-109 -183h88l-13 -52h-226l13 52h70l374 605h73l70 -605h85l-13 -52h-91l-11 -9q-65 -52 -87.5 -82t-22.5 -57q0 -20 12.5 -32.5t36.5 -12.5q23 0 57 19z
M234 282h202l-29 284h-3z" />
    <glyph glyph-name="aogonek" unicode="&#x105;" 
d="M367 371l22 81h76l-79 -290q-15 -56 -15 -82q0 -30 24 -30q36 0 76 111l34 -11q-12 -34 -20.5 -54.5t-28 -50t-43.5 -48.5q-62 -50 -89.5 -82t-27.5 -63q0 -20 12.5 -32.5t36.5 -12.5q23 0 57 19l16 -29q-45 -35 -94 -35q-39 0 -65 21.5t-26 59.5q0 37 28 70.5t96 79.5
q-22 4 -37 23.5t-15 55.5q0 4 3 25l-7 3q-65 -109 -148 -109q-54 0 -87 41t-33 110q0 71 27 136t71 109q71 71 143 71q77 0 93 -87zM180 49q41 0 81 47t62.5 108.5t22.5 109.5q0 40 -17 69.5t-52 29.5q-43 0 -82 -44.5t-61 -105.5t-22 -115q0 -48 18 -73.5t50 -25.5z" />
    <glyph glyph-name="Cacute" unicode="&#x106;" horiz-adv-x="659" 
d="M557 821l-92 -83h-40l81 125q27 41 41 55.5t32 14.5q15 0 25 -10.5t10 -25.5q0 -17 -11 -30t-46 -46zM322 -15q-124 0 -188.5 74.5t-64.5 190.5q0 166 106.5 292t255.5 126q121 0 178 -81l38 78h53l-60 -244h-46q-9 193 -166 193q-83 0 -146.5 -58.5t-93 -140
t-29.5 -166.5q0 -99 46 -153.5t128 -54.5q81 0 136 56t100 154l48 -20q-98 -246 -295 -246z" />
    <glyph glyph-name="cacute" unicode="&#x107;" horiz-adv-x="433" 
d="M396 611l-92 -83h-40l81 125q27 41 41 55.5t32 14.5q15 0 25 -10.5t10 -25.5q0 -17 -11 -30t-46 -46zM287 458q54 0 90 -28t36 -71q0 -27 -15 -48.5t-39 -21.5q-20 0 -33 12.5t-13 31.5q0 34 33 61q-21 24 -61 24q-51 0 -92.5 -43.5t-61.5 -99.5t-20 -106q0 -63 27 -95.5
t70 -32.5q75 0 134 105l32 -19q-72 -136 -181 -136q-73 0 -117.5 50t-44.5 129q0 108 78 198t178 90z" />
    <glyph glyph-name="Cdotaccent" unicode="&#x10a;" horiz-adv-x="659" 
d="M322 -15q-124 0 -188.5 74.5t-64.5 190.5q0 166 106.5 292t255.5 126q121 0 178 -81l38 78h53l-60 -244h-46q-9 193 -166 193q-83 0 -146.5 -58.5t-93 -140t-29.5 -166.5q0 -99 46 -153.5t128 -54.5q81 0 136 56t100 154l48 -20q-98 -246 -295 -246zM527 806
q0 -24 -17 -44.5t-43 -20.5q-18 0 -30.5 12t-12.5 34q0 25 16.5 45.5t42.5 20.5q20 0 32 -12.5t12 -34.5z" />
    <glyph glyph-name="cdotaccent" unicode="&#x10b;" horiz-adv-x="433" 
d="M287 458q54 0 90 -28t36 -71q0 -27 -15 -48.5t-39 -21.5q-20 0 -33 12.5t-13 31.5q0 34 33 61q-21 24 -61 24q-51 0 -92.5 -43.5t-61.5 -99.5t-20 -106q0 -63 27 -95.5t70 -32.5q75 0 134 105l32 -19q-72 -136 -181 -136q-73 0 -117.5 50t-44.5 129q0 108 78 198t178 90z
M368 596q0 -24 -17 -44.5t-43 -20.5q-18 0 -30.5 12t-12.5 34q0 25 16.5 45.5t42.5 20.5q20 0 32 -12.5t12 -34.5z" />
    <glyph glyph-name="Ccaron" unicode="&#x10c;" horiz-adv-x="659" 
d="M624 928l-154 -180h-38l-62 180h37l58 -101l117 101h42zM322 -15q-124 0 -188.5 74.5t-64.5 190.5q0 166 106.5 292t255.5 126q121 0 178 -81l38 78h53l-60 -244h-46q-9 193 -166 193q-83 0 -146.5 -58.5t-93 -140t-29.5 -166.5q0 -99 46 -153.5t128 -54.5q81 0 136 56
t100 154l48 -20q-98 -246 -295 -246z" />
    <glyph glyph-name="ccaron" unicode="&#x10d;" horiz-adv-x="433" 
d="M465 718l-154 -180h-38l-62 180h37l58 -101l117 101h42zM287 458q54 0 90 -28t36 -71q0 -27 -15 -48.5t-39 -21.5q-20 0 -33 12.5t-13 31.5q0 34 33 61q-21 24 -61 24q-51 0 -92.5 -43.5t-61.5 -99.5t-20 -106q0 -63 27 -95.5t70 -32.5q75 0 134 105l32 -19
q-72 -136 -181 -136q-73 0 -117.5 50t-44.5 129q0 108 78 198t178 90z" />
    <glyph glyph-name="Dcaron" unicode="&#x10e;" horiz-adv-x="690" 
d="M629 928l-154 -180h-38l-62 180h37l58 -101l117 101h42zM-22 0l12 52h110l136 549h-111l13 52h248q146 0 222 -68.5t76 -181.5q0 -76 -31 -152t-89 -133q-118 -118 -331 -118h-255zM184 52h48q167 0 248 81q51 51 81 129.5t30 158.5q0 180 -212 180h-58z" />
    <glyph glyph-name="dcaron" unicode="&#x10f;" 
d="M653 642l-59 -110h-33l37 157q15 62 48 62q15 0 25 -10t10 -26q0 -22 -28 -73zM180 49q41 0 81.5 48t63.5 111t23 113q0 92 -71 92q-46 0 -85 -45t-59.5 -105.5t-20.5 -114.5q0 -48 18 -73.5t50 -25.5zM471 161l34 -11q-30 -88 -61.5 -123.5t-69.5 -35.5q-30 0 -49.5 21
t-19.5 60q0 4 3 25l-7 3q-65 -109 -148 -109q-54 0 -87 41t-33 110q0 72 26.5 136.5t70.5 108.5q71 71 144 71q77 0 95 -79l69 254h-94l15 54h169l-142 -525q-15 -56 -15 -82q0 -30 24 -30q36 0 76 111z" />
    <glyph glyph-name="Dcroat" unicode="&#x110;" horiz-adv-x="690" 
d="M-22 0l12 52h110l65 263h-110l14 52h109l58 234h-111l13 52h248q146 0 222 -68.5t76 -181.5q0 -76 -31 -152t-89 -133q-118 -118 -331 -118h-255zM184 52h48q167 0 248 81q51 51 81 129.5t30 158.5q0 180 -212 180h-58l-59 -234h141l-13 -52h-141z" />
    <glyph glyph-name="dcroat" unicode="&#x111;" 
d="M359 687h169l-36 -133h73l-11 -44h-74l-94 -348q-15 -56 -15 -82q0 -30 24 -30q36 0 76 111l34 -11q-30 -88 -61.5 -123.5t-69.5 -35.5q-30 0 -49.5 21t-19.5 60q0 4 3 25l-7 3q-65 -109 -148 -109q-54 0 -87 41t-33 110q0 72 26.5 136.5t70.5 108.5q71 71 144 71
q77 0 95 -79l35 131h-125l11 44h126l22 79h-94zM180 49q41 0 81.5 48t63.5 111t23 113q0 92 -71 92q-46 0 -85 -45t-59.5 -105.5t-20.5 -114.5q0 -48 18 -73.5t50 -25.5z" />
    <glyph glyph-name="Emacron" unicode="&#x112;" horiz-adv-x="645" 
d="M138 653h547l-50 -205h-40q5 102 -5.5 127.5t-59.5 25.5h-209l-60 -243h86q45 0 62.5 16.5t45.5 83.5h41l-62 -249h-40q8 70 -0.5 87t-52.5 17h-91l-65 -261h206q55 0 80 29t75 143h41l-55 -224h-554l12 52h110l136 549h-111zM343 756l16 63h251l-16 -63h-251z" />
    <glyph glyph-name="emacron" unicode="&#x113;" horiz-adv-x="435" 
d="M414 366q0 -69 -76 -117.5t-225 -64.5q-2 -10 -2 -29q0 -59 25.5 -88t68.5 -29q79 0 148 101l31 -20q-84 -128 -200 -128q-68 0 -110.5 45.5t-42.5 122.5q0 113 86 206t186 93q52 0 81.5 -26t29.5 -66zM288 418q-56 0 -102.5 -60t-65.5 -137q222 30 222 143
q0 24 -14.5 39t-39.5 15zM186 546l16 63h251l-16 -63h-251z" />
    <glyph glyph-name="Ebreve" unicode="&#x114;" horiz-adv-x="645" 
d="M138 653h547l-50 -205h-40q5 102 -5.5 127.5t-59.5 25.5h-209l-60 -243h86q45 0 62.5 16.5t45.5 83.5h41l-62 -249h-40q8 70 -0.5 87t-52.5 17h-91l-65 -261h206q55 0 80 29t75 143h41l-55 -224h-554l12 52h110l136 549h-111zM466 745q-58 0 -86.5 40t-14.5 109h31
q3 -88 79 -88q68 0 116 88h32q-20 -70 -61.5 -109.5t-95.5 -39.5z" />
    <glyph glyph-name="ebreve" unicode="&#x115;" horiz-adv-x="435" 
d="M414 366q0 -69 -76 -117.5t-225 -64.5q-2 -10 -2 -29q0 -59 25.5 -88t68.5 -29q79 0 148 101l31 -20q-84 -128 -200 -128q-68 0 -110.5 45.5t-42.5 122.5q0 113 86 206t186 93q52 0 81.5 -26t29.5 -66zM288 418q-56 0 -102.5 -60t-65.5 -137q222 30 222 143
q0 24 -14.5 39t-39.5 15zM309 535q-58 0 -86.5 40t-14.5 109h31q3 -88 79 -88q68 0 116 88h32q-20 -70 -61.5 -109.5t-95.5 -39.5z" />
    <glyph glyph-name="Edotaccent" unicode="&#x116;" horiz-adv-x="645" 
d="M138 653h547l-50 -205h-40q5 102 -5.5 127.5t-59.5 25.5h-209l-60 -243h86q45 0 62.5 16.5t45.5 83.5h41l-62 -249h-40q8 70 -0.5 87t-52.5 17h-91l-65 -261h206q55 0 80 29t75 143h41l-55 -224h-554l12 52h110l136 549h-111zM531 806q0 -24 -17 -44.5t-43 -20.5
q-18 0 -30.5 12t-12.5 34q0 25 16.5 45.5t42.5 20.5q20 0 32 -12.5t12 -34.5z" />
    <glyph glyph-name="edotaccent" unicode="&#x117;" horiz-adv-x="435" 
d="M414 366q0 -69 -76 -117.5t-225 -64.5q-2 -10 -2 -29q0 -59 25.5 -88t68.5 -29q79 0 148 101l31 -20q-84 -128 -200 -128q-68 0 -110.5 45.5t-42.5 122.5q0 113 86 206t186 93q52 0 81.5 -26t29.5 -66zM288 418q-56 0 -102.5 -60t-65.5 -137q222 30 222 143
q0 24 -14.5 39t-39.5 15zM374 596q0 -24 -17 -44.5t-43 -20.5q-18 0 -30.5 12t-12.5 34q0 25 16.5 45.5t42.5 20.5q20 0 32 -12.5t12 -34.5z" />
    <glyph glyph-name="Eogonek" unicode="&#x118;" horiz-adv-x="645" 
d="M138 653h547l-50 -205h-40q5 102 -5.5 127.5t-59.5 25.5h-209l-60 -243h86q45 0 62.5 16.5t45.5 83.5h41l-62 -249h-40q8 70 -0.5 87t-52.5 17h-91l-65 -261h206q55 0 80 29t75 143h41l-55 -224h-40l-11 -9q-65 -52 -87.5 -82t-22.5 -57q0 -20 12.5 -32.5t36.5 -12.5
q23 0 57 19l15 -29q-43 -35 -93 -35q-39 0 -65.5 21.5t-26.5 59.5q0 37 29 71.5t99 80.5l7 5h-464l12 52h110l136 549h-111z" />
    <glyph glyph-name="eogonek" unicode="&#x119;" horiz-adv-x="435" 
d="M353 139l31 -20q-39 -59 -88 -97l-38 -28q-67 -51 -91 -82.5t-24 -59.5q0 -20 12 -32.5t36 -12.5t58 19l15 -29q-43 -35 -93 -35q-39 0 -65.5 21.5t-26.5 59.5q0 37 27.5 70t95.5 79q-7 -1 -18 -1q-68 0 -110.5 45.5t-42.5 122.5q0 113 86 206t186 93q52 0 81.5 -26
t29.5 -66q0 -69 -76 -117.5t-225 -64.5q-2 -10 -2 -29q0 -59 25.5 -88t68.5 -29q79 0 148 101zM288 418q-56 0 -102.5 -60t-65.5 -137q222 30 222 143q0 24 -14.5 39t-39.5 15z" />
    <glyph glyph-name="Ecaron" unicode="&#x11a;" horiz-adv-x="645" 
d="M628 928l-154 -180h-38l-62 180h37l58 -101l117 101h42zM138 653h547l-50 -205h-40q5 102 -5.5 127.5t-59.5 25.5h-209l-60 -243h86q45 0 62.5 16.5t45.5 83.5h41l-62 -249h-40q8 70 -0.5 87t-52.5 17h-91l-65 -261h206q55 0 80 29t75 143h41l-55 -224h-554l12 52h110
l136 549h-111z" />
    <glyph glyph-name="ecaron" unicode="&#x11b;" horiz-adv-x="435" 
d="M414 366q0 -69 -76 -117.5t-225 -64.5q-2 -10 -2 -29q0 -59 25.5 -88t68.5 -29q79 0 148 101l31 -20q-84 -128 -200 -128q-68 0 -110.5 45.5t-42.5 122.5q0 113 86 206t186 93q52 0 81.5 -26t29.5 -66zM288 418q-56 0 -102.5 -60t-65.5 -137q222 30 222 143
q0 24 -14.5 39t-39.5 15zM471 718l-154 -180h-38l-62 180h37l58 -101l117 101h42z" />
    <glyph glyph-name="Gbreve" unicode="&#x11e;" horiz-adv-x="697" 
d="M318 41q73 0 125 55.5t75 144.5l7 28h-123l14 52h296l-13 -52h-89l-70 -276h-49l-2 92q-75 -101 -189 -101q-109 0 -170 76t-61 190q0 109 47.5 205t131.5 154.5t183 58.5q121 0 178 -81l38 78h53l-60 -244h-46q-9 193 -166 193q-83 0 -146.5 -58t-93 -141t-29.5 -171
q0 -99 43 -151t116 -52zM457 745q-58 0 -86.5 40t-14.5 109h31q3 -88 79 -88q68 0 116 88h32q-20 -70 -61.5 -109.5t-95.5 -39.5z" />
    <glyph glyph-name="gbreve" unicode="&#x11f;" horiz-adv-x="481" 
d="M66 -106q21 -15 67 -15q58 0 97 39q44 46 73 174l-7 3q-57 -74 -133 -74q-57 0 -92 41t-35 104q0 64 25 125t69 104q61 63 135 63q38 0 65.5 -22t37.5 -62l20 78h76l-87 -363q-30 -130 -89 -191t-155 -61q-57 0 -100.5 20.5t-43.5 65.5q0 25 15.5 45t40.5 20q21 0 33 -13
t12 -32q0 -30 -24 -49zM193 75q62 0 109 75t47 164q0 41 -22.5 70t-57.5 29q-63 0 -108 -78.5t-45 -159.5q0 -100 77 -100zM307 535q-58 0 -86.5 40t-14.5 109h31q3 -88 79 -88q68 0 116 88h32q-20 -70 -61.5 -109.5t-95.5 -39.5z" />
    <glyph glyph-name="Gdotaccent" unicode="&#x120;" horiz-adv-x="697" 
d="M318 41q73 0 125 55.5t75 144.5l7 28h-123l14 52h296l-13 -52h-89l-70 -276h-49l-2 92q-75 -101 -189 -101q-109 0 -170 76t-61 190q0 109 47.5 205t131.5 154.5t183 58.5q121 0 178 -81l38 78h53l-60 -244h-46q-9 193 -166 193q-83 0 -146.5 -58t-93 -141t-29.5 -171
q0 -99 43 -151t116 -52zM523 806q0 -24 -17 -44.5t-43 -20.5q-18 0 -30.5 12t-12.5 34q0 25 16.5 45.5t42.5 20.5q20 0 32 -12.5t12 -34.5z" />
    <glyph glyph-name="gdotaccent" unicode="&#x121;" horiz-adv-x="481" 
d="M66 -106q21 -15 67 -15q58 0 97 39q44 46 73 174l-7 3q-57 -74 -133 -74q-57 0 -92 41t-35 104q0 64 25 125t69 104q61 63 135 63q38 0 65.5 -22t37.5 -62l20 78h76l-87 -363q-30 -130 -89 -191t-155 -61q-57 0 -100.5 20.5t-43.5 65.5q0 25 15.5 45t40.5 20q21 0 33 -13
t12 -32q0 -30 -24 -49zM193 75q62 0 109 75t47 164q0 41 -22.5 70t-57.5 29q-63 0 -108 -78.5t-45 -159.5q0 -100 77 -100zM372 596q0 -24 -17 -44.5t-43 -20.5q-18 0 -30.5 12t-12.5 34q0 25 16.5 45.5t42.5 20.5q20 0 32 -12.5t12 -34.5z" />
    <glyph glyph-name="Gcommaaccent" unicode="&#x122;" horiz-adv-x="697" 
d="M161 -294l-11 31q83 33 100 85l-3 2q-12 -4 -18 -4q-17 0 -28 11t-11 31q0 23 15.5 42t40.5 19q27 0 41.5 -18.5t14.5 -46.5q0 -45 -35 -87t-106 -65zM318 41q73 0 125 55.5t75 144.5l7 28h-123l14 52h296l-13 -52h-89l-70 -276h-49l-2 92q-75 -101 -189 -101
q-109 0 -170 76t-61 190q0 109 47.5 205t131.5 154.5t183 58.5q121 0 178 -81l38 78h53l-60 -244h-46q-9 193 -166 193q-83 0 -146.5 -58t-93 -141t-29.5 -171q0 -99 43 -151t116 -52z" />
    <glyph glyph-name="gcommaaccent" unicode="&#x123;" horiz-adv-x="481" 
d="M402 747l11 -31q-83 -33 -100 -85l3 -2q12 4 18 4q17 0 28 -11t11 -31q0 -23 -15.5 -42t-40.5 -19q-27 0 -41.5 18.5t-14.5 46.5q0 45 35 87t106 65zM66 -106q21 -15 67 -15q58 0 97 39q44 46 73 174l-7 3q-57 -74 -133 -74q-57 0 -92 41t-35 104q0 64 25 125t69 104
q61 63 135 63q38 0 65.5 -22t37.5 -62l20 78h76l-87 -363q-30 -130 -89 -191t-155 -61q-57 0 -100.5 20.5t-43.5 65.5q0 25 15.5 45t40.5 20q21 0 33 -13t12 -32q0 -30 -24 -49zM193 75q62 0 109 75t47 164q0 41 -22.5 70t-57.5 29q-63 0 -108 -78.5t-45 -159.5
q0 -100 77 -100z" />
    <glyph glyph-name="Hbar" unicode="&#x126;" horiz-adv-x="761" 
d="M89 453l12 46h110l25 102h-111l13 52h290l-13 -52h-94l-25 -102h305l25 102h-96l13 52h290l-12 -52h-110l-25 -102h109l-11 -46h-110l-99 -401h111l-12 -52h-290l12 52h94l63 252h-305l-63 -252h96l-13 -52h-290l12 52h110l99 401h-110zM259 351h305l25 102h-305z" />
    <glyph glyph-name="hbar" unicode="&#x127;" horiz-adv-x="527" 
d="M377 -9q-32 0 -52.5 23t-19.5 65q0 48 35.5 143t35.5 133q0 40 -35 40q-51 0 -119 -98.5t-122 -296.5h-81l134 510h-75l12 44h75l21 79h-93l14 54h170l-38 -133h126l-11 -44h-127l-72 -257l6 -3q48 100 103.5 154t106.5 54q37 0 60 -27.5t23 -72.5q0 -44 -37.5 -147
t-37.5 -136q0 -25 20 -25q33 0 75 111l34 -11q-53 -159 -131 -159z" />
    <glyph glyph-name="Imacron" unicode="&#x12a;" horiz-adv-x="384" 
d="M-15 0l12 52h110l136 549h-111l12 52h306l-13 -52h-109l-137 -549h112l-12 -52h-306zM198 756l16 63h251l-16 -63h-251z" />
    <glyph glyph-name="imacron" unicode="&#x12b;" horiz-adv-x="318" 
d="M240 362q0 -44 -42 -149.5t-42 -136.5q0 -26 23 -26q34 0 77 111l34 -11q-54 -159 -134 -159q-34 0 -54.5 22.5t-20.5 63.5q1 48 44 155.5t43 146.5q0 28 -19 28q-22 0 -43 -28.5t-50 -84.5l-34 16q34 73 68 110.5t75 37.5q34 0 54.5 -25.5t20.5 -70.5zM75 546l16 63h251
l-16 -63h-251z" />
    <glyph glyph-name="Ibreve" unicode="&#x12c;" horiz-adv-x="384" 
d="M-15 0l12 52h110l136 549h-111l12 52h306l-13 -52h-109l-137 -549h112l-12 -52h-306zM320 745q-58 0 -86.5 40t-14.5 109h31q3 -88 79 -88q68 0 116 88h32q-20 -70 -61.5 -109.5t-95.5 -39.5z" />
    <glyph glyph-name="ibreve" unicode="&#x12d;" horiz-adv-x="318" 
d="M240 362q0 -44 -42 -149.5t-42 -136.5q0 -26 23 -26q34 0 77 111l34 -11q-54 -159 -134 -159q-34 0 -54.5 22.5t-20.5 63.5q1 48 44 155.5t43 146.5q0 28 -19 28q-22 0 -43 -28.5t-50 -84.5l-34 16q34 73 68 110.5t75 37.5q34 0 54.5 -25.5t20.5 -70.5zM197 535
q-58 0 -86.5 40t-14.5 109h31q3 -88 79 -88q68 0 116 88h32q-20 -70 -61.5 -109.5t-95.5 -39.5z" />
    <glyph glyph-name="Iogonek" unicode="&#x12e;" horiz-adv-x="384" 
d="M-15 0l12 52h110l136 549h-111l12 52h306l-13 -52h-109l-137 -549h112l-12 -52h-109l-11 -9q-65 -52 -87.5 -82t-22.5 -57q0 -20 12.5 -32.5t36.5 -12.5q23 0 57 19l15 -29q-43 -35 -93 -35q-39 0 -65.5 21.5t-26.5 59.5q0 37 29 71.5t99 80.5l7 5h-147z" />
    <glyph glyph-name="iogonek" unicode="&#x12f;" horiz-adv-x="318" 
d="M255 161l35 -11q-38 -108 -93 -153q-62 -51 -88 -82.5t-26 -62.5q0 -20 12 -32.5t36 -12.5t58 19l15 -29q-43 -35 -93 -35q-39 0 -65.5 21.5t-26.5 59.5q0 37 27.5 70.5t92.5 78.5q-26 5 -42.5 27t-15.5 58q0 49 43 156.5t43 145.5q0 28 -19 28q-36 0 -92 -113l-34 16
q67 148 142 148q35 0 55.5 -25.5t20.5 -70.5q0 -44 -42.5 -149.5t-42.5 -136.5q0 -26 23 -26q36 0 77 111zM293 609q0 -25 -18 -47t-46 -22q-19 0 -32 13t-13 35q0 26 17 48t45 22q21 0 34 -13.5t13 -35.5z" />
    <glyph glyph-name="Idotaccent" unicode="&#x130;" horiz-adv-x="384" 
d="M-15 0l12 52h110l136 549h-111l12 52h306l-13 -52h-109l-137 -549h112l-12 -52h-306zM385 806q0 -24 -17 -44.5t-43 -20.5q-18 0 -30.5 12t-12.5 34q0 25 16.5 45.5t42.5 20.5q20 0 32 -12.5t12 -34.5z" />
    <glyph glyph-name="dotlessi" unicode="&#x131;" horiz-adv-x="318" 
d="M240 362q0 -44 -42 -149.5t-42 -136.5q0 -26 23 -26q34 0 77 111l34 -11q-54 -159 -134 -159q-34 0 -54.5 22.5t-20.5 63.5q1 48 44 155.5t43 146.5q0 28 -19 28q-22 0 -43 -28.5t-50 -84.5l-34 16q34 73 68 110.5t75 37.5q34 0 54.5 -25.5t20.5 -70.5z" />
    <glyph glyph-name="Kcommaaccent" unicode="&#x136;" horiz-adv-x="704" 
d="M197 -294l-11 31q83 33 100 85l-3 2q-12 -4 -18 -4q-17 0 -28 11t-11 31q0 23 15.5 42t40.5 19q27 0 41.5 -18.5t14.5 -46.5q0 -45 -35 -87t-106 -65zM690 601l-277 -224l155 -325h86l-12 -52h-274l13 52h91l-124 273l-119 -98l-44 -175h96l-13 -52h-290l12 52h110
l136 549h-111l13 52h290l-13 -52h-94l-74 -300l360 300h-88l13 52h250l-12 -52h-80z" />
    <glyph glyph-name="kcommaaccent" unicode="&#x137;" horiz-adv-x="486" 
d="M328 83q0 -33 22 -33q34 0 74 111l34 -11q-52 -159 -129 -159q-32 0 -53.5 24t-20.5 69q0 16 4.5 49t4.5 42q0 30 -17.5 41t-69.5 11h-23l-61 -227h-74l167 633h-93l14 54h170l-114 -426h14q37 0 61.5 21.5t57.5 75.5q30 52 56 76t62 24q30 0 46 -15.5t16 -43.5
t-15.5 -47.5t-37.5 -19.5q-26 0 -36.5 21.5t2.5 49.5q-26 -2 -65 -70q-37 -64 -80 -83q92 -6 92 -80q0 -16 -4 -45.5t-4 -41.5zM70 -294l-11 31q83 33 100 85l-3 2q-12 -4 -18 -4q-17 0 -28 11t-11 31q0 23 15.5 42t40.5 19q27 0 41.5 -18.5t14.5 -46.5q0 -45 -35 -87
t-106 -65z" />
    <glyph glyph-name="Lacute" unicode="&#x139;" horiz-adv-x="592" 
d="M412 821l-92 -83h-40l81 125q27 41 41 55.5t32 14.5q15 0 25 -10.5t10 -25.5q0 -17 -11 -30t-46 -46zM138 653h298l-12 -52h-103l-136 -549h178q54 0 78.5 30t73.5 144h42l-57 -226h-522l12 52h110l136 549h-111z" />
    <glyph glyph-name="lacute" unicode="&#x13a;" horiz-adv-x="268" 
d="M321 848l-92 -83h-40l81 125q27 41 41 55.5t32 14.5q15 0 25 -10.5t10 -25.5q0 -17 -11 -30t-46 -46zM40 76q0 37 24 127l117 430h-94l15 54h169l-142 -525q-15 -56 -15 -82q0 -30 23 -30q37 0 77 111l34 -11q-30 -89 -61.5 -124t-70.5 -35q-36 0 -56 22.5t-20 62.5z" />
    <glyph glyph-name="Lcommaaccent" unicode="&#x13b;" horiz-adv-x="592" 
d="M165 -294l-11 31q83 33 100 85l-3 2q-12 -4 -18 -4q-17 0 -28 11t-11 31q0 23 15.5 42t40.5 19q27 0 41.5 -18.5t14.5 -46.5q0 -45 -35 -87t-106 -65zM138 653h298l-12 -52h-103l-136 -549h178q54 0 78.5 30t73.5 144h42l-57 -226h-522l12 52h110l136 549h-111z" />
    <glyph glyph-name="lcommaaccent" unicode="&#x13c;" horiz-adv-x="268" 
d="M-2 -294l-11 31q83 33 100 85l-3 2q-12 -4 -18 -4q-17 0 -28 11t-11 31q0 23 15.5 42t40.5 19q27 0 41.5 -18.5t14.5 -46.5q0 -45 -35 -87t-106 -65zM40 76q0 37 24 127l117 430h-94l15 54h169l-142 -525q-15 -56 -15 -82q0 -30 23 -30q37 0 77 111l34 -11
q-30 -89 -61.5 -124t-70.5 -35q-36 0 -56 22.5t-20 62.5z" />
    <glyph glyph-name="Lcaron" unicode="&#x13d;" horiz-adv-x="592" 
d="M559 608l-59 -110h-33l37 157q15 62 48 62q15 0 25 -10t10 -26q0 -22 -28 -73zM138 653h298l-12 -52h-103l-136 -549h178q54 0 78.5 30t73.5 144h42l-57 -226h-522l12 52h110l136 549h-111z" />
    <glyph glyph-name="lcaron" unicode="&#x13e;" horiz-adv-x="268" 
d="M396 642l-59 -110h-33l37 157q15 62 48 62q15 0 25 -10t10 -26q0 -22 -28 -73zM40 76q0 37 24 127l117 430h-94l15 54h169l-142 -525q-15 -56 -15 -82q0 -30 23 -30q37 0 77 111l34 -11q-30 -89 -61.5 -124t-70.5 -35q-36 0 -56 22.5t-20 62.5z" />
    <glyph glyph-name="Ldot" unicode="&#x13f;" horiz-adv-x="592" 
d="M138 653h298l-12 -52h-103l-136 -549h178q54 0 78 29.5t74 142.5h41l-56 -224h-522l12 52h110l136 549h-111zM481 303q-18 0 -30.5 12t-12.5 34q0 25 16.5 45.5t42.5 20.5q20 0 32.5 -12.5t12.5 -33.5q0 -24 -17 -45t-44 -21z" />
    <glyph glyph-name="ldot" unicode="&#x140;" horiz-adv-x="351" 
d="M368 358q0 -23 -17 -43.5t-43 -20.5q-18 0 -29.5 12t-11.5 33q0 25 16 45t42 20q19 0 31 -12t12 -34zM40 76q0 37 24 127l117 430h-94l15 54h169l-142 -525q-15 -56 -15 -82q0 -30 23 -30q37 0 77 111l34 -11q-30 -89 -61.5 -124t-70.5 -35q-36 0 -56 22.5t-20 62.5z" />
    <glyph glyph-name="Lslash" unicode="&#x141;" horiz-adv-x="592" 
d="M138 653h298l-12 -52h-103l-59 -237l188 58l-12 -50l-188 -59l-65 -261h178q54 0 78.5 30t73.5 144h42l-57 -226h-522l12 52h110l57 233l-93 -29l13 52l93 28l66 265h-111z" />
    <glyph glyph-name="lslash" unicode="&#x142;" horiz-adv-x="308" 
d="M60 76q0 37 24 127l29 107l-90 -28l12 48l91 28l75 275h-94l15 54h169l-82 -303l101 32l-11 -48l-103 -32l-47 -174q-15 -56 -15 -82q0 -30 23 -30q37 0 77 111l34 -11q-30 -89 -61.5 -124t-70.5 -35q-36 0 -56 22.5t-20 62.5z" />
    <glyph glyph-name="Nacute" unicode="&#x143;" horiz-adv-x="751" 
d="M591 821l-92 -83h-40l81 125q27 41 41 55.5t32 14.5q15 0 25 -10.5t10 -25.5q0 -17 -11 -30t-46 -46zM522 -16l-239 568h-5l-124 -500h96l-12 -52h-257l12 52h102l136 549h-103l12 52h190l217 -510h5l113 458h-98l13 52h255l-13 -52h-98l-154 -617h-48z" />
    <glyph glyph-name="nacute" unicode="&#x144;" horiz-adv-x="559" 
d="M442 611l-92 -83h-40l81 125q27 41 41 55.5t32 14.5q15 0 25 -10.5t10 -25.5q0 -17 -11 -30t-46 -46zM411 75q0 -25 20 -25q34 0 74 111l35 -11q-30 -88 -62.5 -123.5t-68.5 -35.5q-32 0 -52.5 23t-20.5 65q1 48 36 142.5t35 133.5q0 40 -34 40q-50 0 -113.5 -97.5
t-118.5 -297.5h-81l84 315q10 37 11 58t-4 27.5t-15 6.5q-19 0 -38.5 -28t-47.5 -85l-34 16q33 73 65.5 109.5t71.5 36.5q63 0 63 -82q0 -49 -22 -117l7 -3q97 204 201 204q37 0 60 -27.5t23 -72.5q0 -44 -37 -147t-37 -136z" />
    <glyph glyph-name="Ncommaaccent" unicode="&#x145;" horiz-adv-x="751" 
d="M212 -294l-11 31q83 33 100 85l-3 2q-12 -4 -18 -4q-17 0 -28 11t-11 31q0 23 15.5 42t40.5 19q27 0 41.5 -18.5t14.5 -46.5q0 -45 -35 -87t-106 -65zM522 -16l-239 568h-5l-124 -500h96l-12 -52h-257l12 52h102l136 549h-103l12 52h190l217 -510h5l113 458h-98l13 52
h255l-13 -52h-98l-154 -617h-48z" />
    <glyph glyph-name="ncommaaccent" unicode="&#x146;" horiz-adv-x="559" 
d="M134 -294l-11 31q83 33 100 85l-3 2q-12 -4 -18 -4q-17 0 -28 11t-11 31q0 23 15.5 42t40.5 19q27 0 41.5 -18.5t14.5 -46.5q0 -45 -35 -87t-106 -65zM411 75q0 -25 20 -25q34 0 74 111l35 -11q-30 -88 -62.5 -123.5t-68.5 -35.5q-32 0 -52.5 23t-20.5 65q1 48 36 142.5
t35 133.5q0 40 -34 40q-50 0 -113.5 -97.5t-118.5 -297.5h-81l84 315q10 37 11 58t-4 27.5t-15 6.5q-19 0 -38.5 -28t-47.5 -85l-34 16q33 73 65.5 109.5t71.5 36.5q63 0 63 -82q0 -49 -22 -117l7 -3q97 204 201 204q37 0 60 -27.5t23 -72.5q0 -44 -37 -147t-37 -136z" />
    <glyph glyph-name="Ncaron" unicode="&#x147;" horiz-adv-x="751" 
d="M659 928l-154 -180h-38l-62 180h37l58 -101l117 101h42zM522 -16l-239 568h-5l-124 -500h96l-12 -52h-257l12 52h102l136 549h-103l12 52h190l217 -510h5l113 458h-98l13 52h255l-13 -52h-98l-154 -617h-48z" />
    <glyph glyph-name="ncaron" unicode="&#x148;" horiz-adv-x="559" 
d="M510 718l-154 -180h-38l-62 180h37l58 -101l117 101h42zM411 75q0 -25 20 -25q34 0 74 111l35 -11q-30 -88 -62.5 -123.5t-68.5 -35.5q-32 0 -52.5 23t-20.5 65q1 48 36 142.5t35 133.5q0 40 -34 40q-50 0 -113.5 -97.5t-118.5 -297.5h-81l84 315q10 37 11 58t-4 27.5
t-15 6.5q-19 0 -38.5 -28t-47.5 -85l-34 16q33 73 65.5 109.5t71.5 36.5q63 0 63 -82q0 -49 -22 -117l7 -3q97 204 201 204q37 0 60 -27.5t23 -72.5q0 -44 -37 -147t-37 -136z" />
    <glyph glyph-name="Omacron" unicode="&#x14c;" horiz-adv-x="696" 
d="M345 756l16 63h251l-16 -63h-251zM70 263q0 103 45.5 195.5t127.5 150.5t179 58q114 0 185 -77t71 -201q0 -103 -45.5 -196t-127 -151t-178.5 -58q-114 0 -185.5 77.5t-71.5 201.5zM417 615q-64 0 -115.5 -38t-81 -96t-45 -120.5t-15.5 -119.5q0 -102 46 -153t125 -51
q64 0 116 37.5t81.5 96t45 120.5t15.5 119q0 103 -46.5 154t-125.5 51z" />
    <glyph glyph-name="omacron" unicode="&#x14d;" horiz-adv-x="473" 
d="M188 546l16 63h251l-16 -63h-251zM274 458q77 0 121.5 -51.5t44.5 -133.5q0 -113 -71.5 -197.5t-168.5 -84.5q-78 0 -122 51.5t-44 133.5q0 113 71.5 197.5t168.5 84.5zM361 306q0 56 -23.5 84t-63.5 28q-48 0 -86.5 -46.5t-56.5 -108t-18 -119.5q0 -56 23.5 -84
t62.5 -28q48 0 86.5 46.5t57 108t18.5 119.5z" />
    <glyph glyph-name="Obreve" unicode="&#x14e;" horiz-adv-x="696" 
d="M70 263q0 103 45.5 195.5t127.5 150.5t179 58q114 0 185 -77t71 -201q0 -103 -45.5 -196t-127 -151t-178.5 -58q-114 0 -185.5 77.5t-71.5 201.5zM417 615q-64 0 -115.5 -38t-81 -96t-45 -120.5t-15.5 -119.5q0 -102 46 -153t125 -51q64 0 116 37.5t81.5 96t45 120.5
t15.5 119q0 103 -46.5 154t-125.5 51zM467 745q-58 0 -86.5 40t-14.5 109h31q3 -88 79 -88q68 0 116 88h32q-20 -70 -61.5 -109.5t-95.5 -39.5z" />
    <glyph glyph-name="obreve" unicode="&#x14f;" horiz-adv-x="473" 
d="M274 458q77 0 121.5 -51.5t44.5 -133.5q0 -113 -71.5 -197.5t-168.5 -84.5q-78 0 -122 51.5t-44 133.5q0 113 71.5 197.5t168.5 84.5zM361 306q0 56 -23.5 84t-63.5 28q-48 0 -86.5 -46.5t-56.5 -108t-18 -119.5q0 -56 23.5 -84t62.5 -28q48 0 86.5 46.5t57 108
t18.5 119.5zM310 535q-58 0 -86.5 40t-14.5 109h31q3 -88 79 -88q68 0 116 88h32q-20 -70 -61.5 -109.5t-95.5 -39.5z" />
    <glyph glyph-name="Ohungarumlaut" unicode="&#x150;" horiz-adv-x="696" 
d="M494 821l-90 -83h-40l79 125q25 42 38 56t31 14q15 0 25.5 -11t10.5 -25q0 -17 -10 -30.5t-44 -45.5zM646 821l-92 -83h-41l83 125q26 41 40 55.5t31 14.5q16 0 25.5 -10.5t9.5 -24.5q0 -17 -11 -31t-45 -46zM70 263q0 103 45.5 195.5t127.5 150.5t179 58q114 0 185 -77
t71 -201q0 -103 -45.5 -196t-127 -151t-178.5 -58q-114 0 -185.5 77.5t-71.5 201.5zM417 615q-64 0 -115.5 -38t-81 -96t-45 -120.5t-15.5 -119.5q0 -102 46 -153t125 -51q64 0 116 37.5t81.5 96t45 120.5t15.5 119q0 103 -46.5 154t-125.5 51z" />
    <glyph glyph-name="ohungarumlaut" unicode="&#x151;" horiz-adv-x="473" 
d="M336 611l-90 -83h-40l79 125q25 42 38 56t31 14q15 0 25.5 -11t10.5 -25q0 -17 -10 -30.5t-44 -45.5zM488 611l-92 -83h-41l83 125q26 41 40 55.5t31 14.5q16 0 25.5 -10.5t9.5 -24.5q0 -17 -11 -31t-45 -46zM274 458q77 0 121.5 -51.5t44.5 -133.5q0 -113 -71.5 -197.5
t-168.5 -84.5q-78 0 -122 51.5t-44 133.5q0 113 71.5 197.5t168.5 84.5zM361 306q0 56 -23.5 84t-63.5 28q-48 0 -86.5 -46.5t-56.5 -108t-18 -119.5q0 -56 23.5 -84t62.5 -28q48 0 86.5 46.5t57 108t18.5 119.5z" />
    <glyph glyph-name="OE" unicode="&#x152;" horiz-adv-x="977" 
d="M513 653h498l-51 -205h-39q5 102 -5.5 127.5t-59.5 25.5h-209l-60 -243h86q45 0 62.5 16.5t44.5 83.5h42l-62 -249h-40q7 70 -1.5 87t-51.5 17h-91l-65 -261h206q55 0 80 29t75 143h41l-56 -224h-497q-146 0 -222 68.5t-76 181.5q0 76 31 152t89 133q120 118 331 118z
M562 601h-48q-166 0 -248 -82q-51 -51 -81 -129.5t-30 -157.5q0 -180 212 -180h58z" />
    <glyph glyph-name="oe" unicode="&#x153;" horiz-adv-x="744" 
d="M662 139l31 -20q-84 -128 -196 -128q-49 0 -84 24t-49 68q-65 -92 -166 -92q-76 0 -120 51.5t-44 133.5q0 113 71.5 197.5t168.5 84.5q111 0 147 -106q37 48 88 77t103 29t81.5 -26t29.5 -66q0 -69 -76 -117.5t-225 -64.5q-2 -10 -2 -29q0 -59 25.5 -88t68.5 -29
q79 0 148 101zM361 306q0 56 -23.5 84t-63.5 28q-48 0 -86.5 -46.5t-56.5 -108t-18 -119.5q0 -56 23.5 -84t62.5 -28q48 0 86.5 46.5t57 108t18.5 119.5zM597 418q-56 0 -102.5 -60t-65.5 -137q222 30 222 143q0 24 -14.5 39t-39.5 15z" />
    <glyph glyph-name="Racute" unicode="&#x154;" horiz-adv-x="667" 
d="M542 821l-92 -83h-40l81 125q27 41 41 55.5t32 14.5q15 0 25 -10.5t10 -25.5q0 -17 -11 -30t-46 -46zM-22 0l12 52h110l136 549h-111l13 52h294q114 0 162 -41.5t48 -105.5q0 -71 -49.5 -124t-149.5 -64l-2 -5q57 -15 78.5 -41.5t21.5 -71.5q0 -19 -6 -60t-6 -56
q0 -42 42 -42q27 0 62 16l13 -32q-54 -37 -115 -37q-42 0 -67 21t-25 64q0 23 10 77.5t10 79.5q0 31 -21 46.5t-76 15.5h-117l-60 -241h109l-12 -52h-304zM256 341h105q97 0 143 46q21 21 33.5 55.5t12.5 68.5q0 90 -123 90h-106z" />
    <glyph glyph-name="racute" unicode="&#x155;" horiz-adv-x="423" 
d="M381 611l-92 -83h-40l81 125q27 41 41 55.5t32 14.5q15 0 25 -10.5t10 -25.5q0 -17 -11 -30t-46 -46zM60 0l84 315q10 37 11 58t-4 27.5t-15 6.5q-19 0 -38.5 -28t-47.5 -85l-34 16q33 73 65.5 109.5t71.5 36.5q63 0 63 -82q0 -49 -22 -117l8 -3q50 105 89 154.5t81 49.5
q26 0 41.5 -15.5t15.5 -42.5q0 -29 -16 -50t-39 -21q-21 0 -32.5 15.5t-9.5 41.5q-36 -17 -91 -118.5t-100 -267.5h-81z" />
    <glyph glyph-name="Rcommaaccent" unicode="&#x156;" horiz-adv-x="667" 
d="M200 -294l-11 31q83 33 100 85l-3 2q-12 -4 -18 -4q-17 0 -28 11t-11 31q0 23 15.5 42t40.5 19q27 0 41.5 -18.5t14.5 -46.5q0 -45 -35 -87t-106 -65zM-22 0l12 52h110l136 549h-111l13 52h294q114 0 162 -41.5t48 -105.5q0 -71 -49.5 -124t-149.5 -64l-2 -5
q57 -15 78.5 -41.5t21.5 -71.5q0 -19 -6 -60t-6 -56q0 -42 42 -42q27 0 62 16l13 -32q-54 -37 -115 -37q-42 0 -67 21t-25 64q0 23 10 77.5t10 79.5q0 31 -21 46.5t-76 15.5h-117l-60 -241h109l-12 -52h-304zM256 341h105q97 0 143 46q21 21 33.5 55.5t12.5 68.5
q0 90 -123 90h-106z" />
    <glyph glyph-name="rcommaaccent" unicode="&#x157;" horiz-adv-x="423" 
d="M-1 -294l-11 31q83 33 100 85l-3 2q-12 -4 -18 -4q-17 0 -28 11t-11 31q0 23 15.5 42t40.5 19q27 0 41.5 -18.5t14.5 -46.5q0 -45 -35 -87t-106 -65zM60 0l84 315q10 37 11 58t-4 27.5t-15 6.5q-19 0 -38.5 -28t-47.5 -85l-34 16q33 73 65.5 109.5t71.5 36.5q63 0 63 -82
q0 -49 -22 -117l8 -3q50 105 89 154.5t81 49.5q26 0 41.5 -15.5t15.5 -42.5q0 -29 -16 -50t-39 -21q-21 0 -32.5 15.5t-9.5 41.5q-36 -17 -91 -118.5t-100 -267.5h-81z" />
    <glyph glyph-name="Rcaron" unicode="&#x158;" horiz-adv-x="667" 
d="M610 928l-154 -180h-38l-62 180h37l58 -101l117 101h42zM-22 0l12 52h110l136 549h-111l13 52h294q114 0 162 -41.5t48 -105.5q0 -71 -49.5 -124t-149.5 -64l-2 -5q57 -15 78.5 -41.5t21.5 -71.5q0 -19 -6 -60t-6 -56q0 -42 42 -42q27 0 62 16l13 -32q-54 -37 -115 -37
q-42 0 -67 21t-25 64q0 23 10 77.5t10 79.5q0 31 -21 46.5t-76 15.5h-117l-60 -241h109l-12 -52h-304zM256 341h105q97 0 143 46q21 21 33.5 55.5t12.5 68.5q0 90 -123 90h-106z" />
    <glyph glyph-name="rcaron" unicode="&#x159;" horiz-adv-x="423" 
d="M449 718l-154 -180h-38l-62 180h37l58 -101l117 101h42zM60 0l84 315q10 37 11 58t-4 27.5t-15 6.5q-19 0 -38.5 -28t-47.5 -85l-34 16q33 73 65.5 109.5t71.5 36.5q63 0 63 -82q0 -49 -22 -117l8 -3q50 105 89 154.5t81 49.5q26 0 41.5 -15.5t15.5 -42.5q0 -29 -16 -50
t-39 -21q-21 0 -32.5 15.5t-9.5 41.5q-36 -17 -91 -118.5t-100 -267.5h-81z" />
    <glyph glyph-name="Sacute" unicode="&#x15a;" horiz-adv-x="561" 
d="M505 821l-92 -83h-40l81 125q27 41 41 55.5t32 14.5q15 0 25 -10.5t10 -25.5q0 -17 -11 -30t-46 -46zM-4 -13l57 233h44q18 -97 68.5 -142.5t122.5 -45.5q61 0 100.5 36.5t39.5 88.5q0 45 -33.5 73t-107.5 63q-39 18 -62.5 32t-50 35.5t-39 49t-12.5 61.5
q0 79 62.5 137.5t156.5 58.5q55 0 100 -21.5t70 -55.5l40 74h49l-55 -221h-43q-18 99 -59.5 138t-107.5 39q-54 0 -92 -34.5t-38 -85.5q0 -17 4 -31t15.5 -26.5t19.5 -20.5t29.5 -20t31 -17t36.5 -18q42 -20 66 -33.5t52 -35.5t40.5 -49.5t12.5 -62.5q0 -84 -67 -143
t-163 -59q-126 0 -193 86l-45 -83h-49z" />
    <glyph glyph-name="sacute" unicode="&#x15b;" horiz-adv-x="414" 
d="M385 611l-92 -83h-40l81 125q27 41 41 55.5t32 14.5q15 0 25 -10.5t10 -25.5q0 -17 -11 -30t-46 -46zM353 137q0 -68 -49.5 -107t-119.5 -39q-63 0 -115 29t-52 77q0 25 15 44t39 19q20 0 31.5 -13t11.5 -32q0 -34 -25 -51q29 -34 95 -34q43 0 69.5 22t26.5 60
q0 27 -20.5 44.5t-74.5 42.5q-25 11 -39 19t-32 22t-26.5 33t-8.5 42q0 67 50 105t117 38q62 0 105.5 -26t43.5 -68q0 -25 -13.5 -43t-36.5 -18q-20 0 -32 12t-12 31q0 31 25 49q-9 10 -32 17.5t-48 7.5q-42 0 -68 -21t-26 -56q0 -27 20.5 -46t70.5 -41q55 -24 82.5 -49.5
t27.5 -69.5z" />
    <glyph glyph-name="Scedilla" unicode="&#x15e;" horiz-adv-x="561" 
d="M124 -166q41 -31 80 -31q23 0 38.5 12.5t15.5 34.5q0 27 -28.5 36t-64.5 5l-10 20l90 75q-100 12 -155 84l-45 -83h-49l57 233h44q18 -97 68.5 -142.5t122.5 -45.5q61 0 100.5 36.5t39.5 88.5q0 45 -33.5 73t-107.5 63q-39 18 -62.5 32t-50 35.5t-39 49t-12.5 61.5
q0 79 62.5 137.5t156.5 58.5q55 0 100 -21.5t70 -55.5l40 74h49l-55 -221h-43q-18 99 -59.5 138t-107.5 39q-54 0 -92 -34.5t-38 -85.5q0 -17 4 -31t15.5 -26.5t19.5 -20.5t29.5 -20t31 -17t36.5 -18q42 -20 66 -33.5t52 -35.5t40.5 -49.5t12.5 -62.5q0 -81 -63 -139
t-155 -63l-64 -52v-3q38 -5 61 -24t23 -50q0 -39 -30 -66t-78 -27q-62 0 -107 42z" />
    <glyph glyph-name="scedilla" unicode="&#x15f;" horiz-adv-x="414" 
d="M38 -166q41 -31 80 -31q23 0 38.5 12.5t15.5 34.5q0 27 -28.5 36t-64.5 5l-10 20l96 81q-59 4 -103.5 32t-44.5 73q0 25 15 44t39 19q20 0 31.5 -13t11.5 -32q0 -34 -25 -51q29 -34 95 -34q43 0 69.5 22t26.5 60q0 27 -20.5 44.5t-74.5 42.5q-25 11 -39 19t-32 22
t-26.5 33t-8.5 42q0 67 50 105t117 38q62 0 105.5 -26t43.5 -68q0 -25 -13.5 -43t-36.5 -18q-20 0 -32 12t-12 31q0 31 25 49q-9 10 -32 17.5t-48 7.5q-42 0 -68 -21t-26 -56q0 -27 20.5 -46t70.5 -41q55 -24 82.5 -49.5t27.5 -69.5q0 -59 -37 -96t-95 -47l-76 -62v-3
q38 -5 61 -24t23 -50q0 -39 -30 -66t-78 -27q-62 0 -107 42z" />
    <glyph glyph-name="Scaron" unicode="&#x160;" horiz-adv-x="561" 
d="M573 928l-154 -180h-38l-62 180h37l58 -101l117 101h42zM-4 -13l57 233h44q18 -97 68.5 -142.5t122.5 -45.5q61 0 100.5 36.5t39.5 88.5q0 45 -33.5 73t-107.5 63q-39 18 -62.5 32t-50 35.5t-39 49t-12.5 61.5q0 79 62.5 137.5t156.5 58.5q55 0 100 -21.5t70 -55.5l40 74
h49l-55 -221h-43q-18 99 -59.5 138t-107.5 39q-54 0 -92 -34.5t-38 -85.5q0 -17 4 -31t15.5 -26.5t19.5 -20.5t29.5 -20t31 -17t36.5 -18q42 -20 66 -33.5t52 -35.5t40.5 -49.5t12.5 -62.5q0 -84 -67 -143t-163 -59q-126 0 -193 86l-45 -83h-49z" />
    <glyph glyph-name="scaron" unicode="&#x161;" horiz-adv-x="414" 
d="M453 718l-154 -180h-38l-62 180h37l58 -101l117 101h42zM353 137q0 -68 -49.5 -107t-119.5 -39q-63 0 -115 29t-52 77q0 25 15 44t39 19q20 0 31.5 -13t11.5 -32q0 -34 -25 -51q29 -34 95 -34q43 0 69.5 22t26.5 60q0 27 -20.5 44.5t-74.5 42.5q-25 11 -39 19t-32 22
t-26.5 33t-8.5 42q0 67 50 105t117 38q62 0 105.5 -26t43.5 -68q0 -25 -13.5 -43t-36.5 -18q-20 0 -32 12t-12 31q0 31 25 49q-9 10 -32 17.5t-48 7.5q-42 0 -68 -21t-26 -56q0 -27 20.5 -46t70.5 -41q55 -24 82.5 -49.5t27.5 -69.5z" />
    <glyph glyph-name="Tcommaaccent" unicode="&#x162;" horiz-adv-x="656" 
d="M160 -294l-11 31q83 33 100 85l-3 2q-12 -4 -18 -4q-17 0 -28 11t-11 31q0 23 15.5 42t40.5 19q27 0 41.5 -18.5t14.5 -46.5q0 -45 -35 -87t-106 -65zM115 0l12 52h113l139 553h-83q-53 0 -79 -30t-83 -149h-40l57 227h564l-57 -227h-37q4 116 -8 147.5t-66 31.5h-83
l-139 -553h115l-12 -52h-313z" />
    <glyph glyph-name="tcommaaccent" unicode="&#x163;" horiz-adv-x="352" 
d="M31 -294l-11 31q83 33 100 85l-3 2q-12 -4 -18 -4q-17 0 -28 11t-11 31q0 23 15.5 42t40.5 19q27 0 41.5 -18.5t14.5 -46.5q0 -45 -35 -87t-106 -65zM351 398h-136l-65 -236q-13 -51 -13 -71q0 -39 37 -39q49 0 103 117l35 -11q-63 -167 -160 -167q-45 0 -69 24t-24 63
q0 26 18 98l61 222h-91l11 44h91l34 125l80 10l-37 -135h137z" />
    <glyph glyph-name="Tcaron" unicode="&#x164;" horiz-adv-x="656" 
d="M618 928l-154 -180h-38l-62 180h37l58 -101l117 101h42zM115 0l12 52h113l139 553h-83q-53 0 -79 -30t-83 -149h-40l57 227h564l-57 -227h-37q4 116 -8 147.5t-66 31.5h-83l-139 -553h115l-12 -52h-313z" />
    <glyph glyph-name="tcaron" unicode="&#x165;" horiz-adv-x="352" 
d="M409 642l-59 -110h-33l37 157q15 62 48 62q15 0 25 -10t10 -26q0 -22 -28 -73zM351 398h-136l-65 -236q-13 -51 -13 -71q0 -39 37 -39q49 0 103 117l35 -11q-63 -167 -160 -167q-45 0 -69 24t-24 63q0 26 18 98l61 222h-91l11 44h91l34 125l80 10l-37 -135h137z" />
    <glyph glyph-name="Umacron" unicode="&#x16a;" horiz-adv-x="722" 
d="M336 -16q-108 0 -166.5 48t-58.5 124q0 38 13 93l87 352h-96l13 52h278l-12 -52h-98l-84 -339q-15 -59 -15 -101q0 -57 40 -88t113 -31q83 0 135 51q42 43 64 126l94 382h-99l12 52h249l-13 -52h-90l-101 -405q-22 -88 -75 -140q-70 -72 -190 -72zM362 756l16 63h251
l-16 -63h-251z" />
    <glyph glyph-name="umacron" unicode="&#x16b;" horiz-adv-x="555" 
d="M414 -9q-70 0 -70 85q0 45 22 115l-7 3q-97 -203 -199 -203q-38 0 -60.5 27t-22.5 73q0 44 36.5 148t36.5 135q0 25 -19 25q-18 0 -35 -23.5t-45 -80.5l-34 16q35 75 66 111t72 36q32 0 51.5 -22.5t18.5 -64.5q0 -47 -35 -142t-35 -132q0 -43 35 -43q49 0 112 97.5
t118 300.5h82l-78 -290q-15 -57 -15 -82q0 -30 24 -30q20 0 37.5 27.5t38.5 83.5l34 -11q-53 -159 -129 -159zM206 546l16 63h251l-16 -63h-251z" />
    <glyph glyph-name="Ubreve" unicode="&#x16c;" horiz-adv-x="722" 
d="M336 -16q-108 0 -166.5 48t-58.5 124q0 38 13 93l87 352h-96l13 52h278l-12 -52h-98l-84 -339q-15 -59 -15 -101q0 -57 40 -88t113 -31q83 0 135 51q42 43 64 126l94 382h-99l12 52h249l-13 -52h-90l-101 -405q-22 -88 -75 -140q-70 -72 -190 -72zM485 745
q-58 0 -86.5 40t-14.5 109h31q3 -88 79 -88q68 0 116 88h32q-20 -70 -61.5 -109.5t-95.5 -39.5z" />
    <glyph glyph-name="ubreve" unicode="&#x16d;" horiz-adv-x="555" 
d="M414 -9q-70 0 -70 85q0 45 22 115l-7 3q-97 -203 -199 -203q-38 0 -60.5 27t-22.5 73q0 44 36.5 148t36.5 135q0 25 -19 25q-18 0 -35 -23.5t-45 -80.5l-34 16q35 75 66 111t72 36q32 0 51.5 -22.5t18.5 -64.5q0 -47 -35 -142t-35 -132q0 -43 35 -43q49 0 112 97.5
t118 300.5h82l-78 -290q-15 -57 -15 -82q0 -30 24 -30q20 0 37.5 27.5t38.5 83.5l34 -11q-53 -159 -129 -159zM328 535q-58 0 -86.5 40t-14.5 109h31q3 -88 79 -88q68 0 116 88h32q-20 -70 -61.5 -109.5t-95.5 -39.5z" />
    <glyph glyph-name="Uring" unicode="&#x16e;" horiz-adv-x="722" 
d="M612 847q0 -46 -32 -80.5t-83 -34.5q-41 0 -67 23.5t-26 62.5q0 46 32 80.5t83 34.5q41 0 67 -23.5t26 -62.5zM449 816q0 -24 13.5 -38t36.5 -14q30 0 48.5 26.5t18.5 58.5q0 24 -13 38t-37 14q-30 0 -48.5 -26.5t-18.5 -58.5zM336 -16q-108 0 -166.5 48t-58.5 124
q0 38 13 93l87 352h-96l13 52h278l-12 -52h-98l-84 -339q-15 -59 -15 -101q0 -57 40 -88t113 -31q83 0 135 51q42 43 64 126l94 382h-99l12 52h249l-13 -52h-90l-101 -405q-22 -88 -75 -140q-70 -72 -190 -72z" />
    <glyph glyph-name="uring" unicode="&#x16f;" horiz-adv-x="555" 
d="M455 637q0 -46 -32 -80.5t-83 -34.5q-41 0 -67 23.5t-26 62.5q0 46 32 80.5t83 34.5q41 0 67 -23.5t26 -62.5zM292 606q0 -24 13.5 -38t36.5 -14q30 0 48.5 26.5t18.5 58.5q0 24 -13 38t-37 14q-30 0 -48.5 -26.5t-18.5 -58.5zM414 -9q-70 0 -70 85q0 45 22 115l-7 3
q-97 -203 -199 -203q-38 0 -60.5 27t-22.5 73q0 44 36.5 148t36.5 135q0 25 -19 25q-18 0 -35 -23.5t-45 -80.5l-34 16q35 75 66 111t72 36q32 0 51.5 -22.5t18.5 -64.5q0 -47 -35 -142t-35 -132q0 -43 35 -43q49 0 112 97.5t118 300.5h82l-78 -290q-15 -57 -15 -82
q0 -30 24 -30q20 0 37.5 27.5t38.5 83.5l34 -11q-53 -159 -129 -159z" />
    <glyph glyph-name="Uhungarumlaut" unicode="&#x170;" horiz-adv-x="722" 
d="M336 -16q-108 0 -166.5 48t-58.5 124q0 38 13 93l87 352h-96l13 52h278l-12 -52h-98l-84 -339q-15 -59 -15 -101q0 -57 40 -88t113 -31q83 0 135 51q42 43 64 126l94 382h-99l12 52h249l-13 -52h-90l-101 -405q-22 -88 -75 -140q-70 -72 -190 -72zM512 821l-90 -83h-40
l79 125q25 42 38 56t31 14q15 0 25.5 -11t10.5 -25q0 -17 -10 -30.5t-44 -45.5zM664 821l-92 -83h-41l83 125q26 41 40 55.5t31 14.5q16 0 25.5 -10.5t9.5 -24.5q0 -17 -11 -31t-45 -46z" />
    <glyph glyph-name="uhungarumlaut" unicode="&#x171;" horiz-adv-x="555" 
d="M414 -9q-70 0 -70 85q0 45 22 115l-7 3q-97 -203 -199 -203q-38 0 -60.5 27t-22.5 73q0 44 36.5 148t36.5 135q0 25 -19 25q-18 0 -35 -23.5t-45 -80.5l-34 16q35 75 66 111t72 36q32 0 51.5 -22.5t18.5 -64.5q0 -47 -35 -142t-35 -132q0 -43 35 -43q49 0 112 97.5
t118 300.5h82l-78 -290q-15 -57 -15 -82q0 -30 24 -30q20 0 37.5 27.5t38.5 83.5l34 -11q-53 -159 -129 -159zM354 611l-90 -83h-40l79 125q25 42 38 56t31 14q15 0 25.5 -11t10.5 -25q0 -17 -10 -30.5t-44 -45.5zM506 611l-92 -83h-41l83 125q26 41 40 55.5t31 14.5
q16 0 25.5 -10.5t9.5 -24.5q0 -17 -11 -31t-45 -46z" />
    <glyph glyph-name="Uogonek" unicode="&#x172;" horiz-adv-x="722" 
d="M363 -203q-43 -35 -93 -35q-39 0 -65.5 21.5t-26.5 59.5q0 36 26 68.5t88 74.5q-87 10 -134 56.5t-47 113.5q0 38 13 93l87 352h-96l13 52h278l-12 -52h-98l-84 -339q-15 -59 -15 -101q0 -57 40 -88t113 -31q83 0 135 51q42 43 64 126l94 382h-99l12 52h249l-13 -52h-90
l-101 -405q-22 -88 -75 -140q-68 -69 -183 -72q-59 -49 -80 -77.5t-21 -54.5q0 -20 12.5 -32.5t36.5 -12.5q23 0 57 19z" />
    <glyph glyph-name="uogonek" unicode="&#x173;" horiz-adv-x="555" 
d="M509 161l34 -11q-12 -34 -20.5 -54.5t-28 -50t-43.5 -48.5q-62 -50 -89.5 -82t-27.5 -63q0 -20 12.5 -32.5t36.5 -12.5q23 0 57 19l16 -29q-45 -35 -94 -35q-39 0 -65 21.5t-26 59.5q0 37 28 70.5t96 79.5q-51 12 -51 83q0 45 22 115l-7 3q-97 -203 -199 -203
q-38 0 -60.5 27t-22.5 73q0 44 36.5 148t36.5 135q0 25 -19 25q-18 0 -35 -23.5t-45 -80.5l-34 16q35 75 66 111t72 36q32 0 51.5 -22.5t18.5 -64.5q0 -47 -35 -142t-35 -132q0 -43 35 -43q49 0 112 97.5t118 300.5h82l-78 -290q-15 -57 -15 -82q0 -30 24 -30q34 0 76 111z
" />
    <glyph glyph-name="Wcircumflex" unicode="&#x174;" horiz-adv-x="959" 
d="M472 739l154 180h37l63 -180h-37l-59 101l-116 -101h-42zM568 -4l-27 462l-263 -462h-69l-43 605h-82l13 52h269l-13 -52h-102l28 -499h3l254 446l-2 53h-83l13 52h270l-13 -52h-105l23 -499h3l275 499h-88l13 52h224l-13 -52h-69l-347 -605h-69z" />
    <glyph glyph-name="wcircumflex" unicode="&#x175;" horiz-adv-x="693" 
d="M159 458q34 0 53.5 -22.5t18.5 -63.5q-1 -49 -42.5 -145.5t-41.5 -130.5q0 -47 41 -47q105 0 205 403h73l-51 -212q-19 -76 -19 -121q0 -70 52 -70q44 0 84.5 50t63.5 118.5t25 131.5q-15 -5 -21 -5q-22 0 -34.5 13.5t-12.5 36.5q0 26 16 46.5t40 20.5q28 0 43.5 -22.5
t15.5 -64.5q0 -74 -29 -161.5t-86.5 -156t-125.5 -68.5q-51 0 -75 33t-23 87q0 25 3 46l-7 2q-61 -168 -159 -168q-44 0 -71 28t-27 74q0 45 44 147.5t44 136.5q0 25 -21 25q-18 0 -34.5 -23.5t-45.5 -81.5l-34 16q35 76 66 112t72 36zM302 529l154 180h37l63 -180h-37
l-59 101l-116 -101h-42z" />
    <glyph glyph-name="Ycircumflex" unicode="&#x176;" horiz-adv-x="638" 
d="M364 327l221 274h-81l12 52h221l-12 -52h-75l-276 -332l-56 -217h103l-13 -52h-286l12 52h99l59 230l-96 319h-81l13 52h263l-13 -52h-91zM319 739l154 180h37l63 -180h-37l-59 101l-116 -101h-42z" />
    <glyph glyph-name="ycircumflex" unicode="&#x177;" 
d="M156 458q32 0 51.5 -23t18.5 -63q0 -47 -31.5 -130.5t-31.5 -114.5q0 -43 40 -43q54 0 115 86.5t107 281.5h76l-81 -344q-34 -143 -97.5 -207t-158.5 -64q-52 0 -90.5 19.5t-38.5 61.5q0 23 16 42.5t40 19.5q22 0 34 -13.5t11 -33.5q-2 -27 -22 -42q22 -12 52 -12
q69 0 114.5 60.5t75.5 196.5l8 38l-6 3q-90 -156 -183 -156q-41 0 -65.5 26.5t-24.5 71.5q0 39 33 131.5t33 123.5q0 25 -18 25q-19 0 -37.5 -26t-43.5 -79l-34 16q34 75 66 111.5t72 36.5zM196 529l154 180h37l63 -180h-37l-59 101l-116 -101h-42z" />
    <glyph glyph-name="Ydieresis" unicode="&#x178;" horiz-adv-x="638" 
d="M364 327l221 274h-81l12 52h221l-12 -52h-75l-276 -332l-56 -217h103l-13 -52h-286l12 52h99l59 230l-96 319h-81l13 52h263l-13 -52h-91zM432 825q0 -25 -16.5 -44.5t-40.5 -19.5q-19 0 -30.5 13t-11.5 34q0 25 16 44.5t40 19.5q19 0 31 -13t12 -34zM606 825
q0 -25 -16.5 -44.5t-41.5 -19.5q-19 0 -30.5 13t-11.5 34q0 25 16 44.5t40 19.5q20 0 32 -13t12 -34z" />
    <glyph glyph-name="Zacute" unicode="&#x179;" horiz-adv-x="586" 
d="M504 821l-92 -83h-40l81 125q27 41 41 55.5t32 14.5q15 0 25 -10.5t10 -25.5q0 -17 -11 -30t-46 -46zM-17 0l10 37l532 564h-228q-32 0 -49 -10t-39 -44.5t-60 -117.5h-38l55 224h484l-9 -37l-529 -564h247q44 0 68 29t81 150h37l-57 -231h-505z" />
    <glyph glyph-name="zacute" unicode="&#x17a;" horiz-adv-x="428" 
d="M370 611l-92 -83h-40l81 125q27 41 41 55.5t32 14.5q15 0 25 -10.5t10 -25.5q0 -17 -11 -30t-46 -46zM101 113q29 -5 79 -25.5t75 -20.5q36 0 55.5 22.5t51.5 91.5l34 -16q-33 -90 -68.5 -132t-94.5 -42q-64 0 -123 72l-26 32l-9 -2q-9 -102 -58 -102q-16 0 -27.5 10
t-11.5 26q0 51 76 78q50 65 127.5 129t143.5 102q-29 5 -78.5 25.5t-73.5 20.5q-35 0 -54 -22t-51 -92l-35 16q34 91 69 132.5t93 41.5q64 0 121 -73l26 -31l9 2q10 102 58 102q17 0 28 -10t11 -26q0 -52 -76 -78q-50 -65 -127 -129t-144 -102z" />
    <glyph glyph-name="Zdotaccent" unicode="&#x17b;" horiz-adv-x="586" 
d="M-17 0l10 37l532 564h-228q-32 0 -49 -10t-39 -44.5t-60 -117.5h-38l55 224h484l-9 -37l-529 -564h247q44 0 68 29t81 150h37l-57 -231h-505zM475 806q0 -24 -17 -44.5t-43 -20.5q-18 0 -30.5 12t-12.5 34q0 25 16.5 45.5t42.5 20.5q20 0 32 -12.5t12 -34.5z" />
    <glyph glyph-name="zdotaccent" unicode="&#x17c;" horiz-adv-x="428" 
d="M101 113q29 -5 79 -25.5t75 -20.5q36 0 55.5 22.5t51.5 91.5l34 -16q-33 -90 -68.5 -132t-94.5 -42q-64 0 -123 72l-26 32l-9 -2q-9 -102 -58 -102q-16 0 -27.5 10t-11.5 26q0 51 76 78q50 65 127.5 129t143.5 102q-29 5 -78.5 25.5t-73.5 20.5q-35 0 -54 -22t-51 -92
l-35 16q34 91 69 132.5t93 41.5q64 0 121 -73l26 -31l9 2q10 102 58 102q17 0 28 -10t11 -26q0 -52 -76 -78q-50 -65 -127 -129t-144 -102zM341 596q0 -24 -17 -44.5t-43 -20.5q-18 0 -30.5 12t-12.5 34q0 25 16.5 45.5t42.5 20.5q20 0 32 -12.5t12 -34.5z" />
    <glyph glyph-name="Zcaron" unicode="&#x17d;" horiz-adv-x="586" 
d="M572 928l-154 -180h-38l-62 180h37l58 -101l117 101h42zM-17 0l10 37l532 564h-228q-32 0 -49 -10t-39 -44.5t-60 -117.5h-38l55 224h484l-9 -37l-529 -564h247q44 0 68 29t81 150h37l-57 -231h-505z" />
    <glyph glyph-name="zcaron" unicode="&#x17e;" horiz-adv-x="428" 
d="M438 718l-154 -180h-38l-62 180h37l58 -101l117 101h42zM101 113q29 -5 79 -25.5t75 -20.5q36 0 55.5 22.5t51.5 91.5l34 -16q-33 -90 -68.5 -132t-94.5 -42q-64 0 -123 72l-26 32l-9 -2q-9 -102 -58 -102q-16 0 -27.5 10t-11.5 26q0 51 76 78q50 65 127.5 129t143.5 102
q-29 5 -78.5 25.5t-73.5 20.5q-35 0 -54 -22t-51 -92l-35 16q34 91 69 132.5t93 41.5q64 0 121 -73l26 -31l9 2q10 102 58 102q17 0 28 -10t11 -26q0 -52 -76 -78q-50 -65 -127 -129t-144 -102z" />
    <glyph glyph-name="Aringacute" unicode="&#x1fa;" horiz-adv-x="664" 
d="M595 973l-92 -83h-40l81 125q27 41 41 55.5t32 14.5q15 0 25 -10.5t10 -25.5q0 -17 -11 -30t-46 -46zM563 762q0 -39 -23.5 -70.5t-63.5 -40.5l70 -599h85l-13 -52h-273l13 52h103l-20 183h-235l-109 -183h88l-13 -52h-226l13 52h70l373 604q-46 23 -46 77q0 46 32 80.5
t83 34.5q41 0 66.5 -23.5t25.5 -62.5zM234 282h202l-29 284h-3zM401 731q0 -24 13.5 -38t36.5 -14q30 0 48.5 26.5t18.5 58.5q0 24 -13 38t-37 14q-30 0 -48.5 -26.5t-18.5 -58.5z" />
    <glyph glyph-name="aringacute" unicode="&#x1fb;" 
d="M465 452l-79 -290q-15 -56 -15 -82q0 -30 24 -30q36 0 76 111l34 -11q-30 -88 -61.5 -123.5t-69.5 -35.5q-30 0 -49.5 21t-19.5 60q0 4 3 25l-7 3q-65 -109 -148 -109q-54 0 -87 41t-33 110q0 71 27 136t71 109q71 71 143 71q77 0 93 -87l22 81h76zM180 49q41 0 81 47
t62.5 108.5t22.5 109.5q0 40 -17 69.5t-52 29.5q-43 0 -82 -44.5t-61 -105.5t-22 -115q0 -48 18 -73.5t50 -25.5zM476 849l-92 -83h-40l81 125q27 41 41 55.5t32 14.5q15 0 25 -10.5t10 -25.5q0 -17 -11 -30t-46 -46zM449 637q0 -46 -32 -80.5t-83 -34.5q-41 0 -67 23.5
t-26 62.5q0 46 32 80.5t83 34.5q41 0 67 -23.5t26 -62.5zM286 606q0 -24 13.5 -38t36.5 -14q30 0 48.5 26.5t18.5 58.5q0 24 -13 38t-37 14q-30 0 -48.5 -26.5t-18.5 -58.5z" />
    <glyph glyph-name="AEacute" unicode="&#x1fc;" horiz-adv-x="953" 
d="M744 821l-92 -83h-40l81 125q27 41 41 55.5t32 14.5q15 0 25 -10.5t10 -25.5q0 -17 -11 -30t-46 -46zM298 52h110l48 193h-210l-158 -193h90l-12 -52h-239l12 52h76l455 549h-100l12 52h611l-50 -205h-40q5 102 -5.5 127.5t-59.5 25.5h-209l-60 -243h86q45 0 62.5 16.5
t45.5 83.5h41l-62 -249h-40q7 70 -1.5 87t-51.5 17h-91l-65 -261h206q55 0 80 29t75 143h41l-56 -224h-553zM284 292h183l78 312h-6z" />
    <glyph glyph-name="aeacute" unicode="&#x1fd;" horiz-adv-x="687" 
d="M556 458q52 0 81.5 -26t29.5 -66q0 -69 -76 -117.5t-226 -64.5q-2 -10 -2 -29q0 -59 25.5 -88t68.5 -29q80 0 148 101l32 -20q-86 -128 -195 -128t-138 98q-67 -95 -174 -95q-56 0 -87.5 28t-31.5 74q0 74 80.5 115.5t223.5 47.5q18 62 18 80q0 36 -26.5 57.5t-70.5 21.5
q-35 0 -65 -14q16 -14 16 -40q0 -23 -14.5 -40t-42.5 -17q-19 0 -32 13t-13 35q0 43 44.5 72.5t118.5 29.5q52 0 89.5 -20.5t50.5 -57.5q76 79 168 79zM295 152q0 36 8 73q-208 -19 -208 -120q0 -27 17 -45t48 -18q71 0 136 84q-1 8 -1 26zM541 418q-56 0 -103 -60t-66 -137
q223 30 223 143q0 24 -14.5 39t-39.5 15zM534 611l-92 -83h-40l81 125q27 41 41 55.5t32 14.5q15 0 25 -10.5t10 -25.5q0 -17 -11 -30t-46 -46z" />
    <glyph glyph-name="Oslashacute" unicode="&#x1fe;" horiz-adv-x="696" 
d="M70 263q0 103 45.5 195.5t127.5 150.5t179 58q110 0 180 -72l97 102l36 -32l-103 -107q46 -73 46 -169q0 -103 -45.5 -196t-127 -151t-178.5 -58q-112 0 -182 73l-96 -102l-36 31l103 108q-46 69 -46 169zM417 615q-64 0 -115.5 -38t-81 -96t-45 -120.5t-15.5 -119.5
q0 -56 13 -95l382 401q-44 68 -138 68zM589 410q0 54 -14 94l-382 -400q44 -67 138 -67q64 0 116 37.5t81.5 96t45 120.5t15.5 119zM561 821l-92 -83h-40l81 125q27 41 41 55.5t32 14.5q15 0 25 -10.5t10 -25.5q0 -17 -11 -30t-46 -46z" />
    <glyph glyph-name="oslashacute" unicode="&#x1ff;" horiz-adv-x="477" 
d="M22 -42l-29 28l70 77q-28 48 -28 113q0 113 71.5 197.5t168.5 84.5q67 0 111 -41l68 74l29 -28l-71 -78q29 -46 29 -112q0 -113 -71.5 -197.5t-168.5 -84.5q-69 0 -112 41zM363 316q0 8 -2 20l-236 -264q21 -40 76 -40q50 0 89 49t57 113t16 122zM112 133q0 -14 1 -20
l236 264q-21 41 -74 41q-50 0 -89.5 -49t-57.5 -113t-16 -123zM404 611l-92 -83h-40l81 125q27 41 41 55.5t32 14.5q15 0 25 -10.5t10 -25.5q0 -17 -11 -30t-46 -46z" />
    <glyph glyph-name="Scommaaccent" unicode="&#x218;" horiz-adv-x="561" 
d="M115 -294l-11 31q83 33 100 85l-3 2q-12 -4 -18 -4q-17 0 -28 11t-11 31q0 23 15.5 42t40.5 19q27 0 41.5 -18.5t14.5 -46.5q0 -45 -35 -87t-106 -65zM-4 -13l57 233h44q18 -97 68.5 -142.5t122.5 -45.5q61 0 100.5 36.5t39.5 88.5q0 45 -33.5 73t-107.5 63
q-39 18 -62.5 32t-50 35.5t-39 49t-12.5 61.5q0 79 62.5 137.5t156.5 58.5q55 0 100 -21.5t70 -55.5l40 74h49l-55 -221h-43q-18 99 -59.5 138t-107.5 39q-54 0 -92 -34.5t-38 -85.5q0 -17 4 -31t15.5 -26.5t19.5 -20.5t29.5 -20t31 -17t36.5 -18q42 -20 66 -33.5t52 -35.5
t40.5 -49.5t12.5 -62.5q0 -84 -67 -143t-163 -59q-126 0 -193 86l-45 -83h-49z" />
    <glyph glyph-name="scommaaccent" unicode="&#x219;" horiz-adv-x="414" 
d="M48 -294l-11 31q83 33 100 85l-3 2q-12 -4 -18 -4q-17 0 -28 11t-11 31q0 23 15.5 42t40.5 19q27 0 41.5 -18.5t14.5 -46.5q0 -45 -35 -87t-106 -65zM353 137q0 -68 -49.5 -107t-119.5 -39q-63 0 -115 29t-52 77q0 25 15 44t39 19q20 0 31.5 -13t11.5 -32q0 -34 -25 -51
q29 -34 95 -34q43 0 69.5 22t26.5 60q0 27 -20.5 44.5t-74.5 42.5q-25 11 -39 19t-32 22t-26.5 33t-8.5 42q0 67 50 105t117 38q62 0 105.5 -26t43.5 -68q0 -25 -13.5 -43t-36.5 -18q-20 0 -32 12t-12 31q0 31 25 49q-9 10 -32 17.5t-48 7.5q-42 0 -68 -21t-26 -56
q0 -27 20.5 -46t70.5 -41q55 -24 82.5 -49.5t27.5 -69.5z" />
    <glyph glyph-name="schwa" unicode="&#x259;" horiz-adv-x="435" 
d="M21 83q0 69 75.5 117t225.5 64q2 20 2 30q0 59 -25.5 88t-68.5 29q-79 0 -148 -101l-31 20q84 128 200 128q68 0 110.5 -45.5t42.5 -122.5q0 -113 -86 -206t-186 -93q-52 0 -81.5 26t-29.5 66zM147 31q56 0 102.5 59.5t65.5 136.5q-222 -30 -222 -142q0 -24 14.5 -39
t39.5 -15z" />
    <glyph glyph-name="circumflex" unicode="&#x2c6;" horiz-adv-x="299" 
d="M102 529l154 180h37l63 -180h-37l-59 101l-116 -101h-42z" />
    <glyph glyph-name="caron" unicode="&#x2c7;" horiz-adv-x="299" 
d="M404 718l-154 -180h-38l-62 180h37l58 -101l117 101h42z" />
    <glyph glyph-name="breve" unicode="&#x2d8;" horiz-adv-x="336" 
d="M255 535q-58 0 -86.5 40t-14.5 109h31q3 -88 79 -88q68 0 116 88h32q-20 -70 -61.5 -109.5t-95.5 -39.5z" />
    <glyph glyph-name="dotaccent" unicode="&#x2d9;" horiz-adv-x="192" 
d="M241 596q0 -24 -17 -44.5t-43 -20.5q-18 0 -30.5 12t-12.5 34q0 25 16.5 45.5t42.5 20.5q20 0 32 -12.5t12 -34.5z" />
    <glyph glyph-name="ring" unicode="&#x2da;" horiz-adv-x="258" 
d="M335 637q0 -46 -32 -80.5t-83 -34.5q-41 0 -67 23.5t-26 62.5q0 46 32 80.5t83 34.5q41 0 67 -23.5t26 -62.5zM172 606q0 -24 13.5 -38t36.5 -14q30 0 48.5 26.5t18.5 58.5q0 24 -13 38t-37 14q-30 0 -48.5 -26.5t-18.5 -58.5z" />
    <glyph glyph-name="ogonek" unicode="&#x2db;" horiz-adv-x="269" 
d="M107 -203q-43 -35 -93 -35q-39 0 -65.5 21.5t-26.5 59.5q0 37 29 71.5t99 80.5l28 19h48l-30 -23q-65 -52 -87.5 -82t-22.5 -57q0 -20 12.5 -32.5t36.5 -12.5q23 0 57 19z" />
    <glyph glyph-name="tilde" unicode="&#x2dc;" horiz-adv-x="331" 
d="M195 598q-17 0 -29 -15t-28 -50h-39q21 64 46.5 94t61.5 30q33 0 69.5 -30.5t50.5 -30.5q17 0 30 15.5t27 49.5h39q-21 -64 -46.5 -94t-61.5 -30q-32 0 -68.5 30.5t-51.5 30.5z" />
    <glyph glyph-name="hungarumlaut" unicode="&#x2dd;" horiz-adv-x="288" 
d="M200 611l-90 -83h-40l79 125q25 42 38 56t31 14q15 0 25.5 -11t10.5 -25q0 -17 -10 -30.5t-44 -45.5zM352 611l-92 -83h-41l83 125q26 41 40 55.5t31 14.5q16 0 25.5 -10.5t9.5 -24.5q0 -17 -11 -31t-45 -46z" />
    <glyph glyph-name="commaaccent" unicode="&#x326;" horiz-adv-x="225" 
d="M-71 -294l-11 31q83 33 100 85l-3 2q-12 -4 -18 -4q-17 0 -28 11t-11 31q0 23 15.5 42t40.5 19q27 0 41.5 -18.5t14.5 -46.5q0 -45 -35 -87t-106 -65z" />
    <glyph glyph-name="Wgrave" unicode="&#x1e80;" horiz-adv-x="959" 
d="M568 -4l-27 462l-263 -462h-69l-43 605h-82l13 52h269l-13 -52h-102l28 -499h3l254 446l-2 53h-83l13 52h270l-13 -52h-105l23 -499h3l275 499h-88l13 52h224l-13 -52h-69l-347 -605h-69zM596 851l18 -113h-35l-40 80q-29 60 -29 77q0 16 10.5 27t25.5 11q23 0 33 -19.5
t17 -62.5z" />
    <glyph glyph-name="wgrave" unicode="&#x1e81;" horiz-adv-x="693" 
d="M159 458q34 0 53.5 -22.5t18.5 -63.5q-1 -49 -42.5 -145.5t-41.5 -130.5q0 -47 41 -47q105 0 205 403h73l-51 -212q-19 -76 -19 -121q0 -70 52 -70q44 0 84.5 50t63.5 118.5t25 131.5q-15 -5 -21 -5q-22 0 -34.5 13.5t-12.5 36.5q0 26 16 46.5t40 20.5q28 0 43.5 -22.5
t15.5 -64.5q0 -74 -29 -161.5t-86.5 -156t-125.5 -68.5q-51 0 -75 33t-23 87q0 25 3 46l-7 2q-61 -168 -159 -168q-44 0 -71 28t-27 74q0 45 44 147.5t44 136.5q0 25 -21 25q-18 0 -34.5 -23.5t-45.5 -81.5l-34 16q35 76 66 112t72 36zM426 641l18 -113h-35l-40 80
q-29 60 -29 77q0 16 10.5 27t25.5 11q23 0 33 -19.5t17 -62.5z" />
    <glyph glyph-name="Wacute" unicode="&#x1e82;" horiz-adv-x="959" 
d="M703 821l-92 -83h-40l81 125q27 41 41 55.5t32 14.5q15 0 25 -10.5t10 -25.5q0 -17 -11 -30t-46 -46zM568 -4l-27 462l-263 -462h-69l-43 605h-82l13 52h269l-13 -52h-102l28 -499h3l254 446l-2 53h-83l13 52h270l-13 -52h-105l23 -499h3l275 499h-88l13 52h224l-13 -52
h-69l-347 -605h-69z" />
    <glyph glyph-name="wacute" unicode="&#x1e83;" horiz-adv-x="693" 
d="M159 458q34 0 53.5 -22.5t18.5 -63.5q-1 -49 -42.5 -145.5t-41.5 -130.5q0 -47 41 -47q105 0 205 403h73l-51 -212q-19 -76 -19 -121q0 -70 52 -70q44 0 84.5 50t63.5 118.5t25 131.5q-15 -5 -21 -5q-22 0 -34.5 13.5t-12.5 36.5q0 26 16 46.5t40 20.5q28 0 43.5 -22.5
t15.5 -64.5q0 -74 -29 -161.5t-86.5 -156t-125.5 -68.5q-51 0 -75 33t-23 87q0 25 3 46l-7 2q-61 -168 -159 -168q-44 0 -71 28t-27 74q0 45 44 147.5t44 136.5q0 25 -21 25q-18 0 -34.5 -23.5t-45.5 -81.5l-34 16q35 76 66 112t72 36zM533 611l-92 -83h-40l81 125
q27 41 41 55.5t32 14.5q15 0 25 -10.5t10 -25.5q0 -17 -11 -30t-46 -46z" />
    <glyph glyph-name="Wdieresis" unicode="&#x1e84;" horiz-adv-x="959" 
d="M584 825q0 -25 -16.5 -44.5t-40.5 -19.5q-19 0 -30.5 13t-11.5 34q0 25 16 44.5t40 19.5q19 0 31 -13t12 -34zM758 825q0 -25 -16.5 -44.5t-41.5 -19.5q-19 0 -30.5 13t-11.5 34q0 25 16 44.5t40 19.5q20 0 32 -13t12 -34zM568 -4l-27 462l-263 -462h-69l-43 605h-82
l13 52h269l-13 -52h-102l28 -499h3l254 446l-2 53h-83l13 52h270l-13 -52h-105l23 -499h3l275 499h-88l13 52h224l-13 -52h-69l-347 -605h-69z" />
    <glyph glyph-name="wdieresis" unicode="&#x1e85;" horiz-adv-x="693" 
d="M159 458q34 0 53.5 -22.5t18.5 -63.5q-1 -49 -42.5 -145.5t-41.5 -130.5q0 -47 41 -47q105 0 205 403h73l-51 -212q-19 -76 -19 -121q0 -70 52 -70q44 0 84.5 50t63.5 118.5t25 131.5q-15 -5 -21 -5q-22 0 -34.5 13.5t-12.5 36.5q0 26 16 46.5t40 20.5q28 0 43.5 -22.5
t15.5 -64.5q0 -74 -29 -161.5t-86.5 -156t-125.5 -68.5q-51 0 -75 33t-23 87q0 25 3 46l-7 2q-61 -168 -159 -168q-44 0 -71 28t-27 74q0 45 44 147.5t44 136.5q0 25 -21 25q-18 0 -34.5 -23.5t-45.5 -81.5l-34 16q35 76 66 112t72 36zM588 615q0 -25 -16.5 -44.5
t-41.5 -19.5q-19 0 -30.5 13t-11.5 34q0 25 16 44.5t40 19.5q20 0 32 -13t12 -34zM414 615q0 -25 -16.5 -44.5t-40.5 -19.5q-19 0 -30.5 13t-11.5 34q0 25 16 44.5t40 19.5q19 0 31 -13t12 -34z" />
    <glyph glyph-name="Ygrave" unicode="&#x1ef2;" horiz-adv-x="638" 
d="M364 327l221 274h-81l12 52h221l-12 -52h-75l-276 -332l-56 -217h103l-13 -52h-286l12 52h99l59 230l-96 319h-81l13 52h263l-13 -52h-91zM443 851l18 -113h-35l-40 80q-29 60 -29 77q0 16 10.5 27t25.5 11q23 0 33 -19.5t17 -62.5z" />
    <glyph glyph-name="ygrave" unicode="&#x1ef3;" 
d="M156 458q32 0 51.5 -23t18.5 -63q0 -47 -31.5 -130.5t-31.5 -114.5q0 -43 40 -43q54 0 115 86.5t107 281.5h76l-81 -344q-34 -143 -97.5 -207t-158.5 -64q-52 0 -90.5 19.5t-38.5 61.5q0 23 16 42.5t40 19.5q22 0 34 -13.5t11 -33.5q-2 -27 -22 -42q22 -12 52 -12
q69 0 114.5 60.5t75.5 196.5l8 38l-6 3q-90 -156 -183 -156q-41 0 -65.5 26.5t-24.5 71.5q0 39 33 131.5t33 123.5q0 25 -18 25q-19 0 -37.5 -26t-43.5 -79l-34 16q34 75 66 111.5t72 36.5zM321 641l18 -113h-35l-40 80q-29 60 -29 77q0 16 10.5 27t25.5 11q23 0 33 -19.5
t17 -62.5z" />
    <glyph glyph-name="enspace" unicode="&#x2002;" horiz-adv-x="500" 
 />
    <glyph glyph-name="emspace" unicode="&#x2003;" horiz-adv-x="1000" 
 />
    <glyph glyph-name="threeperemspace" unicode="&#x2004;" horiz-adv-x="333" 
 />
    <glyph glyph-name="fourperemspace" unicode="&#x2005;" horiz-adv-x="250" 
 />
    <glyph glyph-name="thinspace" unicode="&#x2009;" horiz-adv-x="133" 
 />
    <glyph glyph-name="hairspace" unicode="&#x200a;" horiz-adv-x="75" 
 />
    <glyph glyph-name="endash" unicode="&#x2013;" horiz-adv-x="540" 
d="M52 211l14 57h430l-14 -57h-430z" />
    <glyph glyph-name="emdash" unicode="&#x2014;" horiz-adv-x="790" 
d="M52 211l14 57h680l-14 -57h-680z" />
    <glyph glyph-name="quoteleft" unicode="&#x2018;" horiz-adv-x="214" 
d="M282 671l9 -33q-104 -37 -125 -98l3 -3q8 5 17 5q18 0 29.5 -11.5t11.5 -33.5q0 -24 -16 -43.5t-41 -19.5q-29 0 -44 19t-15 48q0 50 41 96.5t130 73.5z" />
    <glyph glyph-name="quoteright" unicode="&#x2019;" horiz-adv-x="214" 
d="M93 431l-10 32q104 37 125 98l-3 3q-8 -5 -17 -5q-17 0 -29 12t-12 33q0 24 16 43.5t42 19.5q28 0 43 -19t15 -48q0 -50 -41 -96t-129 -73z" />
    <glyph glyph-name="quotesinglbase" unicode="&#x201a;" horiz-adv-x="214" 
d="M-49 -136l-10 32q104 37 125 98l-3 3q-8 -5 -17 -5q-17 0 -29 12t-12 33q0 24 16 43.5t42 19.5q28 0 43 -19t15 -48q0 -50 -41 -96t-129 -73z" />
    <glyph glyph-name="quotedblleft" unicode="&#x201c;" horiz-adv-x="390" 
d="M282 671l9 -33q-104 -37 -125 -98l3 -3q8 5 17 5q18 0 29.5 -11.5t11.5 -33.5q0 -24 -16 -43.5t-41 -19.5q-29 0 -44 19t-15 48q0 50 41 96.5t130 73.5zM458 671l9 -33q-104 -37 -125 -98l4 -3q7 5 16 5q18 0 29.5 -11.5t11.5 -33.5q0 -24 -16 -43.5t-41 -19.5
q-28 0 -43.5 19t-15.5 48q0 50 41 96.5t130 73.5z" />
    <glyph glyph-name="quotedblright" unicode="&#x201d;" horiz-adv-x="390" 
d="M93 431l-10 32q104 37 125 98l-3 3q-8 -5 -17 -5q-17 0 -29 12t-12 33q0 24 16 43.5t42 19.5q28 0 43 -19t15 -48q0 -50 -41 -96t-129 -73zM269 431l-10 32q104 37 125 98l-3 3q-8 -5 -17 -5q-17 0 -29 12t-12 33q0 24 16.5 43.5t41.5 19.5q28 0 43 -19t15 -48
q0 -50 -41 -96t-129 -73z" />
    <glyph glyph-name="quotedblbase" unicode="&#x201e;" horiz-adv-x="390" 
d="M-49 -136l-10 32q104 37 125 98l-3 3q-8 -5 -17 -5q-17 0 -29 12t-12 33q0 24 16 43.5t42 19.5q28 0 43 -19t15 -48q0 -50 -41 -96t-129 -73zM127 -136l-10 32q104 37 125 98l-3 3q-8 -5 -17 -5q-17 0 -29 12t-12 33q0 24 16.5 43.5t41.5 19.5q28 0 43 -19t15 -48
q0 -50 -41 -96t-129 -73z" />
    <glyph glyph-name="dagger" unicode="&#x2020;" horiz-adv-x="518" 
d="M407 630l-76 -181q59 -27 100 -27q8 0 12 1q-9 27 5 50.5t41 23.5q17 0 29.5 -12t12.5 -32q0 -27 -21.5 -48t-63.5 -21q-51 0 -122 31l-52 -286l-37 -148q-5 -22 -17 -42.5t-23 -30.5t-16 -8q-5 1 -10.5 16t-7 36.5t4.5 46.5l37 147l90 281q-59 27 -99 27q-8 0 -12 -1
q9 -27 -5 -50.5t-41 -23.5q-17 0 -29.5 12t-12.5 32q0 27 21 48t64 21q50 0 123 -31l17 191l14 19q21 29 38 29q25 0 33 -48z" />
    <glyph glyph-name="daggerdbl" unicode="&#x2021;" horiz-adv-x="518" 
d="M264 172q59 -27 98 -27q9 0 13 1q-9 27 5 50.5t41 23.5q17 0 29.5 -12t12.5 -32q0 -26 -21.5 -47.5t-63.5 -21.5q-50 0 -123 31l-17 -191l-13 -19q-23 -29 -39 -29q-25 0 -33 48l-3 22l76 181q-59 27 -99 27q-9 0 -13 -1q9 -27 -5 -50.5t-41 -23.5q-17 0 -29.5 12
t-12.5 32q0 26 21 47.5t64 21.5q49 0 120 -30l15 125l46 118q-58 26 -97 26q-9 0 -13 -1q9 -27 -5 -50.5t-41 -23.5q-17 0 -29.5 12t-12.5 32q0 27 21 48t64 21q50 0 123 -31l17 191l14 19q21 29 38 29q25 0 33 -48l3 -22l-76 -181q59 -27 99 -27q9 0 13 1q-9 27 5 50.5
t41 23.5q17 0 29.5 -12t12.5 -32q0 -27 -21.5 -48t-63.5 -21q-49 0 -121 30l-14 -125z" />
    <glyph glyph-name="bullet" unicode="&#x2022;" horiz-adv-x="455" 
d="M241 193q-45 0 -76 30.5t-31 78.5q0 55 39 95.5t92 40.5q46 0 76.5 -30.5t30.5 -78.5q0 -55 -39 -95.5t-92 -40.5z" />
    <glyph glyph-name="ellipsis" unicode="&#x2026;" horiz-adv-x="633" 
d="M61 -15q-21 0 -35.5 15.5t-14.5 39.5t16 43.5t40 19.5q22 0 36.5 -15.5t14.5 -39.5t-16 -43.5t-41 -19.5zM270 -15q-21 0 -35.5 15.5t-14.5 39.5t16 43.5t40 19.5q22 0 36.5 -15.5t14.5 -39.5t-16 -43.5t-41 -19.5zM479 -15q-21 0 -35.5 15.5t-14.5 39.5t16 43.5t40 19.5
q22 0 36.5 -15.5t14.5 -39.5t-16 -43.5t-41 -19.5z" />
    <glyph glyph-name="guilsinglleft" unicode="&#x2039;" horiz-adv-x="298" 
d="M171 32l-112 157q-17 24 -17 36q0 14 37 44l187 148l25 -25l-169 -172l84 -168z" />
    <glyph glyph-name="guilsinglright" unicode="&#x203a;" horiz-adv-x="298" 
d="M126 416l112 -157q17 -24 17 -36q0 -14 -37 -44l-187 -148l-25 25l169 172l-84 168z" />
    <glyph glyph-name="Euro" unicode="&#x20ac;" horiz-adv-x="640" 
d="M438 351h-207q-11 -45 -14 -83h200l-11 -48h-190q4 -84 43 -129t106 -45q113 0 175 142l44 -16q-30 -83 -92 -135.5t-145 -52.5q-99 0 -156.5 63.5t-59.5 172.5h-96l11 48h86q5 43 15 83h-81l11 47h85q42 109 126 177t182 68q82 0 132 -41.5t50 -98.5q0 -33 -19 -57
t-48 -24q-24 0 -39 14.5t-15 37.5q0 46 45 70q-31 49 -104 49q-80 0 -138 -54.5t-89 -140.5h204z" />
    <glyph glyph-name="published" unicode="&#x2117;" horiz-adv-x="787" 
d="M426 -32q-151 0 -255 104.5t-104 257.5q0 152 104 256t255 104q152 0 256 -104t104 -256q0 -153 -104 -257.5t-256 -104.5zM426 2q136 0 228.5 95t92.5 233q0 137 -93 231.5t-228 94.5q-134 0 -227 -94.5t-93 -231.5q0 -138 93 -233t227 -95zM280 151v32h60v299h-60v33
h168q77 0 111.5 -29.5t34.5 -76.5q0 -48 -36 -80t-108 -32h-55v-114h66v-32h-181zM395 328h49q90 0 90 81q0 73 -89 73h-50v-154z" />
    <glyph glyph-name="servicemark" unicode="&#x2120;" horiz-adv-x="771" 
d="M84 353l28 111h25q17 -84 86 -84q27 0 43.5 14.5t16.5 36.5q0 19 -13.5 30t-46.5 26q-22 11 -30 15.5t-23.5 15.5t-21.5 24t-6 30q0 36 30 62.5t75 26.5q49 0 76 -34l17 32h28l-26 -105h-24q-8 44 -26.5 61.5t-46.5 17.5q-24 0 -40.5 -13.5t-16.5 -34.5q0 -14 8.5 -25
t18 -16t30.5 -14q30 -14 43.5 -21.5t26.5 -25t13 -40.5q0 -38 -30.5 -64.5t-76.5 -26.5q-57 0 -89 39l-20 -38h-28zM355 358l8 29h44l59 237h-45l8 29h124l19 -227h4l134 227h127l-7 -29h-45l-60 -237h45l-7 -29h-132l7 29h36l56 224h-9l-154 -253h-35l-25 253h-10l-56 -224
h38l-8 -29h-116z" />
    <glyph glyph-name="trademark" unicode="&#x2122;" horiz-adv-x="813" 
d="M398 358l8 29h44l58 237h-44l8 29h124l19 -227h4l134 227h127l-8 -29h-45l-59 -237h45l-7 -29h-132l7 29h36l56 224h-9l-155 -253h-34l-25 253h-10l-56 -224h37l-7 -29h-116zM134 358l7 29h57l60 238h-33q-26 0 -38 -13.5t-38 -68.5h-24l28 110h277l-28 -110h-22
q2 54 -4 68t-32 14h-34l-60 -238h57l-7 -29h-166z" />
    <glyph glyph-name="minus" unicode="&#x2212;" horiz-adv-x="522" 
d="M454 251h-371l14 54h370z" />
    <glyph glyph-name="registered.alt" horiz-adv-x="787" 
d="M426 -32q-151 0 -255 104.5t-104 257.5q0 152 104 256t255 104q152 0 256 -104t104 -256q0 -153 -104 -257.5t-256 -104.5zM426 2q136 0 228.5 95t92.5 233q0 137 -93 231.5t-228 94.5q-134 0 -227 -94.5t-93 -231.5q0 -138 93 -233t227 -95zM373 313v-130h60v-32h-176
v32h61v298h-61v34h185q68 0 101 -26.5t33 -68.5q0 -32 -22.5 -57t-69.5 -33v-2q39 -9 56 -28t19 -52l4 -42q3 -25 19 -25q15 0 26 25l21 -9q-18 -53 -64 -53q-60 0 -61 68l-1 42q-1 32 -15 45.5t-52 13.5h-63zM373 343h61q82 0 82 75q0 64 -75 64h-68v-139z" />
    <glyph glyph-name="i.dot" horiz-adv-x="318" 
d="M293 609q0 -25 -17.5 -47t-45.5 -22q-19 0 -32 13t-13 35q0 26 17 48t44 22q21 0 34 -13.5t13 -35.5zM240 362q0 -44 -42 -149.5t-42 -136.5q0 -26 23 -26q34 0 77 111l34 -11q-54 -159 -134 -159q-34 0 -54.5 22.5t-20.5 63.5q1 48 44 155.5t43 146.5q0 28 -19 28
q-22 0 -43 -28.5t-50 -84.5l-34 16q34 73 68 110.5t75 37.5q34 0 54.5 -25.5t20.5 -70.5z" />
    <glyph glyph-name="caron.alt" horiz-adv-x="238" 
d="M245 642l-59 -110h-33l37 157q15 62 48 62q15 0 25 -10t10 -26q0 -22 -28 -73z" />
    <glyph glyph-name="zero.osf" horiz-adv-x="554" 
d="M52 216q0 135 84 240t196 105q90 0 142 -62t52 -170q0 -88 -38.5 -167.5t-103.5 -128.5t-138 -49q-90 0 -142 62t-52 170zM439 357q0 155 -112 155q-45 0 -82.5 -33.5t-60 -84.5t-34.5 -105t-12 -101q0 -155 112 -155q60 0 105 57.5t64.5 129.5t19.5 137z" />
    <glyph glyph-name="one.osf" horiz-adv-x="436" 
d="M-1 0l12 52h140l97 386q-36 -16 -88 -16q-37 0 -59 8l11 43q58 -2 110.5 19.5t83.5 60.5h52l-125 -501h136l-13 -52h-357z" />
    <glyph glyph-name="two.osf" 
d="M185 471q33 -17 33 -52q0 -25 -15.5 -43.5t-43.5 -18.5q-24 0 -40 17.5t-16 44.5q0 56 57.5 99t143.5 43q85 0 135 -42.5t50 -107.5q0 -77 -51.5 -120t-142.5 -68q-111 -31 -154 -61.5t-60 -72.5l2 -2q41 23 83 23q39 0 89.5 -24.5t70.5 -24.5q32 0 56.5 27.5t50.5 91.5
l36 -7q-46 -189 -164 -189q-33 0 -64 20t-58 40t-52 20q-17 0 -30 -6q6 -12 6 -23q0 -23 -12.5 -37t-33.5 -14q-23 0 -36 16.5t-13 42.5q0 129 215 208q94 36 137 73t43 95q0 43 -31 68t-80 25q-72 0 -111 -41z" />
    <glyph glyph-name="three.osf" horiz-adv-x="507" 
d="M82 -6q34 -31 102 -31q70 0 112.5 42t42.5 105q0 46 -34.5 74t-105.5 28h-18l12 49h21q99 0 147 48q42 41 42 105q0 99 -107 99q-67 0 -101 -36q25 -22 25 -49q0 -25 -15.5 -43t-40.5 -18t-40 15.5t-15 41.5q0 56 60 96.5t136 40.5q88 0 136 -41.5t48 -106.5
q0 -70 -53.5 -118.5t-142.5 -59.5l-1 -3q64 -13 98.5 -48t34.5 -83q0 -80 -65.5 -133.5t-164.5 -53.5q-82 0 -138 34t-56 89q0 32 19 54t47 22q24 0 38 -15t14 -38q0 -40 -37 -66z" />
    <glyph glyph-name="four.osf" horiz-adv-x="537" 
d="M295 164l75 300h-3l-285 -300h213zM328 -25h86l-12 -50h-249l12 50h83l34 136h-283l13 52l377 393h83l-97 -392h129l-14 -53h-129z" />
    <glyph glyph-name="five.osf" horiz-adv-x="490" 
d="M208 468l-60 -192q48 30 111 30q77 0 121.5 -43t44.5 -112q0 -39 -16 -80t-45.5 -76.5t-77.5 -58t-106 -22.5q-76 0 -128.5 35t-52.5 91q0 33 19 56t47 23q24 0 38 -15t14 -39q0 -42 -45 -66q9 -12 36 -24t62 -12q56 0 96.5 32t57 74t16.5 87q0 52 -28.5 78t-74.5 26
q-58 0 -119 -43l-36 16l98 313l14 10q78 -36 155 -36q78 0 148 34l12 -25q-73 -87 -172 -87q-68 0 -129 26z" />
    <glyph glyph-name="six.osf" horiz-adv-x="516" 
d="M381 631q60 0 102.5 -29.5t42.5 -79.5q0 -30 -18 -52t-45 -22q-24 0 -37.5 14t-13.5 35q0 41 39 63q-22 22 -67 22q-78 0 -139.5 -71t-89.5 -195q58 70 148 70q74 0 119 -45.5t45 -117.5q0 -91 -62.5 -165t-160.5 -74q-88 0 -138 59.5t-50 161.5q0 103 42.5 201
t118.5 161.5t164 63.5zM244 33q61 0 98.5 60t37.5 132q0 52 -28 82t-75 30q-61 0 -102 -51t-41 -126q0 -57 28.5 -92t81.5 -35z" />
    <glyph glyph-name="seven.osf" horiz-adv-x="495" 
d="M182 -23q-11 -33 -22 -46.5t-30 -14.5q-19 0 -32.5 13.5t-13.5 34.5q0 63 90 193t201 219q80 64 94 85l-3 3q-47 -30 -91 -30q-37 0 -82 21t-64 21q-32 0 -58 -33t-55 -119h-49l56 226h53l-16 -78h3q26 42 51 62.5t57 20.5q24 0 45 -12.5t34 -28t32 -28t39 -12.5
q18 0 35 10q-5 13 -5 29q0 22 13.5 37t34.5 15t33 -13.5t12 -31.5q0 -30 -22.5 -58t-82.5 -78q-93 -78 -153 -172t-104 -235z" />
    <glyph glyph-name="eight.osf" horiz-adv-x="514" 
d="M504 481q0 -56 -36 -98.5t-103 -64.5q98 -59 98 -143q0 -80 -64 -135.5t-161 -55.5q-92 0 -146.5 46.5t-54.5 114.5q0 57 39.5 103t121.5 67q-81 55 -81 134q0 72 58 127t149 55q81 0 130.5 -42.5t49.5 -107.5zM245 288l-9 4q-61 -17 -93 -54.5t-32 -90.5q0 -49 35 -82
t97 -33t100.5 35t38.5 88q0 40 -32.5 69t-104.5 64zM197 471q0 -41 32 -71t96 -61v-1q55 21 82.5 58.5t27.5 83.5t-30 75t-83 29q-55 0 -90 -33.5t-35 -79.5z" />
    <glyph glyph-name="nine.osf" horiz-adv-x="516" 
d="M298 512q-62 0 -100.5 -61t-38.5 -138q0 -51 28 -81t75 -30q62 0 103 52t42 131q0 57 -28.5 92t-80.5 35zM385 223q-60 -70 -148 -70q-74 0 -119 45.5t-45 118.5q0 95 63 169.5t161 74.5q87 0 137.5 -59t50.5 -161q0 -103 -42.5 -201t-118.5 -162t-164 -64
q-62 0 -104 32.5t-42 82.5q0 32 18 54.5t46 22.5q22 0 35.5 -15t13.5 -36q0 -40 -40 -63q22 -29 70 -29q78 0 139 70t89 190z" />
    <glyph glyph-name="dollar.osf" horiz-adv-x="514" 
d="M342 625l47 -8l-17 -68q61 -12 99.5 -48.5t38.5 -75.5q0 -31 -17.5 -52.5t-42.5 -21.5q-22 0 -34.5 13t-12.5 31q0 20 12 36t29 22q-22 39 -83 54l-48 -196q68 -29 102 -62t34 -81q0 -67 -55.5 -117.5t-148.5 -50.5h-10l-21 -83l-47 8l20 81q-68 13 -113 51t-45 84
q0 30 18.5 52.5t46.5 22.5q22 0 36 -14.5t14 -34.5t-13 -37.5t-32 -24.5q9 -17 36 -33.5t62 -24.5l51 201q-70 31 -104 62t-34 77q0 69 60 118.5t147 49.5h7zM376 138q0 50 -84 91l-47 -187h5q56 0 91 27.5t35 68.5zM187 415q0 -46 81 -84l46 182q-57 -1 -92 -31t-35 -67z
" />
    <glyph glyph-name="sterling.osf" horiz-adv-x="570" 
d="M435 243h-164v-3q0 -54 -41 -111q18 -7 64 -30q70 -36 98 -36t47 21t38 71l37 -8q-23 -88 -55 -125t-83 -37q-28 0 -55.5 10t-44.5 21t-43 31l-36 25q-48 -86 -112 -86q-35 0 -57 20t-22 53q0 36 31.5 63.5t84.5 27.5q36 0 67 -9q9 26 9 55q0 19 -6 47h-138l13 50h109
q-9 32 -9 64q0 90 67.5 147t160.5 57q79 0 126 -36.5t47 -85.5q0 -32 -19 -55.5t-49 -23.5q-23 0 -38 14t-15 37q0 19 12.5 36t33.5 24q-9 20 -36 31t-60 11q-65 0 -104 -38t-39 -103q0 -26 11 -79h182zM91 30q39 0 74 60q-28 13 -55 13q-26 0 -40 -12.5t-14 -29.5
q0 -15 10 -23t25 -8z" />
    <glyph glyph-name="Euro.osf" horiz-adv-x="637" 
d="M421 305h-205q-10 -36 -12 -72h199l-11 -47h-186q7 -69 46.5 -104.5t101.5 -35.5q115 0 177 135l45 -17q-31 -79 -92 -129.5t-146 -50.5q-94 0 -153 56t-66 146h-97l11 47h86q2 38 12 72h-80l11 47h85q41 93 123.5 151t175.5 58q83 0 133.5 -40t50.5 -95
q0 -32 -18.5 -56.5t-48.5 -24.5q-24 0 -38 14.5t-14 37.5q0 44 44 66q-32 48 -107 48q-76 0 -131 -44.5t-85 -114.5h200z" />
    <glyph glyph-name="yen.osf" horiz-adv-x="643" 
d="M117 307h127l-67 188h-79l13 50h257l-13 -50h-86l79 -229l196 229h-80l13 50h215l-13 -50h-72l-166 -188h118l-11 -47h-148l-44 -50l-6 -21h182l-11 -47h-182l-22 -90h115l-12 -52h-311l13 52h116l22 90h-181l12 47h181l6 23l-17 48h-154z" />
    <glyph glyph-name="hcoslug" horiz-adv-x="694" 
d="M273 18h-26q0 -12 10 -12q8 0 9 7h7q-3 -14 -18 -14q-21 0 -21 20q0 9 6 15t14 6q21 0 19 -22zM254 35q-7 0 -7 -12h14q0 12 -7 12zM195 78q8 0 8 16q0 15 -8 15t-8 -15q0 -16 8 -16zM210 4q8 0 8 16q0 15 -8 15t-8 -15q0 -16 8 -16zM210 -1q-21 0 -21 21q0 20 21 20
t21 -20q0 -9 -6 -15t-15 -6zM546 4q8 0 8 16q0 15 -8 15t-8 -15q0 -16 8 -16zM546 -1q-21 0 -21 21q0 20 21 20t21 -20q0 -9 -6 -15t-15 -6zM125 74v7h7v41h-7v7h51v-20h-8q-2 13 -11 13h-12v-18h4q5 0 6 8h7v-23h-7q-1 8 -6 8h-4v-16h10v-7h-30zM195 73q-21 0 -21 21
q0 20 21 20t21 -20q0 -9 -6 -15t-15 -6zM644 -100v800h-594v-800h594zM498 -1q-29 0 -29 28q0 13 8 21.5t19 8.5q9 0 16 -7l1 6h8v-22h-8q-5 16 -15 16q-14 0 -14 -22t16 -22q12 0 14 16h8q-2 -23 -24 -23zM372 80q7 0 7 13t-7 13q-8 0 -8 -13t8 -13zM276 0v7h6v25h-7v7h7v1
q0 19 19 19q5 0 9 -2l10 2v-52h6v-7h-23v7h5v25h-14v-25h5v-7h-23zM368 0v7h6v25h-6v7h18v-10q4 11 12 11t8 -8q0 -7 -7 -7q-6 0 -6 6v1q-3 0 -7 -9v-16h8v-7h-26zM352 73v52h-6v7h18v-27q3 9 13 9q15 0 15 -20q0 -21 -16 -21q-9 0 -14 8l-4 -8h-6zM400 75q5 0 6.5 -4
t-1.5 -6q6 0 8 8l-16 33h-5v7h25v-7h-6l9 -20l8 20h-5v7h17v-7h-5l-13 -31q-6 -16 -18 -16q-11 0 -11 9q0 7 7 7zM247 428q0 13 7.5 21t19.5 8q13 0 21 -10.5t8 -27.5q0 -22 -18 -50q-15 14 -21 20.5t-11.5 17t-5.5 21.5zM302 74v14h7q6 -9 12 -9q5 0 5 4q0 3 -12 6.5
t-12 12.5q0 12 14 12q8 0 11 -5l2 5h6v-13h-7q-5 7 -10 7t-5 -4q0 -3 12 -6t12 -12q0 -13 -14 -13q-5 0 -13 5l-1 -4h-7zM261 219q-22 0 -37 15.5t-15 38.5q0 24 16 40q34 -32 74 -82q-15 -12 -38 -12zM274 122l12 2v-11h13v-7h-13v-20q0 -5 4 -5t5 7l5 -2q-3 -13 -14 -13
q-12 0 -12 13v20h-7v7h7v9zM428 306q-26 -16 -46 -42q35 -41 62 -41q26 0 43 29l7 -2q-1 -43 -24 -68.5t-56 -25.5q-41 0 -85 45q-41 -45 -104 -45q-45 0 -77 27t-32 66q0 63 82 91q-31 32 -31 69q0 34 30.5 59.5t78.5 25.5q44 0 69.5 -22.5t25.5 -51.5q0 -19 -9 -34
q46 2 49 -37q25 38 60 38q21 0 35.5 -14.5t14.5 -37.5t-14.5 -38.5t-35.5 -15.5q-28 0 -43 25zM219 74v7h6v25h-6v7h17v-10q5 11 14 11q12 0 12 -14v-19h6v-7h-22v7h4v18q0 7 -6 7q-7 0 -7 -10v-15h4v-7h-22zM446 33h18v-7h-5q-3 -6 -9 -14q3 -5 6 -5t4 5l5 -1
q-3 -12 -13 -12q-7 0 -12 6q-6 -6 -15 -6q-18 0 -18 14q0 11 13 15q-6 6 -6 12q0 14 17 14q14 0 14 -12q0 -7 -11 -12q3 -3 6.5 -7t5.5 -6q4 5 6 9h-6v7zM429 6q3 0 8 3q-10 12 -14 16q-4 -4 -4 -9q0 -10 10 -10zM294 42v-3h14v5q-6 0 -6 6l1 3q-1 1 -3 1q-6 0 -6 -12z
M425 43q0 -4 6 -10q5 3 5 9t-6 6q-5 0 -5 -5zM312 342q30 20 42 34q29 -29 -1 -80q-33 38 -41 46zM366 18h-26q0 -12 10 -12q8 0 9 7h7q-4 -14 -18 -14q-21 0 -21 20q0 9 6 15t14 6q21 0 19 -22zM347 35q-7 0 -7 -12h14q0 12 -7 12zM124 0v7h8v41h-8v7h29v-7h-8v-16h22v16
h-8v7h29v-7h-8v-41h8v-7h-29v7h8v18h-22v-18h8v-7h-29zM576 13q7 0 7 -7t-7 -7t-7 7t7 7z" />
    </font>
</defs>
</svg>
