<svg xmlns="http://www.w3.org/2000/svg" viewBox="0 0 125.99 110.28"><title>SXS-icon3-on</title><path d="M33.45,110.28a4.4,4.4,0,0,1-3.44-2L.47,57.12a4.4,4.4,0,0,1,0-4L30,2a4.4,4.4,0,0,1,3.44-2H92.54A4.4,4.4,0,0,1,96,2l29.54,51.17a4.4,4.4,0,0,1,0,4L96,108.29a4.4,4.4,0,0,1-3.44,2Z" style="fill:#06b9e4"/><line x1="66.08" y1="63.13" x2="66.08" y2="33.75" style="fill:none;stroke:#fff;stroke-linecap:round;stroke-linejoin:round"/><line x1="59.93" y1="32.58" x2="59.93" y2="63.13" style="fill:none;stroke:#fff;stroke-linecap:round;stroke-linejoin:round"/><line x1="57.51" y1="63.13" x2="68.49" y2="63.13" style="fill:none;stroke:#fff;stroke-linecap:round;stroke-linejoin:round"/><polyline points="59.93 37.81 44.4 37.81 39.95 30.23 86.05 30.23 81.6 37.81 66.08 37.81" style="fill:none;stroke:#fff;stroke-linecap:round;stroke-linejoin:round"/><line x1="83" y1="31.61" x2="70.44" y2="31.61" style="fill:none;stroke:#fff;stroke-linecap:round;stroke-linejoin:round"/><line x1="48.05" y1="31.61" x2="44.37" y2="31.61" style="fill:none;stroke:#fff;stroke-linecap:round;stroke-linejoin:round"/><rect x="59.93" y="64.47" width="6.15" height="3.86" style="fill:none;stroke:#fff;stroke-linecap:round;stroke-linejoin:round"/><path d="M47.09,73.86H78.91a0,0,0,0,1,0,0v2.5a2.53,2.53,0,0,1-2.53,2.53H49.63a2.53,2.53,0,0,1-2.53-2.53v-2.5A0,0,0,0,1,47.09,73.86Z" style="fill:none;stroke:#fff;stroke-linecap:round;stroke-linejoin:round"/><line x1="63.86" y1="64.6" x2="63.86" y2="68.2" style="fill:none;stroke:#fff;stroke-linecap:round;stroke-linejoin:round"/><line x1="60.71" y1="69.71" x2="65.29" y2="69.71" style="fill:none;stroke:#fff;stroke-linecap:round;stroke-linejoin:round"/><line x1="60.71" y1="72.48" x2="65.29" y2="72.48" style="fill:none;stroke:#fff;stroke-linecap:round;stroke-linejoin:round"/><line x1="60.71" y1="71.09" x2="65.29" y2="71.09" style="fill:none;stroke:#fff;stroke-linecap:round;stroke-linejoin:round"/><line x1="61.3" y1="41.91" x2="61.3" y2="57.08" style="fill:none;stroke:#fff;stroke-linecap:round;stroke-linejoin:round"/><line x1="62.67" y1="51.29" x2="62.67" y2="55.54" style="fill:none;stroke:#fff;stroke-linecap:round;stroke-linejoin:round"/></svg>