<svg xmlns="http://www.w3.org/2000/svg" viewBox="0 0 125.99 110.28"><title>SXS-icon4-on</title><path d="M33.45,110.28a4.4,4.4,0,0,1-3.44-2L.47,57.12a4.4,4.4,0,0,1,0-4L30,2a4.4,4.4,0,0,1,3.44-2H92.54A4.4,4.4,0,0,1,96,2l29.54,51.17a4.4,4.4,0,0,1,0,4L96,108.29a4.4,4.4,0,0,1-3.44,2Z" style="fill:#06b9e4"/><line x1="84.09" y1="78.84" x2="70.58" y2="33.94" style="fill:none;stroke:#fff;stroke-linecap:round;stroke-linejoin:round"/><line x1="64.48" y1="54.93" x2="71.66" y2="78.84" style="fill:none;stroke:#fff;stroke-linecap:round;stroke-linejoin:round"/><line x1="56.82" y1="30.52" x2="63.04" y2="50.61" style="fill:none;stroke:#fff;stroke-linecap:round;stroke-linejoin:round"/><polyline points="62.98 59.2 68.92 78.84 86.56 78.84 71.95 30.28" style="fill:none;stroke:#fff;stroke-linecap:round;stroke-linejoin:round"/><line x1="55.41" y1="33.94" x2="61.77" y2="55.08" style="fill:none;stroke:#fff;stroke-linecap:round;stroke-linejoin:round"/><line x1="81.72" y1="71.91" x2="69.8" y2="71.91" style="fill:none;stroke:#fff;stroke-linecap:round;stroke-linejoin:round"/><line x1="79.66" y1="64.97" x2="67.74" y2="64.97" style="fill:none;stroke:#fff;stroke-linecap:round;stroke-linejoin:round"/><line x1="77.55" y1="58.03" x2="65.65" y2="58.03" style="fill:none;stroke:#fff;stroke-linecap:round;stroke-linejoin:round"/><line x1="75.46" y1="51.09" x2="65.46" y2="51.09" style="fill:none;stroke:#fff;stroke-linecap:round;stroke-linejoin:round"/><line x1="73.38" y1="44.16" x2="67.55" y2="44.16" style="fill:none;stroke:#fff;stroke-linecap:round;stroke-linejoin:round"/><line x1="71.22" y1="37.22" x2="69.58" y2="37.22" style="fill:none;stroke:#fff;stroke-linecap:round;stroke-linejoin:round"/><line x1="44.19" y1="71.91" x2="56.51" y2="71.91" style="fill:none;stroke:#fff;stroke-linecap:round;stroke-linejoin:round"/><line x1="46.2" y1="64.97" x2="58.67" y2="64.97" style="fill:none;stroke:#fff;stroke-linecap:round;stroke-linejoin:round"/><line x1="48.11" y1="58.03" x2="60.46" y2="58.03" style="fill:none;stroke:#fff;stroke-linecap:round;stroke-linejoin:round"/><line x1="50.19" y1="51.09" x2="62.37" y2="51.09" style="fill:none;stroke:#fff;stroke-linecap:round;stroke-linejoin:round"/><line x1="52.28" y1="44.16" x2="65.05" y2="44.16" style="fill:none;stroke:#fff;stroke-linecap:round;stroke-linejoin:round"/><line x1="54.37" y1="37.22" x2="66.97" y2="37.22" style="fill:none;stroke:#fff;stroke-linecap:round;stroke-linejoin:round"/><line x1="41.9" y1="78.84" x2="56.51" y2="30.28" style="fill:none;stroke:#fff;stroke-linecap:round;stroke-linejoin:round"/><line x1="69.23" y1="30.28" x2="54.62" y2="78.84" style="fill:none;stroke:#fff;stroke-linecap:round;stroke-linejoin:round"/><polygon points="39.44 78.84 54.05 30.28 71.68 30.28 57.07 78.84 39.44 78.84" style="fill:none;stroke:#fff;stroke-linecap:round;stroke-linejoin:round"/></svg>