<svg xmlns="http://www.w3.org/2000/svg" viewBox="0 0 125.99 110.28"><title>SXS-icon2-on</title><path d="M33.45,110.28a4.4,4.4,0,0,1-3.44-2L.47,57.12a4.4,4.4,0,0,1,0-4L30,2a4.4,4.4,0,0,1,3.44-2H92.54A4.4,4.4,0,0,1,96,2l29.54,51.17a4.4,4.4,0,0,1,0,4L96,108.29a4.4,4.4,0,0,1-3.44,2Z" style="fill:#06b9e4"/><polyline points="90.97 61.23 32.78 61.23 32.78 63.8 90.97 63.8" style="fill:none;stroke:#fff;stroke-linecap:round;stroke-linejoin:round"/><polyline points="90.97 77.84 32.78 77.84 32.78 80.41 90.97 80.41" style="fill:none;stroke:#fff;stroke-linecap:round;stroke-linejoin:round"/><line x1="59.29" y1="77.84" x2="59.29" y2="63.8" style="fill:none;stroke:#fff;stroke-linecap:round;stroke-linejoin:round"/><line x1="61.95" y1="77.84" x2="61.95" y2="63.8" style="fill:none;stroke:#fff;stroke-linecap:round;stroke-linejoin:round"/><line x1="69.7" y1="77.84" x2="69.7" y2="63.8" style="fill:none;stroke:#fff;stroke-linecap:round;stroke-linejoin:round"/><line x1="72.35" y1="77.84" x2="72.35" y2="63.8" style="fill:none;stroke:#fff;stroke-linecap:round;stroke-linejoin:round"/><line x1="80.1" y1="77.84" x2="80.1" y2="63.8" style="fill:none;stroke:#fff;stroke-linecap:round;stroke-linejoin:round"/><line x1="82.76" y1="77.84" x2="82.76" y2="63.8" style="fill:none;stroke:#fff;stroke-linecap:round;stroke-linejoin:round"/><rect x="90.97" y="59.27" width="2.66" height="23.11" style="fill:none;stroke:#fff;stroke-linecap:round;stroke-linejoin:round"/><polyline points="90.97 30.27 32.78 30.27 32.78 32.85 90.97 32.85" style="fill:none;stroke:#fff;stroke-linecap:round;stroke-linejoin:round"/><polyline points="90.97 46.88 32.78 46.88 32.78 49.46 90.97 49.46" style="fill:none;stroke:#fff;stroke-linecap:round;stroke-linejoin:round"/><line x1="59.29" y1="46.88" x2="59.29" y2="32.85" style="fill:none;stroke:#fff;stroke-linecap:round;stroke-linejoin:round"/><line x1="61.95" y1="46.88" x2="61.95" y2="32.85" style="fill:none;stroke:#fff;stroke-linecap:round;stroke-linejoin:round"/><line x1="69.7" y1="46.88" x2="69.7" y2="32.85" style="fill:none;stroke:#fff;stroke-linecap:round;stroke-linejoin:round"/><line x1="72.35" y1="46.88" x2="72.35" y2="32.85" style="fill:none;stroke:#fff;stroke-linecap:round;stroke-linejoin:round"/><line x1="80.1" y1="46.88" x2="80.1" y2="32.85" style="fill:none;stroke:#fff;stroke-linecap:round;stroke-linejoin:round"/><line x1="82.76" y1="46.88" x2="82.76" y2="32.85" style="fill:none;stroke:#fff;stroke-linecap:round;stroke-linejoin:round"/><rect x="90.97" y="28.31" width="2.66" height="23.11" style="fill:none;stroke:#fff;stroke-linecap:round;stroke-linejoin:round"/></svg>