<svg xmlns="http://www.w3.org/2000/svg" viewBox="0 0 125.99 110.28"><title>SXS-icon5-on</title><path d="M33.45,110.28a4.4,4.4,0,0,1-3.44-2L.47,57.12a4.4,4.4,0,0,1,0-4L30,2a4.4,4.4,0,0,1,3.44-2H92.54A4.4,4.4,0,0,1,96,2l29.54,51.17a4.4,4.4,0,0,1,0,4L96,108.29a4.4,4.4,0,0,1-3.44,2Z" style="fill:#06b9e4"/><rect x="37.31" y="49.14" width="51.09" height="12" rx="0.5" ry="0.5" style="fill:none;stroke:#fff;stroke-linecap:round;stroke-linejoin:round;stroke-width:1.10000002384186px"/><line x1="31.26" y1="61.14" x2="94.44" y2="61.14" style="fill:none;stroke:#fff;stroke-linecap:round;stroke-linejoin:round;stroke-width:1.10000002384186px"/></svg>