<svg xmlns="http://www.w3.org/2000/svg" viewBox="0 0 125.99 110.28"><title>SXS-icon1-on</title><path d="M33.45,110.28a4.4,4.4,0,0,1-3.44-2L.47,57.12a4.4,4.4,0,0,1,0-4L30,2a4.4,4.4,0,0,1,3.44-2H92.54A4.4,4.4,0,0,1,96,2l29.54,51.17a4.4,4.4,0,0,1,0,4L96,108.29a4.4,4.4,0,0,1-3.44,2Z" style="fill:#06b9e4"/><path d="M99.18,71.32H95.84l.07-6.21a6.69,6.69,0,0,0-.79-3.25c-3.25-6.05-8.21-15.67-9-17.18-1.58-2.85-2.42-3.06-7-3.06H46.88c-4.54,0-5.38.21-7,3.06-.83,1.5-5.8,11.13-9,17.18a6.69,6.69,0,0,0-.79,3.25l0,6.21H26.81V65.12a8.42,8.42,0,0,1,1-4.08c.9-1.67,8.78-16.36,9.81-18.22,2-3.58,3.48-4.3,8.51-4.3H79.86c5,0,6.53.72,8.51,4.3,1,1.86,8.91,16.55,9.81,18.22a8.42,8.42,0,0,1,1,4.08Z" style="fill:none;stroke:#fff;stroke-linecap:round;stroke-linejoin:round;stroke-width:1.0101483464241px"/><line x1="54.27" y1="41.64" x2="54.3" y2="71.79" style="fill:none;stroke:#fff;stroke-linejoin:round;stroke-width:1.0101483464241px"/><line x1="51.57" y1="41.64" x2="51.61" y2="71.79" style="fill:none;stroke:#fff;stroke-linejoin:round;stroke-width:1.0101483464241px"/><line x1="74.21" y1="41.64" x2="74.25" y2="72.26" style="fill:none;stroke:#fff;stroke-linejoin:round;stroke-width:1.0101483464241px"/><line x1="71.52" y1="41.64" x2="71.56" y2="72.26" style="fill:none;stroke:#fff;stroke-linejoin:round;stroke-width:1.0101483464241px"/><line x1="54.3" y1="62.36" x2="71.6" y2="62.36" style="fill:none;stroke:#fff;stroke-linejoin:round;stroke-width:1.0101483464241px"/><line x1="54.3" y1="59.66" x2="71.6" y2="59.66" style="fill:none;stroke:#fff;stroke-linejoin:round;stroke-width:1.0101483464241px"/><line x1="74.25" y1="62.36" x2="95.36" y2="62.36" style="fill:none;stroke:#fff;stroke-linejoin:round;stroke-width:1.0101483464241px"/><line x1="74.25" y1="59.66" x2="93.83" y2="59.66" style="fill:none;stroke:#fff;stroke-linejoin:round;stroke-width:1.0101483464241px"/><line x1="54.3" y1="53.09" x2="71.6" y2="53.09" style="fill:none;stroke:#fff;stroke-linejoin:round;stroke-width:1.0101483464241px"/><line x1="54.3" y1="50.4" x2="71.6" y2="50.4" style="fill:none;stroke:#fff;stroke-linejoin:round;stroke-width:1.0101483464241px"/><line x1="74.25" y1="53.09" x2="90.49" y2="53.09" style="fill:none;stroke:#fff;stroke-linejoin:round;stroke-width:1.0101483464241px"/><line x1="74.25" y1="50.4" x2="89.08" y2="50.4" style="fill:none;stroke:#fff;stroke-linejoin:round;stroke-width:1.0101483464241px"/><line x1="51.57" y1="62.36" x2="30.46" y2="62.36" style="fill:none;stroke:#fff;stroke-linejoin:round;stroke-width:1.0101483464241px"/><line x1="51.57" y1="59.66" x2="31.99" y2="59.66" style="fill:none;stroke:#fff;stroke-linejoin:round;stroke-width:1.0101483464241px"/><line x1="51.57" y1="53.09" x2="35.33" y2="53.09" style="fill:none;stroke:#fff;stroke-linejoin:round;stroke-width:1.0101483464241px"/><line x1="51.57" y1="50.4" x2="36.74" y2="50.4" style="fill:none;stroke:#fff;stroke-linejoin:round;stroke-width:1.0101483464241px"/></svg>