<svg xmlns="http://www.w3.org/2000/svg" viewBox="0 0 37.84 22.62"><defs><style>.a{fill:#a7a9ac;}</style></defs><title>utilbar-01_1</title><path class="a" d="M32.08,11,31,12.08l-4-4,4-4,1.06,1.06L29.89,7.33h8V.69A.69.69,0,0,0,37.15,0H12.66A.69.69,0,0,0,12,.69V14.27H10.75V5.38a.79.79,0,0,0-.78-.8H3.47A.77.77,0,0,0,2.79,5L.1,9.94a.83.83,0,0,0-.1.39v7a.79.79,0,0,0,.78.8H2.14a5.11,5.11,0,0,1,9.39-1.85H26a5.08,5.08,0,0,1,8.7,0h2.45a.69.69,0,0,0,.69-.69V8.83h-8ZM8.79,9.46a.44.44,0,0,1-.44.45H2.11a.45.45,0,0,1-.38-.67L3.54,5.86a.44.44,0,0,1,.38-.23H8.35a.44.44,0,0,1,.44.45Zm2,9.54a3.62,3.62,0,1,1-3.62-3.62A3.62,3.62,0,0,1,10.8,19ZM34,19a3.62,3.62,0,1,1-3.62-3.62A3.62,3.62,0,0,1,34,19Z"/></svg>