<svg xmlns="http://www.w3.org/2000/svg" viewBox="0 0 92.92 117.08"><defs><style>.a{fill:#2d2d2d;}.b{fill:#06b9e4;}</style></defs><title>why-buy-01</title><path class="a" d="M21.27,58.76l-2.35,5.16L23.9,81l10-5.37,3,2.56,4-2.44L56,81.22l21-12.29L79.4,57.88l5.17-3.35,0,18.94,1.62,9.09L60.08,110.31l-19.86,6.78-20.58-2.34.4-1.88.42-2.56.27-6.79L16.15,83.1V63.23l4.58-9ZM32.81,83l-5.57,7.58,1.34,9.74,4.61-7.5h5l4.11,8.32L51,90.46,42,83Z"/><path class="a" d="M56.8,2.09c-1.41.08-2.78.14-4.14.25A36.36,36.36,0,0,0,34.57,8.63,16.72,16.72,0,0,0,31,11.45a34.88,34.88,0,0,0-8.11,18.94C22.47,34.6,22,38.81,21.65,43a1.13,1.13,0,0,1-.86,1.07C16.52,45.78,12.26,47.46,8,49.18a18.08,18.08,0,0,0-6.43,3.88A7,7,0,0,0,.13,55.41a1.53,1.53,0,0,0,1.12,2.14,4.77,4.77,0,0,0,2.13.19c1.95-.36,3.89-.78,5.79-1.32a50.72,50.72,0,0,0,12.88-5.15,1.43,1.43,0,0,1,1-.08c3.2.78,6.41,1.54,9.59,2.41a60.68,60.68,0,0,0,15,2.3C55.86,56,63.56,53.8,71,50.42a1.75,1.75,0,0,1,.81-.24c1.62.17,3.24.39,4.86.59.15,0,.41,0,.44.11.22.6.73.46,1.16.47.94,0,1.88.09,2.81.05,3.16-.13,6.32-.24,9.47-.48,1.78-.14,2.39-.87,2.38-2.61,0-1.44-.14-2.89-.28-4.33a91.54,91.54,0,0,1-.56-14.38A18.18,18.18,0,0,0,92.14,27a25.83,25.83,0,0,0-3.86-11.14c-2.17-3.58-4.68-6.89-8.3-9.15A31.91,31.91,0,0,0,67.33,2.2C65.68,2,64,2,62.33,1.87,62.58.64,62.37.26,61,.1a11.93,11.93,0,0,0-2.88,0C56.78.25,56.54.67,56.8,2.09Z"/><path class="b" d="M36.11,42.9a1.58,1.58,0,0,1-.92-.28l-8.32-6.1a1.93,1.93,0,0,1-.64-1.86l2.15-11.95a2.82,2.82,0,0,1,1.31-1.84L40.15,15a1.9,1.9,0,0,1,1.94,0l8.33,6.1A1.93,1.93,0,0,1,51.05,23L48.91,35a2.82,2.82,0,0,1-1.3,1.84L37.13,42.65A2,2,0,0,1,36.11,42.9ZM28.32,34.6l8.21,6,10.31-5.78L49,23.06l-8.2-6L30.44,22.83ZM35.87,25a2.2,2.2,0,0,0-2,1.84,1.48,1.48,0,0,0,1.36,1.88,2.2,2.2,0,0,0,2-1.84A1.48,1.48,0,0,0,35.87,25Zm6.9.09a2.2,2.2,0,0,0-2,1.84,1.48,1.48,0,0,0,1.36,1.88,2.2,2.2,0,0,0,2-1.84A1.48,1.48,0,0,0,42.77,25.08ZM37.29,35.37a6.41,6.41,0,0,1-5.8-3.69.16.16,0,0,1,0-.19.12.12,0,0,1,.17,0,8.16,8.16,0,0,0,5.86,2.37,11.12,11.12,0,0,0,6.68-2.21.12.12,0,0,1,.17,0,.15.15,0,0,1,0,.19A9.47,9.47,0,0,1,37.29,35.37Z"/></svg>