<svg xmlns="http://www.w3.org/2000/svg" viewBox="0 0 86.41 72.58"><defs><style>.a{fill:#2d2d2d;stroke:#06b9e4;stroke-miterlimit:10;stroke-width:1.1px;}.b{fill:#06b9e4;}</style></defs><title>why-buy-02</title><path class="a" d="M17.89,5c5.1-.58,4.81-3.1,8.74-3.39,5.38-.4,7.5.87,12,.87s3.82-2,9.51-2,5.43,2.29,8.92,2.59,7.19-2.37,11.3-1.6c6.84,1.28,11.88,11.16,13.11,18.25,1.11,6.41-.44,14-.84,16.9s-3.76,13.47-6.12,15.55c-1.89,1.68-10.38,1.14-11.91.15a12,12,0,0,1-4.15-5.32c-.51-1.78-.4-25.24-.4-25.24a19.73,19.73,0,0,0-1.53,4.08c-.26,1.55.36,21.86-.11,23.46s-3.5,5.39-3.5,5.39a5.66,5.66,0,0,1-2.77,1.38,30.9,30.9,0,0,1-7.83-.4,6.1,6.1,0,0,1-3.12-1.8,14.13,14.13,0,0,1-2.56-4.18c-.47-1.78-.07-25.83-.07-25.83a13,13,0,0,0-1.38,3.57c-.35,1.81-.71,19.49-.87,21-.27,2.4-3.42,5-5.35,5.25-1.32.17-6.75-.14-6.63-.15a7.46,7.46,0,0,1-3.82-2.26,9.48,9.48,0,0,1-2.59-4.66c-.26-1.78-.27-21.37-.27-21.37a10.22,10.22,0,0,0-1.42,3.44c-.28,1.74-.49,16.68-.38,17.92A9.58,9.58,0,0,0,15,49.73S11,49.4,7,44.59C4.19,41.3,2.92,36,2,30.71S.13,25.27.73,21.31C1,19.23,3.24,16.56,5.1,13.55c2-3.23,3.67-6,4.77-6.74C11.77,5.61,12.79,5.61,17.89,5Z"/><path class="a" d="M73.55,54.86a65.15,65.15,0,0,1-7,.33c-4.29-.08-6-2.37-6-2.37S51.62,55.92,50,62s2.08,9.07,4.29,9.91c1.23.47,11.34-1.17,14-1.37a8.27,8.27,0,0,1,1.39,0H74a22.85,22.85,0,0,0,3.9-.07,5.23,5.23,0,0,0,2.73-2,47.8,47.8,0,0,0,3.86-7.32c1.13-2.75,1.1-12.47,1.38-14.9a74,74,0,0,0-3-7.18l-.62-.66s-3,10.21-3.86,11.88C76.76,53.52,75.34,54.54,73.55,54.86Z"/><path class="b" d="M64.22,61.46s1.6-.15,2,3.21a4.88,4.88,0,0,1-1.71,4.77s-7.9,1.13-8.49.55.43-1.68.87-3.42a25.29,25.29,0,0,0,.33-5.1Z"/></svg>