<svg xmlns="http://www.w3.org/2000/svg" viewBox="0 0 101.41 67.83"><defs><style>.a{fill:#06b9e4;}.b{fill:none;stroke:#06b9e4;stroke-miterlimit:10;stroke-width:2.41px;}</style></defs><title>why-db</title><path class="a" d="M18.06,0H36.21V50.8H18.06ZM39.83,39.91H50.72v-29H39.83V0H61.61l7.26,7.26V43.54L61.61,50.8H39.83Z"/><polygon class="a" points="101.41 7.26 94.15 0 82.48 0 72.45 0 66.45 0 72.45 6.03 72.45 10.88 83.27 10.88 83.27 19.96 72.45 19.96 72.45 30.84 83.34 30.84 83.34 39.91 72.45 39.91 72.45 44.77 66.45 50.8 72.45 50.8 82.48 50.8 94.15 50.8 101.41 43.54 101.41 31.93 94.88 25.4 101.41 18.87 101.41 7.26"/><polyline class="b" points="2.87 54.59 13.24 54.59 13.24 64.96"/><line class="b" x1="13.24" y1="54.59" x2="0.85" y2="66.98"/></svg>